<svg xmlns="http://www.w3.org/2000/svg" xmlns:xlink="http://www.w3.org/1999/xlink" width="500" zoomAndPan="magnify" viewBox="0 0 375 374.999991" height="500" preserveAspectRatio="xMidYMid meet" version="1.0"><defs><g/><clipPath id="2063355e45"><path d="M 124 179 L 251 179 L 251 213.980469 L 124 213.980469 Z M 124 179 " clip-rule="nonzero"/></clipPath><clipPath id="bfd608664f"><path d="M 158 78.230469 L 217 78.230469 L 217 174 L 158 174 Z M 158 78.230469 " clip-rule="nonzero"/></clipPath></defs><rect x="-37.5" width="450" fill="#ffffff" y="-37.499999" height="449.999989" fill-opacity="1"/><rect x="-37.5" width="450" fill="#ffffff" y="-37.499999" height="449.999989" fill-opacity="1"/><g clip-path="url(#2063355e45)"><path fill="#ff914d" d="M 182.714844 179.289062 L 186.929688 179.289062 L 186.929688 183.503906 L 182.714844 183.503906 Z M 124.222656 214.273438 C 165.757812 206.085938 209.230469 206.085938 250.769531 214.273438 C 209.835938 198.726562 165.152344 198.726562 124.222656 214.273438 Z M 188.058594 179.289062 L 192.273438 179.289062 L 192.273438 183.503906 L 188.058594 183.503906 Z M 192.273438 184.632812 L 192.273438 188.847656 L 188.058594 188.847656 L 188.058594 184.632812 Z M 186.929688 188.847656 L 182.714844 188.847656 L 182.714844 184.632812 L 186.929688 184.632812 Z M 186.929688 188.847656 " fill-opacity="1" fill-rule="evenodd"/></g><path fill="#ff914d" d="M 187.355469 162.957031 L 144.808594 118.011719 L 139.464844 130.292969 L 118.476562 124.363281 L 124.121094 152.773438 L 114.039062 156.261719 L 144.648438 181.832031 C 150.292969 185.742188 150.917969 192.578125 146.582031 202.378906 C 153.660156 200.320312 160.414062 198.746094 166.828125 197.679688 L 166.828125 178 L 187.335938 163 Z M 187.355469 162.957031 " fill-opacity="1" fill-rule="evenodd"/><path fill="#ffd200" d="M 202.273438 173.867188 L 208.144531 178.160156 L 208.144531 197.839844 C 214.554688 198.910156 221.308594 200.480469 228.386719 202.539062 C 224.03125 192.757812 224.675781 185.902344 230.324219 181.992188 L 260.929688 156.425781 L 250.847656 152.9375 L 256.496094 124.527344 L 235.503906 130.472656 L 230.160156 118.195312 L 208.464844 140.859375 L 204.191406 148.84375 L 202.253906 173.824219 Z M 202.273438 173.867188 " fill-opacity="1" fill-rule="evenodd"/><g clip-path="url(#bfd608664f)"><path fill="#ffbd59" d="M 216.875 96.238281 L 202.71875 106.621094 L 187.617188 78.210938 L 172.515625 106.621094 L 158.359375 96.238281 L 166.847656 141.300781 L 187.335938 162.9375 L 202.234375 173.847656 C 207.09375 147.976562 211.972656 122.105469 216.832031 96.214844 Z M 216.875 96.238281 " fill-opacity="1" fill-rule="evenodd"/></g><path fill="#ffd200" d="M 202.273438 173.867188 L 213.890625 135.234375 L 208.484375 140.878906 Z M 202.273438 173.867188 " fill-opacity="0.231" fill-rule="evenodd"/><path fill="#ffd200" d="M 187.355469 162.957031 L 165.394531 133.4375 L 166.867188 141.300781 Z M 187.355469 162.957031 " fill-opacity="0.231" fill-rule="evenodd"/><g fill="#004aad" fill-opacity="1"><g transform="translate(53.033398, 256.529926)"><g><path d="M 16.6875 -12.796875 C 16.613281 -12.773438 16.578125 -12.734375 16.578125 -12.671875 C 16.578125 -12.617188 16.613281 -12.566406 16.6875 -12.515625 C 18.875 -11.421875 19.96875 -9.535156 19.96875 -6.859375 C 19.96875 -4.597656 19.195312 -2.890625 17.65625 -1.734375 C 16.113281 -0.578125 14.097656 0 11.609375 0 L 2.734375 0 C 2.335938 0 2.140625 -0.195312 2.140625 -0.59375 L 2.140625 -23.890625 C 2.140625 -24.285156 2.335938 -24.484375 2.734375 -24.484375 L 11.328125 -24.484375 C 16.859375 -24.484375 19.625 -22.242188 19.625 -17.765625 C 19.625 -15.410156 18.644531 -13.753906 16.6875 -12.796875 Z M 7.28125 -20.25 C 7.132812 -20.25 7.0625 -20.175781 7.0625 -20.03125 L 7.0625 -14.65625 C 7.0625 -14.507812 7.132812 -14.4375 7.28125 -14.4375 L 11.328125 -14.4375 C 12.421875 -14.4375 13.269531 -14.691406 13.875 -15.203125 C 14.488281 -15.722656 14.796875 -16.425781 14.796875 -17.3125 C 14.796875 -18.21875 14.488281 -18.929688 13.875 -19.453125 C 13.269531 -19.984375 12.421875 -20.25 11.328125 -20.25 Z M 11.609375 -4.265625 C 12.679688 -4.265625 13.519531 -4.535156 14.125 -5.078125 C 14.726562 -5.628906 15.03125 -6.382812 15.03125 -7.34375 C 15.03125 -8.300781 14.726562 -9.050781 14.125 -9.59375 C 13.519531 -10.144531 12.671875 -10.421875 11.578125 -10.421875 L 7.28125 -10.421875 C 7.132812 -10.421875 7.0625 -10.347656 7.0625 -10.203125 L 7.0625 -4.46875 C 7.0625 -4.332031 7.132812 -4.265625 7.28125 -4.265625 Z M 11.609375 -4.265625 "/></g></g></g><g fill="#004aad" fill-opacity="1"><g transform="translate(82.023684, 256.529926)"><g><path d="M 19.125 -20.84375 C 19.125 -20.445312 18.925781 -20.25 18.53125 -20.25 L 7.28125 -20.25 C 7.132812 -20.25 7.0625 -20.175781 7.0625 -20.03125 L 7.0625 -14.6875 C 7.0625 -14.550781 7.132812 -14.484375 7.28125 -14.484375 L 14.578125 -14.484375 C 14.972656 -14.484375 15.171875 -14.28125 15.171875 -13.875 L 15.171875 -10.84375 C 15.171875 -10.445312 14.972656 -10.25 14.578125 -10.25 L 7.28125 -10.25 C 7.132812 -10.25 7.0625 -10.175781 7.0625 -10.03125 L 7.0625 -4.4375 C 7.0625 -4.300781 7.132812 -4.234375 7.28125 -4.234375 L 18.53125 -4.234375 C 18.925781 -4.234375 19.125 -4.035156 19.125 -3.640625 L 19.125 -0.59375 C 19.125 -0.195312 18.925781 0 18.53125 0 L 2.734375 0 C 2.335938 0 2.140625 -0.195312 2.140625 -0.59375 L 2.140625 -23.890625 C 2.140625 -24.285156 2.335938 -24.484375 2.734375 -24.484375 L 18.53125 -24.484375 C 18.925781 -24.484375 19.125 -24.285156 19.125 -23.890625 Z M 19.125 -20.84375 "/></g></g></g><g fill="#004aad" fill-opacity="1"><g transform="translate(109.755097, 256.529926)"><g><path d="M 10.421875 0.28125 C 8.597656 0.28125 7 -0.0195312 5.625 -0.625 C 4.25 -1.226562 3.1875 -2.078125 2.4375 -3.171875 C 1.695312 -4.273438 1.328125 -5.5625 1.328125 -7.03125 L 1.328125 -7.625 C 1.328125 -8.019531 1.523438 -8.21875 1.921875 -8.21875 L 5.59375 -8.21875 C 5.988281 -8.21875 6.1875 -8.066406 6.1875 -7.765625 L 6.1875 -7.28125 C 6.1875 -6.34375 6.613281 -5.550781 7.46875 -4.90625 C 8.320312 -4.269531 9.4375 -3.953125 10.8125 -3.953125 C 12.039062 -3.953125 12.953125 -4.210938 13.546875 -4.734375 C 14.140625 -5.265625 14.4375 -5.910156 14.4375 -6.671875 C 14.4375 -7.234375 14.25 -7.707031 13.875 -8.09375 C 13.507812 -8.476562 13.007812 -8.816406 12.375 -9.109375 C 11.75 -9.398438 10.738281 -9.800781 9.34375 -10.3125 C 7.75 -10.851562 6.414062 -11.398438 5.34375 -11.953125 C 4.269531 -12.515625 3.359375 -13.28125 2.609375 -14.25 C 1.867188 -15.21875 1.5 -16.410156 1.5 -17.828125 C 1.5 -19.234375 1.859375 -20.457031 2.578125 -21.5 C 3.304688 -22.550781 4.316406 -23.359375 5.609375 -23.921875 C 6.898438 -24.484375 8.375 -24.765625 10.03125 -24.765625 C 11.800781 -24.765625 13.382812 -24.445312 14.78125 -23.8125 C 16.1875 -23.1875 17.28125 -22.304688 18.0625 -21.171875 C 18.84375 -20.046875 19.234375 -18.734375 19.234375 -17.234375 L 19.234375 -16.890625 C 19.234375 -16.492188 19.035156 -16.296875 18.640625 -16.296875 L 14.96875 -16.296875 C 14.570312 -16.296875 14.375 -16.410156 14.375 -16.640625 L 14.375 -17 C 14.375 -17.976562 13.96875 -18.8125 13.15625 -19.5 C 12.351562 -20.1875 11.253906 -20.53125 9.859375 -20.53125 C 8.742188 -20.53125 7.878906 -20.296875 7.265625 -19.828125 C 6.660156 -19.359375 6.359375 -18.71875 6.359375 -17.90625 C 6.359375 -17.320312 6.53125 -16.832031 6.875 -16.4375 C 7.226562 -16.039062 7.757812 -15.675781 8.46875 -15.34375 C 9.1875 -15.019531 10.289062 -14.601562 11.78125 -14.09375 C 13.414062 -13.488281 14.707031 -12.957031 15.65625 -12.5 C 16.613281 -12.039062 17.472656 -11.34375 18.234375 -10.40625 C 18.992188 -9.476562 19.375 -8.28125 19.375 -6.8125 C 19.375 -5.394531 19.003906 -4.148438 18.265625 -3.078125 C 17.535156 -2.003906 16.5 -1.175781 15.15625 -0.59375 C 13.8125 -0.0078125 12.234375 0.28125 10.421875 0.28125 Z M 10.421875 0.28125 "/></g></g></g><g fill="#004aad" fill-opacity="1"><g transform="translate(137.766261, 256.529926)"><g><path d="M 18.84375 -24.484375 C 19.238281 -24.484375 19.4375 -24.285156 19.4375 -23.890625 L 19.4375 -20.8125 C 19.4375 -20.414062 19.238281 -20.21875 18.84375 -20.21875 L 12.796875 -20.21875 C 12.660156 -20.21875 12.59375 -20.144531 12.59375 -20 L 12.59375 -0.59375 C 12.59375 -0.195312 12.394531 0 12 0 L 8.25 0 C 7.851562 0 7.65625 -0.195312 7.65625 -0.59375 L 7.65625 -20 C 7.65625 -20.144531 7.585938 -20.21875 7.453125 -20.21875 L 1.578125 -20.21875 C 1.179688 -20.21875 0.984375 -20.414062 0.984375 -20.8125 L 0.984375 -23.890625 C 0.984375 -24.285156 1.179688 -24.484375 1.578125 -24.484375 Z M 18.84375 -24.484375 "/></g></g></g><g fill="#004aad" fill-opacity="1"><g transform="translate(165.532636, 256.529926)"><g/></g></g><g fill="#004aad" fill-opacity="1"><g transform="translate(179.836079, 256.529926)"><g><path d="M 10.734375 0.28125 C 8.921875 0.28125 7.320312 -0.0703125 5.9375 -0.78125 C 4.5625 -1.5 3.5 -2.5 2.75 -3.78125 C 2.007812 -5.0625 1.640625 -6.539062 1.640625 -8.21875 L 1.640625 -16.296875 C 1.640625 -17.972656 2.007812 -19.453125 2.75 -20.734375 C 3.5 -22.015625 4.5625 -23.003906 5.9375 -23.703125 C 7.320312 -24.410156 8.921875 -24.765625 10.734375 -24.765625 C 12.523438 -24.765625 14.101562 -24.429688 15.46875 -23.765625 C 16.832031 -23.097656 17.894531 -22.148438 18.65625 -20.921875 C 19.414062 -19.703125 19.796875 -18.289062 19.796875 -16.6875 C 19.796875 -16.46875 19.609375 -16.335938 19.234375 -16.296875 L 15.484375 -16.046875 L 15.34375 -16.046875 C 15.019531 -16.046875 14.859375 -16.101562 14.859375 -16.21875 L 14.859375 -16.4375 C 14.859375 -17.664062 14.476562 -18.65625 13.71875 -19.40625 C 12.96875 -20.15625 11.972656 -20.53125 10.734375 -20.53125 C 9.472656 -20.53125 8.460938 -20.15625 7.703125 -19.40625 C 6.953125 -18.65625 6.578125 -17.664062 6.578125 -16.4375 L 6.578125 -8.015625 C 6.578125 -6.796875 6.953125 -5.8125 7.703125 -5.0625 C 8.460938 -4.320312 9.472656 -3.953125 10.734375 -3.953125 C 11.972656 -3.953125 12.96875 -4.320312 13.71875 -5.0625 C 14.476562 -5.8125 14.859375 -6.796875 14.859375 -8.015625 C 14.859375 -8.128906 14.910156 -8.222656 15.015625 -8.296875 C 15.117188 -8.378906 15.265625 -8.410156 15.453125 -8.390625 L 19.203125 -8.21875 C 19.597656 -8.164062 19.796875 -8.109375 19.796875 -8.046875 L 19.796875 -7.875 C 19.796875 -6.257812 19.414062 -4.832031 18.65625 -3.59375 C 17.894531 -2.363281 16.832031 -1.410156 15.46875 -0.734375 C 14.101562 -0.0546875 12.523438 0.28125 10.734375 0.28125 Z M 10.734375 0.28125 "/></g></g></g><g fill="#004aad" fill-opacity="1"><g transform="translate(208.406745, 256.529926)"><g><path d="M 15.140625 -23.890625 C 15.140625 -24.285156 15.335938 -24.484375 15.734375 -24.484375 L 19.484375 -24.484375 C 19.878906 -24.484375 20.078125 -24.285156 20.078125 -23.890625 L 20.078125 -0.59375 C 20.078125 -0.195312 19.878906 0 19.484375 0 L 15.734375 0 C 15.335938 0 15.140625 -0.195312 15.140625 -0.59375 L 15.140625 -10.03125 C 15.140625 -10.175781 15.070312 -10.25 14.9375 -10.25 L 7.28125 -10.25 C 7.132812 -10.25 7.0625 -10.175781 7.0625 -10.03125 L 7.0625 -0.59375 C 7.0625 -0.195312 6.863281 0 6.46875 0 L 2.734375 0 C 2.335938 0 2.140625 -0.195312 2.140625 -0.59375 L 2.140625 -23.890625 C 2.140625 -24.285156 2.335938 -24.484375 2.734375 -24.484375 L 6.46875 -24.484375 C 6.863281 -24.484375 7.0625 -24.285156 7.0625 -23.890625 L 7.0625 -14.6875 C 7.0625 -14.550781 7.132812 -14.484375 7.28125 -14.484375 L 14.9375 -14.484375 C 15.070312 -14.484375 15.140625 -14.550781 15.140625 -14.6875 Z M 15.140625 -23.890625 "/></g></g></g><g fill="#004aad" fill-opacity="1"><g transform="translate(237.676781, 256.529926)"><g><path d="M 10.84375 0.390625 C 9.019531 0.390625 7.414062 0.015625 6.03125 -0.734375 C 4.644531 -1.484375 3.566406 -2.523438 2.796875 -3.859375 C 2.023438 -5.203125 1.640625 -6.75 1.640625 -8.5 L 1.640625 -15.984375 C 1.640625 -17.703125 2.023438 -19.226562 2.796875 -20.5625 C 3.566406 -21.894531 4.644531 -22.925781 6.03125 -23.65625 C 7.414062 -24.394531 9.019531 -24.765625 10.84375 -24.765625 C 12.6875 -24.765625 14.300781 -24.394531 15.6875 -23.65625 C 17.070312 -22.925781 18.148438 -21.894531 18.921875 -20.5625 C 19.691406 -19.226562 20.078125 -17.703125 20.078125 -15.984375 L 20.078125 -8.5 C 20.078125 -6.75 19.691406 -5.195312 18.921875 -3.84375 C 18.148438 -2.488281 17.070312 -1.441406 15.6875 -0.703125 C 14.300781 0.0234375 12.6875 0.390625 10.84375 0.390625 Z M 10.84375 -3.84375 C 12.125 -3.84375 13.160156 -4.25 13.953125 -5.0625 C 14.742188 -5.882812 15.140625 -6.972656 15.140625 -8.328125 L 15.140625 -16.015625 C 15.140625 -17.367188 14.75 -18.457031 13.96875 -19.28125 C 13.1875 -20.113281 12.144531 -20.53125 10.84375 -20.53125 C 9.5625 -20.53125 8.53125 -20.113281 7.75 -19.28125 C 6.96875 -18.457031 6.578125 -17.367188 6.578125 -16.015625 L 6.578125 -8.328125 C 6.578125 -6.972656 6.96875 -5.882812 7.75 -5.0625 C 8.53125 -4.25 9.5625 -3.84375 10.84375 -3.84375 Z M 10.84375 -3.84375 "/></g></g></g><g fill="#004aad" fill-opacity="1"><g transform="translate(266.70204, 256.529926)"><g><path d="M 2.734375 0 C 2.335938 0 2.140625 -0.195312 2.140625 -0.59375 L 2.140625 -23.890625 C 2.140625 -24.285156 2.335938 -24.484375 2.734375 -24.484375 L 6.46875 -24.484375 C 6.863281 -24.484375 7.0625 -24.285156 7.0625 -23.890625 L 7.0625 -0.59375 C 7.0625 -0.195312 6.863281 0 6.46875 0 Z M 2.734375 0 "/></g></g></g><g fill="#004aad" fill-opacity="1"><g transform="translate(283.208494, 256.529926)"><g><path d="M 10.734375 0.28125 C 8.921875 0.28125 7.320312 -0.0703125 5.9375 -0.78125 C 4.5625 -1.5 3.5 -2.5 2.75 -3.78125 C 2.007812 -5.0625 1.640625 -6.539062 1.640625 -8.21875 L 1.640625 -16.296875 C 1.640625 -17.972656 2.007812 -19.453125 2.75 -20.734375 C 3.5 -22.015625 4.5625 -23.003906 5.9375 -23.703125 C 7.320312 -24.410156 8.921875 -24.765625 10.734375 -24.765625 C 12.523438 -24.765625 14.101562 -24.429688 15.46875 -23.765625 C 16.832031 -23.097656 17.894531 -22.148438 18.65625 -20.921875 C 19.414062 -19.703125 19.796875 -18.289062 19.796875 -16.6875 C 19.796875 -16.46875 19.609375 -16.335938 19.234375 -16.296875 L 15.484375 -16.046875 L 15.34375 -16.046875 C 15.019531 -16.046875 14.859375 -16.101562 14.859375 -16.21875 L 14.859375 -16.4375 C 14.859375 -17.664062 14.476562 -18.65625 13.71875 -19.40625 C 12.96875 -20.15625 11.972656 -20.53125 10.734375 -20.53125 C 9.472656 -20.53125 8.460938 -20.15625 7.703125 -19.40625 C 6.953125 -18.65625 6.578125 -17.664062 6.578125 -16.4375 L 6.578125 -8.015625 C 6.578125 -6.796875 6.953125 -5.8125 7.703125 -5.0625 C 8.460938 -4.320312 9.472656 -3.953125 10.734375 -3.953125 C 11.972656 -3.953125 12.96875 -4.320312 13.71875 -5.0625 C 14.476562 -5.8125 14.859375 -6.796875 14.859375 -8.015625 C 14.859375 -8.128906 14.910156 -8.222656 15.015625 -8.296875 C 15.117188 -8.378906 15.265625 -8.410156 15.453125 -8.390625 L 19.203125 -8.21875 C 19.597656 -8.164062 19.796875 -8.109375 19.796875 -8.046875 L 19.796875 -7.875 C 19.796875 -6.257812 19.414062 -4.832031 18.65625 -3.59375 C 17.894531 -2.363281 16.832031 -1.410156 15.46875 -0.734375 C 14.101562 -0.0546875 12.523438 0.28125 10.734375 0.28125 Z M 10.734375 0.28125 "/></g></g></g><g fill="#004aad" fill-opacity="1"><g transform="translate(311.77917, 256.529926)"><g><path d="M 19.125 -20.84375 C 19.125 -20.445312 18.925781 -20.25 18.53125 -20.25 L 7.28125 -20.25 C 7.132812 -20.25 7.0625 -20.175781 7.0625 -20.03125 L 7.0625 -14.6875 C 7.0625 -14.550781 7.132812 -14.484375 7.28125 -14.484375 L 14.578125 -14.484375 C 14.972656 -14.484375 15.171875 -14.28125 15.171875 -13.875 L 15.171875 -10.84375 C 15.171875 -10.445312 14.972656 -10.25 14.578125 -10.25 L 7.28125 -10.25 C 7.132812 -10.25 7.0625 -10.175781 7.0625 -10.03125 L 7.0625 -4.4375 C 7.0625 -4.300781 7.132812 -4.234375 7.28125 -4.234375 L 18.53125 -4.234375 C 18.925781 -4.234375 19.125 -4.035156 19.125 -3.640625 L 19.125 -0.59375 C 19.125 -0.195312 18.925781 0 18.53125 0 L 2.734375 0 C 2.335938 0 2.140625 -0.195312 2.140625 -0.59375 L 2.140625 -23.890625 C 2.140625 -24.285156 2.335938 -24.484375 2.734375 -24.484375 L 18.53125 -24.484375 C 18.925781 -24.484375 19.125 -24.285156 19.125 -23.890625 Z M 19.125 -20.84375 "/></g></g></g><g fill="#004aad" fill-opacity="1"><g transform="translate(127.242227, 289.987071)"><g><path d="M 10.484375 0.25 C 9.890625 0.25 9.378906 0.0703125 8.953125 -0.28125 C 8.535156 -0.632812 8.328125 -1.144531 8.328125 -1.8125 C 8.328125 -2.488281 8.613281 -4 9.1875 -6.34375 C 8.769531 -6.4375 8.273438 -6.484375 7.703125 -6.484375 C 7.140625 -6.484375 6.535156 -6.398438 5.890625 -6.234375 C 5.242188 -3.472656 4.910156 -1.550781 4.890625 -0.46875 C 4.285156 -0.113281 3.066406 0.0625 1.234375 0.0625 L 0.84375 0.0625 C 0.84375 -0.71875 1.226562 -2.679688 2 -5.828125 C 2.78125 -8.972656 3.171875 -11.03125 3.171875 -12 C 3.171875 -12.238281 3.097656 -12.492188 2.953125 -12.765625 C 2.804688 -13.046875 2.660156 -13.269531 2.515625 -13.4375 L 2.296875 -13.6875 L 2.328125 -14.09375 C 3.242188 -14.375 4.769531 -14.515625 6.90625 -14.515625 C 7.125 -14.222656 7.234375 -13.757812 7.234375 -13.125 C 7.234375 -12.5 6.925781 -10.832031 6.3125 -8.125 L 9.59375 -8.125 C 10.09375 -10.257812 10.34375 -11.957031 10.34375 -13.21875 C 10.34375 -13.457031 10.335938 -13.65625 10.328125 -13.8125 C 11.660156 -14.28125 12.945312 -14.515625 14.1875 -14.515625 C 14.289062 -14.421875 14.34375 -14.078125 14.34375 -13.484375 C 14.34375 -12.890625 14.003906 -11.113281 13.328125 -8.15625 C 12.648438 -5.195312 12.3125 -3.296875 12.3125 -2.453125 C 12.3125 -2.171875 12.398438 -2.03125 12.578125 -2.03125 C 12.921875 -2.03125 13.289062 -2.117188 13.6875 -2.296875 L 14.140625 -1.140625 C 13.640625 -0.722656 13.050781 -0.382812 12.375 -0.125 C 11.707031 0.125 11.078125 0.25 10.484375 0.25 Z M 10.484375 0.25 "/></g></g></g><g fill="#004aad" fill-opacity="1"><g transform="translate(141.80203, 289.987071)"><g><path d="M 3.84375 0.25 C 2.78125 0.25 1.941406 -0.0859375 1.328125 -0.765625 C 0.710938 -1.441406 0.40625 -2.394531 0.40625 -3.625 C 0.40625 -5.125 0.847656 -6.394531 1.734375 -7.4375 C 2.617188 -8.476562 3.785156 -9 5.234375 -9 L 6.15625 -8.921875 C 6.476562 -9.015625 6.785156 -9.0625 7.078125 -9.0625 C 7.753906 -9.0625 8.238281 -8.828125 8.53125 -8.359375 C 8.832031 -7.898438 9.003906 -7.238281 9.046875 -6.375 C 9.617188 -6.40625 10.160156 -6.492188 10.671875 -6.640625 L 10.96875 -6.734375 C 11.0625 -6.628906 11.128906 -6.34375 11.171875 -5.875 L 11.1875 -5.640625 C 10.570312 -5.328125 9.820312 -5.082031 8.9375 -4.90625 C 8.632812 -3.457031 8.039062 -2.234375 7.15625 -1.234375 C 6.269531 -0.242188 5.164062 0.25 3.84375 0.25 Z M 4.25 -3.703125 C 4.25 -2.429688 4.570312 -1.796875 5.21875 -1.796875 C 5.664062 -1.796875 6.125 -2.082031 6.59375 -2.65625 C 7.0625 -3.226562 7.382812 -3.925781 7.5625 -4.75 C 6.175781 -4.75 5.484375 -5.414062 5.484375 -6.75 C 5.484375 -6.976562 5.503906 -7.21875 5.546875 -7.46875 C 5.410156 -7.46875 5.304688 -7.445312 5.234375 -7.40625 C 5.003906 -7.15625 4.78125 -6.660156 4.5625 -5.921875 C 4.351562 -5.179688 4.25 -4.441406 4.25 -3.703125 Z M 4.25 -3.703125 "/></g></g></g><g fill="#004aad" fill-opacity="1"><g transform="translate(150.922352, 289.987071)"><g><path d="M 1.234375 0.125 L 0.71875 0.125 C 0.71875 -0.84375 0.90625 -2.195312 1.28125 -3.9375 C 1.65625 -5.675781 1.84375 -6.640625 1.84375 -6.828125 C 1.84375 -7.023438 1.78125 -7.238281 1.65625 -7.46875 C 1.53125 -7.695312 1.40625 -7.875 1.28125 -8 L 1.109375 -8.1875 L 1.140625 -8.484375 C 1.929688 -8.742188 3.332031 -8.875 5.34375 -8.875 C 5.488281 -8.5625 5.585938 -8.226562 5.640625 -7.875 C 6.828125 -8.65625 7.832031 -9.046875 8.65625 -9.046875 C 9.09375 -9.046875 9.460938 -8.925781 9.765625 -8.6875 C 10.078125 -8.457031 10.289062 -8.148438 10.40625 -7.765625 C 11.539062 -8.617188 12.578125 -9.046875 13.515625 -9.046875 C 14.128906 -9.046875 14.609375 -8.859375 14.953125 -8.484375 C 15.304688 -8.109375 15.484375 -7.65625 15.484375 -7.125 C 15.484375 -6.601562 15.332031 -5.753906 15.03125 -4.578125 C 14.726562 -3.410156 14.578125 -2.660156 14.578125 -2.328125 C 14.578125 -1.992188 14.632812 -1.828125 14.75 -1.828125 L 15.8125 -2.09375 L 16.171875 -1.0625 C 15.765625 -0.738281 15.203125 -0.4375 14.484375 -0.15625 C 13.773438 0.113281 13.132812 0.25 12.5625 0.25 C 11.382812 0.25 10.796875 -0.34375 10.796875 -1.53125 C 10.796875 -2.039062 10.9375 -2.898438 11.21875 -4.109375 C 11.507812 -5.328125 11.65625 -6.066406 11.65625 -6.328125 C 11.65625 -6.597656 11.550781 -6.734375 11.34375 -6.734375 C 11.0625 -6.734375 10.757812 -6.613281 10.4375 -6.375 C 10.394531 -6.175781 10.285156 -5.6875 10.109375 -4.90625 C 9.722656 -3.164062 9.53125 -1.617188 9.53125 -0.265625 C 8.90625 -0.0351562 7.6875 0.078125 5.875 0.078125 C 5.832031 -0.0664062 5.8125 -0.421875 5.8125 -0.984375 C 5.8125 -1.546875 5.957031 -2.535156 6.25 -3.953125 C 6.550781 -5.367188 6.703125 -6.1875 6.703125 -6.40625 C 6.703125 -6.625 6.609375 -6.734375 6.421875 -6.734375 C 6.191406 -6.734375 5.890625 -6.625 5.515625 -6.40625 C 5.484375 -6.164062 5.359375 -5.570312 5.140625 -4.625 C 4.671875 -2.613281 4.4375 -1.15625 4.4375 -0.25 C 3.800781 0 2.734375 0.125 1.234375 0.125 Z M 1.234375 0.125 "/></g></g></g><g fill="#004aad" fill-opacity="1"><g transform="translate(167.077186, 289.987071)"><g><path d="M 0.40625 -3.703125 C 0.40625 -5.390625 0.921875 -6.703125 1.953125 -7.640625 C 2.984375 -8.585938 4.253906 -9.0625 5.765625 -9.0625 C 6.816406 -9.0625 7.660156 -8.832031 8.296875 -8.375 C 8.929688 -7.914062 9.25 -7.304688 9.25 -6.546875 C 9.25 -5.984375 9.078125 -5.484375 8.734375 -5.046875 C 8.390625 -4.609375 7.972656 -4.273438 7.484375 -4.046875 C 6.453125 -3.585938 5.550781 -3.3125 4.78125 -3.21875 L 4.28125 -3.15625 C 4.425781 -2.25 4.875 -1.796875 5.625 -1.796875 C 5.945312 -1.796875 6.304688 -1.867188 6.703125 -2.015625 C 7.097656 -2.160156 7.414062 -2.304688 7.65625 -2.453125 L 8 -2.65625 L 8.65625 -1.78125 C 8.65625 -1.78125 8.578125 -1.703125 8.421875 -1.546875 C 8.335938 -1.472656 8.144531 -1.316406 7.84375 -1.078125 C 7.539062 -0.835938 7.21875 -0.628906 6.875 -0.453125 C 6.539062 -0.273438 6.113281 -0.113281 5.59375 0.03125 C 5.082031 0.175781 4.566406 0.25 4.046875 0.25 C 2.890625 0.25 1.992188 -0.0859375 1.359375 -0.765625 C 0.722656 -1.441406 0.40625 -2.421875 0.40625 -3.703125 Z M 4.1875 -4.5 C 4.582031 -4.550781 4.976562 -4.875 5.375 -5.46875 C 5.769531 -6.0625 5.96875 -6.554688 5.96875 -6.953125 C 5.96875 -7.359375 5.851562 -7.5625 5.625 -7.5625 C 5.28125 -7.5625 4.960938 -7.296875 4.671875 -6.765625 C 4.390625 -6.234375 4.226562 -5.476562 4.1875 -4.5 Z M 4.1875 -4.5 "/></g></g></g><g fill="#004aad" fill-opacity="1"><g transform="translate(175.993026, 289.987071)"><g/></g></g><g fill="#004aad" fill-opacity="1"><g transform="translate(180.082858, 289.987071)"><g><path d="M 9.671875 -3.75 C 9.671875 -2.613281 9.128906 -1.660156 8.046875 -0.890625 C 6.960938 -0.128906 5.707031 0.25 4.28125 0.25 C 3.15625 0.25 2.207031 0.0078125 1.4375 -0.46875 C 0.664062 -0.945312 0.28125 -1.40625 0.28125 -1.84375 C 0.5 -2.375 0.914062 -2.945312 1.53125 -3.5625 C 2.144531 -4.175781 2.710938 -4.492188 3.234375 -4.515625 C 3.578125 -4.367188 3.894531 -4 4.1875 -3.40625 C 4.476562 -2.8125 4.710938 -2.125 4.890625 -1.34375 C 5.628906 -1.375 6 -1.789062 6 -2.59375 C 6 -3.125 5.796875 -3.773438 5.390625 -4.546875 C 4.984375 -5.316406 4.539062 -6.035156 4.0625 -6.703125 C 3.59375 -7.367188 3.15625 -8.113281 2.75 -8.9375 C 2.34375 -9.757812 2.140625 -10.472656 2.140625 -11.078125 C 2.140625 -12.085938 2.601562 -12.910156 3.53125 -13.546875 C 4.457031 -14.191406 5.488281 -14.515625 6.625 -14.515625 C 7.769531 -14.515625 8.660156 -14.269531 9.296875 -13.78125 C 9.929688 -13.289062 10.25 -12.726562 10.25 -12.09375 C 10.25 -11.5625 10.140625 -11.132812 9.921875 -10.8125 C 9.703125 -10.488281 9.523438 -10.238281 9.390625 -10.0625 C 9.265625 -9.894531 9.09375 -9.71875 8.875 -9.53125 C 8.46875 -9.175781 8.15625 -8.914062 7.9375 -8.75 L 7.625 -8.53125 C 8.425781 -7.53125 9.035156 -6.367188 9.453125 -5.046875 C 9.597656 -4.578125 9.671875 -4.144531 9.671875 -3.75 Z M 8.609375 -11.9375 C 8.609375 -12.582031 8.203125 -12.90625 7.390625 -12.90625 C 6.910156 -12.90625 6.519531 -12.800781 6.21875 -12.59375 C 5.925781 -12.394531 5.78125 -12.140625 5.78125 -11.828125 C 5.78125 -11.523438 5.90625 -11.15625 6.15625 -10.71875 C 6.414062 -10.28125 6.617188 -9.972656 6.765625 -9.796875 C 7.097656 -9.960938 7.488281 -10.257812 7.9375 -10.6875 C 8.382812 -11.125 8.609375 -11.539062 8.609375 -11.9375 Z M 8.609375 -11.9375 "/></g></g></g><g fill="#004aad" fill-opacity="1"><g transform="translate(190.471037, 289.987071)"><g><path d="M 0.40625 -3.703125 C 0.40625 -5.390625 0.921875 -6.703125 1.953125 -7.640625 C 2.984375 -8.585938 4.253906 -9.0625 5.765625 -9.0625 C 6.816406 -9.0625 7.660156 -8.832031 8.296875 -8.375 C 8.929688 -7.914062 9.25 -7.304688 9.25 -6.546875 C 9.25 -5.984375 9.078125 -5.484375 8.734375 -5.046875 C 8.390625 -4.609375 7.972656 -4.273438 7.484375 -4.046875 C 6.453125 -3.585938 5.550781 -3.3125 4.78125 -3.21875 L 4.28125 -3.15625 C 4.425781 -2.25 4.875 -1.796875 5.625 -1.796875 C 5.945312 -1.796875 6.304688 -1.867188 6.703125 -2.015625 C 7.097656 -2.160156 7.414062 -2.304688 7.65625 -2.453125 L 8 -2.65625 L 8.65625 -1.78125 C 8.65625 -1.78125 8.578125 -1.703125 8.421875 -1.546875 C 8.335938 -1.472656 8.144531 -1.316406 7.84375 -1.078125 C 7.539062 -0.835938 7.21875 -0.628906 6.875 -0.453125 C 6.539062 -0.273438 6.113281 -0.113281 5.59375 0.03125 C 5.082031 0.175781 4.566406 0.25 4.046875 0.25 C 2.890625 0.25 1.992188 -0.0859375 1.359375 -0.765625 C 0.722656 -1.441406 0.40625 -2.421875 0.40625 -3.703125 Z M 4.1875 -4.5 C 4.582031 -4.550781 4.976562 -4.875 5.375 -5.46875 C 5.769531 -6.0625 5.96875 -6.554688 5.96875 -6.953125 C 5.96875 -7.359375 5.851562 -7.5625 5.625 -7.5625 C 5.28125 -7.5625 4.960938 -7.296875 4.671875 -6.765625 C 4.390625 -6.234375 4.226562 -5.476562 4.1875 -4.5 Z M 4.1875 -4.5 "/></g></g></g><g fill="#004aad" fill-opacity="1"><g transform="translate(199.386877, 289.987071)"><g><path d="M 1 0.125 L 0.84375 0.125 C 0.800781 -0.0625 0.78125 -0.359375 0.78125 -0.765625 C 0.78125 -1.171875 0.945312 -2.210938 1.28125 -3.890625 C 1.613281 -5.578125 1.78125 -6.53125 1.78125 -6.75 C 1.78125 -6.976562 1.71875 -7.210938 1.59375 -7.453125 C 1.46875 -7.691406 1.347656 -7.875 1.234375 -8 L 1.046875 -8.1875 L 1.078125 -8.484375 C 1.898438 -8.742188 3.257812 -8.875 5.15625 -8.875 C 5.332031 -8.53125 5.441406 -8.128906 5.484375 -7.671875 C 6.316406 -8.597656 7.050781 -9.0625 7.6875 -9.0625 C 8.519531 -9.0625 8.976562 -8.359375 9.0625 -6.953125 C 9.03125 -6.921875 8.992188 -6.875 8.953125 -6.8125 C 8.910156 -6.757812 8.816406 -6.65625 8.671875 -6.5 C 8.523438 -6.351562 8.367188 -6.21875 8.203125 -6.09375 C 7.734375 -5.78125 7.242188 -5.597656 6.734375 -5.546875 C 6.710938 -5.546875 6.617188 -5.691406 6.453125 -5.984375 C 6.285156 -6.285156 6.140625 -6.4375 6.015625 -6.4375 C 5.898438 -6.4375 5.6875 -6.316406 5.375 -6.078125 C 5.332031 -5.828125 5.253906 -5.410156 5.140625 -4.828125 C 5.023438 -4.242188 4.9375 -3.757812 4.875 -3.375 C 4.664062 -2.363281 4.5625 -1.519531 4.5625 -0.84375 L 4.578125 -0.21875 C 3.984375 0.0078125 2.789062 0.125 1 0.125 Z M 1 0.125 "/></g></g></g><g fill="#004aad" fill-opacity="1"><g transform="translate(207.402947, 289.987071)"><g><path d="M 1 -2.328125 L 1.265625 -6.609375 C 1.265625 -6.972656 1.210938 -7.257812 1.109375 -7.46875 C 1.015625 -7.6875 0.804688 -7.984375 0.484375 -8.359375 L 0.578125 -8.671875 C 1.617188 -8.921875 2.488281 -9.046875 3.1875 -9.046875 C 3.882812 -9.046875 4.375 -8.882812 4.65625 -8.5625 C 4.9375 -8.238281 5.078125 -7.78125 5.078125 -7.1875 C 5.078125 -6.601562 4.96875 -5.742188 4.75 -4.609375 C 4.539062 -3.484375 4.4375 -2.738281 4.4375 -2.375 C 4.4375 -2.019531 4.539062 -1.84375 4.75 -1.84375 C 5.070312 -1.84375 5.492188 -2.148438 6.015625 -2.765625 C 6.546875 -3.390625 6.894531 -4.003906 7.0625 -4.609375 L 5.546875 -6.046875 C 5.597656 -6.617188 5.71875 -7.15625 5.90625 -7.65625 C 6.101562 -8.15625 6.273438 -8.507812 6.421875 -8.71875 L 6.671875 -9.046875 C 8.316406 -9.046875 9.140625 -8.363281 9.140625 -7 C 9.140625 -6.113281 8.867188 -5.113281 8.328125 -4 C 7.796875 -2.882812 7.046875 -1.894531 6.078125 -1.03125 C 5.109375 -0.175781 4.101562 0.25 3.0625 0.25 C 1.6875 0.25 1 -0.609375 1 -2.328125 Z M 1 -2.328125 "/></g></g></g><g fill="#004aad" fill-opacity="1"><g transform="translate(216.134743, 289.987071)"><g><path d="M 5.5 -7.671875 C 5.5 -7.066406 5.328125 -6.132812 4.984375 -4.875 C 4.648438 -3.613281 4.484375 -2.789062 4.484375 -2.40625 C 4.484375 -2.03125 4.554688 -1.84375 4.703125 -1.84375 C 4.847656 -1.84375 5.117188 -1.910156 5.515625 -2.046875 L 5.703125 -2.125 L 6.078125 -1.109375 C 5.609375 -0.753906 5.03125 -0.4375 4.34375 -0.15625 C 3.65625 0.113281 3.03125 0.25 2.46875 0.25 C 1.914062 0.25 1.476562 0.09375 1.15625 -0.21875 C 0.832031 -0.539062 0.671875 -0.992188 0.671875 -1.578125 C 0.671875 -2.171875 0.835938 -3.078125 1.171875 -4.296875 C 1.503906 -5.523438 1.671875 -6.300781 1.671875 -6.625 C 1.671875 -7.132812 1.492188 -7.613281 1.140625 -8.0625 L 0.984375 -8.28125 L 1.046875 -8.625 C 1.753906 -8.84375 3.128906 -8.953125 5.171875 -8.953125 C 5.390625 -8.710938 5.5 -8.285156 5.5 -7.671875 Z M 3.96875 -10.546875 C 3.351562 -10.546875 2.867188 -10.707031 2.515625 -11.03125 C 2.171875 -11.363281 2 -11.785156 2 -12.296875 C 2 -12.804688 2.210938 -13.234375 2.640625 -13.578125 C 3.078125 -13.929688 3.601562 -14.109375 4.21875 -14.109375 C 4.832031 -14.109375 5.304688 -13.960938 5.640625 -13.671875 C 5.984375 -13.390625 6.15625 -12.988281 6.15625 -12.46875 C 6.15625 -11.957031 5.945312 -11.507812 5.53125 -11.125 C 5.113281 -10.738281 4.59375 -10.546875 3.96875 -10.546875 Z M 3.96875 -10.546875 "/></g></g></g><g fill="#004aad" fill-opacity="1"><g transform="translate(222.269497, 289.987071)"><g><path d="M 5.765625 -7.6875 C 5.347656 -7.6875 4.988281 -7.3125 4.6875 -6.5625 C 4.382812 -5.8125 4.234375 -5.054688 4.234375 -4.296875 C 4.234375 -2.617188 4.71875 -1.78125 5.6875 -1.78125 C 6.300781 -1.78125 6.992188 -2.070312 7.765625 -2.65625 L 8.421875 -1.765625 C 7.847656 -1.128906 7.160156 -0.632812 6.359375 -0.28125 C 5.566406 0.0703125 4.773438 0.25 3.984375 0.25 C 2.921875 0.25 2.054688 -0.0703125 1.390625 -0.71875 C 0.734375 -1.375 0.40625 -2.351562 0.40625 -3.65625 C 0.40625 -5.238281 0.890625 -6.535156 1.859375 -7.546875 C 2.835938 -8.554688 4.117188 -9.0625 5.703125 -9.0625 C 6.722656 -9.0625 7.523438 -8.851562 8.109375 -8.4375 C 8.703125 -8.019531 9 -7.492188 9 -6.859375 C 9 -6.222656 8.804688 -5.675781 8.421875 -5.21875 C 7.972656 -5.21875 7.484375 -5.300781 6.953125 -5.46875 C 6.429688 -5.644531 6.015625 -5.859375 5.703125 -6.109375 L 6.015625 -7.65625 C 5.929688 -7.675781 5.847656 -7.6875 5.765625 -7.6875 Z M 5.765625 -7.6875 "/></g></g></g><g fill="#004aad" fill-opacity="1"><g transform="translate(230.939941, 289.987071)"><g><path d="M 0.40625 -3.703125 C 0.40625 -5.390625 0.921875 -6.703125 1.953125 -7.640625 C 2.984375 -8.585938 4.253906 -9.0625 5.765625 -9.0625 C 6.816406 -9.0625 7.660156 -8.832031 8.296875 -8.375 C 8.929688 -7.914062 9.25 -7.304688 9.25 -6.546875 C 9.25 -5.984375 9.078125 -5.484375 8.734375 -5.046875 C 8.390625 -4.609375 7.972656 -4.273438 7.484375 -4.046875 C 6.453125 -3.585938 5.550781 -3.3125 4.78125 -3.21875 L 4.28125 -3.15625 C 4.425781 -2.25 4.875 -1.796875 5.625 -1.796875 C 5.945312 -1.796875 6.304688 -1.867188 6.703125 -2.015625 C 7.097656 -2.160156 7.414062 -2.304688 7.65625 -2.453125 L 8 -2.65625 L 8.65625 -1.78125 C 8.65625 -1.78125 8.578125 -1.703125 8.421875 -1.546875 C 8.335938 -1.472656 8.144531 -1.316406 7.84375 -1.078125 C 7.539062 -0.835938 7.21875 -0.628906 6.875 -0.453125 C 6.539062 -0.273438 6.113281 -0.113281 5.59375 0.03125 C 5.082031 0.175781 4.566406 0.25 4.046875 0.25 C 2.890625 0.25 1.992188 -0.0859375 1.359375 -0.765625 C 0.722656 -1.441406 0.40625 -2.421875 0.40625 -3.703125 Z M 4.1875 -4.5 C 4.582031 -4.550781 4.976562 -4.875 5.375 -5.46875 C 5.769531 -6.0625 5.96875 -6.554688 5.96875 -6.953125 C 5.96875 -7.359375 5.851562 -7.5625 5.625 -7.5625 C 5.28125 -7.5625 4.960938 -7.296875 4.671875 -6.765625 C 4.390625 -6.234375 4.226562 -5.476562 4.1875 -4.5 Z M 4.1875 -4.5 "/></g></g></g><g fill="#004aad" fill-opacity="1"><g transform="translate(239.85578, 289.987071)"><g><path d="M 7.53125 -2.765625 C 7.53125 -1.921875 7.132812 -1.207031 6.34375 -0.625 C 5.5625 -0.0390625 4.644531 0.25 3.59375 0.25 C 2.550781 0.25 1.691406 0.0703125 1.015625 -0.28125 C 0.335938 -0.632812 0 -0.972656 0 -1.296875 C 0 -1.617188 0.207031 -2.023438 0.625 -2.515625 C 1.039062 -3.015625 1.46875 -3.304688 1.90625 -3.390625 C 2.53125 -3.054688 3.09375 -2.300781 3.59375 -1.125 C 3.988281 -1.125 4.1875 -1.253906 4.1875 -1.515625 C 4.1875 -1.703125 4.128906 -1.878906 4.015625 -2.046875 C 3.910156 -2.210938 3.832031 -2.34375 3.78125 -2.4375 C 3.726562 -2.53125 3.632812 -2.660156 3.5 -2.828125 C 3.363281 -3.003906 3.257812 -3.132812 3.1875 -3.21875 C 2.84375 -3.625 2.535156 -4 2.265625 -4.34375 C 1.609375 -5.15625 1.28125 -5.867188 1.28125 -6.484375 C 1.28125 -7.109375 1.476562 -7.617188 1.875 -8.015625 C 2.5625 -8.710938 3.566406 -9.0625 4.890625 -9.0625 C 5.722656 -9.0625 6.382812 -8.898438 6.875 -8.578125 C 7.363281 -8.253906 7.609375 -7.773438 7.609375 -7.140625 C 7.609375 -6.515625 7.234375 -5.789062 6.484375 -4.96875 C 7.179688 -4.164062 7.53125 -3.429688 7.53125 -2.765625 Z M 6.15625 -6.515625 C 6.320312 -6.765625 6.40625 -6.988281 6.40625 -7.1875 C 6.40625 -7.394531 6.316406 -7.550781 6.140625 -7.65625 C 5.960938 -7.769531 5.75 -7.828125 5.5 -7.828125 C 5.257812 -7.828125 5.070312 -7.769531 4.9375 -7.65625 C 4.8125 -7.539062 4.75 -7.382812 4.75 -7.1875 C 4.75 -7 5.039062 -6.582031 5.625 -5.9375 C 5.8125 -6.070312 5.988281 -6.265625 6.15625 -6.515625 Z M 6.15625 -6.515625 "/></g></g></g></svg>