<svg xmlns="http://www.w3.org/2000/svg" xmlns:xlink="http://www.w3.org/1999/xlink" width="500" zoomAndPan="magnify" viewBox="0 0 375 374.999991" height="500" preserveAspectRatio="xMidYMid meet" version="1.0"><defs><g/><clipPath id="632658f3ca"><path d="M 55.199219 4.820312 L 319.949219 4.820312 L 319.949219 261.320312 L 55.199219 261.320312 Z M 55.199219 4.820312 " clip-rule="nonzero"/></clipPath></defs><g clip-path="url(#632658f3ca)"><path fill="#8e24d8" d="M 319.796875 105.664062 L 277.488281 32.382812 L 229.808594 59.910156 L 229.808594 4.855469 L 145.191406 4.855469 L 145.191406 59.910156 L 97.511719 32.382812 L 55.203125 105.664062 L 102.882812 133.191406 L 55.203125 160.71875 L 97.511719 234 L 145.191406 206.472656 L 145.191406 261.527344 L 229.808594 261.527344 L 229.808594 206.472656 L 277.488281 234 L 319.796875 160.71875 L 272.117188 133.191406 Z M 319.796875 105.664062 " fill-opacity="1" fill-rule="nonzero"/></g><path fill="#ffffff" d="M 261.023438 91.445312 C 240.972656 85.542969 220.101562 65.496094 215.03125 70.246094 C 208.261719 75.988281 199.71875 79.234375 191.082031 80.941406 C 191.050781 71.128906 190.871094 74.234375 193.179688 71.539062 C 196.550781 68.695312 196.464844 63.042969 193.390625 60.015625 C 187.648438 54.011719 177.933594 59.6875 179.394531 67.097656 C 179.671875 69.804688 181.832031 71.59375 183.695312 73.308594 C 184.128906 75.820312 183.875 78.390625 183.945312 80.933594 C 176.585938 79.515625 169.371094 76.882812 163.125 72.683594 C 161.160156 71.445312 159.460938 68.828125 156.808594 69.632812 C 147.417969 71.851562 132.367188 85.535156 115.105469 91.105469 C 110.140625 92.847656 104.769531 92.476562 99.726562 93.875 L 99.726562 94.472656 C 105.296875 96.445312 111.480469 96.316406 117.230469 95.222656 C 119.027344 96.757812 117.382812 98.910156 129.90625 94.890625 C 132.390625 97.390625 135.875 95.699219 138.742188 94.957031 C 140.277344 94.386719 141.832031 95.1875 143.347656 95.417969 C 145.4375 96 147.519531 95.101562 149.589844 94.921875 C 151.449219 95.027344 153.28125 95.550781 155.152344 95.371094 C 157.128906 95.214844 158.929688 94.300781 160.832031 93.8125 C 162.621094 93.992188 164.40625 94.710938 166.230469 94.359375 C 168.132812 94.050781 169.769531 92.980469 171.53125 92.273438 C 175.300781 92.085938 174.714844 94.730469 184.050781 88.558594 C 184.257812 104.019531 184.578125 119.488281 184.683594 134.957031 C 170.992188 129.433594 153.097656 127.960938 150.453125 122.523438 C 149.398438 118.476562 152.960938 114.800781 156.574219 113.65625 C 160.621094 112.820312 164.828125 113.445312 168.90625 112.714844 C 173.203125 111.945312 174.96875 110.539062 178.910156 107.152344 C 179.230469 106.878906 179.171875 106.367188 178.796875 106.175781 C 173.0625 103.191406 173.648438 106.09375 164.285156 101.972656 C 162.335938 101.113281 160.128906 103.910156 156.820312 105.398438 C 152.398438 107.460938 147.960938 110.101562 145.265625 114.308594 C 142.371094 118.703125 143.046875 124.863281 146.316406 128.871094 C 152.296875 136.214844 165.722656 137.699219 178.433594 141.089844 C 176.523438 142.695312 174.582031 144.289062 173.007812 146.242188 C 168.84375 151.296875 166.914062 158.214844 168.050781 164.683594 C 169.441406 170.910156 175.191406 174.605469 180.34375 177.589844 C 176.53125 180.164062 172.726562 183.128906 170.625 187.339844 C 164.613281 199.964844 174.0625 205.09375 184.601562 212.808594 C 181.15625 217.136719 176.230469 224.441406 179.046875 229.234375 C 180.351562 224.480469 179.1875 222.691406 185.828125 216.390625 C 186.019531 221.371094 185.976562 226.355469 186.046875 231.339844 C 187.015625 231.339844 187.984375 231.347656 188.953125 231.347656 C 188.988281 226.355469 189.03125 221.355469 189.136719 216.363281 C 196.070312 223.058594 194.492188 224.328125 195.976562 229.191406 C 196.496094 227.933594 197.050781 226.605469 196.71875 225.222656 C 196.179688 220.449219 193.335938 216.398438 190.332031 212.808594 C 200.117188 205.890625 208.628906 200.988281 205.511719 190.347656 C 204.035156 184.671875 199.347656 180.71875 194.691406 177.558594 C 205.246094 171.589844 209.585938 165.960938 206.214844 154.042969 C 204.691406 148.707031 200.835938 144.460938 196.585938 141.0625 C 205.835938 138.554688 215.664062 137.429688 224.152344 132.71875 C 231.632812 128.703125 238.398438 114.96875 218.65625 105.636719 C 216.390625 104.675781 214.46875 102.441406 212.03125 101.960938 C 209.894531 101.539062 208.347656 103.671875 204.894531 104.097656 C 200.34375 104.660156 193.890625 105.265625 196.339844 107.394531 C 198.429688 109.207031 200.980469 111.488281 203.707031 112.222656 C 208.171875 113.421875 212.835938 112.9375 217.378906 113.429688 C 221.332031 114.109375 225.234375 117.664062 224.671875 121.945312 C 223.238281 127.75 205.054688 129.144531 190.328125 134.929688 C 190.394531 119.460938 190.792969 103.992188 190.914062 88.523438 C 199.929688 94.480469 199.335938 92.261719 203.445312 92.246094 C 205.210938 92.976562 206.839844 94.105469 208.769531 94.351562 C 210.601562 94.660156 212.390625 94.015625 214.203125 93.839844 C 216.078125 94.308594 217.863281 95.195312 219.8125 95.363281 C 221.71875 95.59375 223.578125 95.011719 225.46875 94.90625 C 227.515625 95.136719 229.574219 95.980469 231.644531 95.410156 C 233.15625 95.179688 234.699219 94.402344 236.238281 94.949219 C 239.101562 95.65625 242.578125 97.414062 245.042969 94.886719 C 256.582031 98.867188 256.261719 96.824219 257.753906 95.242188 C 263.523438 96.421875 269.585938 96.199219 275.273438 94.667969 L 275.273438 93.992188 C 270.664062 92.390625 265.660156 92.925781 261.023438 91.445312 Z M 165.085938 106.117188 C 165.085938 108.59375 161.335938 108.597656 161.335938 106.117188 C 161.335938 103.640625 165.085938 103.636719 165.085938 106.117188 Z M 175.429688 163.734375 C 173.714844 156.355469 178.316406 148.785156 184.878906 145.511719 C 184.992188 154.457031 185.1875 163.402344 185.28125 172.351562 C 181.523438 170.1875 177.105469 168.011719 175.429688 163.734375 Z M 175.6875 198.511719 C 173.828125 196.359375 174.425781 193.203125 175.582031 190.867188 C 177.621094 186.914062 181.613281 184.644531 185.253906 182.390625 C 185.722656 190.972656 185.519531 199.582031 185.777344 208.167969 C 182.191406 205.210938 178.652344 202.109375 175.6875 198.511719 Z M 210.59375 107.992188 C 208.117188 107.992188 208.113281 104.242188 210.59375 104.242188 C 213.070312 104.242188 213.074219 107.992188 210.59375 107.992188 Z M 199.871094 191.84375 C 201.855469 197.519531 199.523438 199.070312 189.21875 208.230469 C 189.402344 199.617188 189.410156 191 189.65625 182.382812 C 193.621094 184.785156 198.03125 187.328125 199.871094 191.84375 Z M 199.710938 163.222656 C 198.335938 167.847656 193.546875 170.082031 189.703125 172.378906 C 189.871094 163.402344 189.949219 154.4375 190.140625 145.464844 C 196.5 148.761719 201.050781 155.941406 199.710938 163.222656 Z M 199.710938 163.222656 " fill-opacity="1" fill-rule="nonzero"/><g fill="#c01bc4" fill-opacity="1"><g transform="translate(101.133351, 295.122261)"><g><path d="M 8.40625 -16.015625 L 6.5625 -8.203125 L 10.21875 -8.203125 Z M 2.390625 -1.21875 L 7.234375 -21.734375 C 7.359375 -22.328125 7.734375 -22.65625 8.40625 -22.65625 C 9 -22.65625 9.375 -22.328125 9.546875 -21.734375 L 14.375 -1.21875 C 14.46875 -0.84375 14.421875 -0.546875 14.25 -0.34375 C 14.078125 -0.078125 13.796875 0 13.40625 0 C 13 0 12.65625 -0.078125 12.40625 -0.34375 C 12.109375 -0.546875 11.9375 -0.84375 11.859375 -1.21875 L 10.8125 -5.765625 L 5.96875 -5.765625 L 4.921875 -1.21875 C 4.828125 -0.84375 4.625 -0.546875 4.375 -0.34375 C 4.078125 -0.078125 3.734375 0 3.359375 0 C 2.9375 0 2.6875 -0.078125 2.515625 -0.34375 C 2.359375 -0.546875 2.3125 -0.84375 2.390625 -1.21875 Z M 2.390625 -1.21875 "/></g></g></g><g fill="#c01bc4" fill-opacity="1"><g transform="translate(122.698163, 295.122261)"><g><path d="M 7.109375 0 L 7.140625 0.046875 C 6.4375 0.046875 5.765625 -0.078125 5.171875 -0.34375 C 4.578125 -0.59375 4.03125 -0.96875 3.609375 -1.421875 C 3.15625 -1.84375 2.78125 -2.390625 2.515625 -2.984375 C 2.265625 -3.578125 2.140625 -4.25 2.140625 -4.96875 L 2.140625 -17.53125 C 2.140625 -18.203125 2.265625 -18.875 2.515625 -19.46875 C 2.78125 -20.0625 3.15625 -20.609375 3.609375 -21.0625 C 4.03125 -21.484375 4.578125 -21.859375 5.171875 -22.109375 C 5.765625 -22.375 6.4375 -22.53125 7.140625 -22.53125 C 7.828125 -22.53125 8.453125 -22.40625 9.046875 -22.15625 C 9.625 -21.90625 10.171875 -21.53125 10.640625 -21.109375 C 11.09375 -20.6875 11.484375 -20.140625 11.765625 -19.546875 C 12.03125 -18.96875 12.1875 -18.328125 12.1875 -17.65625 L 12.1875 -17.359375 C 12.1875 -17.15625 12.0625 -17.078125 11.90625 -17.078125 L 10.046875 -17.078125 C 9.84375 -17.078125 9.75 -17.15625 9.75 -17.359375 L 9.75 -17.65625 C 9.75 -18.296875 9.5 -18.84375 9 -19.34375 C 8.5 -19.796875 7.859375 -20.0625 7.1875 -20.0625 C 6.46875 -20.0625 5.890625 -19.796875 5.375 -19.296875 C 4.875 -18.796875 4.671875 -18.203125 4.671875 -17.53125 L 4.671875 -4.96875 C 4.671875 -4.25 4.875 -3.65625 5.375 -3.15625 C 5.890625 -2.65625 6.46875 -2.4375 7.1875 -2.4375 C 7.859375 -2.4375 8.453125 -2.65625 8.953125 -3.15625 C 9.453125 -3.609375 9.71875 -4.203125 9.71875 -4.875 L 9.71875 -5.171875 C 9.71875 -5.34375 9.796875 -5.46875 10 -5.46875 L 11.859375 -5.46875 C 12.03125 -5.46875 12.15625 -5.34375 12.15625 -5.171875 L 12.15625 -4.875 C 12.15625 -4.203125 11.984375 -3.53125 11.734375 -2.9375 C 11.4375 -2.359375 11.0625 -1.8125 10.59375 -1.390625 C 10.140625 -0.96875 9.59375 -0.625 9 -0.375 C 8.40625 -0.125 7.78125 0 7.109375 0 Z M 7.109375 0 "/></g></g></g><g fill="#c01bc4" fill-opacity="1"><g transform="translate(141.699031, 295.122261)"><g><path d="M 7.109375 0 L 7.140625 0.046875 C 6.4375 0.046875 5.765625 -0.078125 5.171875 -0.34375 C 4.578125 -0.59375 4.03125 -0.96875 3.609375 -1.421875 C 3.15625 -1.84375 2.78125 -2.390625 2.515625 -2.984375 C 2.265625 -3.578125 2.140625 -4.25 2.140625 -4.96875 L 2.140625 -17.53125 C 2.140625 -18.203125 2.265625 -18.875 2.515625 -19.46875 C 2.78125 -20.0625 3.15625 -20.609375 3.609375 -21.0625 C 4.03125 -21.484375 4.578125 -21.859375 5.171875 -22.109375 C 5.765625 -22.375 6.4375 -22.53125 7.140625 -22.53125 C 7.828125 -22.53125 8.453125 -22.40625 9.046875 -22.15625 C 9.625 -21.90625 10.171875 -21.53125 10.640625 -21.109375 C 11.09375 -20.6875 11.484375 -20.140625 11.765625 -19.546875 C 12.03125 -18.96875 12.1875 -18.328125 12.1875 -17.65625 L 12.1875 -17.359375 C 12.1875 -17.15625 12.0625 -17.078125 11.90625 -17.078125 L 10.046875 -17.078125 C 9.84375 -17.078125 9.75 -17.15625 9.75 -17.359375 L 9.75 -17.65625 C 9.75 -18.296875 9.5 -18.84375 9 -19.34375 C 8.5 -19.796875 7.859375 -20.0625 7.1875 -20.0625 C 6.46875 -20.0625 5.890625 -19.796875 5.375 -19.296875 C 4.875 -18.796875 4.671875 -18.203125 4.671875 -17.53125 L 4.671875 -4.96875 C 4.671875 -4.25 4.875 -3.65625 5.375 -3.15625 C 5.890625 -2.65625 6.46875 -2.4375 7.1875 -2.4375 C 7.859375 -2.4375 8.453125 -2.65625 8.953125 -3.15625 C 9.453125 -3.609375 9.71875 -4.203125 9.71875 -4.875 L 9.71875 -5.171875 C 9.71875 -5.34375 9.796875 -5.46875 10 -5.46875 L 11.859375 -5.46875 C 12.03125 -5.46875 12.15625 -5.34375 12.15625 -5.171875 L 12.15625 -4.875 C 12.15625 -4.203125 11.984375 -3.53125 11.734375 -2.9375 C 11.4375 -2.359375 11.0625 -1.8125 10.59375 -1.390625 C 10.140625 -0.96875 9.59375 -0.625 9 -0.375 C 8.40625 -0.125 7.78125 0 7.109375 0 Z M 7.109375 0 "/></g></g></g><g fill="#c01bc4" fill-opacity="1"><g transform="translate(160.699897, 295.122261)"><g><path d="M 9.203125 -21.4375 C 9.203125 -21.015625 9.078125 -20.734375 8.875 -20.515625 C 8.625 -20.265625 8.328125 -20.1875 7.984375 -20.1875 L 4.546875 -20.1875 L 4.546875 -12.953125 L 6.390625 -12.953125 C 6.734375 -12.953125 7.015625 -12.828125 7.28125 -12.609375 C 7.484375 -12.359375 7.609375 -12.0625 7.609375 -11.734375 C 7.609375 -11.359375 7.484375 -11.0625 7.28125 -10.84375 C 7.015625 -10.59375 6.734375 -10.515625 6.390625 -10.515625 L 4.546875 -10.515625 L 4.546875 -2.484375 L 7.984375 -2.484375 C 8.328125 -2.484375 8.625 -2.359375 8.875 -2.140625 C 9.078125 -1.890625 9.203125 -1.59375 9.203125 -1.265625 C 9.203125 -0.84375 9.078125 -0.546875 8.875 -0.34375 C 8.625 -0.078125 8.328125 0 7.984375 0 L 4.203125 0 C 3.53125 0 3.03125 -0.171875 2.65625 -0.546875 C 2.265625 -0.921875 2.109375 -1.421875 2.109375 -2.109375 L 2.109375 -20.5625 C 2.109375 -21.1875 2.265625 -21.703125 2.65625 -22.078125 C 3.03125 -22.453125 3.53125 -22.65625 4.203125 -22.65625 L 7.984375 -22.65625 C 8.328125 -22.65625 8.625 -22.53125 8.875 -22.328125 C 9.078125 -22.078125 9.203125 -21.78125 9.203125 -21.4375 Z M 9.203125 -21.4375 "/></g></g></g><g fill="#c01bc4" fill-opacity="1"><g transform="translate(176.800544, 295.122261)"><g><path d="M 5.84375 -10.8125 C 5.375 -11.21875 4.921875 -11.640625 4.5 -12.15625 C 4.078125 -12.609375 3.65625 -13.125 3.328125 -13.671875 C 2.9375 -14.21875 2.65625 -14.796875 2.4375 -15.46875 C 2.1875 -16.109375 2.109375 -16.8125 2.109375 -17.578125 C 2.109375 -18.25 2.234375 -18.921875 2.484375 -19.515625 C 2.734375 -20.09375 3.109375 -20.640625 3.578125 -21.109375 C 4 -21.53125 4.546875 -21.90625 5.125 -22.15625 C 5.71875 -22.40625 6.390625 -22.578125 7.109375 -22.578125 C 7.78125 -22.578125 8.40625 -22.453125 9 -22.203125 C 9.59375 -21.953125 10.140625 -21.5625 10.59375 -21.15625 C 11.0625 -20.734375 11.4375 -20.1875 11.734375 -19.59375 C 11.984375 -19 12.15625 -18.375 12.15625 -17.703125 L 12.15625 -17.40625 C 12.15625 -17.203125 12.03125 -17.109375 11.859375 -17.109375 L 10 -17.109375 C 9.796875 -17.109375 9.71875 -17.203125 9.71875 -17.40625 L 9.71875 -17.703125 C 9.71875 -18.328125 9.453125 -18.875 8.953125 -19.390625 C 8.453125 -19.84375 7.828125 -20.09375 7.140625 -20.09375 C 6.4375 -20.09375 5.84375 -19.84375 5.34375 -19.34375 C 4.828125 -18.84375 4.625 -18.25 4.625 -17.578125 C 4.625 -17.234375 4.671875 -16.90625 4.75 -16.5625 C 4.828125 -16.234375 5 -15.859375 5.25 -15.4375 C 5.515625 -15.015625 5.84375 -14.5 6.3125 -14 C 6.734375 -13.5 7.3125 -12.859375 8.03125 -12.15625 L 8.40625 -11.765625 C 8.828125 -11.359375 9.296875 -10.890625 9.75 -10.421875 C 10.171875 -9.921875 10.59375 -9.421875 10.9375 -8.875 C 11.265625 -8.328125 11.5625 -7.734375 11.8125 -7.109375 C 12.03125 -6.4375 12.15625 -5.765625 12.15625 -5 C 12.15625 -4.28125 11.984375 -3.609375 11.734375 -3.03125 C 11.484375 -2.4375 11.09375 -1.890625 10.6875 -1.46875 C 10.21875 -1.015625 9.671875 -0.625 9.078125 -0.375 C 8.5 -0.125 7.828125 0 7.140625 0 C 6.46875 0 5.796875 -0.125 5.21875 -0.375 C 4.625 -0.625 4.078125 -0.96875 3.609375 -1.390625 C 3.15625 -1.8125 2.78125 -2.359375 2.515625 -2.9375 C 2.234375 -3.53125 2.109375 -4.203125 2.109375 -4.875 L 2.109375 -5.171875 C 2.109375 -5.34375 2.1875 -5.46875 2.390625 -5.46875 L 4.25 -5.46875 C 4.421875 -5.46875 4.546875 -5.34375 4.546875 -5.171875 L 4.546875 -4.875 C 4.546875 -4.203125 4.796875 -3.65625 5.296875 -3.203125 C 5.796875 -2.6875 6.390625 -2.484375 7.109375 -2.484375 C 7.78125 -2.484375 8.375 -2.6875 8.875 -3.203125 C 9.375 -3.703125 9.625 -4.28125 9.625 -5 C 9.625 -5.34375 9.59375 -5.671875 9.5 -6.015625 C 9.421875 -6.34375 9.25 -6.734375 9 -7.140625 C 8.75 -7.5625 8.375 -8.03125 7.953125 -8.578125 C 7.53125 -9.078125 6.9375 -9.71875 6.21875 -10.421875 Z M 5.84375 -10.8125 "/></g></g></g><g fill="#c01bc4" fill-opacity="1"><g transform="translate(195.801415, 295.122261)"><g><path d="M 5.84375 -10.8125 C 5.375 -11.21875 4.921875 -11.640625 4.5 -12.15625 C 4.078125 -12.609375 3.65625 -13.125 3.328125 -13.671875 C 2.9375 -14.21875 2.65625 -14.796875 2.4375 -15.46875 C 2.1875 -16.109375 2.109375 -16.8125 2.109375 -17.578125 C 2.109375 -18.25 2.234375 -18.921875 2.484375 -19.515625 C 2.734375 -20.09375 3.109375 -20.640625 3.578125 -21.109375 C 4 -21.53125 4.546875 -21.90625 5.125 -22.15625 C 5.71875 -22.40625 6.390625 -22.578125 7.109375 -22.578125 C 7.78125 -22.578125 8.40625 -22.453125 9 -22.203125 C 9.59375 -21.953125 10.140625 -21.5625 10.59375 -21.15625 C 11.0625 -20.734375 11.4375 -20.1875 11.734375 -19.59375 C 11.984375 -19 12.15625 -18.375 12.15625 -17.703125 L 12.15625 -17.40625 C 12.15625 -17.203125 12.03125 -17.109375 11.859375 -17.109375 L 10 -17.109375 C 9.796875 -17.109375 9.71875 -17.203125 9.71875 -17.40625 L 9.71875 -17.703125 C 9.71875 -18.328125 9.453125 -18.875 8.953125 -19.390625 C 8.453125 -19.84375 7.828125 -20.09375 7.140625 -20.09375 C 6.4375 -20.09375 5.84375 -19.84375 5.34375 -19.34375 C 4.828125 -18.84375 4.625 -18.25 4.625 -17.578125 C 4.625 -17.234375 4.671875 -16.90625 4.75 -16.5625 C 4.828125 -16.234375 5 -15.859375 5.25 -15.4375 C 5.515625 -15.015625 5.84375 -14.5 6.3125 -14 C 6.734375 -13.5 7.3125 -12.859375 8.03125 -12.15625 L 8.40625 -11.765625 C 8.828125 -11.359375 9.296875 -10.890625 9.75 -10.421875 C 10.171875 -9.921875 10.59375 -9.421875 10.9375 -8.875 C 11.265625 -8.328125 11.5625 -7.734375 11.8125 -7.109375 C 12.03125 -6.4375 12.15625 -5.765625 12.15625 -5 C 12.15625 -4.28125 11.984375 -3.609375 11.734375 -3.03125 C 11.484375 -2.4375 11.09375 -1.890625 10.6875 -1.46875 C 10.21875 -1.015625 9.671875 -0.625 9.078125 -0.375 C 8.5 -0.125 7.828125 0 7.140625 0 C 6.46875 0 5.796875 -0.125 5.21875 -0.375 C 4.625 -0.625 4.078125 -0.96875 3.609375 -1.390625 C 3.15625 -1.8125 2.78125 -2.359375 2.515625 -2.9375 C 2.234375 -3.53125 2.109375 -4.203125 2.109375 -4.875 L 2.109375 -5.171875 C 2.109375 -5.34375 2.1875 -5.46875 2.390625 -5.46875 L 4.25 -5.46875 C 4.421875 -5.46875 4.546875 -5.34375 4.546875 -5.171875 L 4.546875 -4.875 C 4.546875 -4.203125 4.796875 -3.65625 5.296875 -3.203125 C 5.796875 -2.6875 6.390625 -2.484375 7.109375 -2.484375 C 7.78125 -2.484375 8.375 -2.6875 8.875 -3.203125 C 9.375 -3.703125 9.625 -4.28125 9.625 -5 C 9.625 -5.34375 9.59375 -5.671875 9.5 -6.015625 C 9.421875 -6.34375 9.25 -6.734375 9 -7.140625 C 8.75 -7.5625 8.375 -8.03125 7.953125 -8.578125 C 7.53125 -9.078125 6.9375 -9.71875 6.21875 -10.421875 Z M 5.84375 -10.8125 "/></g></g></g><g fill="#c01bc4" fill-opacity="1"><g transform="translate(214.80228, 295.122261)"><g><path d="M 4.546875 -1.21875 C 4.546875 -0.84375 4.421875 -0.546875 4.203125 -0.34375 C 3.953125 -0.078125 3.65625 0 3.328125 0 C 2.9375 0 2.65625 -0.078125 2.4375 -0.34375 C 2.1875 -0.546875 2.109375 -0.84375 2.109375 -1.21875 L 2.109375 -21.4375 C 2.109375 -21.78125 2.1875 -22.078125 2.4375 -22.328125 C 2.65625 -22.53125 2.9375 -22.65625 3.328125 -22.65625 C 3.65625 -22.65625 3.953125 -22.53125 4.203125 -22.328125 C 4.421875 -22.078125 4.546875 -21.78125 4.546875 -21.4375 Z M 4.546875 -1.21875 "/></g></g></g><g fill="#c01bc4" fill-opacity="1"><g transform="translate(226.237397, 295.122261)"><g><path d="M 4.625 -10.46875 L 4.625 -2.4375 L 7.015625 -2.4375 C 7.828125 -2.4375 8.53125 -2.734375 9.125 -3.328125 C 9.71875 -3.90625 10 -4.578125 10 -5.421875 L 10 -7.484375 C 10 -8.28125 9.71875 -9 9.125 -9.59375 C 8.53125 -10.171875 7.828125 -10.46875 7.015625 -10.46875 Z M 9.625 -15.890625 L 9.625 -17.109375 C 9.625 -17.90625 9.328125 -18.625 8.75 -19.21875 C 8.15625 -19.796875 7.4375 -20.09375 6.640625 -20.09375 L 4.578125 -20.09375 L 4.578125 -12.90625 L 6.640625 -12.90625 C 7.4375 -12.90625 8.15625 -13.203125 8.75 -13.796875 C 9.328125 -14.375 9.625 -15.046875 9.625 -15.890625 Z M 12.40625 -7.484375 L 12.40625 -5.421875 L 12.453125 -5.421875 C 12.453125 -4.671875 12.28125 -3.953125 12.03125 -3.28125 C 11.734375 -2.609375 11.359375 -2.0625 10.84375 -1.5625 C 10.34375 -1.046875 9.796875 -0.671875 9.125 -0.421875 C 8.453125 -0.125 7.78125 0 7.015625 0 L 4.25 0 C 3.578125 0 3.0625 -0.171875 2.6875 -0.546875 C 2.3125 -0.921875 2.140625 -1.421875 2.140625 -2.109375 L 2.140625 -20.484375 C 2.140625 -21.109375 2.3125 -21.609375 2.6875 -21.984375 C 3.0625 -22.375 3.578125 -22.578125 4.25 -22.578125 L 6.640625 -22.578125 C 7.40625 -22.578125 8.078125 -22.40625 8.75 -22.15625 C 9.421875 -21.859375 9.96875 -21.484375 10.46875 -20.984375 C 10.96875 -20.484375 11.359375 -19.9375 11.640625 -19.25 C 11.90625 -18.578125 12.0625 -17.90625 12.0625 -17.15625 L 12.0625 -15.890625 C 12.0625 -14.34375 11.515625 -13.03125 10.421875 -12.03125 L 10.21875 -11.8125 L 10.421875 -11.640625 C 11.0625 -11.09375 11.5625 -10.46875 11.90625 -9.75 C 12.234375 -9.046875 12.40625 -8.28125 12.40625 -7.484375 Z M 12.40625 -7.484375 "/></g></g></g><g fill="#c01bc4" fill-opacity="1"><g transform="translate(245.532472, 295.122261)"><g><path d="M 3.328125 -22.625 C 3.65625 -22.625 3.953125 -22.5 4.203125 -22.28125 C 4.421875 -22.03125 4.546875 -21.734375 4.546875 -21.40625 L 4.546875 -2.4375 L 8.875 -2.4375 C 9.203125 -2.4375 9.5 -2.3125 9.75 -2.109375 C 9.96875 -1.84375 10.09375 -1.5625 10.09375 -1.21875 C 10.09375 -0.84375 9.96875 -0.546875 9.75 -0.34375 C 9.5 -0.078125 9.203125 0 8.875 0 L 4.203125 0 C 3.53125 0 3.03125 -0.171875 2.65625 -0.546875 C 2.265625 -0.921875 2.109375 -1.421875 2.109375 -2.109375 L 2.109375 -21.40625 C 2.109375 -21.734375 2.1875 -22.03125 2.4375 -22.28125 C 2.65625 -22.5 2.9375 -22.625 3.328125 -22.625 Z M 3.328125 -22.625 "/></g></g></g><g fill="#c01bc4" fill-opacity="1"><g transform="translate(262.515805, 295.122261)"><g><path d="M 9.203125 -21.4375 C 9.203125 -21.015625 9.078125 -20.734375 8.875 -20.515625 C 8.625 -20.265625 8.328125 -20.1875 7.984375 -20.1875 L 4.546875 -20.1875 L 4.546875 -12.953125 L 6.390625 -12.953125 C 6.734375 -12.953125 7.015625 -12.828125 7.28125 -12.609375 C 7.484375 -12.359375 7.609375 -12.0625 7.609375 -11.734375 C 7.609375 -11.359375 7.484375 -11.0625 7.28125 -10.84375 C 7.015625 -10.59375 6.734375 -10.515625 6.390625 -10.515625 L 4.546875 -10.515625 L 4.546875 -2.484375 L 7.984375 -2.484375 C 8.328125 -2.484375 8.625 -2.359375 8.875 -2.140625 C 9.078125 -1.890625 9.203125 -1.59375 9.203125 -1.265625 C 9.203125 -0.84375 9.078125 -0.546875 8.875 -0.34375 C 8.625 -0.078125 8.328125 0 7.984375 0 L 4.203125 0 C 3.53125 0 3.03125 -0.171875 2.65625 -0.546875 C 2.265625 -0.921875 2.109375 -1.421875 2.109375 -2.109375 L 2.109375 -20.5625 C 2.109375 -21.1875 2.265625 -21.703125 2.65625 -22.078125 C 3.03125 -22.453125 3.53125 -22.65625 4.203125 -22.65625 L 7.984375 -22.65625 C 8.328125 -22.65625 8.625 -22.53125 8.875 -22.328125 C 9.078125 -22.078125 9.203125 -21.78125 9.203125 -21.4375 Z M 9.203125 -21.4375 "/></g></g></g><g fill="#c01bc4" fill-opacity="1"><g transform="translate(9.481796, 340.084916)"><g><path d="M 4.546875 -10.140625 L 4.546875 -1.21875 C 4.546875 -0.84375 4.421875 -0.546875 4.203125 -0.34375 C 3.953125 -0.078125 3.65625 0 3.328125 0 C 2.9375 0 2.65625 -0.078125 2.4375 -0.34375 C 2.1875 -0.546875 2.109375 -0.84375 2.109375 -1.21875 L 2.109375 -21.4375 C 2.109375 -21.78125 2.1875 -22.078125 2.4375 -22.328125 C 2.65625 -22.53125 2.9375 -22.65625 3.328125 -22.65625 C 3.65625 -22.65625 3.953125 -22.53125 4.203125 -22.328125 C 4.421875 -22.078125 4.546875 -21.78125 4.546875 -21.4375 L 4.546875 -12.53125 L 9.921875 -12.53125 L 9.921875 -21.4375 C 9.921875 -21.78125 10 -22.078125 10.265625 -22.328125 C 10.46875 -22.53125 10.765625 -22.65625 11.140625 -22.65625 C 11.484375 -22.65625 11.765625 -22.53125 12.03125 -22.328125 C 12.234375 -22.078125 12.359375 -21.78125 12.359375 -21.4375 L 12.359375 -1.21875 C 12.359375 -0.84375 12.234375 -0.546875 12.03125 -0.34375 C 11.765625 -0.078125 11.484375 0 11.140625 0 C 10.765625 0 10.46875 -0.078125 10.265625 -0.34375 C 10 -0.546875 9.921875 -0.84375 9.921875 -1.21875 L 9.921875 -10.140625 Z M 4.546875 -10.140625 "/></g></g></g><g fill="#c01bc4" fill-opacity="1"><g transform="translate(28.776872, 340.084916)"><g><path d="M 9.203125 -21.4375 C 9.203125 -21.015625 9.078125 -20.734375 8.875 -20.515625 C 8.625 -20.265625 8.328125 -20.1875 7.984375 -20.1875 L 4.546875 -20.1875 L 4.546875 -12.953125 L 6.390625 -12.953125 C 6.734375 -12.953125 7.015625 -12.828125 7.28125 -12.609375 C 7.484375 -12.359375 7.609375 -12.0625 7.609375 -11.734375 C 7.609375 -11.359375 7.484375 -11.0625 7.28125 -10.84375 C 7.015625 -10.59375 6.734375 -10.515625 6.390625 -10.515625 L 4.546875 -10.515625 L 4.546875 -2.484375 L 7.984375 -2.484375 C 8.328125 -2.484375 8.625 -2.359375 8.875 -2.140625 C 9.078125 -1.890625 9.203125 -1.59375 9.203125 -1.265625 C 9.203125 -0.84375 9.078125 -0.546875 8.875 -0.34375 C 8.625 -0.078125 8.328125 0 7.984375 0 L 4.203125 0 C 3.53125 0 3.03125 -0.171875 2.65625 -0.546875 C 2.265625 -0.921875 2.109375 -1.421875 2.109375 -2.109375 L 2.109375 -20.5625 C 2.109375 -21.1875 2.265625 -21.703125 2.65625 -22.078125 C 3.03125 -22.453125 3.53125 -22.65625 4.203125 -22.65625 L 7.984375 -22.65625 C 8.328125 -22.65625 8.625 -22.53125 8.875 -22.328125 C 9.078125 -22.078125 9.203125 -21.78125 9.203125 -21.4375 Z M 9.203125 -21.4375 "/></g></g></g><g fill="#c01bc4" fill-opacity="1"><g transform="translate(44.87752, 340.084916)"><g><path d="M 8.40625 -16.015625 L 6.5625 -8.203125 L 10.21875 -8.203125 Z M 2.390625 -1.21875 L 7.234375 -21.734375 C 7.359375 -22.328125 7.734375 -22.65625 8.40625 -22.65625 C 9 -22.65625 9.375 -22.328125 9.546875 -21.734375 L 14.375 -1.21875 C 14.46875 -0.84375 14.421875 -0.546875 14.25 -0.34375 C 14.078125 -0.078125 13.796875 0 13.40625 0 C 13 0 12.65625 -0.078125 12.40625 -0.34375 C 12.109375 -0.546875 11.9375 -0.84375 11.859375 -1.21875 L 10.8125 -5.765625 L 5.96875 -5.765625 L 4.921875 -1.21875 C 4.828125 -0.84375 4.625 -0.546875 4.375 -0.34375 C 4.078125 -0.078125 3.734375 0 3.359375 0 C 2.9375 0 2.6875 -0.078125 2.515625 -0.34375 C 2.359375 -0.546875 2.3125 -0.84375 2.390625 -1.21875 Z M 2.390625 -1.21875 "/></g></g></g><g fill="#c01bc4" fill-opacity="1"><g transform="translate(66.442332, 340.084916)"><g><path d="M 3.328125 -22.625 C 3.65625 -22.625 3.953125 -22.5 4.203125 -22.28125 C 4.421875 -22.03125 4.546875 -21.734375 4.546875 -21.40625 L 4.546875 -2.4375 L 8.875 -2.4375 C 9.203125 -2.4375 9.5 -2.3125 9.75 -2.109375 C 9.96875 -1.84375 10.09375 -1.5625 10.09375 -1.21875 C 10.09375 -0.84375 9.96875 -0.546875 9.75 -0.34375 C 9.5 -0.078125 9.203125 0 8.875 0 L 4.203125 0 C 3.53125 0 3.03125 -0.171875 2.65625 -0.546875 C 2.265625 -0.921875 2.109375 -1.421875 2.109375 -2.109375 L 2.109375 -21.40625 C 2.109375 -21.734375 2.1875 -22.03125 2.4375 -22.28125 C 2.65625 -22.5 2.9375 -22.625 3.328125 -22.625 Z M 3.328125 -22.625 "/></g></g></g><g fill="#c01bc4" fill-opacity="1"><g transform="translate(83.425665, 340.084916)"><g><path d="M 6.8125 0 C 6.4375 0 6.140625 -0.078125 5.921875 -0.34375 C 5.671875 -0.546875 5.59375 -0.84375 5.59375 -1.21875 L 5.546875 -20.1875 L 3.28125 -20.1875 C 2.90625 -20.1875 2.609375 -20.265625 2.390625 -20.515625 C 2.140625 -20.734375 2.0625 -21.015625 2.0625 -21.40625 C 2.0625 -21.734375 2.140625 -22.03125 2.390625 -22.28125 C 2.609375 -22.5 2.90625 -22.625 3.28125 -22.625 L 10.296875 -22.625 C 10.640625 -22.625 10.9375 -22.5 11.1875 -22.28125 C 11.390625 -22.03125 11.515625 -21.734375 11.515625 -21.40625 C 11.515625 -21.015625 11.390625 -20.734375 11.1875 -20.515625 C 10.9375 -20.265625 10.640625 -20.1875 10.296875 -20.1875 L 8.03125 -20.1875 L 8.03125 -1.21875 C 8.03125 -0.84375 7.90625 -0.546875 7.6875 -0.34375 C 7.4375 -0.078125 7.140625 0 6.8125 0 Z M 6.8125 0 "/></g></g></g><g fill="#c01bc4" fill-opacity="1"><g transform="translate(101.880105, 340.084916)"><g><path d="M 4.546875 -10.140625 L 4.546875 -1.21875 C 4.546875 -0.84375 4.421875 -0.546875 4.203125 -0.34375 C 3.953125 -0.078125 3.65625 0 3.328125 0 C 2.9375 0 2.65625 -0.078125 2.4375 -0.34375 C 2.1875 -0.546875 2.109375 -0.84375 2.109375 -1.21875 L 2.109375 -21.4375 C 2.109375 -21.78125 2.1875 -22.078125 2.4375 -22.328125 C 2.65625 -22.53125 2.9375 -22.65625 3.328125 -22.65625 C 3.65625 -22.65625 3.953125 -22.53125 4.203125 -22.328125 C 4.421875 -22.078125 4.546875 -21.78125 4.546875 -21.4375 L 4.546875 -12.53125 L 9.921875 -12.53125 L 9.921875 -21.4375 C 9.921875 -21.78125 10 -22.078125 10.265625 -22.328125 C 10.46875 -22.53125 10.765625 -22.65625 11.140625 -22.65625 C 11.484375 -22.65625 11.765625 -22.53125 12.03125 -22.328125 C 12.234375 -22.078125 12.359375 -21.78125 12.359375 -21.4375 L 12.359375 -1.21875 C 12.359375 -0.84375 12.234375 -0.546875 12.03125 -0.34375 C 11.765625 -0.078125 11.484375 0 11.140625 0 C 10.765625 0 10.46875 -0.078125 10.265625 -0.34375 C 10 -0.546875 9.921875 -0.84375 9.921875 -1.21875 L 9.921875 -10.140625 Z M 4.546875 -10.140625 "/></g></g></g><g fill="#c01bc4" fill-opacity="1"><g transform="translate(121.17518, 340.084916)"><g><path d="M 7.109375 0 L 7.140625 0.046875 C 6.4375 0.046875 5.765625 -0.078125 5.171875 -0.34375 C 4.578125 -0.59375 4.03125 -0.96875 3.609375 -1.421875 C 3.15625 -1.84375 2.78125 -2.390625 2.515625 -2.984375 C 2.265625 -3.578125 2.140625 -4.25 2.140625 -4.96875 L 2.140625 -17.53125 C 2.140625 -18.203125 2.265625 -18.875 2.515625 -19.46875 C 2.78125 -20.0625 3.15625 -20.609375 3.609375 -21.0625 C 4.03125 -21.484375 4.578125 -21.859375 5.171875 -22.109375 C 5.765625 -22.375 6.4375 -22.53125 7.140625 -22.53125 C 7.828125 -22.53125 8.453125 -22.40625 9.046875 -22.15625 C 9.625 -21.90625 10.171875 -21.53125 10.640625 -21.109375 C 11.09375 -20.6875 11.484375 -20.140625 11.765625 -19.546875 C 12.03125 -18.96875 12.1875 -18.328125 12.1875 -17.65625 L 12.1875 -17.359375 C 12.1875 -17.15625 12.0625 -17.078125 11.90625 -17.078125 L 10.046875 -17.078125 C 9.84375 -17.078125 9.75 -17.15625 9.75 -17.359375 L 9.75 -17.65625 C 9.75 -18.296875 9.5 -18.84375 9 -19.34375 C 8.5 -19.796875 7.859375 -20.0625 7.1875 -20.0625 C 6.46875 -20.0625 5.890625 -19.796875 5.375 -19.296875 C 4.875 -18.796875 4.671875 -18.203125 4.671875 -17.53125 L 4.671875 -4.96875 C 4.671875 -4.25 4.875 -3.65625 5.375 -3.15625 C 5.890625 -2.65625 6.46875 -2.4375 7.1875 -2.4375 C 7.859375 -2.4375 8.453125 -2.65625 8.953125 -3.15625 C 9.453125 -3.609375 9.71875 -4.203125 9.71875 -4.875 L 9.71875 -5.171875 C 9.71875 -5.34375 9.796875 -5.46875 10 -5.46875 L 11.859375 -5.46875 C 12.03125 -5.46875 12.15625 -5.34375 12.15625 -5.171875 L 12.15625 -4.875 C 12.15625 -4.203125 11.984375 -3.53125 11.734375 -2.9375 C 11.4375 -2.359375 11.0625 -1.8125 10.59375 -1.390625 C 10.140625 -0.96875 9.59375 -0.625 9 -0.375 C 8.40625 -0.125 7.78125 0 7.109375 0 Z M 7.109375 0 "/></g></g></g><g fill="#c01bc4" fill-opacity="1"><g transform="translate(140.176046, 340.084916)"><g><path d="M 8.40625 -16.015625 L 6.5625 -8.203125 L 10.21875 -8.203125 Z M 2.390625 -1.21875 L 7.234375 -21.734375 C 7.359375 -22.328125 7.734375 -22.65625 8.40625 -22.65625 C 9 -22.65625 9.375 -22.328125 9.546875 -21.734375 L 14.375 -1.21875 C 14.46875 -0.84375 14.421875 -0.546875 14.25 -0.34375 C 14.078125 -0.078125 13.796875 0 13.40625 0 C 13 0 12.65625 -0.078125 12.40625 -0.34375 C 12.109375 -0.546875 11.9375 -0.84375 11.859375 -1.21875 L 10.8125 -5.765625 L 5.96875 -5.765625 L 4.921875 -1.21875 C 4.828125 -0.84375 4.625 -0.546875 4.375 -0.34375 C 4.078125 -0.078125 3.734375 0 3.359375 0 C 2.9375 0 2.6875 -0.078125 2.515625 -0.34375 C 2.359375 -0.546875 2.3125 -0.84375 2.390625 -1.21875 Z M 2.390625 -1.21875 "/></g></g></g><g fill="#c01bc4" fill-opacity="1"><g transform="translate(161.740855, 340.084916)"><g><path d="M 9.59375 -13.828125 L 9.59375 -17.15625 C 9.59375 -17.953125 9.296875 -18.671875 8.703125 -19.25 C 8.109375 -19.84375 7.40625 -20.140625 6.59375 -20.140625 L 4.546875 -20.140625 L 4.546875 -10.84375 L 6.59375 -10.84375 C 7.40625 -10.84375 8.109375 -11.140625 8.703125 -11.734375 C 9.296875 -12.3125 9.59375 -13 9.59375 -13.828125 Z M 9.078125 -8.953125 L 12.15625 -1.21875 C 12.28125 -0.84375 12.28125 -0.546875 12.15625 -0.34375 C 11.984375 -0.078125 11.734375 0 11.359375 0 C 10.9375 0 10.546875 -0.078125 10.21875 -0.34375 C 9.875 -0.546875 9.625 -0.84375 9.5 -1.21875 L 6.640625 -8.40625 L 4.546875 -8.40625 L 4.546875 -1.21875 C 4.546875 -0.84375 4.421875 -0.546875 4.203125 -0.34375 C 3.953125 -0.078125 3.65625 0 3.328125 0 C 2.9375 0 2.65625 -0.078125 2.4375 -0.34375 C 2.1875 -0.546875 2.109375 -0.84375 2.109375 -1.21875 L 2.109375 -20.515625 C 2.109375 -21.15625 2.265625 -21.65625 2.65625 -22.03125 C 3.03125 -22.40625 3.53125 -22.625 4.203125 -22.625 L 6.59375 -22.625 C 7.359375 -22.625 8.03125 -22.453125 8.703125 -22.203125 C 9.375 -21.90625 9.921875 -21.53125 10.421875 -21.015625 C 10.9375 -20.515625 11.3125 -19.96875 11.609375 -19.296875 C 11.859375 -18.625 12.03125 -17.953125 12.03125 -17.203125 L 12.03125 -13.828125 C 12.03125 -12.734375 11.765625 -11.765625 11.265625 -10.9375 C 10.765625 -10.09375 10 -9.421875 9.078125 -8.953125 Z M 9.078125 -8.953125 "/></g></g></g><g fill="#c01bc4" fill-opacity="1"><g transform="translate(181.28814, 340.084916)"><g><path d="M 9.203125 -21.4375 C 9.203125 -21.015625 9.078125 -20.734375 8.875 -20.515625 C 8.625 -20.265625 8.328125 -20.1875 7.984375 -20.1875 L 4.546875 -20.1875 L 4.546875 -12.953125 L 6.390625 -12.953125 C 6.734375 -12.953125 7.015625 -12.828125 7.28125 -12.609375 C 7.484375 -12.359375 7.609375 -12.0625 7.609375 -11.734375 C 7.609375 -11.359375 7.484375 -11.0625 7.28125 -10.84375 C 7.015625 -10.59375 6.734375 -10.515625 6.390625 -10.515625 L 4.546875 -10.515625 L 4.546875 -2.484375 L 7.984375 -2.484375 C 8.328125 -2.484375 8.625 -2.359375 8.875 -2.140625 C 9.078125 -1.890625 9.203125 -1.59375 9.203125 -1.265625 C 9.203125 -0.84375 9.078125 -0.546875 8.875 -0.34375 C 8.625 -0.078125 8.328125 0 7.984375 0 L 4.203125 0 C 3.53125 0 3.03125 -0.171875 2.65625 -0.546875 C 2.265625 -0.921875 2.109375 -1.421875 2.109375 -2.109375 L 2.109375 -20.5625 C 2.109375 -21.1875 2.265625 -21.703125 2.65625 -22.078125 C 3.03125 -22.453125 3.53125 -22.65625 4.203125 -22.65625 L 7.984375 -22.65625 C 8.328125 -22.65625 8.625 -22.53125 8.875 -22.328125 C 9.078125 -22.078125 9.203125 -21.78125 9.203125 -21.4375 Z M 9.203125 -21.4375 "/></g></g></g><g fill="#c01bc4" fill-opacity="1"><g transform="translate(197.388788, 340.084916)"><g/></g></g><g fill="#c01bc4" fill-opacity="1"><g transform="translate(208.907959, 340.084916)"><g><path d="M 5.84375 -10.8125 C 5.375 -11.21875 4.921875 -11.640625 4.5 -12.15625 C 4.078125 -12.609375 3.65625 -13.125 3.328125 -13.671875 C 2.9375 -14.21875 2.65625 -14.796875 2.4375 -15.46875 C 2.1875 -16.109375 2.109375 -16.8125 2.109375 -17.578125 C 2.109375 -18.25 2.234375 -18.921875 2.484375 -19.515625 C 2.734375 -20.09375 3.109375 -20.640625 3.578125 -21.109375 C 4 -21.53125 4.546875 -21.90625 5.125 -22.15625 C 5.71875 -22.40625 6.390625 -22.578125 7.109375 -22.578125 C 7.78125 -22.578125 8.40625 -22.453125 9 -22.203125 C 9.59375 -21.953125 10.140625 -21.5625 10.59375 -21.15625 C 11.0625 -20.734375 11.4375 -20.1875 11.734375 -19.59375 C 11.984375 -19 12.15625 -18.375 12.15625 -17.703125 L 12.15625 -17.40625 C 12.15625 -17.203125 12.03125 -17.109375 11.859375 -17.109375 L 10 -17.109375 C 9.796875 -17.109375 9.71875 -17.203125 9.71875 -17.40625 L 9.71875 -17.703125 C 9.71875 -18.328125 9.453125 -18.875 8.953125 -19.390625 C 8.453125 -19.84375 7.828125 -20.09375 7.140625 -20.09375 C 6.4375 -20.09375 5.84375 -19.84375 5.34375 -19.34375 C 4.828125 -18.84375 4.625 -18.25 4.625 -17.578125 C 4.625 -17.234375 4.671875 -16.90625 4.75 -16.5625 C 4.828125 -16.234375 5 -15.859375 5.25 -15.4375 C 5.515625 -15.015625 5.84375 -14.5 6.3125 -14 C 6.734375 -13.5 7.3125 -12.859375 8.03125 -12.15625 L 8.40625 -11.765625 C 8.828125 -11.359375 9.296875 -10.890625 9.75 -10.421875 C 10.171875 -9.921875 10.59375 -9.421875 10.9375 -8.875 C 11.265625 -8.328125 11.5625 -7.734375 11.8125 -7.109375 C 12.03125 -6.4375 12.15625 -5.765625 12.15625 -5 C 12.15625 -4.28125 11.984375 -3.609375 11.734375 -3.03125 C 11.484375 -2.4375 11.09375 -1.890625 10.6875 -1.46875 C 10.21875 -1.015625 9.671875 -0.625 9.078125 -0.375 C 8.5 -0.125 7.828125 0 7.140625 0 C 6.46875 0 5.796875 -0.125 5.21875 -0.375 C 4.625 -0.625 4.078125 -0.96875 3.609375 -1.390625 C 3.15625 -1.8125 2.78125 -2.359375 2.515625 -2.9375 C 2.234375 -3.53125 2.109375 -4.203125 2.109375 -4.875 L 2.109375 -5.171875 C 2.109375 -5.34375 2.1875 -5.46875 2.390625 -5.46875 L 4.25 -5.46875 C 4.421875 -5.46875 4.546875 -5.34375 4.546875 -5.171875 L 4.546875 -4.875 C 4.546875 -4.203125 4.796875 -3.65625 5.296875 -3.203125 C 5.796875 -2.6875 6.390625 -2.484375 7.109375 -2.484375 C 7.78125 -2.484375 8.375 -2.6875 8.875 -3.203125 C 9.375 -3.703125 9.625 -4.28125 9.625 -5 C 9.625 -5.34375 9.59375 -5.671875 9.5 -6.015625 C 9.421875 -6.34375 9.25 -6.734375 9 -7.140625 C 8.75 -7.5625 8.375 -8.03125 7.953125 -8.578125 C 7.53125 -9.078125 6.9375 -9.71875 6.21875 -10.421875 Z M 5.84375 -10.8125 "/></g></g></g><g fill="#c01bc4" fill-opacity="1"><g transform="translate(227.908825, 340.084916)"><g><path d="M 7.109375 0 C 6.390625 0 5.71875 -0.125 5.125 -0.375 C 4.546875 -0.625 4 -1.015625 3.578125 -1.46875 C 3.109375 -1.890625 2.734375 -2.4375 2.484375 -3.03125 C 2.234375 -3.609375 2.109375 -4.28125 2.109375 -5 L 2.109375 -17.578125 C 2.109375 -18.25 2.234375 -18.921875 2.484375 -19.515625 C 2.734375 -20.09375 3.109375 -20.640625 3.578125 -21.109375 C 4 -21.53125 4.546875 -21.90625 5.125 -22.15625 C 5.71875 -22.40625 6.390625 -22.578125 7.109375 -22.578125 C 7.78125 -22.578125 8.453125 -22.40625 9.046875 -22.15625 C 9.625 -21.90625 10.171875 -21.53125 10.640625 -21.109375 C 11.0625 -20.640625 11.4375 -20.09375 11.6875 -19.515625 C 11.9375 -18.921875 12.109375 -18.25 12.109375 -17.578125 L 12.109375 -5 C 12.109375 -4.28125 11.9375 -3.609375 11.6875 -3.03125 C 11.4375 -2.4375 11.0625 -1.890625 10.640625 -1.46875 C 10.171875 -1.015625 9.625 -0.625 9.046875 -0.375 C 8.453125 -0.125 7.78125 0 7.109375 0 Z M 4.546875 -5 C 4.546875 -4.28125 4.75 -3.703125 5.25 -3.203125 C 5.765625 -2.6875 6.34375 -2.484375 7.0625 -2.484375 C 7.734375 -2.484375 8.328125 -2.6875 8.828125 -3.203125 C 9.328125 -3.703125 9.59375 -4.28125 9.59375 -5 L 9.59375 -17.578125 C 9.59375 -18.25 9.328125 -18.84375 8.828125 -19.34375 C 8.328125 -19.84375 7.734375 -20.09375 7.0625 -20.09375 C 6.34375 -20.09375 5.765625 -19.84375 5.25 -19.34375 C 4.75 -18.84375 4.546875 -18.25 4.546875 -17.578125 Z M 4.546875 -5 "/></g></g></g><g fill="#c01bc4" fill-opacity="1"><g transform="translate(246.909691, 340.084916)"><g><path d="M 3.328125 -22.625 C 3.65625 -22.625 3.953125 -22.5 4.203125 -22.28125 C 4.421875 -22.03125 4.546875 -21.734375 4.546875 -21.40625 L 4.546875 -2.4375 L 8.875 -2.4375 C 9.203125 -2.4375 9.5 -2.3125 9.75 -2.109375 C 9.96875 -1.84375 10.09375 -1.5625 10.09375 -1.21875 C 10.09375 -0.84375 9.96875 -0.546875 9.75 -0.34375 C 9.5 -0.078125 9.203125 0 8.875 0 L 4.203125 0 C 3.53125 0 3.03125 -0.171875 2.65625 -0.546875 C 2.265625 -0.921875 2.109375 -1.421875 2.109375 -2.109375 L 2.109375 -21.40625 C 2.109375 -21.734375 2.1875 -22.03125 2.4375 -22.28125 C 2.65625 -22.5 2.9375 -22.625 3.328125 -22.625 Z M 3.328125 -22.625 "/></g></g></g><g fill="#c01bc4" fill-opacity="1"><g transform="translate(263.893023, 340.084916)"><g><path d="M 12.109375 -5 L 12.15625 -5 C 12.15625 -4.28125 12.03125 -3.609375 11.765625 -3.03125 C 11.515625 -2.4375 11.140625 -1.890625 10.71875 -1.46875 C 10.265625 -1.015625 9.71875 -0.625 9.125 -0.375 C 8.53125 -0.125 7.859375 0 7.1875 0 C 6.46875 0 5.796875 -0.125 5.21875 -0.375 C 4.625 -0.625 4.078125 -1.015625 3.65625 -1.46875 C 3.203125 -1.890625 2.8125 -2.4375 2.5625 -3.03125 C 2.3125 -3.609375 2.1875 -4.28125 2.1875 -5 L 2.1875 -21.40625 C 2.1875 -21.734375 2.265625 -22.03125 2.515625 -22.28125 C 2.734375 -22.5 3.03125 -22.625 3.40625 -22.625 C 3.734375 -22.625 4.03125 -22.5 4.28125 -22.28125 C 4.5 -22.03125 4.625 -21.734375 4.625 -21.40625 L 4.625 -5 C 4.625 -4.28125 4.828125 -3.703125 5.34375 -3.203125 C 5.84375 -2.6875 6.4375 -2.484375 7.140625 -2.484375 C 7.828125 -2.484375 8.40625 -2.6875 8.90625 -3.203125 C 9.421875 -3.703125 9.671875 -4.28125 9.671875 -5 L 9.671875 -21.40625 C 9.671875 -21.734375 9.75 -22.03125 10 -22.28125 C 10.21875 -22.5 10.515625 -22.625 10.890625 -22.625 C 11.21875 -22.625 11.515625 -22.5 11.765625 -22.28125 C 11.984375 -22.03125 12.109375 -21.734375 12.109375 -21.40625 Z M 12.109375 -5 "/></g></g></g><g fill="#c01bc4" fill-opacity="1"><g transform="translate(282.893889, 340.084916)"><g><path d="M 6.8125 0 C 6.4375 0 6.140625 -0.078125 5.921875 -0.34375 C 5.671875 -0.546875 5.59375 -0.84375 5.59375 -1.21875 L 5.546875 -20.1875 L 3.28125 -20.1875 C 2.90625 -20.1875 2.609375 -20.265625 2.390625 -20.515625 C 2.140625 -20.734375 2.0625 -21.015625 2.0625 -21.40625 C 2.0625 -21.734375 2.140625 -22.03125 2.390625 -22.28125 C 2.609375 -22.5 2.90625 -22.625 3.28125 -22.625 L 10.296875 -22.625 C 10.640625 -22.625 10.9375 -22.5 11.1875 -22.28125 C 11.390625 -22.03125 11.515625 -21.734375 11.515625 -21.40625 C 11.515625 -21.015625 11.390625 -20.734375 11.1875 -20.515625 C 10.9375 -20.265625 10.640625 -20.1875 10.296875 -20.1875 L 8.03125 -20.1875 L 8.03125 -1.21875 C 8.03125 -0.84375 7.90625 -0.546875 7.6875 -0.34375 C 7.4375 -0.078125 7.140625 0 6.8125 0 Z M 6.8125 0 "/></g></g></g><g fill="#c01bc4" fill-opacity="1"><g transform="translate(301.348325, 340.084916)"><g><path d="M 4.546875 -1.21875 C 4.546875 -0.84375 4.421875 -0.546875 4.203125 -0.34375 C 3.953125 -0.078125 3.65625 0 3.328125 0 C 2.9375 0 2.65625 -0.078125 2.4375 -0.34375 C 2.1875 -0.546875 2.109375 -0.84375 2.109375 -1.21875 L 2.109375 -21.4375 C 2.109375 -21.78125 2.1875 -22.078125 2.4375 -22.328125 C 2.65625 -22.53125 2.9375 -22.65625 3.328125 -22.65625 C 3.65625 -22.65625 3.953125 -22.53125 4.203125 -22.328125 C 4.421875 -22.078125 4.546875 -21.78125 4.546875 -21.4375 Z M 4.546875 -1.21875 "/></g></g></g><g fill="#c01bc4" fill-opacity="1"><g transform="translate(312.783442, 340.084916)"><g><path d="M 7.109375 0 C 6.390625 0 5.71875 -0.125 5.125 -0.375 C 4.546875 -0.625 4 -1.015625 3.578125 -1.46875 C 3.109375 -1.890625 2.734375 -2.4375 2.484375 -3.03125 C 2.234375 -3.609375 2.109375 -4.28125 2.109375 -5 L 2.109375 -17.578125 C 2.109375 -18.25 2.234375 -18.921875 2.484375 -19.515625 C 2.734375 -20.09375 3.109375 -20.640625 3.578125 -21.109375 C 4 -21.53125 4.546875 -21.90625 5.125 -22.15625 C 5.71875 -22.40625 6.390625 -22.578125 7.109375 -22.578125 C 7.78125 -22.578125 8.453125 -22.40625 9.046875 -22.15625 C 9.625 -21.90625 10.171875 -21.53125 10.640625 -21.109375 C 11.0625 -20.640625 11.4375 -20.09375 11.6875 -19.515625 C 11.9375 -18.921875 12.109375 -18.25 12.109375 -17.578125 L 12.109375 -5 C 12.109375 -4.28125 11.9375 -3.609375 11.6875 -3.03125 C 11.4375 -2.4375 11.0625 -1.890625 10.640625 -1.46875 C 10.171875 -1.015625 9.625 -0.625 9.046875 -0.375 C 8.453125 -0.125 7.78125 0 7.109375 0 Z M 4.546875 -5 C 4.546875 -4.28125 4.75 -3.703125 5.25 -3.203125 C 5.765625 -2.6875 6.34375 -2.484375 7.0625 -2.484375 C 7.734375 -2.484375 8.328125 -2.6875 8.828125 -3.203125 C 9.328125 -3.703125 9.59375 -4.28125 9.59375 -5 L 9.59375 -17.578125 C 9.59375 -18.25 9.328125 -18.84375 8.828125 -19.34375 C 8.328125 -19.84375 7.734375 -20.09375 7.0625 -20.09375 C 6.34375 -20.09375 5.765625 -19.84375 5.25 -19.34375 C 4.75 -18.84375 4.546875 -18.25 4.546875 -17.578125 Z M 4.546875 -5 "/></g></g></g><g fill="#c01bc4" fill-opacity="1"><g transform="translate(331.784308, 340.084916)"><g><path d="M 4.546875 -15.015625 L 4.546875 -1.21875 C 4.546875 -0.84375 4.421875 -0.546875 4.203125 -0.34375 C 3.953125 -0.078125 3.65625 0 3.328125 0 C 2.9375 0 2.65625 -0.078125 2.4375 -0.34375 C 2.1875 -0.546875 2.109375 -0.84375 2.109375 -1.21875 L 2.109375 -21.65625 C 2.109375 -21.953125 2.1875 -22.203125 2.390625 -22.375 C 2.5625 -22.53125 2.8125 -22.65625 3.15625 -22.65625 C 3.453125 -22.65625 3.734375 -22.578125 4 -22.40625 C 4.25 -22.25 4.421875 -21.984375 4.546875 -21.703125 L 10.171875 -7.65625 L 10.171875 -21.4375 C 10.171875 -21.78125 10.265625 -22.078125 10.515625 -22.328125 C 10.71875 -22.53125 11.015625 -22.65625 11.390625 -22.65625 C 11.734375 -22.65625 12.03125 -22.53125 12.28125 -22.328125 C 12.484375 -22.078125 12.609375 -21.78125 12.609375 -21.4375 L 12.609375 -1.046875 C 12.609375 -0.71875 12.484375 -0.46875 12.3125 -0.296875 C 12.15625 -0.078125 11.90625 0 11.609375 0 C 11.265625 0 10.96875 -0.078125 10.71875 -0.25 C 10.46875 -0.421875 10.265625 -0.625 10.171875 -0.96875 Z M 4.546875 -15.015625 "/></g></g></g><g fill="#c01bc4" fill-opacity="1"><g transform="translate(351.289557, 340.084916)"><g><path d="M 5.84375 -10.8125 C 5.375 -11.21875 4.921875 -11.640625 4.5 -12.15625 C 4.078125 -12.609375 3.65625 -13.125 3.328125 -13.671875 C 2.9375 -14.21875 2.65625 -14.796875 2.4375 -15.46875 C 2.1875 -16.109375 2.109375 -16.8125 2.109375 -17.578125 C 2.109375 -18.25 2.234375 -18.921875 2.484375 -19.515625 C 2.734375 -20.09375 3.109375 -20.640625 3.578125 -21.109375 C 4 -21.53125 4.546875 -21.90625 5.125 -22.15625 C 5.71875 -22.40625 6.390625 -22.578125 7.109375 -22.578125 C 7.78125 -22.578125 8.40625 -22.453125 9 -22.203125 C 9.59375 -21.953125 10.140625 -21.5625 10.59375 -21.15625 C 11.0625 -20.734375 11.4375 -20.1875 11.734375 -19.59375 C 11.984375 -19 12.15625 -18.375 12.15625 -17.703125 L 12.15625 -17.40625 C 12.15625 -17.203125 12.03125 -17.109375 11.859375 -17.109375 L 10 -17.109375 C 9.796875 -17.109375 9.71875 -17.203125 9.71875 -17.40625 L 9.71875 -17.703125 C 9.71875 -18.328125 9.453125 -18.875 8.953125 -19.390625 C 8.453125 -19.84375 7.828125 -20.09375 7.140625 -20.09375 C 6.4375 -20.09375 5.84375 -19.84375 5.34375 -19.34375 C 4.828125 -18.84375 4.625 -18.25 4.625 -17.578125 C 4.625 -17.234375 4.671875 -16.90625 4.75 -16.5625 C 4.828125 -16.234375 5 -15.859375 5.25 -15.4375 C 5.515625 -15.015625 5.84375 -14.5 6.3125 -14 C 6.734375 -13.5 7.3125 -12.859375 8.03125 -12.15625 L 8.40625 -11.765625 C 8.828125 -11.359375 9.296875 -10.890625 9.75 -10.421875 C 10.171875 -9.921875 10.59375 -9.421875 10.9375 -8.875 C 11.265625 -8.328125 11.5625 -7.734375 11.8125 -7.109375 C 12.03125 -6.4375 12.15625 -5.765625 12.15625 -5 C 12.15625 -4.28125 11.984375 -3.609375 11.734375 -3.03125 C 11.484375 -2.4375 11.09375 -1.890625 10.6875 -1.46875 C 10.21875 -1.015625 9.671875 -0.625 9.078125 -0.375 C 8.5 -0.125 7.828125 0 7.140625 0 C 6.46875 0 5.796875 -0.125 5.21875 -0.375 C 4.625 -0.625 4.078125 -0.96875 3.609375 -1.390625 C 3.15625 -1.8125 2.78125 -2.359375 2.515625 -2.9375 C 2.234375 -3.53125 2.109375 -4.203125 2.109375 -4.875 L 2.109375 -5.171875 C 2.109375 -5.34375 2.1875 -5.46875 2.390625 -5.46875 L 4.25 -5.46875 C 4.421875 -5.46875 4.546875 -5.34375 4.546875 -5.171875 L 4.546875 -4.875 C 4.546875 -4.203125 4.796875 -3.65625 5.296875 -3.203125 C 5.796875 -2.6875 6.390625 -2.484375 7.109375 -2.484375 C 7.78125 -2.484375 8.375 -2.6875 8.875 -3.203125 C 9.375 -3.703125 9.625 -4.28125 9.625 -5 C 9.625 -5.34375 9.59375 -5.671875 9.5 -6.015625 C 9.421875 -6.34375 9.25 -6.734375 9 -7.140625 C 8.75 -7.5625 8.375 -8.03125 7.953125 -8.578125 C 7.53125 -9.078125 6.9375 -9.71875 6.21875 -10.421875 Z M 5.84375 -10.8125 "/></g></g></g></svg>