<svg xmlns="http://www.w3.org/2000/svg" xmlns:xlink="http://www.w3.org/1999/xlink" width="851" zoomAndPan="magnify" viewBox="0 0 638.25 236.249991" height="315" preserveAspectRatio="xMidYMid meet" version="1.0"><defs><g/><clipPath id="6bbe333d6b"><path d="M 19.132812 35.175781 L 176.132812 35.175781 L 176.132812 192.179688 L 19.132812 192.179688 Z M 19.132812 35.175781 " clip-rule="nonzero"/></clipPath></defs><g clip-path="url(#6bbe333d6b)"><path fill="#00b779" d="M 97.589844 35.179688 C 112.03125 139.792969 123.742188 128.082031 19.128906 113.636719 C 123.742188 99.195312 112.03125 87.484375 97.589844 192.097656 C 83.144531 87.484375 71.4375 99.195312 176.046875 113.636719 C 71.4375 128.082031 83.144531 139.792969 97.589844 35.179688 Z M 97.589844 134.847656 C 101.492188 106.570312 104.660156 109.734375 76.378906 113.636719 C 104.660156 117.542969 101.492188 120.707031 97.589844 92.429688 C 93.683594 120.707031 90.519531 117.542969 118.796875 113.636719 C 90.519531 109.734375 93.683594 106.570312 97.589844 134.847656 Z M 97.589844 134.847656 " fill-opacity="1" fill-rule="nonzero"/></g><g fill="#000000" fill-opacity="1"><g transform="translate(188.669664, 86.578895)"><g><path d="M 19.09375 -4.84375 C 19.8125 -4.84375 20.410156 -4.613281 20.890625 -4.15625 C 21.378906 -3.707031 21.625 -3.125 21.625 -2.40625 C 21.625 -1.707031 21.378906 -1.128906 20.890625 -0.671875 C 20.410156 -0.222656 19.8125 0 19.09375 0 L 5.640625 0 C 4.921875 0 4.316406 -0.238281 3.828125 -0.71875 C 3.347656 -1.207031 3.109375 -1.8125 3.109375 -2.53125 L 3.109375 -26.46875 C 3.109375 -27.1875 3.351562 -27.785156 3.84375 -28.265625 C 4.34375 -28.753906 4.976562 -29 5.75 -29 C 6.414062 -29 7.003906 -28.753906 7.515625 -28.265625 C 8.023438 -27.785156 8.28125 -27.1875 8.28125 -26.46875 L 8.28125 -4.140625 L 7.375 -4.84375 Z M 19.09375 -4.84375 "/></g></g></g><g fill="#000000" fill-opacity="1"><g transform="translate(211.942918, 86.578895)"><g><path d="M 5.640625 -29 L 19.515625 -29 C 20.234375 -29 20.832031 -28.769531 21.3125 -28.3125 C 21.789062 -27.851562 22.03125 -27.265625 22.03125 -26.546875 C 22.03125 -25.859375 21.789062 -25.300781 21.3125 -24.875 C 20.832031 -24.445312 20.234375 -24.234375 19.515625 -24.234375 L 7.90625 -24.234375 L 8.28125 -24.9375 L 8.28125 -16.859375 L 7.953125 -17.1875 L 17.640625 -17.1875 C 18.359375 -17.1875 18.957031 -16.957031 19.4375 -16.5 C 19.925781 -16.050781 20.171875 -15.46875 20.171875 -14.75 C 20.171875 -14.050781 19.925781 -13.488281 19.4375 -13.0625 C 18.957031 -12.632812 18.359375 -12.421875 17.640625 -12.421875 L 8.078125 -12.421875 L 8.28125 -12.765625 L 8.28125 -4.390625 L 7.953125 -4.765625 L 19.515625 -4.765625 C 20.234375 -4.765625 20.832031 -4.519531 21.3125 -4.03125 C 21.789062 -3.550781 22.03125 -2.992188 22.03125 -2.359375 C 22.03125 -1.671875 21.789062 -1.101562 21.3125 -0.65625 C 20.832031 -0.21875 20.234375 0 19.515625 0 L 5.640625 0 C 4.921875 0 4.316406 -0.238281 3.828125 -0.71875 C 3.347656 -1.207031 3.109375 -1.8125 3.109375 -2.53125 L 3.109375 -26.46875 C 3.109375 -27.1875 3.347656 -27.785156 3.828125 -28.265625 C 4.316406 -28.753906 4.921875 -29 5.640625 -29 Z M 5.640625 -29 "/></g></g></g><g fill="#000000" fill-opacity="1"><g transform="translate(235.630289, 86.578895)"><g><path d="M 23.40625 -27.59375 C 24.125 -27.226562 24.546875 -26.660156 24.671875 -25.890625 C 24.796875 -25.117188 24.59375 -24.414062 24.0625 -23.78125 C 23.707031 -23.28125 23.242188 -23 22.671875 -22.9375 C 22.109375 -22.882812 21.535156 -23 20.953125 -23.28125 C 20.296875 -23.582031 19.597656 -23.816406 18.859375 -23.984375 C 18.128906 -24.148438 17.363281 -24.234375 16.5625 -24.234375 C 15.070312 -24.234375 13.738281 -24 12.5625 -23.53125 C 11.394531 -23.0625 10.394531 -22.390625 9.5625 -21.515625 C 8.738281 -20.648438 8.113281 -19.625 7.6875 -18.4375 C 7.257812 -17.25 7.046875 -15.9375 7.046875 -14.5 C 7.046875 -12.8125 7.285156 -11.347656 7.765625 -10.109375 C 8.242188 -8.867188 8.910156 -7.832031 9.765625 -7 C 10.628906 -6.164062 11.640625 -5.550781 12.796875 -5.15625 C 13.960938 -4.757812 15.21875 -4.5625 16.5625 -4.5625 C 17.3125 -4.5625 18.054688 -4.628906 18.796875 -4.765625 C 19.546875 -4.898438 20.265625 -5.148438 20.953125 -5.515625 C 21.535156 -5.785156 22.109375 -5.878906 22.671875 -5.796875 C 23.242188 -5.710938 23.722656 -5.421875 24.109375 -4.921875 C 24.660156 -4.234375 24.859375 -3.523438 24.703125 -2.796875 C 24.554688 -2.066406 24.132812 -1.535156 23.4375 -1.203125 C 22.726562 -0.835938 21.992188 -0.535156 21.234375 -0.296875 C 20.472656 -0.0664062 19.703125 0.109375 18.921875 0.234375 C 18.148438 0.359375 17.363281 0.421875 16.5625 0.421875 C 14.582031 0.421875 12.703125 0.101562 10.921875 -0.53125 C 9.140625 -1.164062 7.550781 -2.101562 6.15625 -3.34375 C 4.757812 -4.59375 3.660156 -6.148438 2.859375 -8.015625 C 2.054688 -9.878906 1.65625 -12.039062 1.65625 -14.5 C 1.65625 -16.625 2.019531 -18.582031 2.75 -20.375 C 3.488281 -22.175781 4.523438 -23.726562 5.859375 -25.03125 C 7.203125 -26.34375 8.785156 -27.363281 10.609375 -28.09375 C 12.429688 -28.832031 14.414062 -29.203125 16.5625 -29.203125 C 17.78125 -29.203125 18.96875 -29.0625 20.125 -28.78125 C 21.289062 -28.507812 22.382812 -28.113281 23.40625 -27.59375 Z M 23.40625 -27.59375 "/></g></g></g><g fill="#000000" fill-opacity="1"><g transform="translate(261.595288, 86.578895)"><g><path d="M 19.09375 -4.84375 C 19.8125 -4.84375 20.410156 -4.613281 20.890625 -4.15625 C 21.378906 -3.707031 21.625 -3.125 21.625 -2.40625 C 21.625 -1.707031 21.378906 -1.128906 20.890625 -0.671875 C 20.410156 -0.222656 19.8125 0 19.09375 0 L 5.640625 0 C 4.921875 0 4.316406 -0.238281 3.828125 -0.71875 C 3.347656 -1.207031 3.109375 -1.8125 3.109375 -2.53125 L 3.109375 -26.46875 C 3.109375 -27.1875 3.351562 -27.785156 3.84375 -28.265625 C 4.34375 -28.753906 4.976562 -29 5.75 -29 C 6.414062 -29 7.003906 -28.753906 7.515625 -28.265625 C 8.023438 -27.785156 8.28125 -27.1875 8.28125 -26.46875 L 8.28125 -4.140625 L 7.375 -4.84375 Z M 19.09375 -4.84375 "/></g></g></g><g fill="#000000" fill-opacity="1"><g transform="translate(284.868542, 86.578895)"><g><path d="M 13.75 -22.484375 L 4.8125 -1.453125 C 4.613281 -0.921875 4.3125 -0.507812 3.90625 -0.21875 C 3.507812 0.0625 3.078125 0.203125 2.609375 0.203125 C 1.859375 0.203125 1.304688 0 0.953125 -0.40625 C 0.597656 -0.820312 0.421875 -1.335938 0.421875 -1.953125 C 0.421875 -2.191406 0.457031 -2.453125 0.53125 -2.734375 L 10.859375 -27.5 C 11.078125 -28.050781 11.410156 -28.476562 11.859375 -28.78125 C 12.316406 -29.09375 12.8125 -29.21875 13.34375 -29.15625 C 13.832031 -29.15625 14.289062 -29.007812 14.71875 -28.71875 C 15.15625 -28.4375 15.46875 -28.03125 15.65625 -27.5 L 25.84375 -3.234375 C 25.976562 -2.867188 26.046875 -2.535156 26.046875 -2.234375 C 26.046875 -1.492188 25.804688 -0.898438 25.328125 -0.453125 C 24.847656 -0.015625 24.316406 0.203125 23.734375 0.203125 C 23.234375 0.203125 22.78125 0.0507812 22.375 -0.25 C 21.976562 -0.550781 21.671875 -0.960938 21.453125 -1.484375 L 12.546875 -22.25 Z M 6.09375 -6.5 L 8.375 -11.265625 L 19.546875 -11.265625 L 20.34375 -6.5 Z M 6.09375 -6.5 "/></g></g></g><g fill="#000000" fill-opacity="1"><g transform="translate(311.330479, 86.578895)"><g><path d="M 8.28125 -2.53125 C 8.28125 -1.8125 8.015625 -1.207031 7.484375 -0.71875 C 6.960938 -0.238281 6.359375 0 5.671875 0 C 4.898438 0 4.28125 -0.238281 3.8125 -0.71875 C 3.34375 -1.207031 3.109375 -1.8125 3.109375 -2.53125 L 3.109375 -26.46875 C 3.109375 -27.1875 3.351562 -27.785156 3.84375 -28.265625 C 4.34375 -28.753906 4.976562 -29 5.75 -29 C 6.414062 -29 7.003906 -28.753906 7.515625 -28.265625 C 8.023438 -27.785156 8.28125 -27.1875 8.28125 -26.46875 Z M 8.28125 -2.53125 "/></g></g></g><g fill="#000000" fill-opacity="1"><g transform="translate(322.718631, 86.578895)"><g><path d="M 6.09375 0 C 5.3125 0 4.617188 -0.238281 4.015625 -0.71875 C 3.410156 -1.207031 3.109375 -1.8125 3.109375 -2.53125 L 3.109375 -26.46875 C 3.109375 -27.1875 3.347656 -27.785156 3.828125 -28.265625 C 4.316406 -28.753906 4.921875 -29 5.640625 -29 L 17.5625 -29 C 19 -29 20.34375 -28.617188 21.59375 -27.859375 C 22.851562 -27.097656 23.867188 -26.046875 24.640625 -24.703125 C 25.421875 -23.367188 25.8125 -21.832031 25.8125 -20.09375 C 25.8125 -19.039062 25.59375 -18.015625 25.15625 -17.015625 C 24.726562 -16.023438 24.148438 -15.128906 23.421875 -14.328125 C 22.691406 -13.523438 21.867188 -12.90625 20.953125 -12.46875 L 21 -13.421875 C 21.769531 -13.003906 22.410156 -12.507812 22.921875 -11.9375 C 23.429688 -11.375 23.832031 -10.769531 24.125 -10.125 C 24.414062 -9.476562 24.585938 -8.78125 24.640625 -8.03125 C 24.753906 -7.34375 24.832031 -6.734375 24.875 -6.203125 C 24.914062 -5.679688 25 -5.238281 25.125 -4.875 C 25.25 -4.519531 25.488281 -4.25 25.84375 -4.0625 C 26.457031 -3.695312 26.835938 -3.175781 26.984375 -2.5 C 27.140625 -1.820312 26.984375 -1.222656 26.515625 -0.703125 C 26.203125 -0.347656 25.8125 -0.117188 25.34375 -0.015625 C 24.875 0.078125 24.40625 0.078125 23.9375 -0.015625 C 23.46875 -0.117188 23.082031 -0.253906 22.78125 -0.421875 C 22.3125 -0.691406 21.84375 -1.09375 21.375 -1.625 C 20.90625 -2.164062 20.523438 -2.890625 20.234375 -3.796875 C 19.941406 -4.710938 19.796875 -5.890625 19.796875 -7.328125 C 19.796875 -7.796875 19.710938 -8.226562 19.546875 -8.625 C 19.378906 -9.03125 19.144531 -9.378906 18.84375 -9.671875 C 18.539062 -9.960938 18.15625 -10.179688 17.6875 -10.328125 C 17.21875 -10.484375 16.664062 -10.5625 16.03125 -10.5625 L 7.65625 -10.5625 L 8.28125 -11.515625 L 8.28125 -2.53125 C 8.28125 -1.8125 8.085938 -1.207031 7.703125 -0.71875 C 7.316406 -0.238281 6.78125 0 6.09375 0 Z M 7.703125 -14.828125 L 17.359375 -14.828125 C 17.847656 -14.828125 18.328125 -15.054688 18.796875 -15.515625 C 19.273438 -15.972656 19.664062 -16.59375 19.96875 -17.375 C 20.269531 -18.164062 20.421875 -19.03125 20.421875 -19.96875 C 20.421875 -21.175781 20.09375 -22.1875 19.4375 -23 C 18.789062 -23.820312 18.097656 -24.234375 17.359375 -24.234375 L 7.78125 -24.234375 L 8.28125 -25.5625 L 8.28125 -13.828125 Z M 7.703125 -14.828125 "/></g></g></g><g fill="#000000" fill-opacity="1"><g transform="translate(351.168323, 86.578895)"><g/></g></g><g fill="#000000" fill-opacity="1"><g transform="translate(362.763539, 86.578895)"><g><path d="M 5.71875 0 C 4.945312 0 4.316406 -0.238281 3.828125 -0.71875 C 3.347656 -1.207031 3.109375 -1.8125 3.109375 -2.53125 L 3.109375 -26.46875 C 3.109375 -27.1875 3.347656 -27.785156 3.828125 -28.265625 C 4.316406 -28.753906 4.921875 -29 5.640625 -29 L 19.09375 -29 C 19.8125 -29 20.410156 -28.769531 20.890625 -28.3125 C 21.378906 -27.851562 21.625 -27.265625 21.625 -26.546875 C 21.625 -25.941406 21.378906 -25.40625 20.890625 -24.9375 C 20.410156 -24.46875 19.8125 -24.234375 19.09375 -24.234375 L 7.90625 -24.234375 L 8.28125 -24.734375 L 8.28125 -16.40625 L 8 -16.9375 L 17.234375 -16.9375 C 17.953125 -16.9375 18.550781 -16.707031 19.03125 -16.25 C 19.519531 -15.800781 19.765625 -15.21875 19.765625 -14.5 C 19.765625 -13.894531 19.519531 -13.351562 19.03125 -12.875 C 18.550781 -12.40625 17.953125 -12.171875 17.234375 -12.171875 L 7.90625 -12.171875 L 8.28125 -12.546875 L 8.28125 -2.53125 C 8.28125 -1.8125 8.023438 -1.207031 7.515625 -0.71875 C 7.003906 -0.238281 6.40625 0 5.71875 0 Z M 5.71875 0 "/></g></g></g><g fill="#000000" fill-opacity="1"><g transform="translate(386.036781, 86.578895)"><g><path d="M 29.78125 -14.5 C 29.78125 -12.425781 29.4375 -10.488281 28.75 -8.6875 C 28.0625 -6.894531 27.085938 -5.316406 25.828125 -3.953125 C 24.566406 -2.585938 23.070312 -1.515625 21.34375 -0.734375 C 19.625 0.0351562 17.742188 0.421875 15.703125 0.421875 C 13.660156 0.421875 11.78125 0.0351562 10.0625 -0.734375 C 8.351562 -1.515625 6.867188 -2.585938 5.609375 -3.953125 C 4.359375 -5.316406 3.382812 -6.894531 2.6875 -8.6875 C 2 -10.488281 1.65625 -12.425781 1.65625 -14.5 C 1.65625 -16.570312 2 -18.503906 2.6875 -20.296875 C 3.382812 -22.085938 4.359375 -23.664062 5.609375 -25.03125 C 6.867188 -26.40625 8.351562 -27.476562 10.0625 -28.25 C 11.78125 -29.019531 13.660156 -29.40625 15.703125 -29.40625 C 17.742188 -29.40625 19.625 -29.019531 21.34375 -28.25 C 23.070312 -27.476562 24.566406 -26.40625 25.828125 -25.03125 C 27.085938 -23.664062 28.0625 -22.085938 28.75 -20.296875 C 29.4375 -18.503906 29.78125 -16.570312 29.78125 -14.5 Z M 24.390625 -14.5 C 24.390625 -16.34375 24.015625 -18.015625 23.265625 -19.515625 C 22.523438 -21.023438 21.503906 -22.222656 20.203125 -23.109375 C 18.910156 -23.992188 17.410156 -24.4375 15.703125 -24.4375 C 13.984375 -24.4375 12.472656 -23.992188 11.171875 -23.109375 C 9.878906 -22.222656 8.867188 -21.035156 8.140625 -19.546875 C 7.410156 -18.054688 7.046875 -16.375 7.046875 -14.5 C 7.046875 -12.644531 7.410156 -10.960938 8.140625 -9.453125 C 8.867188 -7.953125 9.878906 -6.757812 11.171875 -5.875 C 12.472656 -5 13.984375 -4.5625 15.703125 -4.5625 C 17.410156 -4.5625 18.910156 -5 20.203125 -5.875 C 21.503906 -6.757812 22.523438 -7.953125 23.265625 -9.453125 C 24.015625 -10.960938 24.390625 -12.644531 24.390625 -14.5 Z M 24.390625 -14.5 "/></g></g></g><g fill="#000000" fill-opacity="1"><g transform="translate(417.468081, 86.578895)"><g><path d="M 23.6875 -29.03125 C 24.40625 -29.03125 24.984375 -28.789062 25.421875 -28.3125 C 25.867188 -27.832031 26.09375 -27.234375 26.09375 -26.515625 L 26.09375 -11.515625 C 26.09375 -9.222656 25.601562 -7.191406 24.625 -5.421875 C 23.644531 -3.660156 22.296875 -2.28125 20.578125 -1.28125 C 18.867188 -0.289062 16.882812 0.203125 14.625 0.203125 C 12.351562 0.203125 10.351562 -0.289062 8.625 -1.28125 C 6.90625 -2.28125 5.554688 -3.660156 4.578125 -5.421875 C 3.597656 -7.191406 3.109375 -9.222656 3.109375 -11.515625 L 3.109375 -26.515625 C 3.109375 -27.234375 3.351562 -27.832031 3.84375 -28.3125 C 4.34375 -28.789062 4.976562 -29.03125 5.75 -29.03125 C 6.382812 -29.03125 6.957031 -28.789062 7.46875 -28.3125 C 7.988281 -27.832031 8.25 -27.234375 8.25 -26.515625 L 8.25 -11.515625 C 8.25 -10.128906 8.546875 -8.929688 9.140625 -7.921875 C 9.734375 -6.921875 10.519531 -6.144531 11.5 -5.59375 C 12.476562 -5.039062 13.519531 -4.765625 14.625 -4.765625 C 15.8125 -4.765625 16.914062 -5.039062 17.9375 -5.59375 C 18.957031 -6.144531 19.785156 -6.921875 20.421875 -7.921875 C 21.054688 -8.929688 21.375 -10.128906 21.375 -11.515625 L 21.375 -26.515625 C 21.375 -27.234375 21.578125 -27.832031 21.984375 -28.3125 C 22.398438 -28.789062 22.96875 -29.03125 23.6875 -29.03125 Z M 23.6875 -29.03125 "/></g></g></g><g fill="#000000" fill-opacity="1"><g transform="translate(446.663164, 86.578895)"><g><path d="M 25.109375 -29 C 25.765625 -29 26.300781 -28.773438 26.71875 -28.328125 C 27.132812 -27.890625 27.34375 -27.335938 27.34375 -26.671875 L 27.34375 -2.53125 C 27.34375 -1.8125 27.097656 -1.207031 26.609375 -0.71875 C 26.128906 -0.238281 25.53125 0 24.8125 0 C 24.445312 0 24.078125 -0.0625 23.703125 -0.1875 C 23.335938 -0.3125 23.054688 -0.484375 22.859375 -0.703125 L 6.59375 -21.375 L 7.65625 -22.03125 L 7.65625 -2.3125 C 7.65625 -1.65625 7.441406 -1.101562 7.015625 -0.65625 C 6.585938 -0.21875 6.03125 0 5.34375 0 C 4.675781 0 4.132812 -0.21875 3.71875 -0.65625 C 3.3125 -1.101562 3.109375 -1.65625 3.109375 -2.3125 L 3.109375 -26.46875 C 3.109375 -27.1875 3.347656 -27.785156 3.828125 -28.265625 C 4.316406 -28.753906 4.921875 -29 5.640625 -29 C 6.023438 -29 6.421875 -28.921875 6.828125 -28.765625 C 7.242188 -28.617188 7.550781 -28.390625 7.75 -28.078125 L 23.53125 -7.953125 L 22.828125 -7.453125 L 22.828125 -26.671875 C 22.828125 -27.335938 23.03125 -27.890625 23.4375 -28.328125 C 23.851562 -28.773438 24.410156 -29 25.109375 -29 Z M 25.109375 -29 "/></g></g></g><g fill="#000000" fill-opacity="1"><g transform="translate(477.100609, 86.578895)"><g><path d="M 15.53125 -29 C 17.519531 -29 19.285156 -28.625 20.828125 -27.875 C 22.378906 -27.132812 23.6875 -26.09375 24.75 -24.75 C 25.8125 -23.40625 26.609375 -21.859375 27.140625 -20.109375 C 27.679688 -18.359375 27.953125 -16.488281 27.953125 -14.5 C 27.953125 -11.820312 27.46875 -9.382812 26.5 -7.1875 C 25.539062 -4.988281 24.140625 -3.238281 22.296875 -1.9375 C 20.460938 -0.644531 18.207031 0 15.53125 0 L 5.640625 0 C 4.921875 0 4.316406 -0.238281 3.828125 -0.71875 C 3.347656 -1.207031 3.109375 -1.8125 3.109375 -2.53125 L 3.109375 -26.46875 C 3.109375 -27.1875 3.347656 -27.785156 3.828125 -28.265625 C 4.316406 -28.753906 4.921875 -29 5.640625 -29 Z M 15.125 -4.765625 C 16.863281 -4.765625 18.285156 -5.210938 19.390625 -6.109375 C 20.492188 -7.003906 21.300781 -8.191406 21.8125 -9.671875 C 22.320312 -11.148438 22.578125 -12.757812 22.578125 -14.5 C 22.578125 -15.789062 22.429688 -17.023438 22.140625 -18.203125 C 21.847656 -19.378906 21.394531 -20.414062 20.78125 -21.3125 C 20.175781 -22.207031 19.40625 -22.914062 18.46875 -23.4375 C 17.53125 -23.96875 16.414062 -24.234375 15.125 -24.234375 L 7.875 -24.234375 L 8.28125 -24.609375 L 8.28125 -4.3125 L 8.03125 -4.765625 Z M 15.125 -4.765625 "/></g></g></g><g fill="#000000" fill-opacity="1"><g transform="translate(506.70982, 86.578895)"><g><path d="M 13.75 -22.484375 L 4.8125 -1.453125 C 4.613281 -0.921875 4.3125 -0.507812 3.90625 -0.21875 C 3.507812 0.0625 3.078125 0.203125 2.609375 0.203125 C 1.859375 0.203125 1.304688 0 0.953125 -0.40625 C 0.597656 -0.820312 0.421875 -1.335938 0.421875 -1.953125 C 0.421875 -2.191406 0.457031 -2.453125 0.53125 -2.734375 L 10.859375 -27.5 C 11.078125 -28.050781 11.410156 -28.476562 11.859375 -28.78125 C 12.316406 -29.09375 12.8125 -29.21875 13.34375 -29.15625 C 13.832031 -29.15625 14.289062 -29.007812 14.71875 -28.71875 C 15.15625 -28.4375 15.46875 -28.03125 15.65625 -27.5 L 25.84375 -3.234375 C 25.976562 -2.867188 26.046875 -2.535156 26.046875 -2.234375 C 26.046875 -1.492188 25.804688 -0.898438 25.328125 -0.453125 C 24.847656 -0.015625 24.316406 0.203125 23.734375 0.203125 C 23.234375 0.203125 22.78125 0.0507812 22.375 -0.25 C 21.976562 -0.550781 21.671875 -0.960938 21.453125 -1.484375 L 12.546875 -22.25 Z M 6.09375 -6.5 L 8.375 -11.265625 L 19.546875 -11.265625 L 20.34375 -6.5 Z M 6.09375 -6.5 "/></g></g></g><g fill="#000000" fill-opacity="1"><g transform="translate(533.171758, 86.578895)"><g><path d="M 12.921875 0 C 12.148438 0 11.515625 -0.238281 11.015625 -0.71875 C 10.515625 -1.207031 10.265625 -1.8125 10.265625 -2.53125 L 10.265625 -26.546875 L 15.65625 -26.546875 L 15.65625 -2.53125 C 15.65625 -1.8125 15.398438 -1.207031 14.890625 -0.71875 C 14.378906 -0.238281 13.722656 0 12.921875 0 Z M 3.765625 -24.234375 C 3.046875 -24.234375 2.445312 -24.453125 1.96875 -24.890625 C 1.488281 -25.335938 1.25 -25.921875 1.25 -26.640625 C 1.25 -27.359375 1.488281 -27.929688 1.96875 -28.359375 C 2.445312 -28.785156 3.046875 -29 3.765625 -29 L 22.15625 -29 C 22.875 -29 23.472656 -28.773438 23.953125 -28.328125 C 24.441406 -27.890625 24.6875 -27.3125 24.6875 -26.59375 C 24.6875 -25.875 24.441406 -25.300781 23.953125 -24.875 C 23.472656 -24.445312 22.875 -24.234375 22.15625 -24.234375 Z M 3.765625 -24.234375 "/></g></g></g><g fill="#000000" fill-opacity="1"><g transform="translate(559.095358, 86.578895)"><g><path d="M 8.28125 -2.53125 C 8.28125 -1.8125 8.015625 -1.207031 7.484375 -0.71875 C 6.960938 -0.238281 6.359375 0 5.671875 0 C 4.898438 0 4.28125 -0.238281 3.8125 -0.71875 C 3.34375 -1.207031 3.109375 -1.8125 3.109375 -2.53125 L 3.109375 -26.46875 C 3.109375 -27.1875 3.351562 -27.785156 3.84375 -28.265625 C 4.34375 -28.753906 4.976562 -29 5.75 -29 C 6.414062 -29 7.003906 -28.753906 7.515625 -28.265625 C 8.023438 -27.785156 8.28125 -27.1875 8.28125 -26.46875 Z M 8.28125 -2.53125 "/></g></g></g><g fill="#000000" fill-opacity="1"><g transform="translate(570.483521, 86.578895)"><g><path d="M 29.78125 -14.5 C 29.78125 -12.425781 29.4375 -10.488281 28.75 -8.6875 C 28.0625 -6.894531 27.085938 -5.316406 25.828125 -3.953125 C 24.566406 -2.585938 23.070312 -1.515625 21.34375 -0.734375 C 19.625 0.0351562 17.742188 0.421875 15.703125 0.421875 C 13.660156 0.421875 11.78125 0.0351562 10.0625 -0.734375 C 8.351562 -1.515625 6.867188 -2.585938 5.609375 -3.953125 C 4.359375 -5.316406 3.382812 -6.894531 2.6875 -8.6875 C 2 -10.488281 1.65625 -12.425781 1.65625 -14.5 C 1.65625 -16.570312 2 -18.503906 2.6875 -20.296875 C 3.382812 -22.085938 4.359375 -23.664062 5.609375 -25.03125 C 6.867188 -26.40625 8.351562 -27.476562 10.0625 -28.25 C 11.78125 -29.019531 13.660156 -29.40625 15.703125 -29.40625 C 17.742188 -29.40625 19.625 -29.019531 21.34375 -28.25 C 23.070312 -27.476562 24.566406 -26.40625 25.828125 -25.03125 C 27.085938 -23.664062 28.0625 -22.085938 28.75 -20.296875 C 29.4375 -18.503906 29.78125 -16.570312 29.78125 -14.5 Z M 24.390625 -14.5 C 24.390625 -16.34375 24.015625 -18.015625 23.265625 -19.515625 C 22.523438 -21.023438 21.503906 -22.222656 20.203125 -23.109375 C 18.910156 -23.992188 17.410156 -24.4375 15.703125 -24.4375 C 13.984375 -24.4375 12.472656 -23.992188 11.171875 -23.109375 C 9.878906 -22.222656 8.867188 -21.035156 8.140625 -19.546875 C 7.410156 -18.054688 7.046875 -16.375 7.046875 -14.5 C 7.046875 -12.644531 7.410156 -10.960938 8.140625 -9.453125 C 8.867188 -7.953125 9.878906 -6.757812 11.171875 -5.875 C 12.472656 -5 13.984375 -4.5625 15.703125 -4.5625 C 17.410156 -4.5625 18.910156 -5 20.203125 -5.875 C 21.503906 -6.757812 22.523438 -7.953125 23.265625 -9.453125 C 24.015625 -10.960938 24.390625 -12.644531 24.390625 -14.5 Z M 24.390625 -14.5 "/></g></g></g><g fill="#000000" fill-opacity="1"><g transform="translate(601.914821, 86.578895)"><g><path d="M 25.109375 -29 C 25.765625 -29 26.300781 -28.773438 26.71875 -28.328125 C 27.132812 -27.890625 27.34375 -27.335938 27.34375 -26.671875 L 27.34375 -2.53125 C 27.34375 -1.8125 27.097656 -1.207031 26.609375 -0.71875 C 26.128906 -0.238281 25.53125 0 24.8125 0 C 24.445312 0 24.078125 -0.0625 23.703125 -0.1875 C 23.335938 -0.3125 23.054688 -0.484375 22.859375 -0.703125 L 6.59375 -21.375 L 7.65625 -22.03125 L 7.65625 -2.3125 C 7.65625 -1.65625 7.441406 -1.101562 7.015625 -0.65625 C 6.585938 -0.21875 6.03125 0 5.34375 0 C 4.675781 0 4.132812 -0.21875 3.71875 -0.65625 C 3.3125 -1.101562 3.109375 -1.65625 3.109375 -2.3125 L 3.109375 -26.46875 C 3.109375 -27.1875 3.347656 -27.785156 3.828125 -28.265625 C 4.316406 -28.753906 4.921875 -29 5.640625 -29 C 6.023438 -29 6.421875 -28.921875 6.828125 -28.765625 C 7.242188 -28.617188 7.550781 -28.390625 7.75 -28.078125 L 23.53125 -7.953125 L 22.828125 -7.453125 L 22.828125 -26.671875 C 22.828125 -27.335938 23.03125 -27.890625 23.4375 -28.328125 C 23.851562 -28.773438 24.410156 -29 25.109375 -29 Z M 25.109375 -29 "/></g></g></g><g fill="#5ce1e6" fill-opacity="0.302"><g transform="translate(194.242102, 111.693743)"><g><path d="M 2.078125 0 L 3.875 0 L 3.875 -6.03125 L 9.734375 -6.03125 L 9.734375 -7.671875 L 3.875 -7.671875 L 3.875 -12.625 L 10.265625 -12.625 L 10.265625 -14.296875 L 2.078125 -14.296875 Z M 2.078125 0 "/></g></g></g><g fill="#5ce1e6" fill-opacity="0.302"><g transform="translate(205.630579, 111.693743)"><g><path d="M 8.578125 0.265625 C 12.921875 0.265625 15.984375 -2.796875 15.984375 -7.140625 C 15.984375 -11.5 12.921875 -14.5625 8.578125 -14.5625 C 4.234375 -14.5625 1.1875 -11.5 1.1875 -7.140625 C 1.1875 -2.796875 4.234375 0.265625 8.578125 0.265625 Z M 3.015625 -7.140625 C 3.015625 -10.46875 5.296875 -12.765625 8.578125 -12.765625 C 11.859375 -12.765625 14.125 -10.46875 14.125 -7.140625 C 14.125 -3.8125 11.859375 -1.53125 8.578125 -1.53125 C 5.296875 -1.53125 3.015625 -3.8125 3.015625 -7.140625 Z M 3.015625 -7.140625 "/></g></g></g><g fill="#5ce1e6" fill-opacity="0.302"><g transform="translate(222.77452, 111.693743)"><g><path d="M 2.078125 0 L 3.875 0 L 3.875 -5.125 L 7.03125 -5.125 L 10.515625 0 L 12.6875 0 L 9.09375 -5.3125 C 11.171875 -5.8125 12.453125 -7.390625 12.453125 -9.703125 C 12.453125 -12.546875 10.5 -14.296875 7.53125 -14.296875 L 2.078125 -14.296875 Z M 3.875 -6.84375 L 3.875 -12.578125 L 7.328125 -12.578125 C 9.421875 -12.578125 10.625 -11.515625 10.625 -9.703125 C 10.625 -7.890625 9.421875 -6.84375 7.328125 -6.84375 Z M 3.875 -6.84375 "/></g></g></g><g fill="#5ce1e6" fill-opacity="0.302"><g transform="translate(236.673356, 111.693743)"><g/></g></g><g fill="#5ce1e6" fill-opacity="0.302"><g transform="translate(241.734911, 111.693743)"><g><path d="M 5.53125 0 L 7.328125 0 L 7.328125 -12.578125 L 12.15625 -12.578125 L 12.15625 -14.296875 L 0.6875 -14.296875 L 0.6875 -12.578125 L 5.53125 -12.578125 Z M 5.53125 0 "/></g></g></g><g fill="#5ce1e6" fill-opacity="0.302"><g transform="translate(254.592882, 111.693743)"><g><path d="M 2.078125 0 L 10.984375 0 L 10.984375 -1.671875 L 3.875 -1.671875 L 3.875 -6.453125 L 10.25 -6.453125 L 10.25 -8.109375 L 3.875 -8.109375 L 3.875 -12.625 L 10.765625 -12.625 L 10.765625 -14.296875 L 2.078125 -14.296875 Z M 2.078125 0 "/></g></g></g><g fill="#5ce1e6" fill-opacity="0.302"><g transform="translate(266.899793, 111.693743)"><g><path d="M 8.40625 0.265625 C 11.890625 0.265625 14.703125 -1.84375 15.5625 -5.03125 L 13.65625 -5.03125 C 12.921875 -2.875 10.90625 -1.53125 8.46875 -1.53125 C 5.296875 -1.53125 3.015625 -3.84375 3.015625 -7.140625 C 3.015625 -10.453125 5.296875 -12.765625 8.46875 -12.765625 C 10.84375 -12.765625 12.78125 -11.5 13.515625 -9.4375 L 15.4375 -9.4375 C 14.5 -12.578125 11.78125 -14.5625 8.40625 -14.5625 C 4.203125 -14.5625 1.1875 -11.453125 1.1875 -7.140625 C 1.1875 -2.84375 4.203125 0.265625 8.40625 0.265625 Z M 8.40625 0.265625 "/></g></g></g><g fill="#5ce1e6" fill-opacity="0.302"><g transform="translate(283.55391, 111.693743)"><g><path d="M 11.453125 0 L 13.25 0 L 13.25 -14.296875 L 11.453125 -14.296875 L 11.453125 -8.140625 L 3.875 -8.140625 L 3.875 -14.296875 L 2.078125 -14.296875 L 2.078125 0 L 3.875 0 L 3.875 -6.4375 L 11.453125 -6.4375 Z M 11.453125 0 "/></g></g></g><g fill="#5ce1e6" fill-opacity="0.302"><g transform="translate(298.881423, 111.693743)"><g><path d="M 2.078125 0 L 3.859375 0 L 3.859375 -11.1875 L 11.765625 0 L 13.4375 0 L 13.4375 -14.296875 L 11.6875 -14.296875 L 11.6875 -3.109375 L 3.78125 -14.296875 L 2.078125 -14.296875 Z M 2.078125 0 "/></g></g></g><g fill="#5ce1e6" fill-opacity="0.302"><g transform="translate(314.392623, 111.693743)"><g><path d="M 8.578125 0.265625 C 12.921875 0.265625 15.984375 -2.796875 15.984375 -7.140625 C 15.984375 -11.5 12.921875 -14.5625 8.578125 -14.5625 C 4.234375 -14.5625 1.1875 -11.5 1.1875 -7.140625 C 1.1875 -2.796875 4.234375 0.265625 8.578125 0.265625 Z M 3.015625 -7.140625 C 3.015625 -10.46875 5.296875 -12.765625 8.578125 -12.765625 C 11.859375 -12.765625 14.125 -10.46875 14.125 -7.140625 C 14.125 -3.8125 11.859375 -1.53125 8.578125 -1.53125 C 5.296875 -1.53125 3.015625 -3.8125 3.015625 -7.140625 Z M 3.015625 -7.140625 "/></g></g></g><g fill="#5ce1e6" fill-opacity="0.302"><g transform="translate(331.536565, 111.693743)"><g><path d="M 2.078125 0 L 10.828125 0 L 10.828125 -1.71875 L 3.875 -1.71875 L 3.875 -14.296875 L 2.078125 -14.296875 Z M 2.078125 0 "/></g></g></g><g fill="#5ce1e6" fill-opacity="0.302"><g transform="translate(342.986278, 111.693743)"><g><path d="M 8.578125 0.265625 C 12.921875 0.265625 15.984375 -2.796875 15.984375 -7.140625 C 15.984375 -11.5 12.921875 -14.5625 8.578125 -14.5625 C 4.234375 -14.5625 1.1875 -11.5 1.1875 -7.140625 C 1.1875 -2.796875 4.234375 0.265625 8.578125 0.265625 Z M 3.015625 -7.140625 C 3.015625 -10.46875 5.296875 -12.765625 8.578125 -12.765625 C 11.859375 -12.765625 14.125 -10.46875 14.125 -7.140625 C 14.125 -3.8125 11.859375 -1.53125 8.578125 -1.53125 C 5.296875 -1.53125 3.015625 -3.8125 3.015625 -7.140625 Z M 3.015625 -7.140625 "/></g></g></g><g fill="#5ce1e6" fill-opacity="0.302"><g transform="translate(360.130219, 111.693743)"><g><path d="M 8.453125 0.265625 C 12.84375 0.265625 15.8125 -3.0625 15.71875 -7.765625 L 7.96875 -7.765625 L 7.96875 -6.046875 L 13.78125 -6.046875 C 13.421875 -3.34375 11.375 -1.53125 8.5 -1.53125 C 5.296875 -1.53125 3.015625 -3.84375 3.015625 -7.140625 C 3.015625 -10.453125 5.265625 -12.765625 8.46875 -12.765625 C 10.6875 -12.765625 12.4375 -11.6875 13.328125 -9.84375 L 15.296875 -9.84375 C 14.375 -12.65625 11.6875 -14.5625 8.40625 -14.5625 C 4.234375 -14.5625 1.1875 -11.4375 1.1875 -7.140625 C 1.1875 -2.84375 4.25 0.265625 8.453125 0.265625 Z M 8.453125 0.265625 "/></g></g></g><g fill="#5ce1e6" fill-opacity="0.302"><g transform="translate(376.968023, 111.693743)"><g><path d="M 5.71875 0 L 7.46875 0 L 7.46875 -5.140625 L 12.84375 -14.296875 L 10.828125 -14.296875 L 6.609375 -7.0625 L 4.765625 -10.296875 L 2.4375 -14.296875 L 0.34375 -14.296875 L 5.71875 -5.140625 Z M 5.71875 0 "/></g></g></g><g fill="#5ce1e6" fill-opacity="0.502"><g transform="translate(193.467563, 111.858374)"><g><path d="M 2.078125 0 L 3.875 0 L 3.875 -6.03125 L 9.734375 -6.03125 L 9.734375 -7.671875 L 3.875 -7.671875 L 3.875 -12.625 L 10.265625 -12.625 L 10.265625 -14.296875 L 2.078125 -14.296875 Z M 2.078125 0 "/></g></g></g><g fill="#5ce1e6" fill-opacity="0.502"><g transform="translate(204.85604, 111.858374)"><g><path d="M 8.578125 0.265625 C 12.921875 0.265625 15.984375 -2.796875 15.984375 -7.140625 C 15.984375 -11.5 12.921875 -14.5625 8.578125 -14.5625 C 4.234375 -14.5625 1.1875 -11.5 1.1875 -7.140625 C 1.1875 -2.796875 4.234375 0.265625 8.578125 0.265625 Z M 3.015625 -7.140625 C 3.015625 -10.46875 5.296875 -12.765625 8.578125 -12.765625 C 11.859375 -12.765625 14.125 -10.46875 14.125 -7.140625 C 14.125 -3.8125 11.859375 -1.53125 8.578125 -1.53125 C 5.296875 -1.53125 3.015625 -3.8125 3.015625 -7.140625 Z M 3.015625 -7.140625 "/></g></g></g><g fill="#5ce1e6" fill-opacity="0.502"><g transform="translate(221.999982, 111.858374)"><g><path d="M 2.078125 0 L 3.875 0 L 3.875 -5.125 L 7.03125 -5.125 L 10.515625 0 L 12.6875 0 L 9.09375 -5.3125 C 11.171875 -5.8125 12.453125 -7.390625 12.453125 -9.703125 C 12.453125 -12.546875 10.5 -14.296875 7.53125 -14.296875 L 2.078125 -14.296875 Z M 3.875 -6.84375 L 3.875 -12.578125 L 7.328125 -12.578125 C 9.421875 -12.578125 10.625 -11.515625 10.625 -9.703125 C 10.625 -7.890625 9.421875 -6.84375 7.328125 -6.84375 Z M 3.875 -6.84375 "/></g></g></g><g fill="#5ce1e6" fill-opacity="0.502"><g transform="translate(235.898818, 111.858374)"><g/></g></g><g fill="#5ce1e6" fill-opacity="0.502"><g transform="translate(240.960372, 111.858374)"><g><path d="M 5.53125 0 L 7.328125 0 L 7.328125 -12.578125 L 12.15625 -12.578125 L 12.15625 -14.296875 L 0.6875 -14.296875 L 0.6875 -12.578125 L 5.53125 -12.578125 Z M 5.53125 0 "/></g></g></g><g fill="#5ce1e6" fill-opacity="0.502"><g transform="translate(253.818343, 111.858374)"><g><path d="M 2.078125 0 L 10.984375 0 L 10.984375 -1.671875 L 3.875 -1.671875 L 3.875 -6.453125 L 10.25 -6.453125 L 10.25 -8.109375 L 3.875 -8.109375 L 3.875 -12.625 L 10.765625 -12.625 L 10.765625 -14.296875 L 2.078125 -14.296875 Z M 2.078125 0 "/></g></g></g><g fill="#5ce1e6" fill-opacity="0.502"><g transform="translate(266.125255, 111.858374)"><g><path d="M 8.40625 0.265625 C 11.890625 0.265625 14.703125 -1.84375 15.5625 -5.03125 L 13.65625 -5.03125 C 12.921875 -2.875 10.90625 -1.53125 8.46875 -1.53125 C 5.296875 -1.53125 3.015625 -3.84375 3.015625 -7.140625 C 3.015625 -10.453125 5.296875 -12.765625 8.46875 -12.765625 C 10.84375 -12.765625 12.78125 -11.5 13.515625 -9.4375 L 15.4375 -9.4375 C 14.5 -12.578125 11.78125 -14.5625 8.40625 -14.5625 C 4.203125 -14.5625 1.1875 -11.453125 1.1875 -7.140625 C 1.1875 -2.84375 4.203125 0.265625 8.40625 0.265625 Z M 8.40625 0.265625 "/></g></g></g><g fill="#5ce1e6" fill-opacity="0.502"><g transform="translate(282.779372, 111.858374)"><g><path d="M 11.453125 0 L 13.25 0 L 13.25 -14.296875 L 11.453125 -14.296875 L 11.453125 -8.140625 L 3.875 -8.140625 L 3.875 -14.296875 L 2.078125 -14.296875 L 2.078125 0 L 3.875 0 L 3.875 -6.4375 L 11.453125 -6.4375 Z M 11.453125 0 "/></g></g></g><g fill="#5ce1e6" fill-opacity="0.502"><g transform="translate(298.106885, 111.858374)"><g><path d="M 2.078125 0 L 3.859375 0 L 3.859375 -11.1875 L 11.765625 0 L 13.4375 0 L 13.4375 -14.296875 L 11.6875 -14.296875 L 11.6875 -3.109375 L 3.78125 -14.296875 L 2.078125 -14.296875 Z M 2.078125 0 "/></g></g></g><g fill="#5ce1e6" fill-opacity="0.502"><g transform="translate(313.618084, 111.858374)"><g><path d="M 8.578125 0.265625 C 12.921875 0.265625 15.984375 -2.796875 15.984375 -7.140625 C 15.984375 -11.5 12.921875 -14.5625 8.578125 -14.5625 C 4.234375 -14.5625 1.1875 -11.5 1.1875 -7.140625 C 1.1875 -2.796875 4.234375 0.265625 8.578125 0.265625 Z M 3.015625 -7.140625 C 3.015625 -10.46875 5.296875 -12.765625 8.578125 -12.765625 C 11.859375 -12.765625 14.125 -10.46875 14.125 -7.140625 C 14.125 -3.8125 11.859375 -1.53125 8.578125 -1.53125 C 5.296875 -1.53125 3.015625 -3.8125 3.015625 -7.140625 Z M 3.015625 -7.140625 "/></g></g></g><g fill="#5ce1e6" fill-opacity="0.502"><g transform="translate(330.762026, 111.858374)"><g><path d="M 2.078125 0 L 10.828125 0 L 10.828125 -1.71875 L 3.875 -1.71875 L 3.875 -14.296875 L 2.078125 -14.296875 Z M 2.078125 0 "/></g></g></g><g fill="#5ce1e6" fill-opacity="0.502"><g transform="translate(342.211739, 111.858374)"><g><path d="M 8.578125 0.265625 C 12.921875 0.265625 15.984375 -2.796875 15.984375 -7.140625 C 15.984375 -11.5 12.921875 -14.5625 8.578125 -14.5625 C 4.234375 -14.5625 1.1875 -11.5 1.1875 -7.140625 C 1.1875 -2.796875 4.234375 0.265625 8.578125 0.265625 Z M 3.015625 -7.140625 C 3.015625 -10.46875 5.296875 -12.765625 8.578125 -12.765625 C 11.859375 -12.765625 14.125 -10.46875 14.125 -7.140625 C 14.125 -3.8125 11.859375 -1.53125 8.578125 -1.53125 C 5.296875 -1.53125 3.015625 -3.8125 3.015625 -7.140625 Z M 3.015625 -7.140625 "/></g></g></g><g fill="#5ce1e6" fill-opacity="0.502"><g transform="translate(359.35568, 111.858374)"><g><path d="M 8.453125 0.265625 C 12.84375 0.265625 15.8125 -3.0625 15.71875 -7.765625 L 7.96875 -7.765625 L 7.96875 -6.046875 L 13.78125 -6.046875 C 13.421875 -3.34375 11.375 -1.53125 8.5 -1.53125 C 5.296875 -1.53125 3.015625 -3.84375 3.015625 -7.140625 C 3.015625 -10.453125 5.265625 -12.765625 8.46875 -12.765625 C 10.6875 -12.765625 12.4375 -11.6875 13.328125 -9.84375 L 15.296875 -9.84375 C 14.375 -12.65625 11.6875 -14.5625 8.40625 -14.5625 C 4.234375 -14.5625 1.1875 -11.4375 1.1875 -7.140625 C 1.1875 -2.84375 4.25 0.265625 8.453125 0.265625 Z M 8.453125 0.265625 "/></g></g></g><g fill="#5ce1e6" fill-opacity="0.502"><g transform="translate(376.193484, 111.858374)"><g><path d="M 5.71875 0 L 7.46875 0 L 7.46875 -5.140625 L 12.84375 -14.296875 L 10.828125 -14.296875 L 6.609375 -7.0625 L 4.765625 -10.296875 L 2.4375 -14.296875 L 0.34375 -14.296875 L 5.71875 -5.140625 Z M 5.71875 0 "/></g></g></g><g fill="#000000" fill-opacity="1"><g transform="translate(192.693024, 112.023005)"><g><path d="M 2.078125 0 L 3.875 0 L 3.875 -6.03125 L 9.734375 -6.03125 L 9.734375 -7.671875 L 3.875 -7.671875 L 3.875 -12.625 L 10.265625 -12.625 L 10.265625 -14.296875 L 2.078125 -14.296875 Z M 2.078125 0 "/></g></g></g><g fill="#000000" fill-opacity="1"><g transform="translate(204.081501, 112.023005)"><g><path d="M 8.578125 0.265625 C 12.921875 0.265625 15.984375 -2.796875 15.984375 -7.140625 C 15.984375 -11.5 12.921875 -14.5625 8.578125 -14.5625 C 4.234375 -14.5625 1.1875 -11.5 1.1875 -7.140625 C 1.1875 -2.796875 4.234375 0.265625 8.578125 0.265625 Z M 3.015625 -7.140625 C 3.015625 -10.46875 5.296875 -12.765625 8.578125 -12.765625 C 11.859375 -12.765625 14.125 -10.46875 14.125 -7.140625 C 14.125 -3.8125 11.859375 -1.53125 8.578125 -1.53125 C 5.296875 -1.53125 3.015625 -3.8125 3.015625 -7.140625 Z M 3.015625 -7.140625 "/></g></g></g><g fill="#000000" fill-opacity="1"><g transform="translate(221.225443, 112.023005)"><g><path d="M 2.078125 0 L 3.875 0 L 3.875 -5.125 L 7.03125 -5.125 L 10.515625 0 L 12.6875 0 L 9.09375 -5.3125 C 11.171875 -5.8125 12.453125 -7.390625 12.453125 -9.703125 C 12.453125 -12.546875 10.5 -14.296875 7.53125 -14.296875 L 2.078125 -14.296875 Z M 3.875 -6.84375 L 3.875 -12.578125 L 7.328125 -12.578125 C 9.421875 -12.578125 10.625 -11.515625 10.625 -9.703125 C 10.625 -7.890625 9.421875 -6.84375 7.328125 -6.84375 Z M 3.875 -6.84375 "/></g></g></g><g fill="#000000" fill-opacity="1"><g transform="translate(235.124279, 112.023005)"><g/></g></g><g fill="#000000" fill-opacity="1"><g transform="translate(240.185833, 112.023005)"><g><path d="M 5.53125 0 L 7.328125 0 L 7.328125 -12.578125 L 12.15625 -12.578125 L 12.15625 -14.296875 L 0.6875 -14.296875 L 0.6875 -12.578125 L 5.53125 -12.578125 Z M 5.53125 0 "/></g></g></g><g fill="#000000" fill-opacity="1"><g transform="translate(253.043805, 112.023005)"><g><path d="M 2.078125 0 L 10.984375 0 L 10.984375 -1.671875 L 3.875 -1.671875 L 3.875 -6.453125 L 10.25 -6.453125 L 10.25 -8.109375 L 3.875 -8.109375 L 3.875 -12.625 L 10.765625 -12.625 L 10.765625 -14.296875 L 2.078125 -14.296875 Z M 2.078125 0 "/></g></g></g><g fill="#000000" fill-opacity="1"><g transform="translate(265.350716, 112.023005)"><g><path d="M 8.40625 0.265625 C 11.890625 0.265625 14.703125 -1.84375 15.5625 -5.03125 L 13.65625 -5.03125 C 12.921875 -2.875 10.90625 -1.53125 8.46875 -1.53125 C 5.296875 -1.53125 3.015625 -3.84375 3.015625 -7.140625 C 3.015625 -10.453125 5.296875 -12.765625 8.46875 -12.765625 C 10.84375 -12.765625 12.78125 -11.5 13.515625 -9.4375 L 15.4375 -9.4375 C 14.5 -12.578125 11.78125 -14.5625 8.40625 -14.5625 C 4.203125 -14.5625 1.1875 -11.453125 1.1875 -7.140625 C 1.1875 -2.84375 4.203125 0.265625 8.40625 0.265625 Z M 8.40625 0.265625 "/></g></g></g><g fill="#000000" fill-opacity="1"><g transform="translate(282.004833, 112.023005)"><g><path d="M 11.453125 0 L 13.25 0 L 13.25 -14.296875 L 11.453125 -14.296875 L 11.453125 -8.140625 L 3.875 -8.140625 L 3.875 -14.296875 L 2.078125 -14.296875 L 2.078125 0 L 3.875 0 L 3.875 -6.4375 L 11.453125 -6.4375 Z M 11.453125 0 "/></g></g></g><g fill="#000000" fill-opacity="1"><g transform="translate(297.332346, 112.023005)"><g><path d="M 2.078125 0 L 3.859375 0 L 3.859375 -11.1875 L 11.765625 0 L 13.4375 0 L 13.4375 -14.296875 L 11.6875 -14.296875 L 11.6875 -3.109375 L 3.78125 -14.296875 L 2.078125 -14.296875 Z M 2.078125 0 "/></g></g></g><g fill="#000000" fill-opacity="1"><g transform="translate(312.843546, 112.023005)"><g><path d="M 8.578125 0.265625 C 12.921875 0.265625 15.984375 -2.796875 15.984375 -7.140625 C 15.984375 -11.5 12.921875 -14.5625 8.578125 -14.5625 C 4.234375 -14.5625 1.1875 -11.5 1.1875 -7.140625 C 1.1875 -2.796875 4.234375 0.265625 8.578125 0.265625 Z M 3.015625 -7.140625 C 3.015625 -10.46875 5.296875 -12.765625 8.578125 -12.765625 C 11.859375 -12.765625 14.125 -10.46875 14.125 -7.140625 C 14.125 -3.8125 11.859375 -1.53125 8.578125 -1.53125 C 5.296875 -1.53125 3.015625 -3.8125 3.015625 -7.140625 Z M 3.015625 -7.140625 "/></g></g></g><g fill="#000000" fill-opacity="1"><g transform="translate(329.987487, 112.023005)"><g><path d="M 2.078125 0 L 10.828125 0 L 10.828125 -1.71875 L 3.875 -1.71875 L 3.875 -14.296875 L 2.078125 -14.296875 Z M 2.078125 0 "/></g></g></g><g fill="#000000" fill-opacity="1"><g transform="translate(341.4372, 112.023005)"><g><path d="M 8.578125 0.265625 C 12.921875 0.265625 15.984375 -2.796875 15.984375 -7.140625 C 15.984375 -11.5 12.921875 -14.5625 8.578125 -14.5625 C 4.234375 -14.5625 1.1875 -11.5 1.1875 -7.140625 C 1.1875 -2.796875 4.234375 0.265625 8.578125 0.265625 Z M 3.015625 -7.140625 C 3.015625 -10.46875 5.296875 -12.765625 8.578125 -12.765625 C 11.859375 -12.765625 14.125 -10.46875 14.125 -7.140625 C 14.125 -3.8125 11.859375 -1.53125 8.578125 -1.53125 C 5.296875 -1.53125 3.015625 -3.8125 3.015625 -7.140625 Z M 3.015625 -7.140625 "/></g></g></g><g fill="#000000" fill-opacity="1"><g transform="translate(358.581142, 112.023005)"><g><path d="M 8.453125 0.265625 C 12.84375 0.265625 15.8125 -3.0625 15.71875 -7.765625 L 7.96875 -7.765625 L 7.96875 -6.046875 L 13.78125 -6.046875 C 13.421875 -3.34375 11.375 -1.53125 8.5 -1.53125 C 5.296875 -1.53125 3.015625 -3.84375 3.015625 -7.140625 C 3.015625 -10.453125 5.265625 -12.765625 8.46875 -12.765625 C 10.6875 -12.765625 12.4375 -11.6875 13.328125 -9.84375 L 15.296875 -9.84375 C 14.375 -12.65625 11.6875 -14.5625 8.40625 -14.5625 C 4.234375 -14.5625 1.1875 -11.4375 1.1875 -7.140625 C 1.1875 -2.84375 4.25 0.265625 8.453125 0.265625 Z M 8.453125 0.265625 "/></g></g></g><g fill="#000000" fill-opacity="1"><g transform="translate(375.418945, 112.023005)"><g><path d="M 5.71875 0 L 7.46875 0 L 7.46875 -5.140625 L 12.84375 -14.296875 L 10.828125 -14.296875 L 6.609375 -7.0625 L 4.765625 -10.296875 L 2.4375 -14.296875 L 0.34375 -14.296875 L 5.71875 -5.140625 Z M 5.71875 0 "/></g></g></g></svg>