<svg xmlns="http://www.w3.org/2000/svg" xmlns:xlink="http://www.w3.org/1999/xlink" width="500" zoomAndPan="magnify" viewBox="0 0 375 374.999991" height="500" preserveAspectRatio="xMidYMid meet" version="1.0"><defs><clipPath id="5be6032d53"><path d="M 0 0.222656 L 375 0.222656 L 375 375 L 0 375 Z M 0 0.222656 " clip-rule="nonzero"/></clipPath></defs><rect x="-37.5" width="450" fill="#ffffff" y="-37.499999" height="449.999989" fill-opacity="1"/><rect x="-37.5" width="450" fill="#ffffff" y="-37.499999" height="449.999989" fill-opacity="1"/><g clip-path="url(#5be6032d53)"><path fill="#00b779" d="M 187.492188 0.230469 C 222.007812 250.226562 249.988281 222.246094 -0.0078125 187.726562 C 249.988281 153.207031 222.007812 125.226562 187.492188 375.222656 C 152.972656 125.226562 124.992188 153.207031 374.988281 187.726562 C 124.992188 222.246094 152.972656 250.226562 187.492188 0.230469 Z M 187.492188 238.414062 C 196.820312 170.832031 204.386719 178.394531 136.804688 187.726562 C 204.386719 197.058594 196.820312 204.621094 187.492188 137.039062 C 178.160156 204.621094 170.59375 197.058594 238.175781 187.726562 C 170.59375 178.394531 178.160156 170.832031 187.492188 238.414062 Z M 187.492188 238.414062 " fill-opacity="1" fill-rule="nonzero"/></g></svg>