<svg xmlns="http://www.w3.org/2000/svg" xmlns:xlink="http://www.w3.org/1999/xlink" width="500" zoomAndPan="magnify" viewBox="0 0 375 374.999991" height="500" preserveAspectRatio="xMidYMid meet" version="1.0"><defs><g/><clipPath id="6425ac0752"><path d="M 26.816406 150.753906 L 89.066406 150.753906 L 89.066406 213.003906 L 26.816406 213.003906 Z M 26.816406 150.753906 " clip-rule="nonzero"/></clipPath></defs><rect x="-37.5" width="450" fill="#ffffff" y="-37.499999" height="449.999989" fill-opacity="1"/><rect x="-37.5" width="450" fill="#ffffff" y="-37.499999" height="449.999989" fill-opacity="1"/><g clip-path="url(#6425ac0752)"><path fill="#00b779" d="M 58.035156 150.753906 C 63.78125 192.378906 68.441406 187.71875 26.816406 181.972656 C 68.441406 176.226562 63.78125 171.566406 58.035156 213.191406 C 52.289062 171.566406 47.628906 176.226562 89.253906 181.972656 C 47.628906 187.71875 52.289062 192.378906 58.035156 150.753906 Z M 58.035156 190.410156 C 59.589844 179.160156 60.847656 180.417969 49.597656 181.972656 C 60.847656 183.527344 59.589844 184.785156 58.035156 173.535156 C 56.480469 184.785156 55.222656 183.527344 66.472656 181.972656 C 55.222656 180.417969 56.480469 179.160156 58.035156 190.410156 Z M 58.035156 190.410156 " fill-opacity="1" fill-rule="nonzero"/></g><g fill="#000000" fill-opacity="1"><g transform="translate(100.791671, 176.477302)"><g><path d="M 9.96875 -2.53125 C 10.34375 -2.53125 10.65625 -2.410156 10.90625 -2.171875 C 11.164062 -1.929688 11.296875 -1.625 11.296875 -1.25 C 11.296875 -0.894531 11.164062 -0.597656 10.90625 -0.359375 C 10.65625 -0.117188 10.34375 0 9.96875 0 L 2.9375 0 C 2.5625 0 2.25 -0.125 2 -0.375 C 1.75 -0.625 1.625 -0.9375 1.625 -1.3125 L 1.625 -13.828125 C 1.625 -14.203125 1.753906 -14.515625 2.015625 -14.765625 C 2.273438 -15.015625 2.609375 -15.140625 3.015625 -15.140625 C 3.359375 -15.140625 3.660156 -15.015625 3.921875 -14.765625 C 4.191406 -14.515625 4.328125 -14.203125 4.328125 -13.828125 L 4.328125 -2.15625 L 3.859375 -2.53125 Z M 9.96875 -2.53125 "/></g></g></g><g fill="#000000" fill-opacity="1"><g transform="translate(112.955893, 176.477302)"><g><path d="M 2.9375 -15.140625 L 10.1875 -15.140625 C 10.5625 -15.140625 10.875 -15.019531 11.125 -14.78125 C 11.382812 -14.550781 11.515625 -14.25 11.515625 -13.875 C 11.515625 -13.507812 11.382812 -13.210938 11.125 -12.984375 C 10.875 -12.765625 10.5625 -12.65625 10.1875 -12.65625 L 4.140625 -12.65625 L 4.328125 -13.03125 L 4.328125 -8.8125 L 4.15625 -8.984375 L 9.21875 -8.984375 C 9.59375 -8.984375 9.90625 -8.863281 10.15625 -8.625 C 10.40625 -8.382812 10.53125 -8.078125 10.53125 -7.703125 C 10.53125 -7.335938 10.40625 -7.039062 10.15625 -6.8125 C 9.90625 -6.59375 9.59375 -6.484375 9.21875 -6.484375 L 4.21875 -6.484375 L 4.328125 -6.671875 L 4.328125 -2.296875 L 4.15625 -2.484375 L 10.1875 -2.484375 C 10.5625 -2.484375 10.875 -2.359375 11.125 -2.109375 C 11.382812 -1.859375 11.515625 -1.566406 11.515625 -1.234375 C 11.515625 -0.867188 11.382812 -0.570312 11.125 -0.34375 C 10.875 -0.113281 10.5625 0 10.1875 0 L 2.9375 0 C 2.5625 0 2.25 -0.125 2 -0.375 C 1.75 -0.625 1.625 -0.9375 1.625 -1.3125 L 1.625 -13.828125 C 1.625 -14.203125 1.75 -14.515625 2 -14.765625 C 2.25 -15.015625 2.5625 -15.140625 2.9375 -15.140625 Z M 2.9375 -15.140625 "/></g></g></g><g fill="#000000" fill-opacity="1"><g transform="translate(125.336568, 176.477302)"><g><path d="M 12.234375 -14.40625 C 12.609375 -14.21875 12.828125 -13.921875 12.890625 -13.515625 C 12.953125 -13.117188 12.847656 -12.753906 12.578125 -12.421875 C 12.390625 -12.160156 12.144531 -12.015625 11.84375 -11.984375 C 11.550781 -11.960938 11.253906 -12.019531 10.953125 -12.15625 C 10.609375 -12.320312 10.242188 -12.445312 9.859375 -12.53125 C 9.472656 -12.613281 9.070312 -12.65625 8.65625 -12.65625 C 7.875 -12.65625 7.175781 -12.53125 6.5625 -12.28125 C 5.945312 -12.039062 5.421875 -11.691406 4.984375 -11.234375 C 4.554688 -10.785156 4.226562 -10.25 4 -9.625 C 3.78125 -9.007812 3.671875 -8.328125 3.671875 -7.578125 C 3.671875 -6.691406 3.796875 -5.925781 4.046875 -5.28125 C 4.304688 -4.632812 4.660156 -4.09375 5.109375 -3.65625 C 5.554688 -3.226562 6.082031 -2.90625 6.6875 -2.6875 C 7.289062 -2.476562 7.945312 -2.375 8.65625 -2.375 C 9.039062 -2.375 9.425781 -2.410156 9.8125 -2.484375 C 10.207031 -2.554688 10.585938 -2.6875 10.953125 -2.875 C 11.253906 -3.019531 11.550781 -3.070312 11.84375 -3.03125 C 12.144531 -2.988281 12.394531 -2.835938 12.59375 -2.578125 C 12.882812 -2.210938 12.988281 -1.835938 12.90625 -1.453125 C 12.832031 -1.078125 12.613281 -0.800781 12.25 -0.625 C 11.875 -0.4375 11.488281 -0.28125 11.09375 -0.15625 C 10.695312 -0.0390625 10.296875 0.046875 9.890625 0.109375 C 9.484375 0.179688 9.070312 0.21875 8.65625 0.21875 C 7.613281 0.21875 6.628906 0.0507812 5.703125 -0.28125 C 4.773438 -0.613281 3.945312 -1.101562 3.21875 -1.75 C 2.488281 -2.40625 1.910156 -3.21875 1.484375 -4.1875 C 1.066406 -5.15625 0.859375 -6.285156 0.859375 -7.578125 C 0.859375 -8.679688 1.050781 -9.703125 1.4375 -10.640625 C 1.820312 -11.578125 2.363281 -12.390625 3.0625 -13.078125 C 3.757812 -13.765625 4.582031 -14.296875 5.53125 -14.671875 C 6.488281 -15.054688 7.53125 -15.25 8.65625 -15.25 C 9.289062 -15.25 9.910156 -15.175781 10.515625 -15.03125 C 11.117188 -14.894531 11.691406 -14.6875 12.234375 -14.40625 Z M 12.234375 -14.40625 "/></g></g></g><g fill="#000000" fill-opacity="1"><g transform="translate(138.907692, 176.477302)"><g><path d="M 9.96875 -2.53125 C 10.34375 -2.53125 10.65625 -2.410156 10.90625 -2.171875 C 11.164062 -1.929688 11.296875 -1.625 11.296875 -1.25 C 11.296875 -0.894531 11.164062 -0.597656 10.90625 -0.359375 C 10.65625 -0.117188 10.34375 0 9.96875 0 L 2.9375 0 C 2.5625 0 2.25 -0.125 2 -0.375 C 1.75 -0.625 1.625 -0.9375 1.625 -1.3125 L 1.625 -13.828125 C 1.625 -14.203125 1.753906 -14.515625 2.015625 -14.765625 C 2.273438 -15.015625 2.609375 -15.140625 3.015625 -15.140625 C 3.359375 -15.140625 3.660156 -15.015625 3.921875 -14.765625 C 4.191406 -14.515625 4.328125 -14.203125 4.328125 -13.828125 L 4.328125 -2.15625 L 3.859375 -2.53125 Z M 9.96875 -2.53125 "/></g></g></g><g fill="#000000" fill-opacity="1"><g transform="translate(151.071914, 176.477302)"><g><path d="M 7.1875 -11.75 L 2.515625 -0.75 C 2.410156 -0.476562 2.253906 -0.265625 2.046875 -0.109375 C 1.835938 0.0351562 1.609375 0.109375 1.359375 0.109375 C 0.972656 0.109375 0.6875 0 0.5 -0.21875 C 0.3125 -0.4375 0.21875 -0.703125 0.21875 -1.015625 C 0.21875 -1.148438 0.238281 -1.285156 0.28125 -1.421875 L 5.671875 -14.375 C 5.785156 -14.65625 5.960938 -14.875 6.203125 -15.03125 C 6.441406 -15.195312 6.695312 -15.265625 6.96875 -15.234375 C 7.226562 -15.234375 7.46875 -15.15625 7.6875 -15 C 7.914062 -14.851562 8.082031 -14.644531 8.1875 -14.375 L 13.5 -1.6875 C 13.570312 -1.5 13.609375 -1.328125 13.609375 -1.171875 C 13.609375 -0.773438 13.484375 -0.460938 13.234375 -0.234375 C 12.984375 -0.00390625 12.707031 0.109375 12.40625 0.109375 C 12.144531 0.109375 11.910156 0.03125 11.703125 -0.125 C 11.492188 -0.289062 11.328125 -0.507812 11.203125 -0.78125 L 6.5625 -11.625 Z M 3.1875 -3.390625 L 4.375 -5.890625 L 10.21875 -5.890625 L 10.625 -3.390625 Z M 3.1875 -3.390625 "/></g></g></g><g fill="#000000" fill-opacity="1"><g transform="translate(164.902774, 176.477302)"><g><path d="M 4.328125 -1.3125 C 4.328125 -0.9375 4.1875 -0.625 3.90625 -0.375 C 3.632812 -0.125 3.320312 0 2.96875 0 C 2.5625 0 2.234375 -0.125 1.984375 -0.375 C 1.742188 -0.625 1.625 -0.9375 1.625 -1.3125 L 1.625 -13.828125 C 1.625 -14.203125 1.753906 -14.515625 2.015625 -14.765625 C 2.273438 -15.015625 2.609375 -15.140625 3.015625 -15.140625 C 3.359375 -15.140625 3.660156 -15.015625 3.921875 -14.765625 C 4.191406 -14.515625 4.328125 -14.203125 4.328125 -13.828125 Z M 4.328125 -1.3125 "/></g></g></g><g fill="#000000" fill-opacity="1"><g transform="translate(170.855017, 176.477302)"><g><path d="M 3.1875 0 C 2.78125 0 2.414062 -0.125 2.09375 -0.375 C 1.78125 -0.625 1.625 -0.9375 1.625 -1.3125 L 1.625 -13.828125 C 1.625 -14.203125 1.75 -14.515625 2 -14.765625 C 2.25 -15.015625 2.5625 -15.140625 2.9375 -15.140625 L 9.171875 -15.140625 C 9.921875 -15.140625 10.625 -14.941406 11.28125 -14.546875 C 11.9375 -14.148438 12.46875 -13.601562 12.875 -12.90625 C 13.28125 -12.207031 13.484375 -11.40625 13.484375 -10.5 C 13.484375 -9.945312 13.367188 -9.410156 13.140625 -8.890625 C 12.921875 -8.367188 12.617188 -7.898438 12.234375 -7.484375 C 11.859375 -7.066406 11.429688 -6.742188 10.953125 -6.515625 L 10.96875 -7.015625 C 11.375 -6.796875 11.707031 -6.535156 11.96875 -6.234375 C 12.238281 -5.941406 12.445312 -5.625 12.59375 -5.28125 C 12.75 -4.945312 12.84375 -4.585938 12.875 -4.203125 C 12.9375 -3.835938 12.976562 -3.515625 13 -3.234375 C 13.019531 -2.960938 13.0625 -2.734375 13.125 -2.546875 C 13.1875 -2.359375 13.3125 -2.21875 13.5 -2.125 C 13.820312 -1.9375 14.019531 -1.664062 14.09375 -1.3125 C 14.175781 -0.957031 14.09375 -0.644531 13.84375 -0.375 C 13.6875 -0.1875 13.484375 -0.0664062 13.234375 -0.015625 C 12.992188 0.0351562 12.75 0.0351562 12.5 -0.015625 C 12.257812 -0.0664062 12.0625 -0.132812 11.90625 -0.21875 C 11.65625 -0.363281 11.40625 -0.578125 11.15625 -0.859375 C 10.914062 -1.140625 10.71875 -1.515625 10.5625 -1.984375 C 10.414062 -2.460938 10.34375 -3.078125 10.34375 -3.828125 C 10.34375 -4.078125 10.296875 -4.304688 10.203125 -4.515625 C 10.117188 -4.722656 10 -4.898438 9.84375 -5.046875 C 9.6875 -5.203125 9.484375 -5.316406 9.234375 -5.390625 C 8.992188 -5.472656 8.707031 -5.515625 8.375 -5.515625 L 4 -5.515625 L 4.328125 -6.015625 L 4.328125 -1.3125 C 4.328125 -0.9375 4.222656 -0.625 4.015625 -0.375 C 3.816406 -0.125 3.539062 0 3.1875 0 Z M 4.03125 -7.75 L 9.0625 -7.75 C 9.320312 -7.75 9.570312 -7.867188 9.8125 -8.109375 C 10.0625 -8.347656 10.265625 -8.671875 10.421875 -9.078125 C 10.585938 -9.484375 10.671875 -9.9375 10.671875 -10.4375 C 10.671875 -11.070312 10.5 -11.597656 10.15625 -12.015625 C 9.820312 -12.441406 9.457031 -12.65625 9.0625 -12.65625 L 4.0625 -12.65625 L 4.328125 -13.359375 L 4.328125 -7.234375 Z M 4.03125 -7.75 "/></g></g></g><g fill="#000000" fill-opacity="1"><g transform="translate(185.724805, 176.477302)"><g/></g></g><g fill="#000000" fill-opacity="1"><g transform="translate(191.785275, 176.477302)"><g><path d="M 2.984375 0 C 2.578125 0 2.25 -0.125 2 -0.375 C 1.75 -0.625 1.625 -0.9375 1.625 -1.3125 L 1.625 -13.828125 C 1.625 -14.203125 1.75 -14.515625 2 -14.765625 C 2.25 -15.015625 2.5625 -15.140625 2.9375 -15.140625 L 9.96875 -15.140625 C 10.34375 -15.140625 10.65625 -15.019531 10.90625 -14.78125 C 11.164062 -14.550781 11.296875 -14.25 11.296875 -13.875 C 11.296875 -13.550781 11.164062 -13.265625 10.90625 -13.015625 C 10.65625 -12.773438 10.34375 -12.65625 9.96875 -12.65625 L 4.140625 -12.65625 L 4.328125 -12.921875 L 4.328125 -8.5625 L 4.171875 -8.84375 L 9 -8.84375 C 9.375 -8.84375 9.6875 -8.722656 9.9375 -8.484375 C 10.195312 -8.253906 10.328125 -7.953125 10.328125 -7.578125 C 10.328125 -7.253906 10.195312 -6.96875 9.9375 -6.71875 C 9.6875 -6.476562 9.375 -6.359375 9 -6.359375 L 4.140625 -6.359375 L 4.328125 -6.5625 L 4.328125 -1.3125 C 4.328125 -0.9375 4.191406 -0.625 3.921875 -0.375 C 3.660156 -0.125 3.347656 0 2.984375 0 Z M 2.984375 0 "/></g></g></g><g fill="#000000" fill-opacity="1"><g transform="translate(203.949497, 176.477302)"><g><path d="M 15.5625 -7.578125 C 15.5625 -6.492188 15.378906 -5.484375 15.015625 -4.546875 C 14.660156 -3.609375 14.15625 -2.78125 13.5 -2.0625 C 12.84375 -1.351562 12.0625 -0.796875 11.15625 -0.390625 C 10.25 0.015625 9.265625 0.21875 8.203125 0.21875 C 7.128906 0.21875 6.144531 0.015625 5.25 -0.390625 C 4.363281 -0.796875 3.59375 -1.351562 2.9375 -2.0625 C 2.28125 -2.78125 1.769531 -3.609375 1.40625 -4.546875 C 1.039062 -5.484375 0.859375 -6.492188 0.859375 -7.578125 C 0.859375 -8.660156 1.039062 -9.671875 1.40625 -10.609375 C 1.769531 -11.546875 2.28125 -12.367188 2.9375 -13.078125 C 3.59375 -13.796875 4.363281 -14.351562 5.25 -14.75 C 6.144531 -15.15625 7.128906 -15.359375 8.203125 -15.359375 C 9.265625 -15.359375 10.25 -15.15625 11.15625 -14.75 C 12.0625 -14.351562 12.84375 -13.796875 13.5 -13.078125 C 14.15625 -12.367188 14.660156 -11.546875 15.015625 -10.609375 C 15.378906 -9.671875 15.5625 -8.660156 15.5625 -7.578125 Z M 12.75 -7.578125 C 12.75 -8.546875 12.550781 -9.421875 12.15625 -10.203125 C 11.769531 -10.992188 11.238281 -11.617188 10.5625 -12.078125 C 9.882812 -12.535156 9.097656 -12.765625 8.203125 -12.765625 C 7.304688 -12.765625 6.519531 -12.535156 5.84375 -12.078125 C 5.164062 -11.617188 4.632812 -11 4.25 -10.21875 C 3.863281 -9.4375 3.671875 -8.554688 3.671875 -7.578125 C 3.671875 -6.609375 3.863281 -5.726562 4.25 -4.9375 C 4.632812 -4.15625 5.164062 -3.53125 5.84375 -3.0625 C 6.519531 -2.601562 7.304688 -2.375 8.203125 -2.375 C 9.097656 -2.375 9.882812 -2.601562 10.5625 -3.0625 C 11.238281 -3.53125 11.769531 -4.15625 12.15625 -4.9375 C 12.550781 -5.726562 12.75 -6.609375 12.75 -7.578125 Z M 12.75 -7.578125 "/></g></g></g><g fill="#000000" fill-opacity="1"><g transform="translate(220.377695, 176.477302)"><g><path d="M 12.375 -15.171875 C 12.75 -15.171875 13.050781 -15.039062 13.28125 -14.78125 C 13.519531 -14.53125 13.640625 -14.21875 13.640625 -13.84375 L 13.640625 -6.015625 C 13.640625 -4.816406 13.378906 -3.753906 12.859375 -2.828125 C 12.347656 -1.910156 11.644531 -1.191406 10.75 -0.671875 C 9.851562 -0.148438 8.816406 0.109375 7.640625 0.109375 C 6.453125 0.109375 5.40625 -0.148438 4.5 -0.671875 C 3.601562 -1.191406 2.898438 -1.910156 2.390625 -2.828125 C 1.878906 -3.753906 1.625 -4.816406 1.625 -6.015625 L 1.625 -13.84375 C 1.625 -14.21875 1.753906 -14.53125 2.015625 -14.78125 C 2.273438 -15.039062 2.609375 -15.171875 3.015625 -15.171875 C 3.335938 -15.171875 3.632812 -15.039062 3.90625 -14.78125 C 4.175781 -14.53125 4.3125 -14.21875 4.3125 -13.84375 L 4.3125 -6.015625 C 4.3125 -5.296875 4.460938 -4.671875 4.765625 -4.140625 C 5.078125 -3.617188 5.488281 -3.210938 6 -2.921875 C 6.519531 -2.628906 7.066406 -2.484375 7.640625 -2.484375 C 8.253906 -2.484375 8.828125 -2.628906 9.359375 -2.921875 C 9.898438 -3.210938 10.335938 -3.617188 10.671875 -4.140625 C 11.003906 -4.671875 11.171875 -5.296875 11.171875 -6.015625 L 11.171875 -13.84375 C 11.171875 -14.21875 11.273438 -14.53125 11.484375 -14.78125 C 11.703125 -15.039062 12 -15.171875 12.375 -15.171875 Z M 12.375 -15.171875 "/></g></g></g><g fill="#000000" fill-opacity="1"><g transform="translate(235.637086, 176.477302)"><g><path d="M 13.109375 -15.140625 C 13.460938 -15.140625 13.742188 -15.023438 13.953125 -14.796875 C 14.171875 -14.566406 14.28125 -14.28125 14.28125 -13.9375 L 14.28125 -1.3125 C 14.28125 -0.9375 14.15625 -0.625 13.90625 -0.375 C 13.65625 -0.125 13.34375 0 12.96875 0 C 12.78125 0 12.585938 -0.03125 12.390625 -0.09375 C 12.191406 -0.15625 12.046875 -0.25 11.953125 -0.375 L 3.4375 -11.171875 L 4 -11.515625 L 4 -1.21875 C 4 -0.863281 3.882812 -0.570312 3.65625 -0.34375 C 3.4375 -0.113281 3.148438 0 2.796875 0 C 2.441406 0 2.15625 -0.113281 1.9375 -0.34375 C 1.726562 -0.570312 1.625 -0.863281 1.625 -1.21875 L 1.625 -13.828125 C 1.625 -14.203125 1.75 -14.515625 2 -14.765625 C 2.25 -15.015625 2.5625 -15.140625 2.9375 -15.140625 C 3.144531 -15.140625 3.351562 -15.097656 3.5625 -15.015625 C 3.78125 -14.941406 3.941406 -14.828125 4.046875 -14.671875 L 12.296875 -4.15625 L 11.921875 -3.890625 L 11.921875 -13.9375 C 11.921875 -14.28125 12.03125 -14.566406 12.25 -14.796875 C 12.46875 -15.023438 12.753906 -15.140625 13.109375 -15.140625 Z M 13.109375 -15.140625 "/></g></g></g><g fill="#000000" fill-opacity="1"><g transform="translate(251.545814, 176.477302)"><g><path d="M 8.109375 -15.140625 C 9.148438 -15.140625 10.070312 -14.945312 10.875 -14.5625 C 11.6875 -14.175781 12.367188 -13.628906 12.921875 -12.921875 C 13.484375 -12.222656 13.90625 -11.414062 14.1875 -10.5 C 14.46875 -9.582031 14.609375 -8.609375 14.609375 -7.578125 C 14.609375 -6.171875 14.351562 -4.894531 13.84375 -3.75 C 13.34375 -2.601562 12.613281 -1.691406 11.65625 -1.015625 C 10.695312 -0.335938 9.515625 0 8.109375 0 L 2.9375 0 C 2.5625 0 2.25 -0.125 2 -0.375 C 1.75 -0.625 1.625 -0.9375 1.625 -1.3125 L 1.625 -13.828125 C 1.625 -14.203125 1.75 -14.515625 2 -14.765625 C 2.25 -15.015625 2.5625 -15.140625 2.9375 -15.140625 Z M 7.90625 -2.484375 C 8.8125 -2.484375 9.550781 -2.71875 10.125 -3.1875 C 10.707031 -3.65625 11.128906 -4.273438 11.390625 -5.046875 C 11.660156 -5.816406 11.796875 -6.660156 11.796875 -7.578125 C 11.796875 -8.253906 11.71875 -8.898438 11.5625 -9.515625 C 11.414062 -10.128906 11.179688 -10.671875 10.859375 -11.140625 C 10.546875 -11.609375 10.144531 -11.976562 9.65625 -12.25 C 9.164062 -12.519531 8.582031 -12.65625 7.90625 -12.65625 L 4.109375 -12.65625 L 4.328125 -12.859375 L 4.328125 -2.25 L 4.203125 -2.484375 Z M 7.90625 -2.484375 "/></g></g></g><g fill="#000000" fill-opacity="1"><g transform="translate(267.021658, 176.477302)"><g><path d="M 7.1875 -11.75 L 2.515625 -0.75 C 2.410156 -0.476562 2.253906 -0.265625 2.046875 -0.109375 C 1.835938 0.0351562 1.609375 0.109375 1.359375 0.109375 C 0.972656 0.109375 0.6875 0 0.5 -0.21875 C 0.3125 -0.4375 0.21875 -0.703125 0.21875 -1.015625 C 0.21875 -1.148438 0.238281 -1.285156 0.28125 -1.421875 L 5.671875 -14.375 C 5.785156 -14.65625 5.960938 -14.875 6.203125 -15.03125 C 6.441406 -15.195312 6.695312 -15.265625 6.96875 -15.234375 C 7.226562 -15.234375 7.46875 -15.15625 7.6875 -15 C 7.914062 -14.851562 8.082031 -14.644531 8.1875 -14.375 L 13.5 -1.6875 C 13.570312 -1.5 13.609375 -1.328125 13.609375 -1.171875 C 13.609375 -0.773438 13.484375 -0.460938 13.234375 -0.234375 C 12.984375 -0.00390625 12.707031 0.109375 12.40625 0.109375 C 12.144531 0.109375 11.910156 0.03125 11.703125 -0.125 C 11.492188 -0.289062 11.328125 -0.507812 11.203125 -0.78125 L 6.5625 -11.625 Z M 3.1875 -3.390625 L 4.375 -5.890625 L 10.21875 -5.890625 L 10.625 -3.390625 Z M 3.1875 -3.390625 "/></g></g></g><g fill="#000000" fill-opacity="1"><g transform="translate(280.852518, 176.477302)"><g><path d="M 6.75 0 C 6.34375 0 6.007812 -0.125 5.75 -0.375 C 5.488281 -0.625 5.359375 -0.9375 5.359375 -1.3125 L 5.359375 -13.875 L 8.1875 -13.875 L 8.1875 -1.3125 C 8.1875 -0.9375 8.050781 -0.625 7.78125 -0.375 C 7.507812 -0.125 7.164062 0 6.75 0 Z M 1.96875 -12.65625 C 1.59375 -12.65625 1.28125 -12.769531 1.03125 -13 C 0.78125 -13.238281 0.65625 -13.546875 0.65625 -13.921875 C 0.65625 -14.296875 0.78125 -14.59375 1.03125 -14.8125 C 1.28125 -15.03125 1.59375 -15.140625 1.96875 -15.140625 L 11.578125 -15.140625 C 11.953125 -15.140625 12.265625 -15.023438 12.515625 -14.796875 C 12.765625 -14.566406 12.890625 -14.265625 12.890625 -13.890625 C 12.890625 -13.515625 12.765625 -13.210938 12.515625 -12.984375 C 12.265625 -12.765625 11.953125 -12.65625 11.578125 -12.65625 Z M 1.96875 -12.65625 "/></g></g></g><g fill="#000000" fill-opacity="1"><g transform="translate(294.401978, 176.477302)"><g><path d="M 4.328125 -1.3125 C 4.328125 -0.9375 4.1875 -0.625 3.90625 -0.375 C 3.632812 -0.125 3.320312 0 2.96875 0 C 2.5625 0 2.234375 -0.125 1.984375 -0.375 C 1.742188 -0.625 1.625 -0.9375 1.625 -1.3125 L 1.625 -13.828125 C 1.625 -14.203125 1.753906 -14.515625 2.015625 -14.765625 C 2.273438 -15.015625 2.609375 -15.140625 3.015625 -15.140625 C 3.359375 -15.140625 3.660156 -15.015625 3.921875 -14.765625 C 4.191406 -14.515625 4.328125 -14.203125 4.328125 -13.828125 Z M 4.328125 -1.3125 "/></g></g></g><g fill="#000000" fill-opacity="1"><g transform="translate(300.354233, 176.477302)"><g><path d="M 15.5625 -7.578125 C 15.5625 -6.492188 15.378906 -5.484375 15.015625 -4.546875 C 14.660156 -3.609375 14.15625 -2.78125 13.5 -2.0625 C 12.84375 -1.351562 12.0625 -0.796875 11.15625 -0.390625 C 10.25 0.015625 9.265625 0.21875 8.203125 0.21875 C 7.128906 0.21875 6.144531 0.015625 5.25 -0.390625 C 4.363281 -0.796875 3.59375 -1.351562 2.9375 -2.0625 C 2.28125 -2.78125 1.769531 -3.609375 1.40625 -4.546875 C 1.039062 -5.484375 0.859375 -6.492188 0.859375 -7.578125 C 0.859375 -8.660156 1.039062 -9.671875 1.40625 -10.609375 C 1.769531 -11.546875 2.28125 -12.367188 2.9375 -13.078125 C 3.59375 -13.796875 4.363281 -14.351562 5.25 -14.75 C 6.144531 -15.15625 7.128906 -15.359375 8.203125 -15.359375 C 9.265625 -15.359375 10.25 -15.15625 11.15625 -14.75 C 12.0625 -14.351562 12.84375 -13.796875 13.5 -13.078125 C 14.15625 -12.367188 14.660156 -11.546875 15.015625 -10.609375 C 15.378906 -9.671875 15.5625 -8.660156 15.5625 -7.578125 Z M 12.75 -7.578125 C 12.75 -8.546875 12.550781 -9.421875 12.15625 -10.203125 C 11.769531 -10.992188 11.238281 -11.617188 10.5625 -12.078125 C 9.882812 -12.535156 9.097656 -12.765625 8.203125 -12.765625 C 7.304688 -12.765625 6.519531 -12.535156 5.84375 -12.078125 C 5.164062 -11.617188 4.632812 -11 4.25 -10.21875 C 3.863281 -9.4375 3.671875 -8.554688 3.671875 -7.578125 C 3.671875 -6.609375 3.863281 -5.726562 4.25 -4.9375 C 4.632812 -4.15625 5.164062 -3.53125 5.84375 -3.0625 C 6.519531 -2.601562 7.304688 -2.375 8.203125 -2.375 C 9.097656 -2.375 9.882812 -2.601562 10.5625 -3.0625 C 11.238281 -3.53125 11.769531 -4.15625 12.15625 -4.9375 C 12.550781 -5.726562 12.75 -6.609375 12.75 -7.578125 Z M 12.75 -7.578125 "/></g></g></g><g fill="#000000" fill-opacity="1"><g transform="translate(316.782431, 176.477302)"><g><path d="M 13.109375 -15.140625 C 13.460938 -15.140625 13.742188 -15.023438 13.953125 -14.796875 C 14.171875 -14.566406 14.28125 -14.28125 14.28125 -13.9375 L 14.28125 -1.3125 C 14.28125 -0.9375 14.15625 -0.625 13.90625 -0.375 C 13.65625 -0.125 13.34375 0 12.96875 0 C 12.78125 0 12.585938 -0.03125 12.390625 -0.09375 C 12.191406 -0.15625 12.046875 -0.25 11.953125 -0.375 L 3.4375 -11.171875 L 4 -11.515625 L 4 -1.21875 C 4 -0.863281 3.882812 -0.570312 3.65625 -0.34375 C 3.4375 -0.113281 3.148438 0 2.796875 0 C 2.441406 0 2.15625 -0.113281 1.9375 -0.34375 C 1.726562 -0.570312 1.625 -0.863281 1.625 -1.21875 L 1.625 -13.828125 C 1.625 -14.203125 1.75 -14.515625 2 -14.765625 C 2.25 -15.015625 2.5625 -15.140625 2.9375 -15.140625 C 3.144531 -15.140625 3.351562 -15.097656 3.5625 -15.015625 C 3.78125 -14.941406 3.941406 -14.828125 4.046875 -14.671875 L 12.296875 -4.15625 L 11.921875 -3.890625 L 11.921875 -13.9375 C 11.921875 -14.28125 12.03125 -14.566406 12.25 -14.796875 C 12.46875 -15.023438 12.753906 -15.140625 13.109375 -15.140625 Z M 13.109375 -15.140625 "/></g></g></g><g fill="#5ce1e6" fill-opacity="0.302"><g transform="translate(102.455214, 197.291061)"><g><path d="M 1.171875 0 L 2.1875 0 L 2.1875 -3.390625 L 5.484375 -3.390625 L 5.484375 -4.328125 L 2.1875 -4.328125 L 2.1875 -7.109375 L 5.78125 -7.109375 L 5.78125 -8.046875 L 1.171875 -8.046875 Z M 1.171875 0 "/></g></g></g><g fill="#5ce1e6" fill-opacity="0.302"><g transform="translate(108.87005, 197.291061)"><g><path d="M 4.828125 0.15625 C 7.28125 0.15625 9 -1.578125 9 -4.03125 C 9 -6.46875 7.28125 -8.203125 4.828125 -8.203125 C 2.375 -8.203125 0.671875 -6.46875 0.671875 -4.03125 C 0.671875 -1.578125 2.375 0.15625 4.828125 0.15625 Z M 1.703125 -4.03125 C 1.703125 -5.90625 2.984375 -7.1875 4.828125 -7.1875 C 6.6875 -7.1875 7.953125 -5.90625 7.953125 -4.03125 C 7.953125 -2.15625 6.6875 -0.859375 4.828125 -0.859375 C 2.984375 -0.859375 1.703125 -2.15625 1.703125 -4.03125 Z M 1.703125 -4.03125 "/></g></g></g><g fill="#5ce1e6" fill-opacity="0.302"><g transform="translate(118.526792, 197.291061)"><g><path d="M 1.171875 0 L 2.1875 0 L 2.1875 -2.890625 L 3.953125 -2.890625 L 5.921875 0 L 7.140625 0 L 5.125 -2.984375 C 6.296875 -3.28125 7.015625 -4.15625 7.015625 -5.46875 C 7.015625 -7.0625 5.90625 -8.046875 4.25 -8.046875 L 1.171875 -8.046875 Z M 2.1875 -3.859375 L 2.1875 -7.078125 L 4.125 -7.078125 C 5.296875 -7.078125 5.984375 -6.484375 5.984375 -5.46875 C 5.984375 -4.4375 5.296875 -3.859375 4.125 -3.859375 Z M 2.1875 -3.859375 "/></g></g></g><g fill="#5ce1e6" fill-opacity="0.302"><g transform="translate(126.355649, 197.291061)"><g/></g></g><g fill="#5ce1e6" fill-opacity="0.302"><g transform="translate(129.206692, 197.291061)"><g><path d="M 3.109375 0 L 4.125 0 L 4.125 -7.078125 L 6.84375 -7.078125 L 6.84375 -8.046875 L 0.390625 -8.046875 L 0.390625 -7.078125 L 3.109375 -7.078125 Z M 3.109375 0 "/></g></g></g><g fill="#5ce1e6" fill-opacity="0.302"><g transform="translate(136.449257, 197.291061)"><g><path d="M 1.171875 0 L 6.1875 0 L 6.1875 -0.9375 L 2.1875 -0.9375 L 2.1875 -3.640625 L 5.765625 -3.640625 L 5.765625 -4.5625 L 2.1875 -4.5625 L 2.1875 -7.109375 L 6.0625 -7.109375 L 6.0625 -8.046875 L 1.171875 -8.046875 Z M 1.171875 0 "/></g></g></g><g fill="#5ce1e6" fill-opacity="0.302"><g transform="translate(143.381423, 197.291061)"><g><path d="M 4.734375 0.15625 C 6.6875 0.15625 8.28125 -1.03125 8.765625 -2.828125 L 7.6875 -2.828125 C 7.28125 -1.625 6.140625 -0.859375 4.765625 -0.859375 C 2.984375 -0.859375 1.703125 -2.15625 1.703125 -4.03125 C 1.703125 -5.890625 2.984375 -7.1875 4.765625 -7.1875 C 6.109375 -7.1875 7.203125 -6.46875 7.609375 -5.3125 L 8.6875 -5.3125 C 8.171875 -7.078125 6.640625 -8.203125 4.734375 -8.203125 C 2.375 -8.203125 0.671875 -6.453125 0.671875 -4.03125 C 0.671875 -1.59375 2.375 0.15625 4.734375 0.15625 Z M 4.734375 0.15625 "/></g></g></g><g fill="#5ce1e6" fill-opacity="0.302"><g transform="translate(152.762259, 197.291061)"><g><path d="M 6.453125 0 L 7.46875 0 L 7.46875 -8.046875 L 6.453125 -8.046875 L 6.453125 -4.59375 L 2.1875 -4.59375 L 2.1875 -8.046875 L 1.171875 -8.046875 L 1.171875 0 L 2.1875 0 L 2.1875 -3.625 L 6.453125 -3.625 Z M 6.453125 0 "/></g></g></g><g fill="#5ce1e6" fill-opacity="0.302"><g transform="translate(161.395853, 197.291061)"><g><path d="M 1.171875 0 L 2.171875 0 L 2.171875 -6.296875 L 6.625 0 L 7.5625 0 L 7.5625 -8.046875 L 6.578125 -8.046875 L 6.578125 -1.75 L 2.125 -8.046875 L 1.171875 -8.046875 Z M 1.171875 0 "/></g></g></g><g fill="#5ce1e6" fill-opacity="0.302"><g transform="translate(170.132913, 197.291061)"><g><path d="M 4.828125 0.15625 C 7.28125 0.15625 9 -1.578125 9 -4.03125 C 9 -6.46875 7.28125 -8.203125 4.828125 -8.203125 C 2.375 -8.203125 0.671875 -6.46875 0.671875 -4.03125 C 0.671875 -1.578125 2.375 0.15625 4.828125 0.15625 Z M 1.703125 -4.03125 C 1.703125 -5.90625 2.984375 -7.1875 4.828125 -7.1875 C 6.6875 -7.1875 7.953125 -5.90625 7.953125 -4.03125 C 7.953125 -2.15625 6.6875 -0.859375 4.828125 -0.859375 C 2.984375 -0.859375 1.703125 -2.15625 1.703125 -4.03125 Z M 1.703125 -4.03125 "/></g></g></g><g fill="#5ce1e6" fill-opacity="0.302"><g transform="translate(179.789655, 197.291061)"><g><path d="M 1.171875 0 L 6.09375 0 L 6.09375 -0.96875 L 2.1875 -0.96875 L 2.1875 -8.046875 L 1.171875 -8.046875 Z M 1.171875 0 "/></g></g></g><g fill="#5ce1e6" fill-opacity="0.302"><g transform="translate(186.238984, 197.291061)"><g><path d="M 4.828125 0.15625 C 7.28125 0.15625 9 -1.578125 9 -4.03125 C 9 -6.46875 7.28125 -8.203125 4.828125 -8.203125 C 2.375 -8.203125 0.671875 -6.46875 0.671875 -4.03125 C 0.671875 -1.578125 2.375 0.15625 4.828125 0.15625 Z M 1.703125 -4.03125 C 1.703125 -5.90625 2.984375 -7.1875 4.828125 -7.1875 C 6.6875 -7.1875 7.953125 -5.90625 7.953125 -4.03125 C 7.953125 -2.15625 6.6875 -0.859375 4.828125 -0.859375 C 2.984375 -0.859375 1.703125 -2.15625 1.703125 -4.03125 Z M 1.703125 -4.03125 "/></g></g></g><g fill="#5ce1e6" fill-opacity="0.302"><g transform="translate(195.895725, 197.291061)"><g><path d="M 4.765625 0.15625 C 7.234375 0.15625 8.90625 -1.71875 8.859375 -4.375 L 4.484375 -4.375 L 4.484375 -3.40625 L 7.765625 -3.40625 C 7.5625 -1.890625 6.40625 -0.859375 4.78125 -0.859375 C 2.984375 -0.859375 1.703125 -2.15625 1.703125 -4.03125 C 1.703125 -5.890625 2.96875 -7.1875 4.765625 -7.1875 C 6.015625 -7.1875 7 -6.578125 7.515625 -5.546875 L 8.609375 -5.546875 C 8.09375 -7.125 6.578125 -8.203125 4.734375 -8.203125 C 2.375 -8.203125 0.671875 -6.4375 0.671875 -4.03125 C 0.671875 -1.59375 2.390625 0.15625 4.765625 0.15625 Z M 4.765625 0.15625 "/></g></g></g><g fill="#5ce1e6" fill-opacity="0.302"><g transform="translate(205.380027, 197.291061)"><g><path d="M 3.21875 0 L 4.203125 0 L 4.203125 -2.890625 L 7.234375 -8.046875 L 6.09375 -8.046875 L 3.71875 -3.984375 L 2.671875 -5.796875 L 1.375 -8.046875 L 0.203125 -8.046875 L 3.21875 -2.890625 Z M 3.21875 0 "/></g></g></g><g fill="#5ce1e6" fill-opacity="0.502"><g transform="translate(102.018939, 197.383787)"><g><path d="M 1.171875 0 L 2.1875 0 L 2.1875 -3.390625 L 5.484375 -3.390625 L 5.484375 -4.328125 L 2.1875 -4.328125 L 2.1875 -7.109375 L 5.78125 -7.109375 L 5.78125 -8.046875 L 1.171875 -8.046875 Z M 1.171875 0 "/></g></g></g><g fill="#5ce1e6" fill-opacity="0.502"><g transform="translate(108.433776, 197.383787)"><g><path d="M 4.828125 0.15625 C 7.28125 0.15625 9 -1.578125 9 -4.03125 C 9 -6.46875 7.28125 -8.203125 4.828125 -8.203125 C 2.375 -8.203125 0.671875 -6.46875 0.671875 -4.03125 C 0.671875 -1.578125 2.375 0.15625 4.828125 0.15625 Z M 1.703125 -4.03125 C 1.703125 -5.90625 2.984375 -7.1875 4.828125 -7.1875 C 6.6875 -7.1875 7.953125 -5.90625 7.953125 -4.03125 C 7.953125 -2.15625 6.6875 -0.859375 4.828125 -0.859375 C 2.984375 -0.859375 1.703125 -2.15625 1.703125 -4.03125 Z M 1.703125 -4.03125 "/></g></g></g><g fill="#5ce1e6" fill-opacity="0.502"><g transform="translate(118.090517, 197.383787)"><g><path d="M 1.171875 0 L 2.1875 0 L 2.1875 -2.890625 L 3.953125 -2.890625 L 5.921875 0 L 7.140625 0 L 5.125 -2.984375 C 6.296875 -3.28125 7.015625 -4.15625 7.015625 -5.46875 C 7.015625 -7.0625 5.90625 -8.046875 4.25 -8.046875 L 1.171875 -8.046875 Z M 2.1875 -3.859375 L 2.1875 -7.078125 L 4.125 -7.078125 C 5.296875 -7.078125 5.984375 -6.484375 5.984375 -5.46875 C 5.984375 -4.4375 5.296875 -3.859375 4.125 -3.859375 Z M 2.1875 -3.859375 "/></g></g></g><g fill="#5ce1e6" fill-opacity="0.502"><g transform="translate(125.919374, 197.383787)"><g/></g></g><g fill="#5ce1e6" fill-opacity="0.502"><g transform="translate(128.770418, 197.383787)"><g><path d="M 3.109375 0 L 4.125 0 L 4.125 -7.078125 L 6.84375 -7.078125 L 6.84375 -8.046875 L 0.390625 -8.046875 L 0.390625 -7.078125 L 3.109375 -7.078125 Z M 3.109375 0 "/></g></g></g><g fill="#5ce1e6" fill-opacity="0.502"><g transform="translate(136.012982, 197.383787)"><g><path d="M 1.171875 0 L 6.1875 0 L 6.1875 -0.9375 L 2.1875 -0.9375 L 2.1875 -3.640625 L 5.765625 -3.640625 L 5.765625 -4.5625 L 2.1875 -4.5625 L 2.1875 -7.109375 L 6.0625 -7.109375 L 6.0625 -8.046875 L 1.171875 -8.046875 Z M 1.171875 0 "/></g></g></g><g fill="#5ce1e6" fill-opacity="0.502"><g transform="translate(142.945149, 197.383787)"><g><path d="M 4.734375 0.15625 C 6.6875 0.15625 8.28125 -1.03125 8.765625 -2.828125 L 7.6875 -2.828125 C 7.28125 -1.625 6.140625 -0.859375 4.765625 -0.859375 C 2.984375 -0.859375 1.703125 -2.15625 1.703125 -4.03125 C 1.703125 -5.890625 2.984375 -7.1875 4.765625 -7.1875 C 6.109375 -7.1875 7.203125 -6.46875 7.609375 -5.3125 L 8.6875 -5.3125 C 8.171875 -7.078125 6.640625 -8.203125 4.734375 -8.203125 C 2.375 -8.203125 0.671875 -6.453125 0.671875 -4.03125 C 0.671875 -1.59375 2.375 0.15625 4.734375 0.15625 Z M 4.734375 0.15625 "/></g></g></g><g fill="#5ce1e6" fill-opacity="0.502"><g transform="translate(152.325985, 197.383787)"><g><path d="M 6.453125 0 L 7.46875 0 L 7.46875 -8.046875 L 6.453125 -8.046875 L 6.453125 -4.59375 L 2.1875 -4.59375 L 2.1875 -8.046875 L 1.171875 -8.046875 L 1.171875 0 L 2.1875 0 L 2.1875 -3.625 L 6.453125 -3.625 Z M 6.453125 0 "/></g></g></g><g fill="#5ce1e6" fill-opacity="0.502"><g transform="translate(160.959579, 197.383787)"><g><path d="M 1.171875 0 L 2.171875 0 L 2.171875 -6.296875 L 6.625 0 L 7.5625 0 L 7.5625 -8.046875 L 6.578125 -8.046875 L 6.578125 -1.75 L 2.125 -8.046875 L 1.171875 -8.046875 Z M 1.171875 0 "/></g></g></g><g fill="#5ce1e6" fill-opacity="0.502"><g transform="translate(169.696639, 197.383787)"><g><path d="M 4.828125 0.15625 C 7.28125 0.15625 9 -1.578125 9 -4.03125 C 9 -6.46875 7.28125 -8.203125 4.828125 -8.203125 C 2.375 -8.203125 0.671875 -6.46875 0.671875 -4.03125 C 0.671875 -1.578125 2.375 0.15625 4.828125 0.15625 Z M 1.703125 -4.03125 C 1.703125 -5.90625 2.984375 -7.1875 4.828125 -7.1875 C 6.6875 -7.1875 7.953125 -5.90625 7.953125 -4.03125 C 7.953125 -2.15625 6.6875 -0.859375 4.828125 -0.859375 C 2.984375 -0.859375 1.703125 -2.15625 1.703125 -4.03125 Z M 1.703125 -4.03125 "/></g></g></g><g fill="#5ce1e6" fill-opacity="0.502"><g transform="translate(179.35338, 197.383787)"><g><path d="M 1.171875 0 L 6.09375 0 L 6.09375 -0.96875 L 2.1875 -0.96875 L 2.1875 -8.046875 L 1.171875 -8.046875 Z M 1.171875 0 "/></g></g></g><g fill="#5ce1e6" fill-opacity="0.502"><g transform="translate(185.802709, 197.383787)"><g><path d="M 4.828125 0.15625 C 7.28125 0.15625 9 -1.578125 9 -4.03125 C 9 -6.46875 7.28125 -8.203125 4.828125 -8.203125 C 2.375 -8.203125 0.671875 -6.46875 0.671875 -4.03125 C 0.671875 -1.578125 2.375 0.15625 4.828125 0.15625 Z M 1.703125 -4.03125 C 1.703125 -5.90625 2.984375 -7.1875 4.828125 -7.1875 C 6.6875 -7.1875 7.953125 -5.90625 7.953125 -4.03125 C 7.953125 -2.15625 6.6875 -0.859375 4.828125 -0.859375 C 2.984375 -0.859375 1.703125 -2.15625 1.703125 -4.03125 Z M 1.703125 -4.03125 "/></g></g></g><g fill="#5ce1e6" fill-opacity="0.502"><g transform="translate(195.459451, 197.383787)"><g><path d="M 4.765625 0.15625 C 7.234375 0.15625 8.90625 -1.71875 8.859375 -4.375 L 4.484375 -4.375 L 4.484375 -3.40625 L 7.765625 -3.40625 C 7.5625 -1.890625 6.40625 -0.859375 4.78125 -0.859375 C 2.984375 -0.859375 1.703125 -2.15625 1.703125 -4.03125 C 1.703125 -5.890625 2.96875 -7.1875 4.765625 -7.1875 C 6.015625 -7.1875 7 -6.578125 7.515625 -5.546875 L 8.609375 -5.546875 C 8.09375 -7.125 6.578125 -8.203125 4.734375 -8.203125 C 2.375 -8.203125 0.671875 -6.4375 0.671875 -4.03125 C 0.671875 -1.59375 2.390625 0.15625 4.765625 0.15625 Z M 4.765625 0.15625 "/></g></g></g><g fill="#5ce1e6" fill-opacity="0.502"><g transform="translate(204.943752, 197.383787)"><g><path d="M 3.21875 0 L 4.203125 0 L 4.203125 -2.890625 L 7.234375 -8.046875 L 6.09375 -8.046875 L 3.71875 -3.984375 L 2.671875 -5.796875 L 1.375 -8.046875 L 0.203125 -8.046875 L 3.21875 -2.890625 Z M 3.21875 0 "/></g></g></g><g fill="#000000" fill-opacity="1"><g transform="translate(101.582665, 197.476525)"><g><path d="M 1.171875 0 L 2.1875 0 L 2.1875 -3.390625 L 5.484375 -3.390625 L 5.484375 -4.328125 L 2.1875 -4.328125 L 2.1875 -7.109375 L 5.78125 -7.109375 L 5.78125 -8.046875 L 1.171875 -8.046875 Z M 1.171875 0 "/></g></g></g><g fill="#000000" fill-opacity="1"><g transform="translate(107.997501, 197.476525)"><g><path d="M 4.828125 0.15625 C 7.28125 0.15625 9 -1.578125 9 -4.03125 C 9 -6.46875 7.28125 -8.203125 4.828125 -8.203125 C 2.375 -8.203125 0.671875 -6.46875 0.671875 -4.03125 C 0.671875 -1.578125 2.375 0.15625 4.828125 0.15625 Z M 1.703125 -4.03125 C 1.703125 -5.90625 2.984375 -7.1875 4.828125 -7.1875 C 6.6875 -7.1875 7.953125 -5.90625 7.953125 -4.03125 C 7.953125 -2.15625 6.6875 -0.859375 4.828125 -0.859375 C 2.984375 -0.859375 1.703125 -2.15625 1.703125 -4.03125 Z M 1.703125 -4.03125 "/></g></g></g><g fill="#000000" fill-opacity="1"><g transform="translate(117.654243, 197.476525)"><g><path d="M 1.171875 0 L 2.1875 0 L 2.1875 -2.890625 L 3.953125 -2.890625 L 5.921875 0 L 7.140625 0 L 5.125 -2.984375 C 6.296875 -3.28125 7.015625 -4.15625 7.015625 -5.46875 C 7.015625 -7.0625 5.90625 -8.046875 4.25 -8.046875 L 1.171875 -8.046875 Z M 2.1875 -3.859375 L 2.1875 -7.078125 L 4.125 -7.078125 C 5.296875 -7.078125 5.984375 -6.484375 5.984375 -5.46875 C 5.984375 -4.4375 5.296875 -3.859375 4.125 -3.859375 Z M 2.1875 -3.859375 "/></g></g></g><g fill="#000000" fill-opacity="1"><g transform="translate(125.4831, 197.476525)"><g/></g></g><g fill="#000000" fill-opacity="1"><g transform="translate(128.334143, 197.476525)"><g><path d="M 3.109375 0 L 4.125 0 L 4.125 -7.078125 L 6.84375 -7.078125 L 6.84375 -8.046875 L 0.390625 -8.046875 L 0.390625 -7.078125 L 3.109375 -7.078125 Z M 3.109375 0 "/></g></g></g><g fill="#000000" fill-opacity="1"><g transform="translate(135.576708, 197.476525)"><g><path d="M 1.171875 0 L 6.1875 0 L 6.1875 -0.9375 L 2.1875 -0.9375 L 2.1875 -3.640625 L 5.765625 -3.640625 L 5.765625 -4.5625 L 2.1875 -4.5625 L 2.1875 -7.109375 L 6.0625 -7.109375 L 6.0625 -8.046875 L 1.171875 -8.046875 Z M 1.171875 0 "/></g></g></g><g fill="#000000" fill-opacity="1"><g transform="translate(142.508875, 197.476525)"><g><path d="M 4.734375 0.15625 C 6.6875 0.15625 8.28125 -1.03125 8.765625 -2.828125 L 7.6875 -2.828125 C 7.28125 -1.625 6.140625 -0.859375 4.765625 -0.859375 C 2.984375 -0.859375 1.703125 -2.15625 1.703125 -4.03125 C 1.703125 -5.890625 2.984375 -7.1875 4.765625 -7.1875 C 6.109375 -7.1875 7.203125 -6.46875 7.609375 -5.3125 L 8.6875 -5.3125 C 8.171875 -7.078125 6.640625 -8.203125 4.734375 -8.203125 C 2.375 -8.203125 0.671875 -6.453125 0.671875 -4.03125 C 0.671875 -1.59375 2.375 0.15625 4.734375 0.15625 Z M 4.734375 0.15625 "/></g></g></g><g fill="#000000" fill-opacity="1"><g transform="translate(151.88971, 197.476525)"><g><path d="M 6.453125 0 L 7.46875 0 L 7.46875 -8.046875 L 6.453125 -8.046875 L 6.453125 -4.59375 L 2.1875 -4.59375 L 2.1875 -8.046875 L 1.171875 -8.046875 L 1.171875 0 L 2.1875 0 L 2.1875 -3.625 L 6.453125 -3.625 Z M 6.453125 0 "/></g></g></g><g fill="#000000" fill-opacity="1"><g transform="translate(160.523304, 197.476525)"><g><path d="M 1.171875 0 L 2.171875 0 L 2.171875 -6.296875 L 6.625 0 L 7.5625 0 L 7.5625 -8.046875 L 6.578125 -8.046875 L 6.578125 -1.75 L 2.125 -8.046875 L 1.171875 -8.046875 Z M 1.171875 0 "/></g></g></g><g fill="#000000" fill-opacity="1"><g transform="translate(169.260364, 197.476525)"><g><path d="M 4.828125 0.15625 C 7.28125 0.15625 9 -1.578125 9 -4.03125 C 9 -6.46875 7.28125 -8.203125 4.828125 -8.203125 C 2.375 -8.203125 0.671875 -6.46875 0.671875 -4.03125 C 0.671875 -1.578125 2.375 0.15625 4.828125 0.15625 Z M 1.703125 -4.03125 C 1.703125 -5.90625 2.984375 -7.1875 4.828125 -7.1875 C 6.6875 -7.1875 7.953125 -5.90625 7.953125 -4.03125 C 7.953125 -2.15625 6.6875 -0.859375 4.828125 -0.859375 C 2.984375 -0.859375 1.703125 -2.15625 1.703125 -4.03125 Z M 1.703125 -4.03125 "/></g></g></g><g fill="#000000" fill-opacity="1"><g transform="translate(178.917106, 197.476525)"><g><path d="M 1.171875 0 L 6.09375 0 L 6.09375 -0.96875 L 2.1875 -0.96875 L 2.1875 -8.046875 L 1.171875 -8.046875 Z M 1.171875 0 "/></g></g></g><g fill="#000000" fill-opacity="1"><g transform="translate(185.366435, 197.476525)"><g><path d="M 4.828125 0.15625 C 7.28125 0.15625 9 -1.578125 9 -4.03125 C 9 -6.46875 7.28125 -8.203125 4.828125 -8.203125 C 2.375 -8.203125 0.671875 -6.46875 0.671875 -4.03125 C 0.671875 -1.578125 2.375 0.15625 4.828125 0.15625 Z M 1.703125 -4.03125 C 1.703125 -5.90625 2.984375 -7.1875 4.828125 -7.1875 C 6.6875 -7.1875 7.953125 -5.90625 7.953125 -4.03125 C 7.953125 -2.15625 6.6875 -0.859375 4.828125 -0.859375 C 2.984375 -0.859375 1.703125 -2.15625 1.703125 -4.03125 Z M 1.703125 -4.03125 "/></g></g></g><g fill="#000000" fill-opacity="1"><g transform="translate(195.023176, 197.476525)"><g><path d="M 4.765625 0.15625 C 7.234375 0.15625 8.90625 -1.71875 8.859375 -4.375 L 4.484375 -4.375 L 4.484375 -3.40625 L 7.765625 -3.40625 C 7.5625 -1.890625 6.40625 -0.859375 4.78125 -0.859375 C 2.984375 -0.859375 1.703125 -2.15625 1.703125 -4.03125 C 1.703125 -5.890625 2.96875 -7.1875 4.765625 -7.1875 C 6.015625 -7.1875 7 -6.578125 7.515625 -5.546875 L 8.609375 -5.546875 C 8.09375 -7.125 6.578125 -8.203125 4.734375 -8.203125 C 2.375 -8.203125 0.671875 -6.4375 0.671875 -4.03125 C 0.671875 -1.59375 2.390625 0.15625 4.765625 0.15625 Z M 4.765625 0.15625 "/></g></g></g><g fill="#000000" fill-opacity="1"><g transform="translate(204.507478, 197.476525)"><g><path d="M 3.21875 0 L 4.203125 0 L 4.203125 -2.890625 L 7.234375 -8.046875 L 6.09375 -8.046875 L 3.71875 -3.984375 L 2.671875 -5.796875 L 1.375 -8.046875 L 0.203125 -8.046875 L 3.21875 -2.890625 Z M 3.21875 0 "/></g></g></g></svg>