<svg xmlns="http://www.w3.org/2000/svg" xmlns:xlink="http://www.w3.org/1999/xlink" width="851" zoomAndPan="magnify" viewBox="0 0 638.25 236.249991" height="315" preserveAspectRatio="xMidYMid meet" version="1.0"><defs><g/><clipPath id="8e3ad283d8"><path d="M 0.636719 0 L 636.867188 0 L 636.867188 235.503906 L 0.636719 235.503906 Z M 0.636719 0 " clip-rule="nonzero"/></clipPath><clipPath id="92cc122bb5"><path d="M 0.636719 60.507812 L 111.285156 60.507812 L 111.285156 171.15625 L 0.636719 171.15625 Z M 0.636719 60.507812 " clip-rule="nonzero"/></clipPath></defs><g clip-path="url(#8e3ad283d8)"><path fill="#ffffff" d="M 0.636719 0 L 636.867188 0 L 636.867188 235.503906 L 0.636719 235.503906 Z M 0.636719 0 " fill-opacity="1" fill-rule="nonzero"/><path fill="#ffffff" d="M 0.636719 0 L 636.867188 0 L 636.867188 235.503906 L 0.636719 235.503906 Z M 0.636719 0 " fill-opacity="1" fill-rule="nonzero"/></g><g clip-path="url(#92cc122bb5)"><path fill="#00b779" d="M 56.058594 60.507812 C 66.261719 134.40625 74.53125 126.132812 0.632812 115.929688 C 74.53125 105.726562 66.261719 97.457031 56.058594 171.351562 C 45.855469 97.457031 37.582031 105.726562 111.480469 115.929688 C 37.582031 126.132812 45.855469 134.40625 56.058594 60.507812 Z M 56.058594 130.914062 C 58.816406 110.9375 61.050781 113.171875 41.074219 115.929688 C 61.050781 118.6875 58.816406 120.925781 56.058594 100.949219 C 53.296875 120.925781 51.0625 118.6875 71.039062 115.929688 C 51.0625 113.171875 53.296875 110.9375 56.058594 130.914062 Z M 56.058594 130.914062 " fill-opacity="1" fill-rule="nonzero"/></g><g fill="#000000" fill-opacity="1"><g transform="translate(204.655723, 112.565462)"><g><path d="M 17.71875 -4.5 C 18.382812 -4.5 18.941406 -4.285156 19.390625 -3.859375 C 19.835938 -3.441406 20.0625 -2.898438 20.0625 -2.234375 C 20.0625 -1.585938 19.835938 -1.050781 19.390625 -0.625 C 18.941406 -0.207031 18.382812 0 17.71875 0 L 5.21875 0 C 4.550781 0 3.992188 -0.222656 3.546875 -0.671875 C 3.097656 -1.117188 2.875 -1.675781 2.875 -2.34375 L 2.875 -24.546875 C 2.875 -25.210938 3.101562 -25.769531 3.5625 -26.21875 C 4.03125 -26.664062 4.625 -26.890625 5.34375 -26.890625 C 5.957031 -26.890625 6.5 -26.664062 6.96875 -26.21875 C 7.445312 -25.769531 7.6875 -25.210938 7.6875 -24.546875 L 7.6875 -3.84375 L 6.84375 -4.5 Z M 17.71875 -4.5 "/></g></g></g><g fill="#000000" fill-opacity="1"><g transform="translate(226.25128, 112.565462)"><g><path d="M 5.21875 -26.890625 L 18.09375 -26.890625 C 18.757812 -26.890625 19.316406 -26.675781 19.765625 -26.25 C 20.210938 -25.832031 20.4375 -25.289062 20.4375 -24.625 C 20.4375 -23.988281 20.210938 -23.472656 19.765625 -23.078125 C 19.316406 -22.679688 18.757812 -22.484375 18.09375 -22.484375 L 7.34375 -22.484375 L 7.6875 -23.125 L 7.6875 -15.640625 L 7.375 -15.9375 L 16.375 -15.9375 C 17.03125 -15.9375 17.582031 -15.722656 18.03125 -15.296875 C 18.488281 -14.878906 18.71875 -14.335938 18.71875 -13.671875 C 18.71875 -13.035156 18.488281 -12.519531 18.03125 -12.125 C 17.582031 -11.726562 17.03125 -11.53125 16.375 -11.53125 L 7.5 -11.53125 L 7.6875 -11.828125 L 7.6875 -4.078125 L 7.375 -4.421875 L 18.09375 -4.421875 C 18.757812 -4.421875 19.316406 -4.195312 19.765625 -3.75 C 20.210938 -3.300781 20.4375 -2.78125 20.4375 -2.1875 C 20.4375 -1.550781 20.210938 -1.023438 19.765625 -0.609375 C 19.316406 -0.203125 18.757812 0 18.09375 0 L 5.21875 0 C 4.550781 0 3.992188 -0.222656 3.546875 -0.671875 C 3.097656 -1.117188 2.875 -1.675781 2.875 -2.34375 L 2.875 -24.546875 C 2.875 -25.210938 3.097656 -25.769531 3.546875 -26.21875 C 3.992188 -26.664062 4.550781 -26.890625 5.21875 -26.890625 Z M 5.21875 -26.890625 "/></g></g></g><g fill="#000000" fill-opacity="1"><g transform="translate(248.231114, 112.565462)"><g><path d="M 21.703125 -25.59375 C 22.367188 -25.257812 22.757812 -24.734375 22.875 -24.015625 C 22.988281 -23.296875 22.804688 -22.640625 22.328125 -22.046875 C 21.992188 -21.585938 21.5625 -21.332031 21.03125 -21.28125 C 20.507812 -21.226562 19.976562 -21.332031 19.4375 -21.59375 C 18.820312 -21.875 18.175781 -22.09375 17.5 -22.25 C 16.820312 -22.40625 16.113281 -22.484375 15.375 -22.484375 C 13.988281 -22.484375 12.75 -22.265625 11.65625 -21.828125 C 10.570312 -21.390625 9.644531 -20.765625 8.875 -19.953125 C 8.101562 -19.148438 7.519531 -18.195312 7.125 -17.09375 C 6.726562 -16 6.53125 -14.785156 6.53125 -13.453125 C 6.53125 -11.890625 6.753906 -10.53125 7.203125 -9.375 C 7.648438 -8.21875 8.269531 -7.253906 9.0625 -6.484375 C 9.863281 -5.722656 10.800781 -5.15625 11.875 -4.78125 C 12.945312 -4.40625 14.113281 -4.21875 15.375 -4.21875 C 16.0625 -4.21875 16.75 -4.28125 17.4375 -4.40625 C 18.132812 -4.539062 18.800781 -4.773438 19.4375 -5.109375 C 19.976562 -5.367188 20.507812 -5.457031 21.03125 -5.375 C 21.5625 -5.300781 22.003906 -5.035156 22.359375 -4.578125 C 22.867188 -3.929688 23.050781 -3.269531 22.90625 -2.59375 C 22.769531 -1.914062 22.382812 -1.421875 21.75 -1.109375 C 21.082031 -0.773438 20.394531 -0.5 19.6875 -0.28125 C 18.988281 -0.0703125 18.28125 0.0859375 17.5625 0.203125 C 16.84375 0.328125 16.113281 0.390625 15.375 0.390625 C 13.53125 0.390625 11.78125 0.09375 10.125 -0.5 C 8.46875 -1.09375 6.992188 -1.960938 5.703125 -3.109375 C 4.410156 -4.265625 3.390625 -5.707031 2.640625 -7.4375 C 1.898438 -9.164062 1.53125 -11.171875 1.53125 -13.453125 C 1.53125 -15.421875 1.867188 -17.238281 2.546875 -18.90625 C 3.234375 -20.570312 4.195312 -22.007812 5.4375 -23.21875 C 6.675781 -24.4375 8.140625 -25.382812 9.828125 -26.0625 C 11.523438 -26.75 13.375 -27.09375 15.375 -27.09375 C 16.5 -27.09375 17.597656 -26.960938 18.671875 -26.703125 C 19.742188 -26.441406 20.753906 -26.070312 21.703125 -25.59375 Z M 21.703125 -25.59375 "/></g></g></g><g fill="#000000" fill-opacity="1"><g transform="translate(272.324392, 112.565462)"><g><path d="M 17.71875 -4.5 C 18.382812 -4.5 18.941406 -4.285156 19.390625 -3.859375 C 19.835938 -3.441406 20.0625 -2.898438 20.0625 -2.234375 C 20.0625 -1.585938 19.835938 -1.050781 19.390625 -0.625 C 18.941406 -0.207031 18.382812 0 17.71875 0 L 5.21875 0 C 4.550781 0 3.992188 -0.222656 3.546875 -0.671875 C 3.097656 -1.117188 2.875 -1.675781 2.875 -2.34375 L 2.875 -24.546875 C 2.875 -25.210938 3.101562 -25.769531 3.5625 -26.21875 C 4.03125 -26.664062 4.625 -26.890625 5.34375 -26.890625 C 5.957031 -26.890625 6.5 -26.664062 6.96875 -26.21875 C 7.445312 -25.769531 7.6875 -25.210938 7.6875 -24.546875 L 7.6875 -3.84375 L 6.84375 -4.5 Z M 17.71875 -4.5 "/></g></g></g><g fill="#000000" fill-opacity="1"><g transform="translate(293.919949, 112.565462)"><g><path d="M 12.75 -20.859375 L 4.453125 -1.34375 C 4.273438 -0.851562 4 -0.472656 3.625 -0.203125 C 3.257812 0.0546875 2.859375 0.1875 2.421875 0.1875 C 1.734375 0.1875 1.222656 0 0.890625 -0.375 C 0.554688 -0.757812 0.390625 -1.238281 0.390625 -1.8125 C 0.390625 -2.039062 0.425781 -2.28125 0.5 -2.53125 L 10.0625 -25.515625 C 10.269531 -26.023438 10.582031 -26.421875 11 -26.703125 C 11.425781 -26.984375 11.882812 -27.097656 12.375 -27.046875 C 12.832031 -27.046875 13.257812 -26.910156 13.65625 -26.640625 C 14.050781 -26.367188 14.34375 -25.992188 14.53125 -25.515625 L 23.96875 -3 C 24.101562 -2.664062 24.171875 -2.359375 24.171875 -2.078125 C 24.171875 -1.378906 23.945312 -0.828125 23.5 -0.421875 C 23.050781 -0.015625 22.554688 0.1875 22.015625 0.1875 C 21.554688 0.1875 21.140625 0.046875 20.765625 -0.234375 C 20.390625 -0.515625 20.101562 -0.898438 19.90625 -1.390625 L 11.640625 -20.625 Z M 5.640625 -6.03125 L 7.765625 -10.453125 L 18.140625 -10.453125 L 18.859375 -6.03125 Z M 5.640625 -6.03125 "/></g></g></g><g fill="#000000" fill-opacity="1"><g transform="translate(318.474344, 112.565462)"><g><path d="M 7.6875 -2.34375 C 7.6875 -1.675781 7.441406 -1.117188 6.953125 -0.671875 C 6.460938 -0.222656 5.898438 0 5.265625 0 C 4.546875 0 3.96875 -0.222656 3.53125 -0.671875 C 3.09375 -1.117188 2.875 -1.675781 2.875 -2.34375 L 2.875 -24.546875 C 2.875 -25.210938 3.101562 -25.769531 3.5625 -26.21875 C 4.03125 -26.664062 4.625 -26.890625 5.34375 -26.890625 C 5.957031 -26.890625 6.5 -26.664062 6.96875 -26.21875 C 7.445312 -25.769531 7.6875 -25.210938 7.6875 -24.546875 Z M 7.6875 -2.34375 "/></g></g></g><g fill="#000000" fill-opacity="1"><g transform="translate(329.041564, 112.565462)"><g><path d="M 5.640625 0 C 4.929688 0 4.289062 -0.222656 3.71875 -0.671875 C 3.15625 -1.117188 2.875 -1.675781 2.875 -2.34375 L 2.875 -24.546875 C 2.875 -25.210938 3.097656 -25.769531 3.546875 -26.21875 C 3.992188 -26.664062 4.550781 -26.890625 5.21875 -26.890625 L 16.296875 -26.890625 C 17.617188 -26.890625 18.863281 -26.535156 20.03125 -25.828125 C 21.195312 -25.128906 22.140625 -24.160156 22.859375 -22.921875 C 23.578125 -21.679688 23.9375 -20.253906 23.9375 -18.640625 C 23.9375 -17.660156 23.738281 -16.707031 23.34375 -15.78125 C 22.945312 -14.863281 22.40625 -14.035156 21.71875 -13.296875 C 21.039062 -12.554688 20.28125 -11.976562 19.4375 -11.5625 L 19.484375 -12.453125 C 20.203125 -12.066406 20.796875 -11.609375 21.265625 -11.078125 C 21.742188 -10.554688 22.113281 -9.992188 22.375 -9.390625 C 22.644531 -8.785156 22.804688 -8.140625 22.859375 -7.453125 C 22.960938 -6.816406 23.03125 -6.253906 23.0625 -5.765625 C 23.101562 -5.273438 23.179688 -4.863281 23.296875 -4.53125 C 23.410156 -4.195312 23.632812 -3.941406 23.96875 -3.765625 C 24.539062 -3.429688 24.894531 -2.953125 25.03125 -2.328125 C 25.175781 -1.703125 25.03125 -1.144531 24.59375 -0.65625 C 24.3125 -0.320312 23.953125 -0.109375 23.515625 -0.015625 C 23.078125 0.0664062 22.640625 0.0664062 22.203125 -0.015625 C 21.765625 -0.109375 21.40625 -0.234375 21.125 -0.390625 C 20.695312 -0.640625 20.265625 -1.015625 19.828125 -1.515625 C 19.390625 -2.015625 19.035156 -2.6875 18.765625 -3.53125 C 18.492188 -4.375 18.359375 -5.460938 18.359375 -6.796875 C 18.359375 -7.234375 18.28125 -7.632812 18.125 -8 C 17.976562 -8.375 17.765625 -8.695312 17.484375 -8.96875 C 17.203125 -9.238281 16.84375 -9.441406 16.40625 -9.578125 C 15.96875 -9.722656 15.457031 -9.796875 14.875 -9.796875 L 7.109375 -9.796875 L 7.6875 -10.6875 L 7.6875 -2.34375 C 7.6875 -1.675781 7.503906 -1.117188 7.140625 -0.671875 C 6.785156 -0.222656 6.285156 0 5.640625 0 Z M 7.140625 -13.75 L 16.09375 -13.75 C 16.5625 -13.75 17.007812 -13.957031 17.4375 -14.375 C 17.875 -14.800781 18.234375 -15.378906 18.515625 -16.109375 C 18.796875 -16.847656 18.9375 -17.648438 18.9375 -18.515625 C 18.9375 -19.640625 18.632812 -20.582031 18.03125 -21.34375 C 17.4375 -22.101562 16.789062 -22.484375 16.09375 -22.484375 L 7.21875 -22.484375 L 7.6875 -23.703125 L 7.6875 -12.828125 Z M 7.140625 -13.75 "/></g></g></g><g fill="#000000" fill-opacity="1"><g transform="translate(355.440404, 112.565462)"><g/></g></g><g fill="#000000" fill-opacity="1"><g transform="translate(366.199763, 112.565462)"><g><path d="M 5.296875 0 C 4.578125 0 3.992188 -0.222656 3.546875 -0.671875 C 3.097656 -1.117188 2.875 -1.675781 2.875 -2.34375 L 2.875 -24.546875 C 2.875 -25.210938 3.097656 -25.769531 3.546875 -26.21875 C 3.992188 -26.664062 4.550781 -26.890625 5.21875 -26.890625 L 17.71875 -26.890625 C 18.382812 -26.890625 18.941406 -26.675781 19.390625 -26.25 C 19.835938 -25.832031 20.0625 -25.289062 20.0625 -24.625 C 20.0625 -24.0625 19.835938 -23.5625 19.390625 -23.125 C 18.941406 -22.695312 18.382812 -22.484375 17.71875 -22.484375 L 7.34375 -22.484375 L 7.6875 -22.9375 L 7.6875 -15.21875 L 7.421875 -15.71875 L 15.984375 -15.71875 C 16.648438 -15.71875 17.207031 -15.503906 17.65625 -15.078125 C 18.101562 -14.660156 18.328125 -14.117188 18.328125 -13.453125 C 18.328125 -12.890625 18.101562 -12.390625 17.65625 -11.953125 C 17.207031 -11.515625 16.648438 -11.296875 15.984375 -11.296875 L 7.34375 -11.296875 L 7.6875 -11.640625 L 7.6875 -2.34375 C 7.6875 -1.675781 7.445312 -1.117188 6.96875 -0.671875 C 6.5 -0.222656 5.941406 0 5.296875 0 Z M 5.296875 0 "/></g></g></g><g fill="#000000" fill-opacity="1"><g transform="translate(387.79532, 112.565462)"><g><path d="M 27.625 -13.453125 C 27.625 -11.523438 27.300781 -9.726562 26.65625 -8.0625 C 26.019531 -6.40625 25.117188 -4.941406 23.953125 -3.671875 C 22.785156 -2.398438 21.398438 -1.40625 19.796875 -0.6875 C 18.203125 0.03125 16.457031 0.390625 14.5625 0.390625 C 12.664062 0.390625 10.921875 0.03125 9.328125 -0.6875 C 7.742188 -1.40625 6.367188 -2.398438 5.203125 -3.671875 C 4.035156 -4.941406 3.128906 -6.40625 2.484375 -8.0625 C 1.847656 -9.726562 1.53125 -11.523438 1.53125 -13.453125 C 1.53125 -15.367188 1.847656 -17.160156 2.484375 -18.828125 C 3.128906 -20.492188 4.035156 -21.957031 5.203125 -23.21875 C 6.367188 -24.488281 7.742188 -25.484375 9.328125 -26.203125 C 10.921875 -26.921875 12.664062 -27.28125 14.5625 -27.28125 C 16.457031 -27.28125 18.203125 -26.921875 19.796875 -26.203125 C 21.398438 -25.484375 22.785156 -24.488281 23.953125 -23.21875 C 25.117188 -21.957031 26.019531 -20.492188 26.65625 -18.828125 C 27.300781 -17.160156 27.625 -15.367188 27.625 -13.453125 Z M 22.625 -13.453125 C 22.625 -15.160156 22.28125 -16.710938 21.59375 -18.109375 C 20.90625 -19.503906 19.957031 -20.613281 18.75 -21.4375 C 17.539062 -22.257812 16.144531 -22.671875 14.5625 -22.671875 C 12.976562 -22.671875 11.582031 -22.257812 10.375 -21.4375 C 9.164062 -20.613281 8.222656 -19.507812 7.546875 -18.125 C 6.867188 -16.75 6.53125 -15.191406 6.53125 -13.453125 C 6.53125 -11.734375 6.867188 -10.175781 7.546875 -8.78125 C 8.222656 -7.382812 9.164062 -6.273438 10.375 -5.453125 C 11.582031 -4.628906 12.976562 -4.21875 14.5625 -4.21875 C 16.144531 -4.21875 17.539062 -4.628906 18.75 -5.453125 C 19.957031 -6.273438 20.90625 -7.382812 21.59375 -8.78125 C 22.28125 -10.175781 22.625 -11.734375 22.625 -13.453125 Z M 22.625 -13.453125 "/></g></g></g><g fill="#000000" fill-opacity="1"><g transform="translate(416.960859, 112.565462)"><g><path d="M 21.984375 -26.9375 C 22.640625 -26.9375 23.171875 -26.710938 23.578125 -26.265625 C 23.992188 -25.816406 24.203125 -25.257812 24.203125 -24.59375 L 24.203125 -10.6875 C 24.203125 -8.5625 23.75 -6.675781 22.84375 -5.03125 C 21.9375 -3.394531 20.6875 -2.113281 19.09375 -1.1875 C 17.507812 -0.269531 15.664062 0.1875 13.5625 0.1875 C 11.457031 0.1875 9.601562 -0.269531 8 -1.1875 C 6.40625 -2.113281 5.148438 -3.394531 4.234375 -5.03125 C 3.328125 -6.675781 2.875 -8.5625 2.875 -10.6875 L 2.875 -24.59375 C 2.875 -25.257812 3.101562 -25.816406 3.5625 -26.265625 C 4.03125 -26.710938 4.625 -26.9375 5.34375 -26.9375 C 5.925781 -26.9375 6.453125 -26.710938 6.921875 -26.265625 C 7.398438 -25.816406 7.640625 -25.257812 7.640625 -24.59375 L 7.640625 -10.6875 C 7.640625 -9.40625 7.914062 -8.296875 8.46875 -7.359375 C 9.019531 -6.421875 9.75 -5.695312 10.65625 -5.1875 C 11.570312 -4.675781 12.539062 -4.421875 13.5625 -4.421875 C 14.664062 -4.421875 15.691406 -4.675781 16.640625 -5.1875 C 17.585938 -5.695312 18.351562 -6.421875 18.9375 -7.359375 C 19.53125 -8.296875 19.828125 -9.40625 19.828125 -10.6875 L 19.828125 -24.59375 C 19.828125 -25.257812 20.019531 -25.816406 20.40625 -26.265625 C 20.789062 -26.710938 21.316406 -26.9375 21.984375 -26.9375 Z M 21.984375 -26.9375 "/></g></g></g><g fill="#000000" fill-opacity="1"><g transform="translate(444.051375, 112.565462)"><g><path d="M 23.28125 -26.890625 C 23.894531 -26.890625 24.394531 -26.6875 24.78125 -26.28125 C 25.164062 -25.875 25.359375 -25.363281 25.359375 -24.75 L 25.359375 -2.34375 C 25.359375 -1.675781 25.132812 -1.117188 24.6875 -0.671875 C 24.238281 -0.222656 23.679688 0 23.015625 0 C 22.679688 0 22.34375 -0.0546875 22 -0.171875 C 21.65625 -0.285156 21.390625 -0.445312 21.203125 -0.65625 L 6.109375 -19.828125 L 7.109375 -20.4375 L 7.109375 -2.15625 C 7.109375 -1.539062 6.910156 -1.023438 6.515625 -0.609375 C 6.117188 -0.203125 5.597656 0 4.953125 0 C 4.335938 0 3.835938 -0.203125 3.453125 -0.609375 C 3.066406 -1.023438 2.875 -1.539062 2.875 -2.15625 L 2.875 -24.546875 C 2.875 -25.210938 3.097656 -25.769531 3.546875 -26.21875 C 3.992188 -26.664062 4.550781 -26.890625 5.21875 -26.890625 C 5.582031 -26.890625 5.957031 -26.816406 6.34375 -26.671875 C 6.726562 -26.535156 7.007812 -26.328125 7.1875 -26.046875 L 21.828125 -7.375 L 21.171875 -6.921875 L 21.171875 -24.75 C 21.171875 -25.363281 21.363281 -25.875 21.75 -26.28125 C 22.132812 -26.6875 22.644531 -26.890625 23.28125 -26.890625 Z M 23.28125 -26.890625 "/></g></g></g><g fill="#000000" fill-opacity="1"><g transform="translate(472.294681, 112.565462)"><g><path d="M 14.40625 -26.890625 C 16.25 -26.890625 17.890625 -26.546875 19.328125 -25.859375 C 20.765625 -25.171875 21.972656 -24.203125 22.953125 -22.953125 C 23.941406 -21.710938 24.6875 -20.28125 25.1875 -18.65625 C 25.6875 -17.03125 25.9375 -15.296875 25.9375 -13.453125 C 25.9375 -10.960938 25.488281 -8.695312 24.59375 -6.65625 C 23.695312 -4.625 22.394531 -3.003906 20.6875 -1.796875 C 18.988281 -0.597656 16.894531 0 14.40625 0 L 5.21875 0 C 4.550781 0 3.992188 -0.222656 3.546875 -0.671875 C 3.097656 -1.117188 2.875 -1.675781 2.875 -2.34375 L 2.875 -24.546875 C 2.875 -25.210938 3.097656 -25.769531 3.546875 -26.21875 C 3.992188 -26.664062 4.550781 -26.890625 5.21875 -26.890625 Z M 14.03125 -4.421875 C 15.632812 -4.421875 16.945312 -4.835938 17.96875 -5.671875 C 19 -6.503906 19.75 -7.601562 20.21875 -8.96875 C 20.695312 -10.34375 20.9375 -11.835938 20.9375 -13.453125 C 20.9375 -14.648438 20.800781 -15.789062 20.53125 -16.875 C 20.269531 -17.96875 19.851562 -18.929688 19.28125 -19.765625 C 18.71875 -20.597656 18 -21.257812 17.125 -21.75 C 16.257812 -22.238281 15.226562 -22.484375 14.03125 -22.484375 L 7.296875 -22.484375 L 7.6875 -22.828125 L 7.6875 -4 L 7.453125 -4.421875 Z M 14.03125 -4.421875 "/></g></g></g><g fill="#000000" fill-opacity="1"><g transform="translate(499.769473, 112.565462)"><g><path d="M 12.75 -20.859375 L 4.453125 -1.34375 C 4.273438 -0.851562 4 -0.472656 3.625 -0.203125 C 3.257812 0.0546875 2.859375 0.1875 2.421875 0.1875 C 1.734375 0.1875 1.222656 0 0.890625 -0.375 C 0.554688 -0.757812 0.390625 -1.238281 0.390625 -1.8125 C 0.390625 -2.039062 0.425781 -2.28125 0.5 -2.53125 L 10.0625 -25.515625 C 10.269531 -26.023438 10.582031 -26.421875 11 -26.703125 C 11.425781 -26.984375 11.882812 -27.097656 12.375 -27.046875 C 12.832031 -27.046875 13.257812 -26.910156 13.65625 -26.640625 C 14.050781 -26.367188 14.34375 -25.992188 14.53125 -25.515625 L 23.96875 -3 C 24.101562 -2.664062 24.171875 -2.359375 24.171875 -2.078125 C 24.171875 -1.378906 23.945312 -0.828125 23.5 -0.421875 C 23.050781 -0.015625 22.554688 0.1875 22.015625 0.1875 C 21.554688 0.1875 21.140625 0.046875 20.765625 -0.234375 C 20.390625 -0.515625 20.101562 -0.898438 19.90625 -1.390625 L 11.640625 -20.625 Z M 5.640625 -6.03125 L 7.765625 -10.453125 L 18.140625 -10.453125 L 18.859375 -6.03125 Z M 5.640625 -6.03125 "/></g></g></g><g fill="#000000" fill-opacity="1"><g transform="translate(524.323868, 112.565462)"><g><path d="M 11.984375 0 C 11.265625 0 10.675781 -0.222656 10.21875 -0.671875 C 9.757812 -1.117188 9.53125 -1.675781 9.53125 -2.34375 L 9.53125 -24.625 L 14.53125 -24.625 L 14.53125 -2.34375 C 14.53125 -1.675781 14.289062 -1.117188 13.8125 -0.671875 C 13.34375 -0.222656 12.734375 0 11.984375 0 Z M 3.5 -22.484375 C 2.832031 -22.484375 2.273438 -22.6875 1.828125 -23.09375 C 1.378906 -23.5 1.15625 -24.035156 1.15625 -24.703125 C 1.15625 -25.367188 1.378906 -25.898438 1.828125 -26.296875 C 2.273438 -26.691406 2.832031 -26.890625 3.5 -26.890625 L 20.5625 -26.890625 C 21.21875 -26.890625 21.769531 -26.6875 22.21875 -26.28125 C 22.675781 -25.875 22.90625 -25.335938 22.90625 -24.671875 C 22.90625 -24.003906 22.675781 -23.472656 22.21875 -23.078125 C 21.769531 -22.679688 21.21875 -22.484375 20.5625 -22.484375 Z M 3.5 -22.484375 "/></g></g></g><g fill="#000000" fill-opacity="1"><g transform="translate(548.378686, 112.565462)"><g><path d="M 7.6875 -2.34375 C 7.6875 -1.675781 7.441406 -1.117188 6.953125 -0.671875 C 6.460938 -0.222656 5.898438 0 5.265625 0 C 4.546875 0 3.96875 -0.222656 3.53125 -0.671875 C 3.09375 -1.117188 2.875 -1.675781 2.875 -2.34375 L 2.875 -24.546875 C 2.875 -25.210938 3.101562 -25.769531 3.5625 -26.21875 C 4.03125 -26.664062 4.625 -26.890625 5.34375 -26.890625 C 5.957031 -26.890625 6.5 -26.664062 6.96875 -26.21875 C 7.445312 -25.769531 7.6875 -25.210938 7.6875 -24.546875 Z M 7.6875 -2.34375 "/></g></g></g><g fill="#000000" fill-opacity="1"><g transform="translate(558.945926, 112.565462)"><g><path d="M 27.625 -13.453125 C 27.625 -11.523438 27.300781 -9.726562 26.65625 -8.0625 C 26.019531 -6.40625 25.117188 -4.941406 23.953125 -3.671875 C 22.785156 -2.398438 21.398438 -1.40625 19.796875 -0.6875 C 18.203125 0.03125 16.457031 0.390625 14.5625 0.390625 C 12.664062 0.390625 10.921875 0.03125 9.328125 -0.6875 C 7.742188 -1.40625 6.367188 -2.398438 5.203125 -3.671875 C 4.035156 -4.941406 3.128906 -6.40625 2.484375 -8.0625 C 1.847656 -9.726562 1.53125 -11.523438 1.53125 -13.453125 C 1.53125 -15.367188 1.847656 -17.160156 2.484375 -18.828125 C 3.128906 -20.492188 4.035156 -21.957031 5.203125 -23.21875 C 6.367188 -24.488281 7.742188 -25.484375 9.328125 -26.203125 C 10.921875 -26.921875 12.664062 -27.28125 14.5625 -27.28125 C 16.457031 -27.28125 18.203125 -26.921875 19.796875 -26.203125 C 21.398438 -25.484375 22.785156 -24.488281 23.953125 -23.21875 C 25.117188 -21.957031 26.019531 -20.492188 26.65625 -18.828125 C 27.300781 -17.160156 27.625 -15.367188 27.625 -13.453125 Z M 22.625 -13.453125 C 22.625 -15.160156 22.28125 -16.710938 21.59375 -18.109375 C 20.90625 -19.503906 19.957031 -20.613281 18.75 -21.4375 C 17.539062 -22.257812 16.144531 -22.671875 14.5625 -22.671875 C 12.976562 -22.671875 11.582031 -22.257812 10.375 -21.4375 C 9.164062 -20.613281 8.222656 -19.507812 7.546875 -18.125 C 6.867188 -16.75 6.53125 -15.191406 6.53125 -13.453125 C 6.53125 -11.734375 6.867188 -10.175781 7.546875 -8.78125 C 8.222656 -7.382812 9.164062 -6.273438 10.375 -5.453125 C 11.582031 -4.628906 12.976562 -4.21875 14.5625 -4.21875 C 16.144531 -4.21875 17.539062 -4.628906 18.75 -5.453125 C 19.957031 -6.273438 20.90625 -7.382812 21.59375 -8.78125 C 22.28125 -10.175781 22.625 -11.734375 22.625 -13.453125 Z M 22.625 -13.453125 "/></g></g></g><g fill="#000000" fill-opacity="1"><g transform="translate(588.111465, 112.565462)"><g><path d="M 23.28125 -26.890625 C 23.894531 -26.890625 24.394531 -26.6875 24.78125 -26.28125 C 25.164062 -25.875 25.359375 -25.363281 25.359375 -24.75 L 25.359375 -2.34375 C 25.359375 -1.675781 25.132812 -1.117188 24.6875 -0.671875 C 24.238281 -0.222656 23.679688 0 23.015625 0 C 22.679688 0 22.34375 -0.0546875 22 -0.171875 C 21.65625 -0.285156 21.390625 -0.445312 21.203125 -0.65625 L 6.109375 -19.828125 L 7.109375 -20.4375 L 7.109375 -2.15625 C 7.109375 -1.539062 6.910156 -1.023438 6.515625 -0.609375 C 6.117188 -0.203125 5.597656 0 4.953125 0 C 4.335938 0 3.835938 -0.203125 3.453125 -0.609375 C 3.066406 -1.023438 2.875 -1.539062 2.875 -2.15625 L 2.875 -24.546875 C 2.875 -25.210938 3.097656 -25.769531 3.546875 -26.21875 C 3.992188 -26.664062 4.550781 -26.890625 5.21875 -26.890625 C 5.582031 -26.890625 5.957031 -26.816406 6.34375 -26.671875 C 6.726562 -26.535156 7.007812 -26.328125 7.1875 -26.046875 L 21.828125 -7.375 L 21.171875 -6.921875 L 21.171875 -24.75 C 21.171875 -25.363281 21.363281 -25.875 21.75 -26.28125 C 22.132812 -26.6875 22.644531 -26.890625 23.28125 -26.890625 Z M 23.28125 -26.890625 "/></g></g></g><g fill="#5ce1e6" fill-opacity="0.302"><g transform="translate(207.609078, 149.516824)"><g><path d="M 2.078125 0 L 3.875 0 L 3.875 -6.03125 L 9.734375 -6.03125 L 9.734375 -7.671875 L 3.875 -7.671875 L 3.875 -12.625 L 10.265625 -12.625 L 10.265625 -14.296875 L 2.078125 -14.296875 Z M 2.078125 0 "/></g></g></g><g fill="#5ce1e6" fill-opacity="0.302"><g transform="translate(218.997555, 149.516824)"><g><path d="M 8.578125 0.265625 C 12.921875 0.265625 15.984375 -2.796875 15.984375 -7.140625 C 15.984375 -11.5 12.921875 -14.5625 8.578125 -14.5625 C 4.234375 -14.5625 1.1875 -11.5 1.1875 -7.140625 C 1.1875 -2.796875 4.234375 0.265625 8.578125 0.265625 Z M 3.015625 -7.140625 C 3.015625 -10.46875 5.296875 -12.765625 8.578125 -12.765625 C 11.859375 -12.765625 14.125 -10.46875 14.125 -7.140625 C 14.125 -3.8125 11.859375 -1.53125 8.578125 -1.53125 C 5.296875 -1.53125 3.015625 -3.8125 3.015625 -7.140625 Z M 3.015625 -7.140625 "/></g></g></g><g fill="#5ce1e6" fill-opacity="0.302"><g transform="translate(236.141496, 149.516824)"><g><path d="M 2.078125 0 L 3.875 0 L 3.875 -5.125 L 7.03125 -5.125 L 10.515625 0 L 12.6875 0 L 9.09375 -5.3125 C 11.171875 -5.8125 12.453125 -7.390625 12.453125 -9.703125 C 12.453125 -12.546875 10.5 -14.296875 7.53125 -14.296875 L 2.078125 -14.296875 Z M 3.875 -6.84375 L 3.875 -12.578125 L 7.328125 -12.578125 C 9.421875 -12.578125 10.625 -11.515625 10.625 -9.703125 C 10.625 -7.890625 9.421875 -6.84375 7.328125 -6.84375 Z M 3.875 -6.84375 "/></g></g></g><g fill="#5ce1e6" fill-opacity="0.302"><g transform="translate(250.040332, 149.516824)"><g/></g></g><g fill="#5ce1e6" fill-opacity="0.302"><g transform="translate(255.101887, 149.516824)"><g><path d="M 5.53125 0 L 7.328125 0 L 7.328125 -12.578125 L 12.15625 -12.578125 L 12.15625 -14.296875 L 0.6875 -14.296875 L 0.6875 -12.578125 L 5.53125 -12.578125 Z M 5.53125 0 "/></g></g></g><g fill="#5ce1e6" fill-opacity="0.302"><g transform="translate(267.959858, 149.516824)"><g><path d="M 2.078125 0 L 10.984375 0 L 10.984375 -1.671875 L 3.875 -1.671875 L 3.875 -6.453125 L 10.25 -6.453125 L 10.25 -8.109375 L 3.875 -8.109375 L 3.875 -12.625 L 10.765625 -12.625 L 10.765625 -14.296875 L 2.078125 -14.296875 Z M 2.078125 0 "/></g></g></g><g fill="#5ce1e6" fill-opacity="0.302"><g transform="translate(280.266769, 149.516824)"><g><path d="M 8.40625 0.265625 C 11.890625 0.265625 14.703125 -1.84375 15.5625 -5.03125 L 13.65625 -5.03125 C 12.921875 -2.875 10.90625 -1.53125 8.46875 -1.53125 C 5.296875 -1.53125 3.015625 -3.84375 3.015625 -7.140625 C 3.015625 -10.453125 5.296875 -12.765625 8.46875 -12.765625 C 10.84375 -12.765625 12.78125 -11.5 13.515625 -9.4375 L 15.4375 -9.4375 C 14.5 -12.578125 11.78125 -14.5625 8.40625 -14.5625 C 4.203125 -14.5625 1.1875 -11.453125 1.1875 -7.140625 C 1.1875 -2.84375 4.203125 0.265625 8.40625 0.265625 Z M 8.40625 0.265625 "/></g></g></g><g fill="#5ce1e6" fill-opacity="0.302"><g transform="translate(296.920886, 149.516824)"><g><path d="M 11.453125 0 L 13.25 0 L 13.25 -14.296875 L 11.453125 -14.296875 L 11.453125 -8.140625 L 3.875 -8.140625 L 3.875 -14.296875 L 2.078125 -14.296875 L 2.078125 0 L 3.875 0 L 3.875 -6.4375 L 11.453125 -6.4375 Z M 11.453125 0 "/></g></g></g><g fill="#5ce1e6" fill-opacity="0.302"><g transform="translate(312.248399, 149.516824)"><g><path d="M 2.078125 0 L 3.859375 0 L 3.859375 -11.1875 L 11.765625 0 L 13.4375 0 L 13.4375 -14.296875 L 11.6875 -14.296875 L 11.6875 -3.109375 L 3.78125 -14.296875 L 2.078125 -14.296875 Z M 2.078125 0 "/></g></g></g><g fill="#5ce1e6" fill-opacity="0.302"><g transform="translate(327.759599, 149.516824)"><g><path d="M 8.578125 0.265625 C 12.921875 0.265625 15.984375 -2.796875 15.984375 -7.140625 C 15.984375 -11.5 12.921875 -14.5625 8.578125 -14.5625 C 4.234375 -14.5625 1.1875 -11.5 1.1875 -7.140625 C 1.1875 -2.796875 4.234375 0.265625 8.578125 0.265625 Z M 3.015625 -7.140625 C 3.015625 -10.46875 5.296875 -12.765625 8.578125 -12.765625 C 11.859375 -12.765625 14.125 -10.46875 14.125 -7.140625 C 14.125 -3.8125 11.859375 -1.53125 8.578125 -1.53125 C 5.296875 -1.53125 3.015625 -3.8125 3.015625 -7.140625 Z M 3.015625 -7.140625 "/></g></g></g><g fill="#5ce1e6" fill-opacity="0.302"><g transform="translate(344.903541, 149.516824)"><g><path d="M 2.078125 0 L 10.828125 0 L 10.828125 -1.71875 L 3.875 -1.71875 L 3.875 -14.296875 L 2.078125 -14.296875 Z M 2.078125 0 "/></g></g></g><g fill="#5ce1e6" fill-opacity="0.302"><g transform="translate(356.353254, 149.516824)"><g><path d="M 8.578125 0.265625 C 12.921875 0.265625 15.984375 -2.796875 15.984375 -7.140625 C 15.984375 -11.5 12.921875 -14.5625 8.578125 -14.5625 C 4.234375 -14.5625 1.1875 -11.5 1.1875 -7.140625 C 1.1875 -2.796875 4.234375 0.265625 8.578125 0.265625 Z M 3.015625 -7.140625 C 3.015625 -10.46875 5.296875 -12.765625 8.578125 -12.765625 C 11.859375 -12.765625 14.125 -10.46875 14.125 -7.140625 C 14.125 -3.8125 11.859375 -1.53125 8.578125 -1.53125 C 5.296875 -1.53125 3.015625 -3.8125 3.015625 -7.140625 Z M 3.015625 -7.140625 "/></g></g></g><g fill="#5ce1e6" fill-opacity="0.302"><g transform="translate(373.497195, 149.516824)"><g><path d="M 8.453125 0.265625 C 12.84375 0.265625 15.8125 -3.0625 15.71875 -7.765625 L 7.96875 -7.765625 L 7.96875 -6.046875 L 13.78125 -6.046875 C 13.421875 -3.34375 11.375 -1.53125 8.5 -1.53125 C 5.296875 -1.53125 3.015625 -3.84375 3.015625 -7.140625 C 3.015625 -10.453125 5.265625 -12.765625 8.46875 -12.765625 C 10.6875 -12.765625 12.4375 -11.6875 13.328125 -9.84375 L 15.296875 -9.84375 C 14.375 -12.65625 11.6875 -14.5625 8.40625 -14.5625 C 4.234375 -14.5625 1.1875 -11.4375 1.1875 -7.140625 C 1.1875 -2.84375 4.25 0.265625 8.453125 0.265625 Z M 8.453125 0.265625 "/></g></g></g><g fill="#5ce1e6" fill-opacity="0.302"><g transform="translate(390.334999, 149.516824)"><g><path d="M 5.71875 0 L 7.46875 0 L 7.46875 -5.140625 L 12.84375 -14.296875 L 10.828125 -14.296875 L 6.609375 -7.0625 L 4.765625 -10.296875 L 2.4375 -14.296875 L 0.34375 -14.296875 L 5.71875 -5.140625 Z M 5.71875 0 "/></g></g></g><g fill="#5ce1e6" fill-opacity="0.502"><g transform="translate(206.834541, 149.681448)"><g><path d="M 2.078125 0 L 3.875 0 L 3.875 -6.03125 L 9.734375 -6.03125 L 9.734375 -7.671875 L 3.875 -7.671875 L 3.875 -12.625 L 10.265625 -12.625 L 10.265625 -14.296875 L 2.078125 -14.296875 Z M 2.078125 0 "/></g></g></g><g fill="#5ce1e6" fill-opacity="0.502"><g transform="translate(218.223019, 149.681448)"><g><path d="M 8.578125 0.265625 C 12.921875 0.265625 15.984375 -2.796875 15.984375 -7.140625 C 15.984375 -11.5 12.921875 -14.5625 8.578125 -14.5625 C 4.234375 -14.5625 1.1875 -11.5 1.1875 -7.140625 C 1.1875 -2.796875 4.234375 0.265625 8.578125 0.265625 Z M 3.015625 -7.140625 C 3.015625 -10.46875 5.296875 -12.765625 8.578125 -12.765625 C 11.859375 -12.765625 14.125 -10.46875 14.125 -7.140625 C 14.125 -3.8125 11.859375 -1.53125 8.578125 -1.53125 C 5.296875 -1.53125 3.015625 -3.8125 3.015625 -7.140625 Z M 3.015625 -7.140625 "/></g></g></g><g fill="#5ce1e6" fill-opacity="0.502"><g transform="translate(235.36696, 149.681448)"><g><path d="M 2.078125 0 L 3.875 0 L 3.875 -5.125 L 7.03125 -5.125 L 10.515625 0 L 12.6875 0 L 9.09375 -5.3125 C 11.171875 -5.8125 12.453125 -7.390625 12.453125 -9.703125 C 12.453125 -12.546875 10.5 -14.296875 7.53125 -14.296875 L 2.078125 -14.296875 Z M 3.875 -6.84375 L 3.875 -12.578125 L 7.328125 -12.578125 C 9.421875 -12.578125 10.625 -11.515625 10.625 -9.703125 C 10.625 -7.890625 9.421875 -6.84375 7.328125 -6.84375 Z M 3.875 -6.84375 "/></g></g></g><g fill="#5ce1e6" fill-opacity="0.502"><g transform="translate(249.265796, 149.681448)"><g/></g></g><g fill="#5ce1e6" fill-opacity="0.502"><g transform="translate(254.327351, 149.681448)"><g><path d="M 5.53125 0 L 7.328125 0 L 7.328125 -12.578125 L 12.15625 -12.578125 L 12.15625 -14.296875 L 0.6875 -14.296875 L 0.6875 -12.578125 L 5.53125 -12.578125 Z M 5.53125 0 "/></g></g></g><g fill="#5ce1e6" fill-opacity="0.502"><g transform="translate(267.185322, 149.681448)"><g><path d="M 2.078125 0 L 10.984375 0 L 10.984375 -1.671875 L 3.875 -1.671875 L 3.875 -6.453125 L 10.25 -6.453125 L 10.25 -8.109375 L 3.875 -8.109375 L 3.875 -12.625 L 10.765625 -12.625 L 10.765625 -14.296875 L 2.078125 -14.296875 Z M 2.078125 0 "/></g></g></g><g fill="#5ce1e6" fill-opacity="0.502"><g transform="translate(279.492233, 149.681448)"><g><path d="M 8.40625 0.265625 C 11.890625 0.265625 14.703125 -1.84375 15.5625 -5.03125 L 13.65625 -5.03125 C 12.921875 -2.875 10.90625 -1.53125 8.46875 -1.53125 C 5.296875 -1.53125 3.015625 -3.84375 3.015625 -7.140625 C 3.015625 -10.453125 5.296875 -12.765625 8.46875 -12.765625 C 10.84375 -12.765625 12.78125 -11.5 13.515625 -9.4375 L 15.4375 -9.4375 C 14.5 -12.578125 11.78125 -14.5625 8.40625 -14.5625 C 4.203125 -14.5625 1.1875 -11.453125 1.1875 -7.140625 C 1.1875 -2.84375 4.203125 0.265625 8.40625 0.265625 Z M 8.40625 0.265625 "/></g></g></g><g fill="#5ce1e6" fill-opacity="0.502"><g transform="translate(296.14635, 149.681448)"><g><path d="M 11.453125 0 L 13.25 0 L 13.25 -14.296875 L 11.453125 -14.296875 L 11.453125 -8.140625 L 3.875 -8.140625 L 3.875 -14.296875 L 2.078125 -14.296875 L 2.078125 0 L 3.875 0 L 3.875 -6.4375 L 11.453125 -6.4375 Z M 11.453125 0 "/></g></g></g><g fill="#5ce1e6" fill-opacity="0.502"><g transform="translate(311.473863, 149.681448)"><g><path d="M 2.078125 0 L 3.859375 0 L 3.859375 -11.1875 L 11.765625 0 L 13.4375 0 L 13.4375 -14.296875 L 11.6875 -14.296875 L 11.6875 -3.109375 L 3.78125 -14.296875 L 2.078125 -14.296875 Z M 2.078125 0 "/></g></g></g><g fill="#5ce1e6" fill-opacity="0.502"><g transform="translate(326.985063, 149.681448)"><g><path d="M 8.578125 0.265625 C 12.921875 0.265625 15.984375 -2.796875 15.984375 -7.140625 C 15.984375 -11.5 12.921875 -14.5625 8.578125 -14.5625 C 4.234375 -14.5625 1.1875 -11.5 1.1875 -7.140625 C 1.1875 -2.796875 4.234375 0.265625 8.578125 0.265625 Z M 3.015625 -7.140625 C 3.015625 -10.46875 5.296875 -12.765625 8.578125 -12.765625 C 11.859375 -12.765625 14.125 -10.46875 14.125 -7.140625 C 14.125 -3.8125 11.859375 -1.53125 8.578125 -1.53125 C 5.296875 -1.53125 3.015625 -3.8125 3.015625 -7.140625 Z M 3.015625 -7.140625 "/></g></g></g><g fill="#5ce1e6" fill-opacity="0.502"><g transform="translate(344.129004, 149.681448)"><g><path d="M 2.078125 0 L 10.828125 0 L 10.828125 -1.71875 L 3.875 -1.71875 L 3.875 -14.296875 L 2.078125 -14.296875 Z M 2.078125 0 "/></g></g></g><g fill="#5ce1e6" fill-opacity="0.502"><g transform="translate(355.578717, 149.681448)"><g><path d="M 8.578125 0.265625 C 12.921875 0.265625 15.984375 -2.796875 15.984375 -7.140625 C 15.984375 -11.5 12.921875 -14.5625 8.578125 -14.5625 C 4.234375 -14.5625 1.1875 -11.5 1.1875 -7.140625 C 1.1875 -2.796875 4.234375 0.265625 8.578125 0.265625 Z M 3.015625 -7.140625 C 3.015625 -10.46875 5.296875 -12.765625 8.578125 -12.765625 C 11.859375 -12.765625 14.125 -10.46875 14.125 -7.140625 C 14.125 -3.8125 11.859375 -1.53125 8.578125 -1.53125 C 5.296875 -1.53125 3.015625 -3.8125 3.015625 -7.140625 Z M 3.015625 -7.140625 "/></g></g></g><g fill="#5ce1e6" fill-opacity="0.502"><g transform="translate(372.722659, 149.681448)"><g><path d="M 8.453125 0.265625 C 12.84375 0.265625 15.8125 -3.0625 15.71875 -7.765625 L 7.96875 -7.765625 L 7.96875 -6.046875 L 13.78125 -6.046875 C 13.421875 -3.34375 11.375 -1.53125 8.5 -1.53125 C 5.296875 -1.53125 3.015625 -3.84375 3.015625 -7.140625 C 3.015625 -10.453125 5.265625 -12.765625 8.46875 -12.765625 C 10.6875 -12.765625 12.4375 -11.6875 13.328125 -9.84375 L 15.296875 -9.84375 C 14.375 -12.65625 11.6875 -14.5625 8.40625 -14.5625 C 4.234375 -14.5625 1.1875 -11.4375 1.1875 -7.140625 C 1.1875 -2.84375 4.25 0.265625 8.453125 0.265625 Z M 8.453125 0.265625 "/></g></g></g><g fill="#5ce1e6" fill-opacity="0.502"><g transform="translate(389.560463, 149.681448)"><g><path d="M 5.71875 0 L 7.46875 0 L 7.46875 -5.140625 L 12.84375 -14.296875 L 10.828125 -14.296875 L 6.609375 -7.0625 L 4.765625 -10.296875 L 2.4375 -14.296875 L 0.34375 -14.296875 L 5.71875 -5.140625 Z M 5.71875 0 "/></g></g></g><g fill="#000000" fill-opacity="1"><g transform="translate(206.060003, 149.846089)"><g><path d="M 2.078125 0 L 3.875 0 L 3.875 -6.03125 L 9.734375 -6.03125 L 9.734375 -7.671875 L 3.875 -7.671875 L 3.875 -12.625 L 10.265625 -12.625 L 10.265625 -14.296875 L 2.078125 -14.296875 Z M 2.078125 0 "/></g></g></g><g fill="#000000" fill-opacity="1"><g transform="translate(217.44848, 149.846089)"><g><path d="M 8.578125 0.265625 C 12.921875 0.265625 15.984375 -2.796875 15.984375 -7.140625 C 15.984375 -11.5 12.921875 -14.5625 8.578125 -14.5625 C 4.234375 -14.5625 1.1875 -11.5 1.1875 -7.140625 C 1.1875 -2.796875 4.234375 0.265625 8.578125 0.265625 Z M 3.015625 -7.140625 C 3.015625 -10.46875 5.296875 -12.765625 8.578125 -12.765625 C 11.859375 -12.765625 14.125 -10.46875 14.125 -7.140625 C 14.125 -3.8125 11.859375 -1.53125 8.578125 -1.53125 C 5.296875 -1.53125 3.015625 -3.8125 3.015625 -7.140625 Z M 3.015625 -7.140625 "/></g></g></g><g fill="#000000" fill-opacity="1"><g transform="translate(234.592421, 149.846089)"><g><path d="M 2.078125 0 L 3.875 0 L 3.875 -5.125 L 7.03125 -5.125 L 10.515625 0 L 12.6875 0 L 9.09375 -5.3125 C 11.171875 -5.8125 12.453125 -7.390625 12.453125 -9.703125 C 12.453125 -12.546875 10.5 -14.296875 7.53125 -14.296875 L 2.078125 -14.296875 Z M 3.875 -6.84375 L 3.875 -12.578125 L 7.328125 -12.578125 C 9.421875 -12.578125 10.625 -11.515625 10.625 -9.703125 C 10.625 -7.890625 9.421875 -6.84375 7.328125 -6.84375 Z M 3.875 -6.84375 "/></g></g></g><g fill="#000000" fill-opacity="1"><g transform="translate(248.491257, 149.846089)"><g/></g></g><g fill="#000000" fill-opacity="1"><g transform="translate(253.552812, 149.846089)"><g><path d="M 5.53125 0 L 7.328125 0 L 7.328125 -12.578125 L 12.15625 -12.578125 L 12.15625 -14.296875 L 0.6875 -14.296875 L 0.6875 -12.578125 L 5.53125 -12.578125 Z M 5.53125 0 "/></g></g></g><g fill="#000000" fill-opacity="1"><g transform="translate(266.410783, 149.846089)"><g><path d="M 2.078125 0 L 10.984375 0 L 10.984375 -1.671875 L 3.875 -1.671875 L 3.875 -6.453125 L 10.25 -6.453125 L 10.25 -8.109375 L 3.875 -8.109375 L 3.875 -12.625 L 10.765625 -12.625 L 10.765625 -14.296875 L 2.078125 -14.296875 Z M 2.078125 0 "/></g></g></g><g fill="#000000" fill-opacity="1"><g transform="translate(278.717694, 149.846089)"><g><path d="M 8.40625 0.265625 C 11.890625 0.265625 14.703125 -1.84375 15.5625 -5.03125 L 13.65625 -5.03125 C 12.921875 -2.875 10.90625 -1.53125 8.46875 -1.53125 C 5.296875 -1.53125 3.015625 -3.84375 3.015625 -7.140625 C 3.015625 -10.453125 5.296875 -12.765625 8.46875 -12.765625 C 10.84375 -12.765625 12.78125 -11.5 13.515625 -9.4375 L 15.4375 -9.4375 C 14.5 -12.578125 11.78125 -14.5625 8.40625 -14.5625 C 4.203125 -14.5625 1.1875 -11.453125 1.1875 -7.140625 C 1.1875 -2.84375 4.203125 0.265625 8.40625 0.265625 Z M 8.40625 0.265625 "/></g></g></g><g fill="#000000" fill-opacity="1"><g transform="translate(295.371811, 149.846089)"><g><path d="M 11.453125 0 L 13.25 0 L 13.25 -14.296875 L 11.453125 -14.296875 L 11.453125 -8.140625 L 3.875 -8.140625 L 3.875 -14.296875 L 2.078125 -14.296875 L 2.078125 0 L 3.875 0 L 3.875 -6.4375 L 11.453125 -6.4375 Z M 11.453125 0 "/></g></g></g><g fill="#000000" fill-opacity="1"><g transform="translate(310.699324, 149.846089)"><g><path d="M 2.078125 0 L 3.859375 0 L 3.859375 -11.1875 L 11.765625 0 L 13.4375 0 L 13.4375 -14.296875 L 11.6875 -14.296875 L 11.6875 -3.109375 L 3.78125 -14.296875 L 2.078125 -14.296875 Z M 2.078125 0 "/></g></g></g><g fill="#000000" fill-opacity="1"><g transform="translate(326.210524, 149.846089)"><g><path d="M 8.578125 0.265625 C 12.921875 0.265625 15.984375 -2.796875 15.984375 -7.140625 C 15.984375 -11.5 12.921875 -14.5625 8.578125 -14.5625 C 4.234375 -14.5625 1.1875 -11.5 1.1875 -7.140625 C 1.1875 -2.796875 4.234375 0.265625 8.578125 0.265625 Z M 3.015625 -7.140625 C 3.015625 -10.46875 5.296875 -12.765625 8.578125 -12.765625 C 11.859375 -12.765625 14.125 -10.46875 14.125 -7.140625 C 14.125 -3.8125 11.859375 -1.53125 8.578125 -1.53125 C 5.296875 -1.53125 3.015625 -3.8125 3.015625 -7.140625 Z M 3.015625 -7.140625 "/></g></g></g><g fill="#000000" fill-opacity="1"><g transform="translate(343.354466, 149.846089)"><g><path d="M 2.078125 0 L 10.828125 0 L 10.828125 -1.71875 L 3.875 -1.71875 L 3.875 -14.296875 L 2.078125 -14.296875 Z M 2.078125 0 "/></g></g></g><g fill="#000000" fill-opacity="1"><g transform="translate(354.804179, 149.846089)"><g><path d="M 8.578125 0.265625 C 12.921875 0.265625 15.984375 -2.796875 15.984375 -7.140625 C 15.984375 -11.5 12.921875 -14.5625 8.578125 -14.5625 C 4.234375 -14.5625 1.1875 -11.5 1.1875 -7.140625 C 1.1875 -2.796875 4.234375 0.265625 8.578125 0.265625 Z M 3.015625 -7.140625 C 3.015625 -10.46875 5.296875 -12.765625 8.578125 -12.765625 C 11.859375 -12.765625 14.125 -10.46875 14.125 -7.140625 C 14.125 -3.8125 11.859375 -1.53125 8.578125 -1.53125 C 5.296875 -1.53125 3.015625 -3.8125 3.015625 -7.140625 Z M 3.015625 -7.140625 "/></g></g></g><g fill="#000000" fill-opacity="1"><g transform="translate(371.94812, 149.846089)"><g><path d="M 8.453125 0.265625 C 12.84375 0.265625 15.8125 -3.0625 15.71875 -7.765625 L 7.96875 -7.765625 L 7.96875 -6.046875 L 13.78125 -6.046875 C 13.421875 -3.34375 11.375 -1.53125 8.5 -1.53125 C 5.296875 -1.53125 3.015625 -3.84375 3.015625 -7.140625 C 3.015625 -10.453125 5.265625 -12.765625 8.46875 -12.765625 C 10.6875 -12.765625 12.4375 -11.6875 13.328125 -9.84375 L 15.296875 -9.84375 C 14.375 -12.65625 11.6875 -14.5625 8.40625 -14.5625 C 4.234375 -14.5625 1.1875 -11.4375 1.1875 -7.140625 C 1.1875 -2.84375 4.25 0.265625 8.453125 0.265625 Z M 8.453125 0.265625 "/></g></g></g><g fill="#000000" fill-opacity="1"><g transform="translate(388.785924, 149.846089)"><g><path d="M 5.71875 0 L 7.46875 0 L 7.46875 -5.140625 L 12.84375 -14.296875 L 10.828125 -14.296875 L 6.609375 -7.0625 L 4.765625 -10.296875 L 2.4375 -14.296875 L 0.34375 -14.296875 L 5.71875 -5.140625 Z M 5.71875 0 "/></g></g></g></svg>