<svg xmlns="http://www.w3.org/2000/svg" xmlns:xlink="http://www.w3.org/1999/xlink" width="500" zoomAndPan="magnify" viewBox="0 0 375 374.999991" height="500" preserveAspectRatio="xMidYMid meet" version="1.0"><defs><g/><clipPath id="c5264a42a4"><path d="M 0 139.429688 L 73.5 139.429688 L 73.5 212.929688 L 0 212.929688 Z M 0 139.429688 " clip-rule="nonzero"/></clipPath></defs><rect x="-37.5" width="450" fill="#ffffff" y="-37.499999" height="449.999989" fill-opacity="1"/><rect x="-37.5" width="450" fill="#ffffff" y="-37.499999" height="449.999989" fill-opacity="1"/><g clip-path="url(#c5264a42a4)"><path fill="#00b779" d="M 36.878906 139.429688 C 43.667969 188.601562 49.167969 183.097656 0 176.308594 C 49.167969 169.519531 43.667969 164.015625 36.878906 213.1875 C 30.085938 164.015625 24.585938 169.519531 73.753906 176.308594 C 24.585938 183.097656 30.085938 188.601562 36.878906 139.429688 Z M 36.878906 186.277344 C 38.710938 172.984375 40.199219 174.472656 26.90625 176.308594 C 40.199219 178.144531 38.710938 179.628906 36.878906 166.339844 C 35.042969 179.628906 33.554688 178.144531 46.847656 176.308594 C 33.554688 174.472656 35.042969 172.984375 36.878906 186.277344 Z M 36.878906 186.277344 " fill-opacity="1" fill-rule="nonzero"/></g><g fill="#000000" fill-opacity="1"><g transform="translate(87.39063, 169.817484)"><g><path d="M 11.796875 -3 C 12.234375 -3 12.601562 -2.859375 12.90625 -2.578125 C 13.207031 -2.296875 13.359375 -1.929688 13.359375 -1.484375 C 13.359375 -1.054688 13.207031 -0.703125 12.90625 -0.421875 C 12.601562 -0.140625 12.234375 0 11.796875 0 L 3.484375 0 C 3.035156 0 2.660156 -0.144531 2.359375 -0.4375 C 2.066406 -0.738281 1.921875 -1.113281 1.921875 -1.5625 L 1.921875 -16.34375 C 1.921875 -16.789062 2.070312 -17.160156 2.375 -17.453125 C 2.6875 -17.753906 3.082031 -17.90625 3.5625 -17.90625 C 3.96875 -17.90625 4.328125 -17.753906 4.640625 -17.453125 C 4.953125 -17.160156 5.109375 -16.789062 5.109375 -16.34375 L 5.109375 -2.5625 L 4.546875 -3 Z M 11.796875 -3 "/></g></g></g><g fill="#000000" fill-opacity="1"><g transform="translate(101.761134, 169.817484)"><g><path d="M 3.484375 -17.90625 L 12.046875 -17.90625 C 12.492188 -17.90625 12.863281 -17.765625 13.15625 -17.484375 C 13.457031 -17.203125 13.609375 -16.835938 13.609375 -16.390625 C 13.609375 -15.960938 13.457031 -15.617188 13.15625 -15.359375 C 12.863281 -15.097656 12.492188 -14.96875 12.046875 -14.96875 L 4.890625 -14.96875 L 5.109375 -15.390625 L 5.109375 -10.40625 L 4.90625 -10.609375 L 10.890625 -10.609375 C 11.335938 -10.609375 11.707031 -10.46875 12 -10.1875 C 12.300781 -9.90625 12.453125 -9.546875 12.453125 -9.109375 C 12.453125 -8.679688 12.300781 -8.332031 12 -8.0625 C 11.707031 -7.800781 11.335938 -7.671875 10.890625 -7.671875 L 4.984375 -7.671875 L 5.109375 -7.875 L 5.109375 -2.71875 L 4.90625 -2.9375 L 12.046875 -2.9375 C 12.492188 -2.9375 12.863281 -2.785156 13.15625 -2.484375 C 13.457031 -2.191406 13.609375 -1.847656 13.609375 -1.453125 C 13.609375 -1.023438 13.457031 -0.675781 13.15625 -0.40625 C 12.863281 -0.132812 12.492188 0 12.046875 0 L 3.484375 0 C 3.035156 0 2.660156 -0.144531 2.359375 -0.4375 C 2.066406 -0.738281 1.921875 -1.113281 1.921875 -1.5625 L 1.921875 -16.34375 C 1.921875 -16.789062 2.066406 -17.160156 2.359375 -17.453125 C 2.660156 -17.753906 3.035156 -17.90625 3.484375 -17.90625 Z M 3.484375 -17.90625 "/></g></g></g><g fill="#000000" fill-opacity="1"><g transform="translate(116.38735, 169.817484)"><g><path d="M 14.453125 -17.03125 C 14.890625 -16.8125 15.144531 -16.460938 15.21875 -15.984375 C 15.300781 -15.503906 15.179688 -15.070312 14.859375 -14.6875 C 14.640625 -14.375 14.351562 -14.203125 14 -14.171875 C 13.65625 -14.140625 13.300781 -14.207031 12.9375 -14.375 C 12.53125 -14.5625 12.097656 -14.707031 11.640625 -14.8125 C 11.191406 -14.914062 10.722656 -14.96875 10.234375 -14.96875 C 9.304688 -14.96875 8.476562 -14.820312 7.75 -14.53125 C 7.03125 -14.238281 6.414062 -13.820312 5.90625 -13.28125 C 5.394531 -12.75 5.003906 -12.113281 4.734375 -11.375 C 4.472656 -10.644531 4.34375 -9.835938 4.34375 -8.953125 C 4.34375 -7.910156 4.492188 -7.003906 4.796875 -6.234375 C 5.097656 -5.472656 5.507812 -4.835938 6.03125 -4.328125 C 6.5625 -3.816406 7.1875 -3.4375 7.90625 -3.1875 C 8.625 -2.9375 9.398438 -2.8125 10.234375 -2.8125 C 10.691406 -2.8125 11.148438 -2.851562 11.609375 -2.9375 C 12.066406 -3.019531 12.507812 -3.175781 12.9375 -3.40625 C 13.300781 -3.570312 13.65625 -3.628906 14 -3.578125 C 14.351562 -3.523438 14.648438 -3.347656 14.890625 -3.046875 C 15.222656 -2.617188 15.34375 -2.175781 15.25 -1.71875 C 15.15625 -1.269531 14.898438 -0.941406 14.484375 -0.734375 C 14.035156 -0.515625 13.578125 -0.332031 13.109375 -0.1875 C 12.640625 -0.0390625 12.164062 0.0664062 11.6875 0.140625 C 11.207031 0.210938 10.722656 0.25 10.234375 0.25 C 9.003906 0.25 7.835938 0.0546875 6.734375 -0.328125 C 5.640625 -0.722656 4.660156 -1.300781 3.796875 -2.0625 C 2.929688 -2.832031 2.25 -3.789062 1.75 -4.9375 C 1.257812 -6.09375 1.015625 -7.429688 1.015625 -8.953125 C 1.015625 -10.265625 1.238281 -11.472656 1.6875 -12.578125 C 2.144531 -13.691406 2.785156 -14.648438 3.609375 -15.453125 C 4.441406 -16.265625 5.421875 -16.894531 6.546875 -17.34375 C 7.671875 -17.800781 8.898438 -18.03125 10.234375 -18.03125 C 10.984375 -18.03125 11.710938 -17.941406 12.421875 -17.765625 C 13.140625 -17.597656 13.816406 -17.351562 14.453125 -17.03125 Z M 14.453125 -17.03125 "/></g></g></g><g fill="#000000" fill-opacity="1"><g transform="translate(132.419932, 169.817484)"><g><path d="M 11.796875 -3 C 12.234375 -3 12.601562 -2.859375 12.90625 -2.578125 C 13.207031 -2.296875 13.359375 -1.929688 13.359375 -1.484375 C 13.359375 -1.054688 13.207031 -0.703125 12.90625 -0.421875 C 12.601562 -0.140625 12.234375 0 11.796875 0 L 3.484375 0 C 3.035156 0 2.660156 -0.144531 2.359375 -0.4375 C 2.066406 -0.738281 1.921875 -1.113281 1.921875 -1.5625 L 1.921875 -16.34375 C 1.921875 -16.789062 2.070312 -17.160156 2.375 -17.453125 C 2.6875 -17.753906 3.082031 -17.90625 3.5625 -17.90625 C 3.96875 -17.90625 4.328125 -17.753906 4.640625 -17.453125 C 4.953125 -17.160156 5.109375 -16.789062 5.109375 -16.34375 L 5.109375 -2.5625 L 4.546875 -3 Z M 11.796875 -3 "/></g></g></g><g fill="#000000" fill-opacity="1"><g transform="translate(146.790435, 169.817484)"><g><path d="M 8.484375 -13.890625 L 2.96875 -0.890625 C 2.84375 -0.566406 2.65625 -0.316406 2.40625 -0.140625 C 2.164062 0.0351562 1.898438 0.125 1.609375 0.125 C 1.148438 0.125 0.804688 0 0.578125 -0.25 C 0.359375 -0.507812 0.25 -0.828125 0.25 -1.203125 C 0.25 -1.359375 0.273438 -1.519531 0.328125 -1.6875 L 6.703125 -16.984375 C 6.835938 -17.328125 7.046875 -17.59375 7.328125 -17.78125 C 7.609375 -17.96875 7.910156 -18.039062 8.234375 -18 C 8.546875 -18 8.832031 -17.910156 9.09375 -17.734375 C 9.351562 -17.554688 9.546875 -17.304688 9.671875 -16.984375 L 15.953125 -2 C 16.046875 -1.769531 16.09375 -1.5625 16.09375 -1.375 C 16.09375 -0.914062 15.941406 -0.550781 15.640625 -0.28125 C 15.335938 -0.0078125 15.007812 0.125 14.65625 0.125 C 14.351562 0.125 14.078125 0.03125 13.828125 -0.15625 C 13.578125 -0.34375 13.382812 -0.597656 13.25 -0.921875 L 7.75 -13.734375 Z M 3.765625 -4.015625 L 5.171875 -6.953125 L 12.078125 -6.953125 L 12.5625 -4.015625 Z M 3.765625 -4.015625 "/></g></g></g><g fill="#000000" fill-opacity="1"><g transform="translate(163.129862, 169.817484)"><g><path d="M 5.109375 -1.5625 C 5.109375 -1.113281 4.945312 -0.738281 4.625 -0.4375 C 4.300781 -0.144531 3.925781 0 3.5 0 C 3.019531 0 2.632812 -0.144531 2.34375 -0.4375 C 2.0625 -0.738281 1.921875 -1.113281 1.921875 -1.5625 L 1.921875 -16.34375 C 1.921875 -16.789062 2.070312 -17.160156 2.375 -17.453125 C 2.6875 -17.753906 3.082031 -17.90625 3.5625 -17.90625 C 3.96875 -17.90625 4.328125 -17.753906 4.640625 -17.453125 C 4.953125 -17.160156 5.109375 -16.789062 5.109375 -16.34375 Z M 5.109375 -1.5625 "/></g></g></g><g fill="#000000" fill-opacity="1"><g transform="translate(170.161691, 169.817484)"><g><path d="M 3.765625 0 C 3.285156 0 2.859375 -0.144531 2.484375 -0.4375 C 2.109375 -0.738281 1.921875 -1.113281 1.921875 -1.5625 L 1.921875 -16.34375 C 1.921875 -16.789062 2.066406 -17.160156 2.359375 -17.453125 C 2.660156 -17.753906 3.035156 -17.90625 3.484375 -17.90625 L 10.84375 -17.90625 C 11.726562 -17.90625 12.554688 -17.671875 13.328125 -17.203125 C 14.109375 -16.734375 14.738281 -16.082031 15.21875 -15.25 C 15.695312 -14.425781 15.9375 -13.476562 15.9375 -12.40625 C 15.9375 -11.757812 15.800781 -11.128906 15.53125 -10.515625 C 15.269531 -9.898438 14.910156 -9.34375 14.453125 -8.84375 C 14.003906 -8.351562 13.5 -7.972656 12.9375 -7.703125 L 12.96875 -8.28125 C 13.445312 -8.03125 13.84375 -7.726562 14.15625 -7.375 C 14.46875 -7.03125 14.710938 -6.65625 14.890625 -6.25 C 15.078125 -5.851562 15.1875 -5.425781 15.21875 -4.96875 C 15.289062 -4.539062 15.335938 -4.160156 15.359375 -3.828125 C 15.378906 -3.503906 15.425781 -3.234375 15.5 -3.015625 C 15.582031 -2.796875 15.734375 -2.625 15.953125 -2.5 C 16.328125 -2.28125 16.5625 -1.960938 16.65625 -1.546875 C 16.757812 -1.128906 16.664062 -0.757812 16.375 -0.4375 C 16.1875 -0.21875 15.945312 -0.078125 15.65625 -0.015625 C 15.363281 0.046875 15.070312 0.046875 14.78125 -0.015625 C 14.488281 -0.078125 14.25 -0.15625 14.0625 -0.25 C 13.78125 -0.425781 13.492188 -0.679688 13.203125 -1.015625 C 12.910156 -1.347656 12.671875 -1.796875 12.484375 -2.359375 C 12.304688 -2.921875 12.21875 -3.644531 12.21875 -4.53125 C 12.21875 -4.820312 12.164062 -5.085938 12.0625 -5.328125 C 11.96875 -5.578125 11.828125 -5.789062 11.640625 -5.96875 C 11.453125 -6.144531 11.210938 -6.28125 10.921875 -6.375 C 10.628906 -6.46875 10.289062 -6.515625 9.90625 -6.515625 L 4.734375 -6.515625 L 5.109375 -7.109375 L 5.109375 -1.5625 C 5.109375 -1.113281 4.988281 -0.738281 4.75 -0.4375 C 4.519531 -0.144531 4.191406 0 3.765625 0 Z M 4.75 -9.15625 L 10.71875 -9.15625 C 11.019531 -9.15625 11.316406 -9.296875 11.609375 -9.578125 C 11.898438 -9.859375 12.140625 -10.238281 12.328125 -10.71875 C 12.515625 -11.207031 12.609375 -11.742188 12.609375 -12.328125 C 12.609375 -13.078125 12.40625 -13.703125 12 -14.203125 C 11.601562 -14.710938 11.175781 -14.96875 10.71875 -14.96875 L 4.8125 -14.96875 L 5.109375 -15.78125 L 5.109375 -8.546875 Z M 4.75 -9.15625 "/></g></g></g><g fill="#000000" fill-opacity="1"><g transform="translate(187.728482, 169.817484)"><g/></g></g><g fill="#000000" fill-opacity="1"><g transform="translate(194.888168, 169.817484)"><g><path d="M 3.53125 0 C 3.050781 0 2.660156 -0.144531 2.359375 -0.4375 C 2.066406 -0.738281 1.921875 -1.113281 1.921875 -1.5625 L 1.921875 -16.34375 C 1.921875 -16.789062 2.066406 -17.160156 2.359375 -17.453125 C 2.660156 -17.753906 3.035156 -17.90625 3.484375 -17.90625 L 11.796875 -17.90625 C 12.234375 -17.90625 12.601562 -17.765625 12.90625 -17.484375 C 13.207031 -17.203125 13.359375 -16.835938 13.359375 -16.390625 C 13.359375 -16.015625 13.207031 -15.679688 12.90625 -15.390625 C 12.601562 -15.109375 12.234375 -14.96875 11.796875 -14.96875 L 4.890625 -14.96875 L 5.109375 -15.265625 L 5.109375 -10.125 L 4.9375 -10.46875 L 10.640625 -10.46875 C 11.085938 -10.46875 11.457031 -10.328125 11.75 -10.046875 C 12.050781 -9.765625 12.203125 -9.398438 12.203125 -8.953125 C 12.203125 -8.578125 12.050781 -8.242188 11.75 -7.953125 C 11.457031 -7.660156 11.085938 -7.515625 10.640625 -7.515625 L 4.890625 -7.515625 L 5.109375 -7.75 L 5.109375 -1.5625 C 5.109375 -1.113281 4.953125 -0.738281 4.640625 -0.4375 C 4.328125 -0.144531 3.957031 0 3.53125 0 Z M 3.53125 0 "/></g></g></g><g fill="#000000" fill-opacity="1"><g transform="translate(209.258671, 169.817484)"><g><path d="M 18.390625 -8.953125 C 18.390625 -7.671875 18.175781 -6.472656 17.75 -5.359375 C 17.320312 -4.253906 16.71875 -3.28125 15.9375 -2.4375 C 15.164062 -1.59375 14.25 -0.929688 13.1875 -0.453125 C 12.125 0.015625 10.957031 0.25 9.6875 0.25 C 8.425781 0.25 7.265625 0.015625 6.203125 -0.453125 C 5.148438 -0.929688 4.234375 -1.59375 3.453125 -2.4375 C 2.679688 -3.28125 2.082031 -4.253906 1.65625 -5.359375 C 1.226562 -6.472656 1.015625 -7.671875 1.015625 -8.953125 C 1.015625 -10.234375 1.226562 -11.425781 1.65625 -12.53125 C 2.082031 -13.644531 2.679688 -14.625 3.453125 -15.46875 C 4.234375 -16.3125 5.148438 -16.96875 6.203125 -17.4375 C 7.265625 -17.914062 8.425781 -18.15625 9.6875 -18.15625 C 10.957031 -18.15625 12.125 -17.914062 13.1875 -17.4375 C 14.25 -16.96875 15.164062 -16.3125 15.9375 -15.46875 C 16.71875 -14.625 17.320312 -13.644531 17.75 -12.53125 C 18.175781 -11.425781 18.390625 -10.234375 18.390625 -8.953125 Z M 15.0625 -8.953125 C 15.0625 -10.097656 14.832031 -11.132812 14.375 -12.0625 C 13.914062 -12.988281 13.285156 -13.722656 12.484375 -14.265625 C 11.679688 -14.816406 10.75 -15.09375 9.6875 -15.09375 C 8.632812 -15.09375 7.707031 -14.816406 6.90625 -14.265625 C 6.101562 -13.722656 5.472656 -12.988281 5.015625 -12.0625 C 4.566406 -11.144531 4.34375 -10.109375 4.34375 -8.953125 C 4.34375 -7.804688 4.566406 -6.769531 5.015625 -5.84375 C 5.472656 -4.914062 6.101562 -4.175781 6.90625 -3.625 C 7.707031 -3.082031 8.632812 -2.8125 9.6875 -2.8125 C 10.75 -2.8125 11.679688 -3.082031 12.484375 -3.625 C 13.285156 -4.175781 13.914062 -4.914062 14.375 -5.84375 C 14.832031 -6.769531 15.0625 -7.804688 15.0625 -8.953125 Z M 15.0625 -8.953125 "/></g></g></g><g fill="#000000" fill-opacity="1"><g transform="translate(228.666528, 169.817484)"><g><path d="M 14.625 -17.9375 C 15.070312 -17.9375 15.429688 -17.785156 15.703125 -17.484375 C 15.972656 -17.179688 16.109375 -16.8125 16.109375 -16.375 L 16.109375 -7.109375 C 16.109375 -5.691406 15.804688 -4.4375 15.203125 -3.34375 C 14.597656 -2.257812 13.765625 -1.410156 12.703125 -0.796875 C 11.648438 -0.179688 10.425781 0.125 9.03125 0.125 C 7.632812 0.125 6.398438 -0.179688 5.328125 -0.796875 C 4.265625 -1.410156 3.429688 -2.257812 2.828125 -3.34375 C 2.222656 -4.4375 1.921875 -5.691406 1.921875 -7.109375 L 1.921875 -16.375 C 1.921875 -16.8125 2.070312 -17.179688 2.375 -17.484375 C 2.6875 -17.785156 3.082031 -17.9375 3.5625 -17.9375 C 3.945312 -17.9375 4.296875 -17.785156 4.609375 -17.484375 C 4.929688 -17.179688 5.09375 -16.8125 5.09375 -16.375 L 5.09375 -7.109375 C 5.09375 -6.253906 5.273438 -5.515625 5.640625 -4.890625 C 6.003906 -4.273438 6.488281 -3.796875 7.09375 -3.453125 C 7.695312 -3.109375 8.34375 -2.9375 9.03125 -2.9375 C 9.757812 -2.9375 10.4375 -3.109375 11.0625 -3.453125 C 11.695312 -3.796875 12.210938 -4.273438 12.609375 -4.890625 C 13.003906 -5.515625 13.203125 -6.253906 13.203125 -7.109375 L 13.203125 -16.375 C 13.203125 -16.8125 13.328125 -17.179688 13.578125 -17.484375 C 13.835938 -17.785156 14.1875 -17.9375 14.625 -17.9375 Z M 14.625 -17.9375 "/></g></g></g><g fill="#000000" fill-opacity="1"><g transform="translate(246.693586, 169.817484)"><g><path d="M 15.5 -17.90625 C 15.90625 -17.90625 16.234375 -17.769531 16.484375 -17.5 C 16.742188 -17.226562 16.875 -16.882812 16.875 -16.46875 L 16.875 -1.5625 C 16.875 -1.113281 16.722656 -0.738281 16.421875 -0.4375 C 16.128906 -0.144531 15.765625 0 15.328125 0 C 15.097656 0 14.867188 -0.0351562 14.640625 -0.109375 C 14.410156 -0.191406 14.238281 -0.300781 14.125 -0.4375 L 4.0625 -13.203125 L 4.734375 -13.609375 L 4.734375 -1.4375 C 4.734375 -1.019531 4.597656 -0.675781 4.328125 -0.40625 C 4.066406 -0.132812 3.722656 0 3.296875 0 C 2.890625 0 2.554688 -0.132812 2.296875 -0.40625 C 2.046875 -0.675781 1.921875 -1.019531 1.921875 -1.4375 L 1.921875 -16.34375 C 1.921875 -16.789062 2.066406 -17.160156 2.359375 -17.453125 C 2.660156 -17.753906 3.035156 -17.90625 3.484375 -17.90625 C 3.722656 -17.90625 3.96875 -17.859375 4.21875 -17.765625 C 4.476562 -17.671875 4.664062 -17.53125 4.78125 -17.34375 L 14.53125 -4.90625 L 14.09375 -4.609375 L 14.09375 -16.46875 C 14.09375 -16.882812 14.21875 -17.226562 14.46875 -17.5 C 14.726562 -17.769531 15.070312 -17.90625 15.5 -17.90625 Z M 15.5 -17.90625 "/></g></g></g><g fill="#000000" fill-opacity="1"><g transform="translate(265.487754, 169.817484)"><g><path d="M 9.59375 -17.90625 C 10.820312 -17.90625 11.910156 -17.671875 12.859375 -17.203125 C 13.816406 -16.742188 14.625 -16.101562 15.28125 -15.28125 C 15.9375 -14.457031 16.429688 -13.503906 16.765625 -12.421875 C 17.097656 -11.335938 17.265625 -10.179688 17.265625 -8.953125 C 17.265625 -7.296875 16.960938 -5.789062 16.359375 -4.4375 C 15.765625 -3.082031 14.898438 -2.003906 13.765625 -1.203125 C 12.640625 -0.398438 11.25 0 9.59375 0 L 3.484375 0 C 3.035156 0 2.660156 -0.144531 2.359375 -0.4375 C 2.066406 -0.738281 1.921875 -1.113281 1.921875 -1.5625 L 1.921875 -16.34375 C 1.921875 -16.789062 2.066406 -17.160156 2.359375 -17.453125 C 2.660156 -17.753906 3.035156 -17.90625 3.484375 -17.90625 Z M 9.34375 -2.9375 C 10.414062 -2.9375 11.289062 -3.210938 11.96875 -3.765625 C 12.65625 -4.328125 13.15625 -5.0625 13.46875 -5.96875 C 13.78125 -6.882812 13.9375 -7.878906 13.9375 -8.953125 C 13.9375 -9.753906 13.847656 -10.515625 13.671875 -11.234375 C 13.492188 -11.960938 13.21875 -12.601562 12.84375 -13.15625 C 12.46875 -13.707031 11.988281 -14.144531 11.40625 -14.46875 C 10.820312 -14.800781 10.132812 -14.96875 9.34375 -14.96875 L 4.859375 -14.96875 L 5.109375 -15.1875 L 5.109375 -2.65625 L 4.96875 -2.9375 Z M 9.34375 -2.9375 "/></g></g></g><g fill="#000000" fill-opacity="1"><g transform="translate(283.770524, 169.817484)"><g><path d="M 8.484375 -13.890625 L 2.96875 -0.890625 C 2.84375 -0.566406 2.65625 -0.316406 2.40625 -0.140625 C 2.164062 0.0351562 1.898438 0.125 1.609375 0.125 C 1.148438 0.125 0.804688 0 0.578125 -0.25 C 0.359375 -0.507812 0.25 -0.828125 0.25 -1.203125 C 0.25 -1.359375 0.273438 -1.519531 0.328125 -1.6875 L 6.703125 -16.984375 C 6.835938 -17.328125 7.046875 -17.59375 7.328125 -17.78125 C 7.609375 -17.96875 7.910156 -18.039062 8.234375 -18 C 8.546875 -18 8.832031 -17.910156 9.09375 -17.734375 C 9.351562 -17.554688 9.546875 -17.304688 9.671875 -16.984375 L 15.953125 -2 C 16.046875 -1.769531 16.09375 -1.5625 16.09375 -1.375 C 16.09375 -0.914062 15.941406 -0.550781 15.640625 -0.28125 C 15.335938 -0.0078125 15.007812 0.125 14.65625 0.125 C 14.351562 0.125 14.078125 0.03125 13.828125 -0.15625 C 13.578125 -0.34375 13.382812 -0.597656 13.25 -0.921875 L 7.75 -13.734375 Z M 3.765625 -4.015625 L 5.171875 -6.953125 L 12.078125 -6.953125 L 12.5625 -4.015625 Z M 3.765625 -4.015625 "/></g></g></g><g fill="#000000" fill-opacity="1"><g transform="translate(300.109951, 169.817484)"><g><path d="M 7.984375 0 C 7.503906 0 7.109375 -0.144531 6.796875 -0.4375 C 6.492188 -0.738281 6.34375 -1.113281 6.34375 -1.5625 L 6.34375 -16.390625 L 9.671875 -16.390625 L 9.671875 -1.5625 C 9.671875 -1.113281 9.507812 -0.738281 9.1875 -0.4375 C 8.875 -0.144531 8.472656 0 7.984375 0 Z M 2.328125 -14.96875 C 1.878906 -14.96875 1.503906 -15.101562 1.203125 -15.375 C 0.910156 -15.644531 0.765625 -16.003906 0.765625 -16.453125 C 0.765625 -16.890625 0.910156 -17.238281 1.203125 -17.5 C 1.503906 -17.769531 1.878906 -17.90625 2.328125 -17.90625 L 13.6875 -17.90625 C 14.125 -17.90625 14.492188 -17.769531 14.796875 -17.5 C 15.097656 -17.226562 15.25 -16.867188 15.25 -16.421875 C 15.25 -15.972656 15.097656 -15.617188 14.796875 -15.359375 C 14.492188 -15.097656 14.125 -14.96875 13.6875 -14.96875 Z M 2.328125 -14.96875 "/></g></g></g><g fill="#000000" fill-opacity="1"><g transform="translate(316.11694, 169.817484)"><g><path d="M 5.109375 -1.5625 C 5.109375 -1.113281 4.945312 -0.738281 4.625 -0.4375 C 4.300781 -0.144531 3.925781 0 3.5 0 C 3.019531 0 2.632812 -0.144531 2.34375 -0.4375 C 2.0625 -0.738281 1.921875 -1.113281 1.921875 -1.5625 L 1.921875 -16.34375 C 1.921875 -16.789062 2.070312 -17.160156 2.375 -17.453125 C 2.6875 -17.753906 3.082031 -17.90625 3.5625 -17.90625 C 3.96875 -17.90625 4.328125 -17.753906 4.640625 -17.453125 C 4.953125 -17.160156 5.109375 -16.789062 5.109375 -16.34375 Z M 5.109375 -1.5625 "/></g></g></g><g fill="#000000" fill-opacity="1"><g transform="translate(323.148783, 169.817484)"><g><path d="M 18.390625 -8.953125 C 18.390625 -7.671875 18.175781 -6.472656 17.75 -5.359375 C 17.320312 -4.253906 16.71875 -3.28125 15.9375 -2.4375 C 15.164062 -1.59375 14.25 -0.929688 13.1875 -0.453125 C 12.125 0.015625 10.957031 0.25 9.6875 0.25 C 8.425781 0.25 7.265625 0.015625 6.203125 -0.453125 C 5.148438 -0.929688 4.234375 -1.59375 3.453125 -2.4375 C 2.679688 -3.28125 2.082031 -4.253906 1.65625 -5.359375 C 1.226562 -6.472656 1.015625 -7.671875 1.015625 -8.953125 C 1.015625 -10.234375 1.226562 -11.425781 1.65625 -12.53125 C 2.082031 -13.644531 2.679688 -14.625 3.453125 -15.46875 C 4.234375 -16.3125 5.148438 -16.96875 6.203125 -17.4375 C 7.265625 -17.914062 8.425781 -18.15625 9.6875 -18.15625 C 10.957031 -18.15625 12.125 -17.914062 13.1875 -17.4375 C 14.25 -16.96875 15.164062 -16.3125 15.9375 -15.46875 C 16.71875 -14.625 17.320312 -13.644531 17.75 -12.53125 C 18.175781 -11.425781 18.390625 -10.234375 18.390625 -8.953125 Z M 15.0625 -8.953125 C 15.0625 -10.097656 14.832031 -11.132812 14.375 -12.0625 C 13.914062 -12.988281 13.285156 -13.722656 12.484375 -14.265625 C 11.679688 -14.816406 10.75 -15.09375 9.6875 -15.09375 C 8.632812 -15.09375 7.707031 -14.816406 6.90625 -14.265625 C 6.101562 -13.722656 5.472656 -12.988281 5.015625 -12.0625 C 4.566406 -11.144531 4.34375 -10.109375 4.34375 -8.953125 C 4.34375 -7.804688 4.566406 -6.769531 5.015625 -5.84375 C 5.472656 -4.914062 6.101562 -4.175781 6.90625 -3.625 C 7.707031 -3.082031 8.632812 -2.8125 9.6875 -2.8125 C 10.75 -2.8125 11.679688 -3.082031 12.484375 -3.625 C 13.285156 -4.175781 13.914062 -4.914062 14.375 -5.84375 C 14.832031 -6.769531 15.0625 -7.804688 15.0625 -8.953125 Z M 15.0625 -8.953125 "/></g></g></g><g fill="#000000" fill-opacity="1"><g transform="translate(342.55664, 169.817484)"><g><path d="M 15.5 -17.90625 C 15.90625 -17.90625 16.234375 -17.769531 16.484375 -17.5 C 16.742188 -17.226562 16.875 -16.882812 16.875 -16.46875 L 16.875 -1.5625 C 16.875 -1.113281 16.722656 -0.738281 16.421875 -0.4375 C 16.128906 -0.144531 15.765625 0 15.328125 0 C 15.097656 0 14.867188 -0.0351562 14.640625 -0.109375 C 14.410156 -0.191406 14.238281 -0.300781 14.125 -0.4375 L 4.0625 -13.203125 L 4.734375 -13.609375 L 4.734375 -1.4375 C 4.734375 -1.019531 4.597656 -0.675781 4.328125 -0.40625 C 4.066406 -0.132812 3.722656 0 3.296875 0 C 2.890625 0 2.554688 -0.132812 2.296875 -0.40625 C 2.046875 -0.675781 1.921875 -1.019531 1.921875 -1.4375 L 1.921875 -16.34375 C 1.921875 -16.789062 2.066406 -17.160156 2.359375 -17.453125 C 2.660156 -17.753906 3.035156 -17.90625 3.484375 -17.90625 C 3.722656 -17.90625 3.96875 -17.859375 4.21875 -17.765625 C 4.476562 -17.671875 4.664062 -17.53125 4.78125 -17.34375 L 14.53125 -4.90625 L 14.09375 -4.609375 L 14.09375 -16.46875 C 14.09375 -16.882812 14.21875 -17.226562 14.46875 -17.5 C 14.726562 -17.769531 15.070312 -17.90625 15.5 -17.90625 Z M 15.5 -17.90625 "/></g></g></g><g fill="#5ce1e6" fill-opacity="0.302"><g transform="translate(89.355904, 194.406319)"><g><path d="M 1.390625 0 L 2.578125 0 L 2.578125 -4.015625 L 6.484375 -4.015625 L 6.484375 -5.109375 L 2.578125 -5.109375 L 2.578125 -8.40625 L 6.84375 -8.40625 L 6.84375 -9.515625 L 1.390625 -9.515625 Z M 1.390625 0 "/></g></g></g><g fill="#5ce1e6" fill-opacity="0.302"><g transform="translate(96.934229, 194.406319)"><g><path d="M 5.703125 0.171875 C 8.609375 0.171875 10.640625 -1.859375 10.640625 -4.75 C 10.640625 -7.65625 8.609375 -9.6875 5.703125 -9.6875 C 2.8125 -9.6875 0.78125 -7.65625 0.78125 -4.75 C 0.78125 -1.859375 2.8125 0.171875 5.703125 0.171875 Z M 2.015625 -4.75 C 2.015625 -6.96875 3.515625 -8.5 5.703125 -8.5 C 7.890625 -8.5 9.40625 -6.96875 9.40625 -4.75 C 9.40625 -2.546875 7.890625 -1.015625 5.703125 -1.015625 C 3.515625 -1.015625 2.015625 -2.546875 2.015625 -4.75 Z M 2.015625 -4.75 "/></g></g></g><g fill="#5ce1e6" fill-opacity="0.302"><g transform="translate(108.342459, 194.406319)"><g><path d="M 1.390625 0 L 2.578125 0 L 2.578125 -3.40625 L 4.671875 -3.40625 L 7 0 L 8.4375 0 L 6.046875 -3.53125 C 7.4375 -3.875 8.296875 -4.921875 8.296875 -6.453125 C 8.296875 -8.34375 6.984375 -9.515625 5.015625 -9.515625 L 1.390625 -9.515625 Z M 2.578125 -4.546875 L 2.578125 -8.375 L 4.875 -8.375 C 6.265625 -8.375 7.0625 -7.671875 7.0625 -6.453125 C 7.0625 -5.25 6.265625 -4.546875 4.875 -4.546875 Z M 2.578125 -4.546875 "/></g></g></g><g fill="#5ce1e6" fill-opacity="0.302"><g transform="translate(117.591272, 194.406319)"><g/></g></g><g fill="#5ce1e6" fill-opacity="0.302"><g transform="translate(120.959423, 194.406319)"><g><path d="M 3.6875 0 L 4.875 0 L 4.875 -8.375 L 8.09375 -8.375 L 8.09375 -9.515625 L 0.46875 -9.515625 L 0.46875 -8.375 L 3.6875 -8.375 Z M 3.6875 0 "/></g></g></g><g fill="#5ce1e6" fill-opacity="0.302"><g transform="translate(129.515605, 194.406319)"><g><path d="M 1.390625 0 L 7.3125 0 L 7.3125 -1.109375 L 2.578125 -1.109375 L 2.578125 -4.296875 L 6.828125 -4.296875 L 6.828125 -5.390625 L 2.578125 -5.390625 L 2.578125 -8.40625 L 7.15625 -8.40625 L 7.15625 -9.515625 L 1.390625 -9.515625 Z M 1.390625 0 "/></g></g></g><g fill="#5ce1e6" fill-opacity="0.302"><g transform="translate(137.705091, 194.406319)"><g><path d="M 5.59375 0.171875 C 7.90625 0.171875 9.78125 -1.21875 10.359375 -3.34375 L 9.09375 -3.34375 C 8.609375 -1.921875 7.265625 -1.015625 5.640625 -1.015625 C 3.515625 -1.015625 2.015625 -2.5625 2.015625 -4.75 C 2.015625 -6.953125 3.515625 -8.5 5.640625 -8.5 C 7.21875 -8.5 8.515625 -7.65625 9 -6.28125 L 10.28125 -6.28125 C 9.65625 -8.375 7.84375 -9.6875 5.59375 -9.6875 C 2.796875 -9.6875 0.78125 -7.625 0.78125 -4.75 C 0.78125 -1.890625 2.796875 0.171875 5.59375 0.171875 Z M 5.59375 0.171875 "/></g></g></g><g fill="#5ce1e6" fill-opacity="0.302"><g transform="translate(148.787373, 194.406319)"><g><path d="M 7.625 0 L 8.828125 0 L 8.828125 -9.515625 L 7.625 -9.515625 L 7.625 -5.421875 L 2.578125 -5.421875 L 2.578125 -9.515625 L 1.390625 -9.515625 L 1.390625 0 L 2.578125 0 L 2.578125 -4.28125 L 7.625 -4.28125 Z M 7.625 0 "/></g></g></g><g fill="#5ce1e6" fill-opacity="0.302"><g transform="translate(158.986882, 194.406319)"><g><path d="M 1.390625 0 L 2.5625 0 L 2.5625 -7.453125 L 7.828125 0 L 8.9375 0 L 8.9375 -9.515625 L 7.78125 -9.515625 L 7.78125 -2.0625 L 2.515625 -9.515625 L 1.390625 -9.515625 Z M 1.390625 0 "/></g></g></g><g fill="#5ce1e6" fill-opacity="0.302"><g transform="translate(169.308623, 194.406319)"><g><path d="M 5.703125 0.171875 C 8.609375 0.171875 10.640625 -1.859375 10.640625 -4.75 C 10.640625 -7.65625 8.609375 -9.6875 5.703125 -9.6875 C 2.8125 -9.6875 0.78125 -7.65625 0.78125 -4.75 C 0.78125 -1.859375 2.8125 0.171875 5.703125 0.171875 Z M 2.015625 -4.75 C 2.015625 -6.96875 3.515625 -8.5 5.703125 -8.5 C 7.890625 -8.5 9.40625 -6.96875 9.40625 -4.75 C 9.40625 -2.546875 7.890625 -1.015625 5.703125 -1.015625 C 3.515625 -1.015625 2.015625 -2.546875 2.015625 -4.75 Z M 2.015625 -4.75 "/></g></g></g><g fill="#5ce1e6" fill-opacity="0.302"><g transform="translate(180.716853, 194.406319)"><g><path d="M 1.390625 0 L 7.203125 0 L 7.203125 -1.140625 L 2.578125 -1.140625 L 2.578125 -9.515625 L 1.390625 -9.515625 Z M 1.390625 0 "/></g></g></g><g fill="#5ce1e6" fill-opacity="0.302"><g transform="translate(188.335926, 194.406319)"><g><path d="M 5.703125 0.171875 C 8.609375 0.171875 10.640625 -1.859375 10.640625 -4.75 C 10.640625 -7.65625 8.609375 -9.6875 5.703125 -9.6875 C 2.8125 -9.6875 0.78125 -7.65625 0.78125 -4.75 C 0.78125 -1.859375 2.8125 0.171875 5.703125 0.171875 Z M 2.015625 -4.75 C 2.015625 -6.96875 3.515625 -8.5 5.703125 -8.5 C 7.890625 -8.5 9.40625 -6.96875 9.40625 -4.75 C 9.40625 -2.546875 7.890625 -1.015625 5.703125 -1.015625 C 3.515625 -1.015625 2.015625 -2.546875 2.015625 -4.75 Z M 2.015625 -4.75 "/></g></g></g><g fill="#5ce1e6" fill-opacity="0.302"><g transform="translate(199.744156, 194.406319)"><g><path d="M 5.625 0.171875 C 8.546875 0.171875 10.515625 -2.03125 10.46875 -5.171875 L 5.296875 -5.171875 L 5.296875 -4.03125 L 9.171875 -4.03125 C 8.9375 -2.234375 7.578125 -1.015625 5.65625 -1.015625 C 3.515625 -1.015625 2.015625 -2.5625 2.015625 -4.75 C 2.015625 -6.953125 3.5 -8.5 5.640625 -8.5 C 7.109375 -8.5 8.28125 -7.78125 8.875 -6.546875 L 10.1875 -6.546875 C 9.5625 -8.421875 7.78125 -9.6875 5.59375 -9.6875 C 2.8125 -9.6875 0.78125 -7.609375 0.78125 -4.75 C 0.78125 -1.890625 2.828125 0.171875 5.625 0.171875 Z M 5.625 0.171875 "/></g></g></g><g fill="#5ce1e6" fill-opacity="0.302"><g transform="translate(210.94867, 194.406319)"><g><path d="M 3.8125 0 L 4.96875 0 L 4.96875 -3.421875 L 8.546875 -9.515625 L 7.203125 -9.515625 L 4.40625 -4.703125 L 3.171875 -6.84375 L 1.625 -9.515625 L 0.234375 -9.515625 L 3.8125 -3.421875 Z M 3.8125 0 "/></g></g></g><g fill="#5ce1e6" fill-opacity="0.502"><g transform="translate(88.840499, 194.515875)"><g><path d="M 1.390625 0 L 2.578125 0 L 2.578125 -4.015625 L 6.484375 -4.015625 L 6.484375 -5.109375 L 2.578125 -5.109375 L 2.578125 -8.40625 L 6.84375 -8.40625 L 6.84375 -9.515625 L 1.390625 -9.515625 Z M 1.390625 0 "/></g></g></g><g fill="#5ce1e6" fill-opacity="0.502"><g transform="translate(96.418824, 194.515875)"><g><path d="M 5.703125 0.171875 C 8.609375 0.171875 10.640625 -1.859375 10.640625 -4.75 C 10.640625 -7.65625 8.609375 -9.6875 5.703125 -9.6875 C 2.8125 -9.6875 0.78125 -7.65625 0.78125 -4.75 C 0.78125 -1.859375 2.8125 0.171875 5.703125 0.171875 Z M 2.015625 -4.75 C 2.015625 -6.96875 3.515625 -8.5 5.703125 -8.5 C 7.890625 -8.5 9.40625 -6.96875 9.40625 -4.75 C 9.40625 -2.546875 7.890625 -1.015625 5.703125 -1.015625 C 3.515625 -1.015625 2.015625 -2.546875 2.015625 -4.75 Z M 2.015625 -4.75 "/></g></g></g><g fill="#5ce1e6" fill-opacity="0.502"><g transform="translate(107.827054, 194.515875)"><g><path d="M 1.390625 0 L 2.578125 0 L 2.578125 -3.40625 L 4.671875 -3.40625 L 7 0 L 8.4375 0 L 6.046875 -3.53125 C 7.4375 -3.875 8.296875 -4.921875 8.296875 -6.453125 C 8.296875 -8.34375 6.984375 -9.515625 5.015625 -9.515625 L 1.390625 -9.515625 Z M 2.578125 -4.546875 L 2.578125 -8.375 L 4.875 -8.375 C 6.265625 -8.375 7.0625 -7.671875 7.0625 -6.453125 C 7.0625 -5.25 6.265625 -4.546875 4.875 -4.546875 Z M 2.578125 -4.546875 "/></g></g></g><g fill="#5ce1e6" fill-opacity="0.502"><g transform="translate(117.075867, 194.515875)"><g/></g></g><g fill="#5ce1e6" fill-opacity="0.502"><g transform="translate(120.444018, 194.515875)"><g><path d="M 3.6875 0 L 4.875 0 L 4.875 -8.375 L 8.09375 -8.375 L 8.09375 -9.515625 L 0.46875 -9.515625 L 0.46875 -8.375 L 3.6875 -8.375 Z M 3.6875 0 "/></g></g></g><g fill="#5ce1e6" fill-opacity="0.502"><g transform="translate(129.0002, 194.515875)"><g><path d="M 1.390625 0 L 7.3125 0 L 7.3125 -1.109375 L 2.578125 -1.109375 L 2.578125 -4.296875 L 6.828125 -4.296875 L 6.828125 -5.390625 L 2.578125 -5.390625 L 2.578125 -8.40625 L 7.15625 -8.40625 L 7.15625 -9.515625 L 1.390625 -9.515625 Z M 1.390625 0 "/></g></g></g><g fill="#5ce1e6" fill-opacity="0.502"><g transform="translate(137.189686, 194.515875)"><g><path d="M 5.59375 0.171875 C 7.90625 0.171875 9.78125 -1.21875 10.359375 -3.34375 L 9.09375 -3.34375 C 8.609375 -1.921875 7.265625 -1.015625 5.640625 -1.015625 C 3.515625 -1.015625 2.015625 -2.5625 2.015625 -4.75 C 2.015625 -6.953125 3.515625 -8.5 5.640625 -8.5 C 7.21875 -8.5 8.515625 -7.65625 9 -6.28125 L 10.28125 -6.28125 C 9.65625 -8.375 7.84375 -9.6875 5.59375 -9.6875 C 2.796875 -9.6875 0.78125 -7.625 0.78125 -4.75 C 0.78125 -1.890625 2.796875 0.171875 5.59375 0.171875 Z M 5.59375 0.171875 "/></g></g></g><g fill="#5ce1e6" fill-opacity="0.502"><g transform="translate(148.271968, 194.515875)"><g><path d="M 7.625 0 L 8.828125 0 L 8.828125 -9.515625 L 7.625 -9.515625 L 7.625 -5.421875 L 2.578125 -5.421875 L 2.578125 -9.515625 L 1.390625 -9.515625 L 1.390625 0 L 2.578125 0 L 2.578125 -4.28125 L 7.625 -4.28125 Z M 7.625 0 "/></g></g></g><g fill="#5ce1e6" fill-opacity="0.502"><g transform="translate(158.471477, 194.515875)"><g><path d="M 1.390625 0 L 2.5625 0 L 2.5625 -7.453125 L 7.828125 0 L 8.9375 0 L 8.9375 -9.515625 L 7.78125 -9.515625 L 7.78125 -2.0625 L 2.515625 -9.515625 L 1.390625 -9.515625 Z M 1.390625 0 "/></g></g></g><g fill="#5ce1e6" fill-opacity="0.502"><g transform="translate(168.793218, 194.515875)"><g><path d="M 5.703125 0.171875 C 8.609375 0.171875 10.640625 -1.859375 10.640625 -4.75 C 10.640625 -7.65625 8.609375 -9.6875 5.703125 -9.6875 C 2.8125 -9.6875 0.78125 -7.65625 0.78125 -4.75 C 0.78125 -1.859375 2.8125 0.171875 5.703125 0.171875 Z M 2.015625 -4.75 C 2.015625 -6.96875 3.515625 -8.5 5.703125 -8.5 C 7.890625 -8.5 9.40625 -6.96875 9.40625 -4.75 C 9.40625 -2.546875 7.890625 -1.015625 5.703125 -1.015625 C 3.515625 -1.015625 2.015625 -2.546875 2.015625 -4.75 Z M 2.015625 -4.75 "/></g></g></g><g fill="#5ce1e6" fill-opacity="0.502"><g transform="translate(180.201448, 194.515875)"><g><path d="M 1.390625 0 L 7.203125 0 L 7.203125 -1.140625 L 2.578125 -1.140625 L 2.578125 -9.515625 L 1.390625 -9.515625 Z M 1.390625 0 "/></g></g></g><g fill="#5ce1e6" fill-opacity="0.502"><g transform="translate(187.820521, 194.515875)"><g><path d="M 5.703125 0.171875 C 8.609375 0.171875 10.640625 -1.859375 10.640625 -4.75 C 10.640625 -7.65625 8.609375 -9.6875 5.703125 -9.6875 C 2.8125 -9.6875 0.78125 -7.65625 0.78125 -4.75 C 0.78125 -1.859375 2.8125 0.171875 5.703125 0.171875 Z M 2.015625 -4.75 C 2.015625 -6.96875 3.515625 -8.5 5.703125 -8.5 C 7.890625 -8.5 9.40625 -6.96875 9.40625 -4.75 C 9.40625 -2.546875 7.890625 -1.015625 5.703125 -1.015625 C 3.515625 -1.015625 2.015625 -2.546875 2.015625 -4.75 Z M 2.015625 -4.75 "/></g></g></g><g fill="#5ce1e6" fill-opacity="0.502"><g transform="translate(199.228751, 194.515875)"><g><path d="M 5.625 0.171875 C 8.546875 0.171875 10.515625 -2.03125 10.46875 -5.171875 L 5.296875 -5.171875 L 5.296875 -4.03125 L 9.171875 -4.03125 C 8.9375 -2.234375 7.578125 -1.015625 5.65625 -1.015625 C 3.515625 -1.015625 2.015625 -2.5625 2.015625 -4.75 C 2.015625 -6.953125 3.5 -8.5 5.640625 -8.5 C 7.109375 -8.5 8.28125 -7.78125 8.875 -6.546875 L 10.1875 -6.546875 C 9.5625 -8.421875 7.78125 -9.6875 5.59375 -9.6875 C 2.8125 -9.6875 0.78125 -7.609375 0.78125 -4.75 C 0.78125 -1.890625 2.828125 0.171875 5.625 0.171875 Z M 5.625 0.171875 "/></g></g></g><g fill="#5ce1e6" fill-opacity="0.502"><g transform="translate(210.433265, 194.515875)"><g><path d="M 3.8125 0 L 4.96875 0 L 4.96875 -3.421875 L 8.546875 -9.515625 L 7.203125 -9.515625 L 4.40625 -4.703125 L 3.171875 -6.84375 L 1.625 -9.515625 L 0.234375 -9.515625 L 3.8125 -3.421875 Z M 3.8125 0 "/></g></g></g><g fill="#000000" fill-opacity="1"><g transform="translate(88.325092, 194.62543)"><g><path d="M 1.390625 0 L 2.578125 0 L 2.578125 -4.015625 L 6.484375 -4.015625 L 6.484375 -5.109375 L 2.578125 -5.109375 L 2.578125 -8.40625 L 6.84375 -8.40625 L 6.84375 -9.515625 L 1.390625 -9.515625 Z M 1.390625 0 "/></g></g></g><g fill="#000000" fill-opacity="1"><g transform="translate(95.903417, 194.62543)"><g><path d="M 5.703125 0.171875 C 8.609375 0.171875 10.640625 -1.859375 10.640625 -4.75 C 10.640625 -7.65625 8.609375 -9.6875 5.703125 -9.6875 C 2.8125 -9.6875 0.78125 -7.65625 0.78125 -4.75 C 0.78125 -1.859375 2.8125 0.171875 5.703125 0.171875 Z M 2.015625 -4.75 C 2.015625 -6.96875 3.515625 -8.5 5.703125 -8.5 C 7.890625 -8.5 9.40625 -6.96875 9.40625 -4.75 C 9.40625 -2.546875 7.890625 -1.015625 5.703125 -1.015625 C 3.515625 -1.015625 2.015625 -2.546875 2.015625 -4.75 Z M 2.015625 -4.75 "/></g></g></g><g fill="#000000" fill-opacity="1"><g transform="translate(107.311647, 194.62543)"><g><path d="M 1.390625 0 L 2.578125 0 L 2.578125 -3.40625 L 4.671875 -3.40625 L 7 0 L 8.4375 0 L 6.046875 -3.53125 C 7.4375 -3.875 8.296875 -4.921875 8.296875 -6.453125 C 8.296875 -8.34375 6.984375 -9.515625 5.015625 -9.515625 L 1.390625 -9.515625 Z M 2.578125 -4.546875 L 2.578125 -8.375 L 4.875 -8.375 C 6.265625 -8.375 7.0625 -7.671875 7.0625 -6.453125 C 7.0625 -5.25 6.265625 -4.546875 4.875 -4.546875 Z M 2.578125 -4.546875 "/></g></g></g><g fill="#000000" fill-opacity="1"><g transform="translate(116.56046, 194.62543)"><g/></g></g><g fill="#000000" fill-opacity="1"><g transform="translate(119.928611, 194.62543)"><g><path d="M 3.6875 0 L 4.875 0 L 4.875 -8.375 L 8.09375 -8.375 L 8.09375 -9.515625 L 0.46875 -9.515625 L 0.46875 -8.375 L 3.6875 -8.375 Z M 3.6875 0 "/></g></g></g><g fill="#000000" fill-opacity="1"><g transform="translate(128.484793, 194.62543)"><g><path d="M 1.390625 0 L 7.3125 0 L 7.3125 -1.109375 L 2.578125 -1.109375 L 2.578125 -4.296875 L 6.828125 -4.296875 L 6.828125 -5.390625 L 2.578125 -5.390625 L 2.578125 -8.40625 L 7.15625 -8.40625 L 7.15625 -9.515625 L 1.390625 -9.515625 Z M 1.390625 0 "/></g></g></g><g fill="#000000" fill-opacity="1"><g transform="translate(136.674279, 194.62543)"><g><path d="M 5.59375 0.171875 C 7.90625 0.171875 9.78125 -1.21875 10.359375 -3.34375 L 9.09375 -3.34375 C 8.609375 -1.921875 7.265625 -1.015625 5.640625 -1.015625 C 3.515625 -1.015625 2.015625 -2.5625 2.015625 -4.75 C 2.015625 -6.953125 3.515625 -8.5 5.640625 -8.5 C 7.21875 -8.5 8.515625 -7.65625 9 -6.28125 L 10.28125 -6.28125 C 9.65625 -8.375 7.84375 -9.6875 5.59375 -9.6875 C 2.796875 -9.6875 0.78125 -7.625 0.78125 -4.75 C 0.78125 -1.890625 2.796875 0.171875 5.59375 0.171875 Z M 5.59375 0.171875 "/></g></g></g><g fill="#000000" fill-opacity="1"><g transform="translate(147.756561, 194.62543)"><g><path d="M 7.625 0 L 8.828125 0 L 8.828125 -9.515625 L 7.625 -9.515625 L 7.625 -5.421875 L 2.578125 -5.421875 L 2.578125 -9.515625 L 1.390625 -9.515625 L 1.390625 0 L 2.578125 0 L 2.578125 -4.28125 L 7.625 -4.28125 Z M 7.625 0 "/></g></g></g><g fill="#000000" fill-opacity="1"><g transform="translate(157.95607, 194.62543)"><g><path d="M 1.390625 0 L 2.5625 0 L 2.5625 -7.453125 L 7.828125 0 L 8.9375 0 L 8.9375 -9.515625 L 7.78125 -9.515625 L 7.78125 -2.0625 L 2.515625 -9.515625 L 1.390625 -9.515625 Z M 1.390625 0 "/></g></g></g><g fill="#000000" fill-opacity="1"><g transform="translate(168.277811, 194.62543)"><g><path d="M 5.703125 0.171875 C 8.609375 0.171875 10.640625 -1.859375 10.640625 -4.75 C 10.640625 -7.65625 8.609375 -9.6875 5.703125 -9.6875 C 2.8125 -9.6875 0.78125 -7.65625 0.78125 -4.75 C 0.78125 -1.859375 2.8125 0.171875 5.703125 0.171875 Z M 2.015625 -4.75 C 2.015625 -6.96875 3.515625 -8.5 5.703125 -8.5 C 7.890625 -8.5 9.40625 -6.96875 9.40625 -4.75 C 9.40625 -2.546875 7.890625 -1.015625 5.703125 -1.015625 C 3.515625 -1.015625 2.015625 -2.546875 2.015625 -4.75 Z M 2.015625 -4.75 "/></g></g></g><g fill="#000000" fill-opacity="1"><g transform="translate(179.686041, 194.62543)"><g><path d="M 1.390625 0 L 7.203125 0 L 7.203125 -1.140625 L 2.578125 -1.140625 L 2.578125 -9.515625 L 1.390625 -9.515625 Z M 1.390625 0 "/></g></g></g><g fill="#000000" fill-opacity="1"><g transform="translate(187.305114, 194.62543)"><g><path d="M 5.703125 0.171875 C 8.609375 0.171875 10.640625 -1.859375 10.640625 -4.75 C 10.640625 -7.65625 8.609375 -9.6875 5.703125 -9.6875 C 2.8125 -9.6875 0.78125 -7.65625 0.78125 -4.75 C 0.78125 -1.859375 2.8125 0.171875 5.703125 0.171875 Z M 2.015625 -4.75 C 2.015625 -6.96875 3.515625 -8.5 5.703125 -8.5 C 7.890625 -8.5 9.40625 -6.96875 9.40625 -4.75 C 9.40625 -2.546875 7.890625 -1.015625 5.703125 -1.015625 C 3.515625 -1.015625 2.015625 -2.546875 2.015625 -4.75 Z M 2.015625 -4.75 "/></g></g></g><g fill="#000000" fill-opacity="1"><g transform="translate(198.713344, 194.62543)"><g><path d="M 5.625 0.171875 C 8.546875 0.171875 10.515625 -2.03125 10.46875 -5.171875 L 5.296875 -5.171875 L 5.296875 -4.03125 L 9.171875 -4.03125 C 8.9375 -2.234375 7.578125 -1.015625 5.65625 -1.015625 C 3.515625 -1.015625 2.015625 -2.5625 2.015625 -4.75 C 2.015625 -6.953125 3.5 -8.5 5.640625 -8.5 C 7.109375 -8.5 8.28125 -7.78125 8.875 -6.546875 L 10.1875 -6.546875 C 9.5625 -8.421875 7.78125 -9.6875 5.59375 -9.6875 C 2.8125 -9.6875 0.78125 -7.609375 0.78125 -4.75 C 0.78125 -1.890625 2.828125 0.171875 5.625 0.171875 Z M 5.625 0.171875 "/></g></g></g><g fill="#000000" fill-opacity="1"><g transform="translate(209.917858, 194.62543)"><g><path d="M 3.8125 0 L 4.96875 0 L 4.96875 -3.421875 L 8.546875 -9.515625 L 7.203125 -9.515625 L 4.40625 -4.703125 L 3.171875 -6.84375 L 1.625 -9.515625 L 0.234375 -9.515625 L 3.8125 -3.421875 Z M 3.8125 0 "/></g></g></g></svg>