<svg xmlns="http://www.w3.org/2000/svg" xmlns:xlink="http://www.w3.org/1999/xlink" width="500" zoomAndPan="magnify" viewBox="0 0 375 374.999991" height="500" preserveAspectRatio="xMidYMid meet" version="1.0"><defs><g/><clipPath id="6e30fb6d8d"><path d="M 49.339844 232.816406 L 325.339844 232.816406 L 325.339844 337.816406 L 49.339844 337.816406 Z M 49.339844 232.816406 " clip-rule="nonzero"/></clipPath></defs><rect x="-37.5" width="450" fill="#ffffff" y="-37.499999" height="449.999989" fill-opacity="1"/><rect x="-37.5" width="450" fill="#000000" y="-37.499999" height="449.999989" fill-opacity="1"/><g clip-path="url(#6e30fb6d8d)"><path fill="#ffffff" d="M 51.359375 196.96875 C 52.554688 196.96875 53.527344 197.9375 53.527344 199.136719 C 53.527344 273.085938 113.472656 333.035156 187.425781 333.035156 C 261.375 333.035156 321.320312 273.085938 321.320312 199.136719 C 321.320312 197.9375 322.292969 196.96875 323.488281 196.96875 C 324.6875 196.96875 325.660156 197.9375 325.660156 199.136719 C 325.660156 275.480469 263.769531 337.371094 187.425781 337.371094 C 111.078125 337.371094 49.191406 275.480469 49.191406 199.136719 C 49.191406 197.9375 50.160156 196.96875 51.359375 196.96875 Z M 51.359375 196.96875 " fill-opacity="1" fill-rule="evenodd"/></g><g fill="#ffffff" fill-opacity="1"><g transform="translate(59.897623, 179.538777)"><g><path d="M 8 -23.421875 C 8.09375 -22.671875 8.097656 -22.019531 8.015625 -21.46875 C 7.929688 -20.925781 7.816406 -20.445312 7.671875 -20.03125 C 7.535156 -19.613281 7.332031 -19.179688 7.0625 -18.734375 C 6.800781 -18.285156 6.507812 -17.863281 6.1875 -17.46875 C 5.863281 -17.082031 5.484375 -16.707031 5.046875 -16.34375 C 4.304688 -15.664062 3.519531 -15.0625 2.6875 -14.53125 C 1.863281 -14.007812 0.3125 -13 -1.96875 -11.5 C -4.25 -10 -5.765625 -9.003906 -6.515625 -8.515625 C -7.273438 -8.023438 -7.6875 -7.617188 -7.75 -7.296875 L -8.015625 -7.34375 C -7.867188 -8.320312 -7.789062 -8.976562 -7.78125 -9.3125 C -7.769531 -9.65625 -7.789062 -10.019531 -7.84375 -10.40625 C -7.894531 -10.789062 -7.992188 -11.128906 -8.140625 -11.421875 C -8.640625 -12.515625 -9.632812 -13.175781 -11.125 -13.40625 C -12.363281 -13.59375 -13.394531 -13.46875 -14.21875 -13.03125 C -15.039062 -12.601562 -15.539062 -11.890625 -15.71875 -10.890625 L -16.203125 -7.734375 L -1.078125 -5.40625 C -0.648438 -5.34375 -0.25 -5.441406 0.125 -5.703125 C 0.5 -5.960938 0.71875 -6.320312 0.78125 -6.78125 L 0.828125 -7.09375 L 1.09375 -7.09375 L 0.234375 -1.53125 L -0.015625 -1.5625 L 0.03125 -1.890625 C 0.09375 -2.304688 0 -2.703125 -0.25 -3.078125 C -0.507812 -3.453125 -0.859375 -3.675781 -1.296875 -3.75 L -15.390625 -5.90625 C -15.835938 -5.96875 -16.238281 -5.863281 -16.59375 -5.59375 C -16.945312 -5.332031 -17.160156 -4.984375 -17.234375 -4.546875 L -17.28125 -4.21875 L -17.546875 -4.265625 L -16.5 -11.125 C -16.269531 -12.601562 -15.664062 -13.726562 -14.6875 -14.5 C -13.707031 -15.28125 -12.523438 -15.5625 -11.140625 -15.34375 C -9.765625 -15.132812 -8.644531 -14.539062 -7.78125 -13.5625 C -6.925781 -12.582031 -6.585938 -11.488281 -6.765625 -10.28125 C -6.765625 -10.28125 -6.765625 -10.273438 -6.765625 -10.265625 C -6.078125 -10.753906 -5.265625 -11.296875 -4.328125 -11.890625 C -0.648438 -14.328125 1.660156 -15.894531 2.609375 -16.59375 C 3.566406 -17.300781 4.363281 -17.925781 5 -18.46875 C 5.632812 -19.019531 6.117188 -19.53125 6.453125 -20 C 7.140625 -20.914062 7.554688 -21.859375 7.703125 -22.828125 C 7.734375 -23.035156 7.75 -23.242188 7.75 -23.453125 Z M 8 -23.421875 "/></g></g></g><g fill="#ffffff" fill-opacity="1"><g transform="translate(62.219526, 163.75685)"><g><path d="M -17.25 -8.203125 C -17.375 -9.398438 -17.296875 -10.488281 -17.015625 -11.46875 C -16.773438 -12.300781 -16.226562 -13.0625 -15.375 -13.75 C -14.90625 -14.125 -14.109375 -14.472656 -12.984375 -14.796875 C -12.203125 -15.003906 -10.863281 -15.160156 -8.96875 -15.265625 L 0.4375 -15.796875 C 2.550781 -15.929688 4.273438 -16.191406 5.609375 -16.578125 C 6.941406 -16.972656 7.976562 -17.378906 8.71875 -17.796875 C 9.457031 -18.222656 10.035156 -18.722656 10.453125 -19.296875 C 10.867188 -19.867188 11.132812 -20.363281 11.25 -20.78125 C 11.375 -21.207031 11.453125 -21.59375 11.484375 -21.9375 L 11.734375 -21.90625 C 11.773438 -21.03125 11.6875 -20.210938 11.46875 -19.453125 C 11.25 -18.691406 10.832031 -17.988281 10.21875 -17.34375 C 9.601562 -16.707031 8.859375 -16.160156 7.984375 -15.703125 C 6.140625 -14.710938 3.613281 -14.148438 0.40625 -14.015625 L -2.703125 -13.859375 L -4.65625 -7.109375 L -0.75 -4.109375 C -0.570312 -3.984375 -0.382812 -3.890625 -0.1875 -3.828125 C 0 -3.773438 0.226562 -3.800781 0.5 -3.90625 C 0.78125 -4.007812 0.976562 -4.242188 1.09375 -4.609375 L 1.140625 -4.796875 L 1.375 -4.734375 L -0.0625 0.203125 L -0.296875 0.140625 L -0.234375 -0.0625 C -0.117188 -0.457031 -0.125 -0.878906 -0.25 -1.328125 C -0.382812 -1.773438 -0.660156 -2.191406 -1.078125 -2.578125 L -13.9375 -12.953125 C -15.46875 -12.441406 -16.425781 -11.53125 -16.8125 -10.21875 C -16.976562 -9.613281 -17.035156 -8.941406 -16.984375 -8.203125 Z M -5.3125 -7.59375 L -3.5 -13.84375 L -9.796875 -13.5625 C -11.015625 -13.488281 -11.988281 -13.394531 -12.71875 -13.28125 Z M -5.3125 -7.59375 "/></g></g></g><g fill="#ffffff" fill-opacity="1"><g transform="translate(67.126017, 146.951964)"><g><path d="M -18.25 -6.796875 C -18.207031 -6.910156 -18.125 -7.109375 -18 -7.390625 C -17.875 -7.679688 -17.65625 -8.046875 -17.34375 -8.484375 C -17.039062 -8.929688 -16.707031 -9.320312 -16.34375 -9.65625 C -15.988281 -10 -15.550781 -10.296875 -15.03125 -10.546875 C -14.519531 -10.804688 -14.054688 -11.007812 -13.640625 -11.15625 C -13.234375 -11.3125 -12.726562 -11.429688 -12.125 -11.515625 C -11.53125 -11.609375 -11.023438 -11.675781 -10.609375 -11.71875 C -10.203125 -11.757812 -9.6875 -11.769531 -9.0625 -11.75 C -8.269531 -11.738281 -7.585938 -11.710938 -7.015625 -11.671875 C -6.453125 -11.628906 -6.140625 -11.601562 -6.078125 -11.59375 C -6.023438 -11.59375 -5.957031 -11.59375 -5.875 -11.59375 C -5.726562 -11.59375 -5.601562 -11.582031 -5.5 -11.5625 C -5.59375 -11.664062 -5.835938 -11.90625 -6.234375 -12.28125 C -6.628906 -12.65625 -6.976562 -13 -7.28125 -13.3125 C -7.59375 -13.625 -8.023438 -14.085938 -8.578125 -14.703125 C -9.140625 -15.316406 -9.5625 -15.84375 -9.84375 -16.28125 C -10.132812 -16.71875 -10.453125 -17.25 -10.796875 -17.875 C -11.140625 -18.507812 -11.363281 -19.097656 -11.46875 -19.640625 C -11.71875 -20.929688 -11.597656 -22.140625 -11.109375 -23.265625 L -10.859375 -23.15625 C -11.234375 -22.28125 -11.15625 -21.179688 -10.625 -19.859375 C -10.101562 -18.546875 -9.328125 -17.28125 -8.296875 -16.0625 C -7.273438 -14.84375 -6.148438 -13.710938 -4.921875 -12.671875 C -3.703125 -11.640625 -2.597656 -10.910156 -1.609375 -10.484375 L 1.859375 -8.984375 C 2.421875 -8.734375 2.953125 -8.789062 3.453125 -9.15625 C 3.691406 -9.332031 3.875 -9.566406 4 -9.859375 L 4.125 -10.125 L 4.359375 -10.03125 L 2.125 -4.90625 L 1.890625 -5 L 2.03125 -5.296875 C 2.195312 -5.691406 2.203125 -6.097656 2.046875 -6.515625 C 1.890625 -6.941406 1.617188 -7.253906 1.234375 -7.453125 L -2.28125 -8.984375 C -3.332031 -9.429688 -4.660156 -9.738281 -6.265625 -9.90625 C -7.867188 -10.082031 -9.472656 -10.109375 -11.078125 -9.984375 C -12.679688 -9.867188 -14.132812 -9.519531 -15.4375 -8.9375 C -16.75 -8.363281 -17.601562 -7.613281 -18 -6.6875 Z M -18.25 -6.796875 "/></g></g></g><g fill="#ffffff" fill-opacity="1"><g transform="translate(73.027681, 133.052292)"><g><path d="M -14.640625 -12.265625 C -14.460938 -13.460938 -14.113281 -14.503906 -13.59375 -15.390625 C -13.144531 -16.128906 -12.421875 -16.726562 -11.421875 -17.1875 C -10.867188 -17.425781 -10.007812 -17.5625 -8.84375 -17.59375 C -8.039062 -17.582031 -6.707031 -17.394531 -4.84375 -17.03125 L 4.40625 -15.171875 C 6.476562 -14.785156 8.207031 -14.609375 9.59375 -14.640625 C 10.976562 -14.679688 12.082031 -14.8125 12.90625 -15.03125 C 13.726562 -15.257812 14.414062 -15.597656 14.96875 -16.046875 C 15.519531 -16.503906 15.90625 -16.921875 16.125 -17.296875 C 16.351562 -17.671875 16.523438 -18.019531 16.640625 -18.34375 L 16.875 -18.25 C 16.6875 -17.394531 16.390625 -16.628906 15.984375 -15.953125 C 15.585938 -15.273438 15.007812 -14.703125 14.25 -14.234375 C 13.5 -13.765625 12.640625 -13.421875 11.671875 -13.203125 C 9.648438 -12.703125 7.066406 -12.785156 3.921875 -13.453125 L 0.875 -14.09375 L -2.71875 -8.046875 L 0.3125 -4.171875 C 0.445312 -3.992188 0.601562 -3.851562 0.78125 -3.75 C 0.957031 -3.644531 1.191406 -3.609375 1.484375 -3.640625 C 1.773438 -3.679688 2.015625 -3.863281 2.203125 -4.1875 L 2.3125 -4.375 L 2.53125 -4.25 L -0.109375 0.1875 L -0.328125 0.0625 L -0.21875 -0.125 C -0.0078125 -0.476562 0.0859375 -0.890625 0.078125 -1.359375 C 0.0664062 -1.828125 -0.0820312 -2.296875 -0.375 -2.765625 L -10.234375 -16.046875 C -11.835938 -15.921875 -12.988281 -15.273438 -13.6875 -14.109375 C -14.007812 -13.566406 -14.238281 -12.9375 -14.375 -12.21875 Z M -3.234375 -8.6875 L 0.09375 -14.265625 L -6.078125 -15.578125 C -7.273438 -15.828125 -8.238281 -15.984375 -8.96875 -16.046875 Z M -3.234375 -8.6875 "/></g></g></g><g fill="#ffffff" fill-opacity="1"><g transform="translate(81.76297, 117.999839)"><g><path d="M 20.1875 -18.515625 C 19.644531 -17.179688 18.921875 -16.175781 18.015625 -15.5 C 17.046875 -14.8125 16.046875 -14.347656 15.015625 -14.109375 C 13.992188 -13.890625 12.875 -13.742188 11.65625 -13.671875 L -8.53125 -12.6875 L 1.40625 -4.5625 C 1.875 -4.207031 2.382812 -4.132812 2.9375 -4.34375 C 3.207031 -4.425781 3.425781 -4.578125 3.59375 -4.796875 L 3.921875 -5.171875 L 4.109375 -5.015625 L 0.75 -0.921875 L 0.5625 -1.078125 L 0.875 -1.453125 C 1.144531 -1.785156 1.257812 -2.164062 1.21875 -2.59375 C 1.175781 -3.019531 0.976562 -3.375 0.625 -3.65625 L -10.28125 -12.578125 C -10.425781 -12.597656 -10.707031 -12.613281 -11.125 -12.625 C -11.550781 -12.632812 -11.894531 -12.640625 -12.15625 -12.640625 C -12.425781 -12.640625 -12.78125 -12.628906 -13.21875 -12.609375 C -13.664062 -12.585938 -14.046875 -12.550781 -14.359375 -12.5 C -14.671875 -12.445312 -15.039062 -12.375 -15.46875 -12.28125 C -16.09375 -12.132812 -16.65625 -11.890625 -17.15625 -11.546875 C -17.664062 -11.203125 -18.046875 -10.875 -18.296875 -10.5625 C -18.554688 -10.257812 -18.78125 -9.890625 -18.96875 -9.453125 L -19.21875 -9.515625 C -18.957031 -10.367188 -18.585938 -11.09375 -18.109375 -11.6875 C -17.628906 -12.28125 -17.144531 -12.726562 -16.65625 -13.03125 C -16.175781 -13.34375 -15.554688 -13.597656 -14.796875 -13.796875 C -14.035156 -13.992188 -13.375 -14.125 -12.8125 -14.1875 C -12.25 -14.25 -11.546875 -14.296875 -10.703125 -14.328125 L 8.609375 -15.265625 L -1.59375 -23.59375 C -1.945312 -23.863281 -2.332031 -23.972656 -2.75 -23.921875 C -3.175781 -23.867188 -3.523438 -23.679688 -3.796875 -23.359375 L -4.109375 -22.984375 L -4.3125 -23.140625 L -0.953125 -27.234375 L -0.75 -27.078125 L -1.046875 -26.71875 C -1.316406 -26.382812 -1.4375 -26.003906 -1.40625 -25.578125 C -1.375 -25.148438 -1.195312 -24.796875 -0.875 -24.515625 L 10.359375 -15.328125 C 10.617188 -15.335938 10.992188 -15.34375 11.484375 -15.34375 C 11.984375 -15.34375 12.332031 -15.347656 12.53125 -15.359375 C 12.726562 -15.367188 13.019531 -15.378906 13.40625 -15.390625 C 13.789062 -15.398438 14.101562 -15.425781 14.34375 -15.46875 C 14.582031 -15.507812 14.882812 -15.550781 15.25 -15.59375 C 15.613281 -15.632812 15.921875 -15.695312 16.171875 -15.78125 C 16.429688 -15.875 16.726562 -15.972656 17.0625 -16.078125 C 17.507812 -16.253906 17.941406 -16.503906 18.359375 -16.828125 C 18.785156 -17.148438 19.101562 -17.441406 19.3125 -17.703125 C 19.53125 -17.960938 19.726562 -18.265625 19.90625 -18.609375 Z M 20.1875 -18.515625 "/></g></g></g><g fill="#ffffff" fill-opacity="1"><g transform="translate(95.292211, 102.024383)"><g/></g></g><g fill="#ffffff" fill-opacity="1"><g transform="translate(99.633176, 97.709088)"><g/></g></g><g fill="#ffffff" fill-opacity="1"><g transform="translate(103.932754, 93.599828)"><g><path d="M 1.328125 -1.34375 C 1.679688 -1.613281 1.890625 -1.972656 1.953125 -2.421875 C 2.015625 -2.867188 1.910156 -3.269531 1.640625 -3.625 L -7.046875 -14.90625 C -7.316406 -15.257812 -7.675781 -15.460938 -8.125 -15.515625 C -8.570312 -15.566406 -8.972656 -15.457031 -9.328125 -15.1875 L -9.59375 -14.984375 L -9.75 -15.1875 L -5.28125 -18.625 L -5.125 -18.421875 L -5.40625 -18.203125 C -5.882812 -17.835938 -6.085938 -17.34375 -6.015625 -16.71875 C -5.992188 -16.414062 -5.894531 -16.148438 -5.71875 -15.921875 L 3.625 -3.78125 L 6.53125 -6.03125 C 7.539062 -6.800781 8.140625 -7.613281 8.328125 -8.46875 C 8.515625 -9.320312 8.445312 -10.328125 8.125 -11.484375 L 8.3125 -11.640625 L 9.671875 -7.4375 L 1.21875 -0.9375 L 1.0625 -1.140625 Z M 1.328125 -1.34375 "/></g></g></g><g fill="#ffffff" fill-opacity="1"><g transform="translate(114.61664, 85.081806)"><g><path d="M 7.40625 -24.8125 L 7.0625 -24.609375 C 6.75 -24.421875 6.535156 -24.160156 6.421875 -23.828125 C 6.304688 -23.503906 6.320312 -23.191406 6.46875 -22.890625 L 11.59375 -14.09375 C 12.59375 -12.363281 12.859375 -10.644531 12.390625 -8.9375 C 11.921875 -7.238281 10.773438 -5.859375 8.953125 -4.796875 C 7.128906 -3.734375 5.34375 -3.398438 3.59375 -3.796875 C 1.84375 -4.203125 0.46875 -5.269531 -0.53125 -7 L -5.625 -15.75 C -5.882812 -16.195312 -6.265625 -16.40625 -6.765625 -16.375 C -6.992188 -16.363281 -7.21875 -16.296875 -7.4375 -16.171875 L -7.796875 -15.953125 L -7.9375 -16.1875 L -3.421875 -18.8125 L -3.28125 -18.578125 L -3.640625 -18.375 C -3.972656 -18.1875 -4.191406 -17.925781 -4.296875 -17.59375 C -4.398438 -17.269531 -4.375 -16.945312 -4.21875 -16.625 L 0.71875 -8.140625 C 1.65625 -6.523438 2.847656 -5.472656 4.296875 -4.984375 C 5.742188 -4.503906 7.191406 -4.6875 8.640625 -5.53125 C 10.085938 -6.375 10.988281 -7.53125 11.34375 -9 C 11.707031 -10.46875 11.445312 -11.960938 10.5625 -13.484375 L 5.453125 -22.25 C 5.253906 -22.550781 4.988281 -22.734375 4.65625 -22.796875 C 4.320312 -22.867188 3.992188 -22.8125 3.671875 -22.625 L 3.296875 -22.421875 L 3.15625 -22.65625 L 7.265625 -25.046875 Z M 7.40625 -24.8125 "/></g></g></g><g fill="#ffffff" fill-opacity="1"><g transform="translate(131.406374, 75.451644)"><g><path d="M 7.453125 -17.25 C 7.742188 -16.550781 7.875 -15.847656 7.84375 -15.140625 C 7.789062 -13.796875 7.203125 -12.625 6.078125 -11.625 C 5.679688 -11.28125 5.316406 -11.039062 4.984375 -10.90625 C 4.003906 -10.5 3.085938 -10.320312 2.234375 -10.375 L 2.125 -10.609375 C 3.382812 -10.828125 4.398438 -11.398438 5.171875 -12.328125 C 5.847656 -13.140625 6.132812 -14.113281 6.03125 -15.25 C 5.988281 -15.601562 5.90625 -15.921875 5.78125 -16.203125 C 5.664062 -16.484375 5.59375 -16.660156 5.5625 -16.734375 C 5.070312 -17.828125 4.410156 -18.582031 3.578125 -19 C 2.753906 -19.425781 1.84375 -19.425781 0.84375 -19 L -1.875 -17.859375 L 4.0625 -3.734375 C 4.25 -3.328125 4.550781 -3.039062 4.96875 -2.875 C 5.382812 -2.707031 5.796875 -2.707031 6.203125 -2.875 L 6.515625 -3 L 6.609375 -2.765625 L 1.421875 -0.59375 L 1.328125 -0.828125 L 1.640625 -0.953125 C 2.046875 -1.128906 2.332031 -1.425781 2.5 -1.84375 C 2.675781 -2.257812 2.6875 -2.675781 2.53125 -3.09375 L -3.03125 -16.328125 C -3.238281 -16.703125 -3.539062 -16.957031 -3.9375 -17.09375 C -4.332031 -17.238281 -4.722656 -17.226562 -5.109375 -17.0625 L -5.40625 -16.953125 L -5.53125 -17.171875 L 0.65625 -19.765625 C 2.175781 -20.398438 3.539062 -20.492188 4.75 -20.046875 C 5.957031 -19.597656 6.859375 -18.664062 7.453125 -17.25 Z M 7.453125 -17.25 "/></g></g></g><g fill="#ffffff" fill-opacity="1"><g transform="translate(144.212792, 69.764303)"><g><path d="M -0.40625 -16.203125 C 0.914062 -18.335938 2.984375 -19.78125 5.796875 -20.53125 C 8.617188 -21.28125 11.140625 -21.0625 13.359375 -19.875 C 15.578125 -18.6875 17.046875 -16.742188 17.765625 -14.046875 C 18.484375 -11.347656 18.175781 -8.929688 16.84375 -6.796875 C 15.519531 -4.660156 13.445312 -3.21875 10.625 -2.46875 C 7.8125 -1.71875 5.296875 -1.9375 3.078125 -3.125 C 0.867188 -4.3125 -0.59375 -6.253906 -1.3125 -8.953125 C -2.03125 -11.648438 -1.726562 -14.066406 -0.40625 -16.203125 Z M 4.28125 -4 C 6.082031 -2.851562 8.125 -2.582031 10.40625 -3.1875 C 12.695312 -3.800781 14.335938 -5.054688 15.328125 -6.953125 C 16.316406 -8.859375 16.476562 -11.050781 15.8125 -13.53125 C 15.15625 -16.007812 13.925781 -17.820312 12.125 -18.96875 C 10.320312 -20.113281 8.273438 -20.378906 5.984375 -19.765625 C 3.703125 -19.160156 2.066406 -17.910156 1.078125 -16.015625 C 0.0859375 -14.117188 -0.078125 -11.929688 0.578125 -9.453125 C 1.242188 -6.972656 2.476562 -5.15625 4.28125 -4 Z M 4.28125 -4 "/></g></g></g><g fill="#ffffff" fill-opacity="1"><g transform="translate(164.7024, 64.679554)"><g/></g></g><g fill="#ffffff" fill-opacity="1"><g transform="translate(170.748071, 63.722541)"><g/></g></g><g fill="#ffffff" fill-opacity="1"><g transform="translate(176.835596, 63.056742)"><g><path d="M 2.84375 4.453125 L 1.46875 -18.109375 L 2.625 -18.171875 L 4 4.390625 Z M 2.84375 4.453125 "/></g></g></g><g fill="#ffffff" fill-opacity="1"><g transform="translate(182.819563, 62.684359)"><g/></g></g><g fill="#ffffff" fill-opacity="1"><g transform="translate(188.939856, 62.595065)"><g/></g></g><g fill="#ffffff" fill-opacity="1"><g transform="translate(194.879481, 62.613822)"><g><path d="M 1.890625 -0.03125 C 2.335938 0.0078125 2.738281 -0.109375 3.09375 -0.390625 C 3.445312 -0.671875 3.65625 -1.03125 3.71875 -1.46875 L 5.34375 -15.765625 C 5.382812 -16.171875 5.257812 -16.53125 4.96875 -16.84375 C 4.675781 -17.164062 4.304688 -17.347656 3.859375 -17.390625 L 3.546875 -17.4375 L 3.5625 -17.703125 L 11.03125 -16.84375 C 11.5625 -16.789062 12.144531 -16.773438 12.78125 -16.796875 C 13.414062 -16.828125 13.867188 -16.875 14.140625 -16.9375 L 13.765625 -13.734375 L 13.515625 -13.765625 L 13.578125 -14.234375 C 13.617188 -14.628906 13.507812 -14.988281 13.25 -15.3125 C 13 -15.632812 12.6875 -15.832031 12.3125 -15.90625 L 7.109375 -16.484375 L 6.203125 -8.59375 L 10.515625 -8.109375 C 10.859375 -8.078125 11.160156 -8.171875 11.421875 -8.390625 C 11.691406 -8.609375 11.847656 -8.894531 11.890625 -9.25 L 11.9375 -9.609375 L 12.171875 -9.578125 L 11.703125 -5.53125 L 11.46875 -5.5625 L 11.515625 -5.953125 C 11.554688 -6.296875 11.472656 -6.597656 11.265625 -6.859375 C 11.054688 -7.128906 10.785156 -7.296875 10.453125 -7.359375 L 6.109375 -7.84375 L 5.25 -0.203125 L 8.890625 0.203125 C 10.160156 0.347656 11.15625 0.179688 11.875 -0.296875 C 12.601562 -0.785156 13.25 -1.554688 13.8125 -2.609375 L 14.0625 -2.578125 L 12.125 1.375 L 1.53125 0.171875 L 1.5625 -0.078125 Z M 1.890625 -0.03125 "/></g></g></g><g fill="#ffffff" fill-opacity="1"><g transform="translate(208.833772, 63.917685)"><g><path d="M 23.734375 -12.25 C 23.316406 -12.351562 22.921875 -12.296875 22.546875 -12.078125 C 22.179688 -11.867188 21.9375 -11.5625 21.8125 -11.15625 L 18.546875 1.703125 C 18.304688 2.660156 18.132812 3.582031 18.03125 4.46875 L 17.953125 4.9375 L 17.734375 4.875 L 7.84375 -13.0625 L 4.6875 -0.65625 C 4.582031 -0.25 4.644531 0.132812 4.875 0.5 C 5.101562 0.875 5.421875 1.113281 5.828125 1.21875 L 6.3125 1.34375 L 6.25 1.59375 L 1.125 0.28125 L 1.1875 0.03125 L 1.65625 0.15625 C 2.0625 0.257812 2.453125 0.207031 2.828125 0 C 3.203125 -0.21875 3.445312 -0.539062 3.5625 -0.96875 L 6.84375 -13.890625 C 7.101562 -14.898438 7.273438 -15.820312 7.359375 -16.65625 L 7.421875 -17.0625 L 7.671875 -17 L 17.546875 0.9375 L 20.6875 -11.40625 C 20.769531 -11.851562 20.695312 -12.253906 20.46875 -12.609375 C 20.25 -12.972656 19.929688 -13.207031 19.515625 -13.3125 L 19.046875 -13.4375 L 19.125 -13.703125 L 24.265625 -12.390625 L 24.1875 -12.125 Z M 23.734375 -12.25 "/></g></g></g><g fill="#ffffff" fill-opacity="1"><g transform="translate(228.860207, 68.976191)"><g><path d="M 9.75 4.578125 C 7.238281 3.472656 5.535156 1.800781 4.640625 -0.4375 C 3.753906 -2.675781 3.863281 -5.078125 4.96875 -7.640625 C 6.070312 -10.210938 7.742188 -11.953125 9.984375 -12.859375 C 12.222656 -13.773438 14.601562 -13.691406 17.125 -12.609375 C 19.300781 -11.679688 20.984375 -10.328125 22.171875 -8.546875 L 21.203125 -5.015625 L 20.984375 -5.109375 C 21.234375 -6.609375 20.992188 -7.945312 20.265625 -9.125 C 19.535156 -10.300781 18.390625 -11.222656 16.828125 -11.890625 C 14.828125 -12.753906 12.894531 -12.722656 11.03125 -11.796875 C 9.175781 -10.878906 7.742188 -9.238281 6.734375 -6.875 C 5.722656 -4.519531 5.523438 -2.359375 6.140625 -0.390625 C 6.753906 1.566406 8.054688 2.988281 10.046875 3.875 C 11.066406 4.3125 12.113281 4.546875 13.1875 4.578125 C 14.269531 4.609375 15.296875 4.453125 16.265625 4.109375 L 18.0625 -0.078125 C 18.207031 -0.421875 18.210938 -0.726562 18.078125 -1 C 17.953125 -1.269531 17.703125 -1.484375 17.328125 -1.640625 L 16.9375 -1.8125 L 17.03125 -2.046875 L 21.65625 -0.0625 L 21.5625 0.171875 L 21.21875 0.015625 C 20.820312 -0.148438 20.484375 -0.1875 20.203125 -0.09375 C 19.921875 0 19.710938 0.222656 19.578125 0.578125 L 17.90625 4.46875 C 17.257812 4.832031 16.5625 5.101562 15.8125 5.28125 C 15.0625 5.46875 14.144531 5.515625 13.0625 5.421875 C 11.976562 5.335938 10.875 5.054688 9.75 4.578125 Z M 9.75 4.578125 "/></g></g></g><g fill="#ffffff" fill-opacity="1"><g transform="translate(246.892211, 76.863963)"><g><path d="M 1.734375 0.734375 C 2.117188 0.960938 2.523438 1.023438 2.953125 0.921875 C 3.390625 0.816406 3.726562 0.570312 3.96875 0.1875 L 11.34375 -12.171875 C 11.550781 -12.523438 11.585938 -12.90625 11.453125 -13.3125 C 11.316406 -13.71875 11.054688 -14.035156 10.671875 -14.265625 L 10.40625 -14.421875 L 10.53125 -14.65625 L 16.984375 -10.8125 C 17.441406 -10.539062 17.960938 -10.289062 18.546875 -10.0625 C 19.140625 -9.832031 19.578125 -9.691406 19.859375 -9.640625 L 18.203125 -6.859375 L 17.984375 -6.984375 L 18.21875 -7.390625 C 18.425781 -7.734375 18.484375 -8.101562 18.390625 -8.5 C 18.296875 -8.894531 18.082031 -9.207031 17.75 -9.4375 L 13.25 -12.109375 L 9.1875 -5.296875 L 12.921875 -3.078125 C 13.210938 -2.910156 13.523438 -2.867188 13.859375 -2.953125 C 14.191406 -3.046875 14.453125 -3.242188 14.640625 -3.546875 L 14.828125 -3.859375 L 15.046875 -3.71875 L 12.96875 -0.21875 L 12.75 -0.359375 L 12.9375 -0.703125 C 13.113281 -0.992188 13.160156 -1.300781 13.078125 -1.625 C 13.003906 -1.957031 12.832031 -2.21875 12.5625 -2.40625 L 8.796875 -4.640625 L 4.859375 1.96875 L 8.015625 3.84375 C 9.109375 4.488281 10.082031 4.738281 10.9375 4.59375 C 11.800781 4.457031 12.710938 4.023438 13.671875 3.296875 L 13.890625 3.421875 L 10.484375 6.25 L 1.328125 0.796875 L 1.453125 0.578125 Z M 1.734375 0.734375 "/></g></g></g><g fill="#ffffff" fill-opacity="1"><g transform="translate(259.076865, 83.790065)"><g><path d="M 26.65625 -1.40625 C 26.320312 -1.675781 25.941406 -1.785156 25.515625 -1.734375 C 25.097656 -1.691406 24.75 -1.515625 24.46875 -1.203125 L 16.203125 9.171875 C 15.585938 9.941406 15.050781 10.71875 14.59375 11.5 L 14.34375 11.890625 L 14.171875 11.734375 L 12.53125 -8.6875 L 4.5625 1.328125 C 4.289062 1.660156 4.179688 2.039062 4.234375 2.46875 C 4.285156 2.894531 4.476562 3.238281 4.8125 3.5 L 5.203125 3.8125 L 5.046875 4.015625 L 0.90625 0.71875 L 1.0625 0.515625 L 1.4375 0.8125 C 1.769531 1.082031 2.148438 1.195312 2.578125 1.15625 C 3.003906 1.113281 3.359375 0.914062 3.640625 0.5625 L 11.9375 -9.859375 C 12.59375 -10.671875 13.132812 -11.4375 13.5625 -12.15625 L 13.765625 -12.5 L 13.96875 -12.34375 L 15.609375 8.0625 L 23.546875 -1.90625 C 23.804688 -2.257812 23.90625 -2.648438 23.84375 -3.078125 C 23.789062 -3.503906 23.597656 -3.847656 23.265625 -4.109375 L 22.890625 -4.421875 L 23.0625 -4.625 L 27.203125 -1.328125 L 27.03125 -1.125 Z M 26.65625 -1.40625 "/></g></g></g><g fill="#ffffff" fill-opacity="1"><g transform="translate(275.20863, 96.854857)"><g><path d="M 1.484375 1.1875 C 1.796875 1.507812 2.175781 1.675781 2.625 1.6875 C 3.070312 1.695312 3.457031 1.550781 3.78125 1.25 L 14.1875 -8.6875 C 14.476562 -8.96875 14.613281 -9.320312 14.59375 -9.75 C 14.582031 -10.175781 14.421875 -10.550781 14.109375 -10.875 L 13.890625 -11.109375 L 14.0625 -11.296875 L 19.265625 -5.875 C 19.628906 -5.488281 20.066406 -5.101562 20.578125 -4.71875 C 21.085938 -4.34375 21.460938 -4.09375 21.703125 -3.96875 L 19.359375 -1.734375 L 19.1875 -1.921875 L 19.53125 -2.25 C 19.820312 -2.53125 19.972656 -2.875 19.984375 -3.28125 C 20.003906 -3.6875 19.882812 -4.039062 19.625 -4.34375 L 16 -8.125 L 10.265625 -2.640625 L 13.265625 0.5 C 13.515625 0.738281 13.8125 0.859375 14.15625 0.859375 C 14.5 0.867188 14.796875 0.75 15.046875 0.5 L 15.3125 0.25 L 15.484375 0.4375 L 12.546875 3.25 L 12.375 3.0625 L 12.65625 2.796875 C 12.90625 2.554688 13.035156 2.269531 13.046875 1.9375 C 13.054688 1.601562 12.957031 1.304688 12.75 1.046875 L 9.71875 -2.109375 L 4.15625 3.203125 L 6.703125 5.859375 C 7.578125 6.773438 8.445312 7.28125 9.3125 7.375 C 10.175781 7.46875 11.164062 7.289062 12.28125 6.84375 L 12.453125 7.015625 L 8.4375 8.828125 L 1.0625 1.125 L 1.25 0.953125 Z M 1.484375 1.1875 "/></g></g></g><g fill="#ffffff" fill-opacity="1"><g transform="translate(285.005468, 107.051657)"><g><path d="M 1.34375 1.328125 C 1.613281 1.691406 1.96875 1.898438 2.40625 1.953125 C 2.851562 2.015625 3.257812 1.914062 3.625 1.65625 L 15.0625 -7.078125 C 15.382812 -7.328125 15.554688 -7.660156 15.578125 -8.078125 C 15.609375 -8.503906 15.488281 -8.898438 15.21875 -9.265625 L 15.03125 -9.515625 L 15.234375 -9.6875 L 19.796875 -3.71875 C 20.117188 -3.300781 20.507812 -2.875 20.96875 -2.4375 C 21.425781 -2 21.773438 -1.703125 22.015625 -1.546875 L 19.4375 0.40625 L 19.28125 0.203125 L 19.65625 -0.078125 C 19.976562 -0.328125 20.164062 -0.65625 20.21875 -1.0625 C 20.28125 -1.46875 20.203125 -1.832031 19.984375 -2.15625 L 16.8125 -6.3125 L 10.5 -1.484375 L 13.125 1.96875 C 13.34375 2.226562 13.625 2.375 13.96875 2.40625 C 14.3125 2.445312 14.625 2.363281 14.90625 2.15625 L 15.1875 1.9375 L 15.34375 2.140625 L 12.109375 4.609375 L 11.953125 4.40625 L 12.265625 4.171875 C 12.535156 3.953125 12.695312 3.679688 12.75 3.359375 C 12.800781 3.035156 12.734375 2.726562 12.546875 2.4375 L 9.890625 -1.03125 L 3.796875 3.640625 L 6.015625 6.5625 C 6.785156 7.5625 7.59375 8.15625 8.4375 8.34375 C 9.289062 8.53125 10.296875 8.46875 11.453125 8.15625 L 11.609375 8.359375 L 7.40625 9.703125 L 0.9375 1.234375 L 1.140625 1.078125 Z M 1.34375 1.328125 "/></g></g></g><g fill="#ffffff" fill-opacity="1"><g transform="translate(293.654822, 118.176174)"><g><path d="M 18.28125 -2.859375 L 17.453125 -4.265625 L 4.25 3.515625 C 3.863281 3.742188 3.613281 4.078125 3.5 4.515625 C 3.394531 4.953125 3.457031 5.363281 3.6875 5.75 L 3.84375 6.03125 L 3.640625 6.171875 L 0.78125 1.328125 L 1 1.203125 L 1.171875 1.484375 C 1.398438 1.867188 1.726562 2.117188 2.15625 2.234375 C 2.582031 2.347656 2.988281 2.300781 3.375 2.09375 L 15.65625 -5.140625 C 16.039062 -5.378906 16.285156 -5.71875 16.390625 -6.15625 C 16.503906 -6.59375 16.445312 -7.003906 16.21875 -7.390625 L 16.046875 -7.671875 L 16.28125 -7.796875 L 19.8125 -1.8125 C 20.59375 -0.476562 20.835938 0.785156 20.546875 1.984375 C 20.253906 3.191406 19.507812 4.144531 18.3125 4.84375 C 17.125 5.539062 15.882812 5.78125 14.59375 5.5625 C 13.300781 5.34375 12.351562 4.710938 11.75 3.671875 C 11.769531 3.953125 11.71875 4.332031 11.59375 4.8125 C 11.46875 5.289062 11.3125 5.742188 11.125 6.171875 C 10.050781 8.503906 9.421875 9.988281 9.234375 10.625 C 9.046875 11.257812 8.921875 11.703125 8.859375 11.953125 C 8.796875 12.203125 8.742188 12.46875 8.703125 12.75 C 8.671875 13.03125 8.664062 13.289062 8.6875 13.53125 C 8.738281 14.09375 8.90625 14.613281 9.1875 15.09375 L 8.96875 15.21875 L 8.265625 14.015625 C 7.890625 13.378906 7.65625 12.71875 7.5625 12.03125 C 7.46875 11.351562 7.457031 10.804688 7.53125 10.390625 C 7.613281 9.972656 7.707031 9.597656 7.8125 9.265625 C 7.925781 8.929688 8.367188 7.929688 9.140625 6.265625 C 9.921875 4.609375 10.359375 3.648438 10.453125 3.390625 C 10.554688 3.128906 10.644531 2.867188 10.71875 2.609375 C 10.9375 1.835938 10.90625 1.21875 10.625 0.75 L 10.859375 0.609375 C 10.910156 0.734375 10.988281 0.890625 11.09375 1.078125 C 11.207031 1.273438 11.359375 1.503906 11.546875 1.765625 C 12.671875 3.566406 14.117188 4.269531 15.890625 3.875 C 16.242188 3.789062 16.546875 3.675781 16.796875 3.53125 C 17.054688 3.382812 17.222656 3.285156 17.296875 3.234375 C 18.253906 2.628906 18.894531 1.898438 19.21875 1.046875 C 19.539062 0.203125 19.476562 -0.640625 19.03125 -1.484375 C 18.84375 -1.867188 18.59375 -2.328125 18.28125 -2.859375 Z M 18.28125 -2.859375 "/></g></g></g><g fill="#ffffff" fill-opacity="1"><g transform="translate(302.01634, 132.720128)"><g><path d="M 1.03125 1.59375 C 1.21875 2 1.519531 2.28125 1.9375 2.4375 C 2.363281 2.59375 2.78125 2.578125 3.1875 2.390625 L 16.109375 -3.609375 C 16.515625 -3.816406 16.785156 -4.125 16.921875 -4.53125 C 17.066406 -4.945312 17.046875 -5.359375 16.859375 -5.765625 L 16.71875 -6.0625 L 16.96875 -6.1875 L 19.34375 -1.09375 L 19.09375 -0.96875 L 18.9375 -1.28125 C 18.757812 -1.675781 18.460938 -1.953125 18.046875 -2.109375 C 17.640625 -2.273438 17.226562 -2.269531 16.8125 -2.09375 L 3.890625 3.90625 C 3.484375 4.101562 3.207031 4.414062 3.0625 4.84375 C 2.914062 5.269531 2.929688 5.679688 3.109375 6.078125 L 3.265625 6.390625 L 3.03125 6.5 L 0.65625 1.40625 L 0.890625 1.296875 Z M 1.03125 1.59375 "/></g></g></g><g fill="#ffffff" fill-opacity="1"><g transform="translate(305.759587, 139.815605)"><g><path d="M 23.140625 13.328125 C 23.003906 12.921875 22.742188 12.617188 22.359375 12.421875 C 21.984375 12.222656 21.585938 12.179688 21.171875 12.296875 L 8.59375 16.515625 C 7.65625 16.828125 6.789062 17.1875 6 17.59375 L 5.5625 17.765625 L 5.484375 17.546875 L 15.234375 -0.46875 L 3.09375 3.59375 C 2.6875 3.726562 2.390625 3.988281 2.203125 4.375 C 2.015625 4.757812 1.988281 5.15625 2.125 5.5625 L 2.28125 6.046875 L 2.046875 6.125 L 0.359375 1.09375 L 0.59375 1.015625 L 0.75 1.484375 C 0.882812 1.878906 1.144531 2.175781 1.53125 2.375 C 1.914062 2.570312 2.320312 2.597656 2.75 2.453125 L 15.390625 -1.78125 C 16.378906 -2.113281 17.25 -2.460938 18 -2.828125 L 18.359375 -3 L 18.4375 -2.765625 L 8.71875 15.265625 L 20.796875 11.21875 C 21.203125 11.050781 21.5 10.773438 21.6875 10.390625 C 21.875 10.003906 21.898438 9.609375 21.765625 9.203125 L 21.609375 8.75 L 21.875 8.671875 L 23.546875 13.6875 L 23.28125 13.765625 Z M 23.140625 13.328125 "/></g></g></g><g fill="#ffffff" fill-opacity="1"><g transform="translate(312.345886, 159.390061)"><g><path d="M 1.421875 10.671875 C 0.984375 7.960938 1.46875 5.628906 2.875 3.671875 C 4.28125 1.710938 6.359375 0.503906 9.109375 0.046875 C 11.859375 -0.410156 14.222656 0.0507812 16.203125 1.4375 C 18.191406 2.832031 19.414062 4.878906 19.875 7.578125 C 20.269531 9.910156 20.035156 12.054688 19.171875 14.015625 L 15.6875 15.140625 L 15.65625 14.90625 C 17.050781 14.28125 18.039062 13.34375 18.625 12.09375 C 19.21875 10.84375 19.375 9.378906 19.09375 7.703125 C 18.726562 5.554688 17.660156 3.953125 15.890625 2.890625 C 14.128906 1.828125 11.976562 1.507812 9.4375 1.9375 C 6.90625 2.363281 4.976562 3.363281 3.65625 4.9375 C 2.332031 6.519531 1.84375 8.390625 2.1875 10.546875 C 2.375 11.648438 2.742188 12.660156 3.296875 13.578125 C 3.847656 14.492188 4.53125 15.265625 5.34375 15.890625 L 9.828125 15.140625 C 10.191406 15.078125 10.453125 14.914062 10.609375 14.65625 C 10.773438 14.40625 10.828125 14.082031 10.765625 13.6875 L 10.6875 13.265625 L 10.9375 13.21875 L 11.765625 18.171875 L 11.515625 18.21875 L 11.46875 17.859375 C 11.394531 17.429688 11.238281 17.125 11 16.9375 C 10.769531 16.75 10.472656 16.695312 10.109375 16.78125 L 5.921875 17.484375 C 5.273438 17.140625 4.671875 16.695312 4.109375 16.15625 C 3.546875 15.625 3.003906 14.878906 2.484375 13.921875 C 1.972656 12.960938 1.617188 11.878906 1.421875 10.671875 Z M 1.421875 10.671875 "/></g></g></g><g fill="#ffffff" fill-opacity="1"><g transform="translate(174.22427, 267.400561)"><g><path d="M 33 2.515625 C 51.75 9.023438 65.8125 13.445312 75.1875 15.78125 C 84.5625 18.113281 92.613281 19.28125 99.34375 19.28125 C 106.082031 19.28125 113.5 17.738281 121.59375 14.65625 L 122.265625 15.71875 C 111.523438 23.101562 100.695312 26.796875 89.78125 26.796875 C 78.601562 26.796875 65.882812 23.320312 51.625 16.375 C 40.625 10.914062 33.800781 7.613281 31.15625 6.46875 C 21.738281 2.238281 13.992188 0.0820312 7.921875 0 L 7.921875 -1.3125 L 9.640625 -1.3125 C 11.929688 -1.3125 13.890625 -2.101562 15.515625 -3.6875 C 17.140625 -5.28125 18 -7.265625 18.09375 -9.640625 L 18.09375 -82.78125 C 18 -85.070312 17.140625 -87.03125 15.515625 -88.65625 C 13.890625 -90.28125 11.929688 -91.09375 9.640625 -91.09375 L 7.921875 -91.09375 L 7.921875 -92.421875 L 36.84375 -92.421875 L 36.84375 -91.09375 L 35.125 -91.09375 C 32.832031 -91.09375 30.847656 -90.28125 29.171875 -88.65625 C 27.503906 -87.03125 26.671875 -85.070312 26.671875 -82.78125 L 26.671875 -6.59375 C 26.671875 -5.007812 26.757812 -3.800781 26.9375 -2.96875 C 27.113281 -2.132812 27.6875 -1.1875 28.65625 -0.125 C 29.625 0.925781 31.070312 1.804688 33 2.515625 Z M 33 2.515625 "/></g></g></g><g fill="#ffffff" fill-opacity="1"><g transform="translate(106.962363, 206.132815)"><g><path d="M 125.171875 22.4375 C 121.472656 23.40625 118.191406 23.890625 115.328125 23.890625 C 112.460938 23.890625 109.929688 23.710938 107.734375 23.359375 C 105.535156 23.015625 103.179688 22.332031 100.671875 21.3125 C 98.160156 20.300781 95.804688 19.132812 93.609375 17.8125 C 91.410156 16.5 89.210938 14.875 87.015625 12.9375 C 82.960938 9.675781 79.285156 6.15625 75.984375 2.375 C 72.679688 -1.40625 66.320312 -8.507812 56.90625 -18.9375 C 47.488281 -29.375 41.238281 -36.304688 38.15625 -39.734375 C 35.070312 -43.171875 32.695312 -44.976562 31.03125 -45.15625 L 31.03125 -46.46875 C 36.132812 -46.46875 39.539062 -46.578125 41.25 -46.796875 C 42.96875 -47.023438 44.796875 -47.421875 46.734375 -47.984375 C 48.671875 -48.554688 50.300781 -49.328125 51.625 -50.296875 C 56.8125 -53.648438 59.40625 -59.195312 59.40625 -66.9375 C 59.40625 -73.363281 57.972656 -78.515625 55.109375 -82.390625 C 52.253906 -86.265625 48.234375 -88.242188 43.046875 -88.328125 L 26.671875 -88.328125 L 26.671875 -9.640625 C 26.671875 -7.441406 27.484375 -5.503906 29.109375 -3.828125 C 30.742188 -2.148438 32.75 -1.3125 35.125 -1.3125 L 36.703125 -1.3125 L 36.84375 0 L 7.921875 0 L 7.921875 -1.3125 L 9.640625 -1.3125 C 11.835938 -1.3125 13.769531 -2.101562 15.4375 -3.6875 C 17.113281 -5.28125 18 -7.21875 18.09375 -9.5 L 18.09375 -82.78125 C 18 -85.070312 17.140625 -87.03125 15.515625 -88.65625 C 13.890625 -90.28125 11.929688 -91.09375 9.640625 -91.09375 L 7.921875 -91.09375 L 7.921875 -92.421875 L 43.5625 -92.421875 C 51.3125 -92.421875 57.539062 -90.238281 62.25 -85.875 C 66.957031 -81.519531 69.3125 -75.753906 69.3125 -68.578125 C 69.3125 -61.410156 67.15625 -55.25 62.84375 -50.09375 C 58.53125 -44.945312 53.25 -42.375 47 -42.375 C 47 -42.375 46.957031 -42.375 46.875 -42.375 C 49.863281 -39.207031 53.25 -35.515625 57.03125 -31.296875 C 72.257812 -14.484375 82.03125 -3.921875 86.34375 0.390625 C 90.65625 4.703125 94.460938 8.242188 97.765625 11.015625 C 101.066406 13.796875 103.992188 15.84375 106.546875 17.15625 C 111.742188 19.976562 116.894531 21.390625 122 21.390625 C 123.050781 21.390625 124.109375 21.300781 125.171875 21.125 Z M 125.171875 22.4375 "/></g></g></g></svg>