<svg xmlns="http://www.w3.org/2000/svg" xmlns:xlink="http://www.w3.org/1999/xlink" width="300" zoomAndPan="magnify" viewBox="0 0 224.87999 74.999997" height="100" preserveAspectRatio="xMidYMid meet" version="1.0"><defs><g/><clipPath id="573f02be0e"><path d="M 33.324219 15.632812 L 58.8125 15.632812 L 58.8125 47 L 33.324219 47 Z M 33.324219 15.632812 " clip-rule="nonzero"/></clipPath><clipPath id="2b940a65e0"><path d="M 40 47 L 53 47 L 53 59.109375 L 40 59.109375 Z M 40 47 " clip-rule="nonzero"/></clipPath></defs><g clip-path="url(#573f02be0e)"><path fill="#24285b" d="M 56.851562 25.878906 C 57.058594 26.011719 57.304688 26.089844 57.570312 26.089844 C 58.304688 26.089844 58.898438 25.496094 58.898438 24.761719 C 58.898438 24.027344 58.304688 23.433594 57.570312 23.433594 C 56.835938 23.433594 56.242188 24.027344 56.242188 24.761719 C 56.242188 24.898438 56.261719 25.03125 56.300781 25.15625 L 54.113281 27.148438 C 54.019531 27.234375 53.964844 27.355469 53.964844 27.484375 L 53.964844 29.425781 L 52.101562 27.011719 L 52.101562 24.679688 L 54.109375 22.835938 C 54.285156 22.921875 54.484375 22.972656 54.691406 22.972656 C 55.425781 22.972656 56.023438 22.375 56.023438 21.644531 C 56.023438 20.910156 55.425781 20.3125 54.691406 20.3125 C 53.960938 20.3125 53.363281 20.910156 53.363281 21.644531 C 53.363281 21.835938 53.40625 22.019531 53.480469 22.1875 L 51.34375 24.148438 C 51.25 24.234375 51.199219 24.355469 51.199219 24.480469 L 51.199219 26.464844 C 51.148438 26.484375 51.101562 26.511719 51.058594 26.546875 L 49.335938 27.875 L 49.335938 21.726562 L 51.253906 19.859375 C 51.425781 19.941406 51.621094 19.988281 51.824219 19.988281 C 52.558594 19.988281 53.15625 19.390625 53.15625 18.660156 C 53.15625 17.925781 52.558594 17.328125 51.824219 17.328125 C 51.09375 17.328125 50.496094 17.925781 50.496094 18.660156 C 50.496094 18.855469 50.539062 19.046875 50.617188 19.214844 L 48.566406 21.214844 C 48.480469 21.296875 48.429688 21.414062 48.429688 21.539062 L 48.429688 28.613281 C 48.386719 28.679688 48.359375 28.753906 48.347656 28.835938 C 48.332031 28.960938 48.363281 29.089844 48.429688 29.195312 L 48.429688 29.800781 C 47.941406 29.867188 47.460938 30.058594 47.042969 30.382812 L 46.566406 30.746094 L 46.566406 18.210938 C 47.078125 18.023438 47.445312 17.535156 47.445312 16.960938 C 47.445312 16.226562 46.847656 15.628906 46.113281 15.628906 C 45.382812 15.628906 44.785156 16.226562 44.785156 16.960938 C 44.785156 17.535156 45.152344 18.023438 45.664062 18.210938 L 45.664062 31.445312 L 45.496094 31.574219 L 45.484375 31.582031 C 45.472656 31.558594 45.457031 31.535156 45.4375 31.511719 L 45.296875 31.332031 C 45.101562 31.074219 44.847656 30.875 44.566406 30.742188 L 44.746094 30.601562 C 44.980469 30.417969 45.027344 30.078125 44.84375 29.839844 L 43.800781 28.488281 L 43.800781 21.539062 C 43.800781 21.414062 43.75 21.296875 43.664062 21.214844 L 41.609375 19.214844 C 41.6875 19.046875 41.734375 18.855469 41.734375 18.660156 C 41.734375 17.925781 41.136719 17.328125 40.402344 17.328125 C 39.671875 17.328125 39.074219 17.925781 39.074219 18.660156 C 39.074219 19.390625 39.671875 19.988281 40.402344 19.988281 C 40.609375 19.988281 40.800781 19.941406 40.976562 19.859375 L 42.894531 21.726562 L 42.894531 27.316406 C 42.808594 27.214844 42.6875 27.152344 42.554688 27.132812 C 42.410156 27.113281 42.265625 27.152344 42.152344 27.242188 L 41.03125 28.105469 L 41.03125 24.480469 C 41.03125 24.355469 40.980469 24.234375 40.886719 24.148438 L 38.75 22.1875 C 38.824219 22.019531 38.867188 21.835938 38.867188 21.644531 C 38.867188 20.910156 38.269531 20.3125 37.535156 20.3125 C 36.804688 20.3125 36.207031 20.910156 36.207031 21.644531 C 36.207031 22.375 36.804688 22.972656 37.535156 22.972656 C 37.746094 22.972656 37.945312 22.921875 38.121094 22.835938 L 40.128906 24.679688 L 40.128906 28.804688 L 38.265625 30.242188 L 38.265625 27.484375 C 38.265625 27.355469 38.210938 27.234375 38.117188 27.148438 L 35.925781 25.15625 C 35.964844 25.03125 35.988281 24.898438 35.988281 24.761719 C 35.988281 24.027344 35.390625 23.433594 34.660156 23.433594 C 33.925781 23.433594 33.328125 24.027344 33.328125 24.761719 C 33.328125 25.496094 33.925781 26.089844 34.660156 26.089844 C 34.921875 26.089844 35.171875 26.011719 35.378906 25.878906 L 37.359375 27.683594 L 37.359375 30.941406 L 34.316406 33.289062 C 34.203125 33.375 34.128906 33.503906 34.109375 33.648438 C 34.089844 33.792969 34.128906 33.933594 34.21875 34.050781 L 36.148438 36.550781 C 36.257812 36.691406 36.421875 36.765625 36.589844 36.761719 C 36.699219 36.757812 36.8125 36.722656 36.910156 36.648438 L 37.28125 36.363281 C 37.335938 36.671875 37.46875 36.964844 37.664062 37.21875 L 37.832031 37.4375 C 37.839844 37.449219 37.847656 37.457031 37.859375 37.46875 C 37.21875 38.003906 37.109375 38.957031 37.625 39.621094 L 37.675781 39.691406 C 37.851562 39.917969 38.078125 40.085938 38.335938 40.1875 C 38.316406 40.253906 38.304688 40.324219 38.296875 40.394531 C 38.242188 40.808594 38.351562 41.21875 38.609375 41.546875 L 38.660156 41.617188 C 38.875 41.894531 39.164062 42.085938 39.496094 42.171875 C 39.449219 42.582031 39.558594 42.980469 39.8125 43.304688 L 39.863281 43.375 C 40.179688 43.785156 40.65625 43.992188 41.132812 43.984375 C 41.160156 43.984375 41.1875 43.980469 41.210938 43.980469 C 41.253906 44.226562 41.355469 44.460938 41.515625 44.664062 L 41.570312 44.734375 C 41.882812 45.140625 42.359375 45.351562 42.835938 45.339844 C 43.140625 45.335938 43.445312 45.242188 43.710938 45.054688 L 44.730469 46.375 C 45.019531 46.746094 45.460938 46.933594 45.921875 46.925781 C 46.265625 46.917969 46.617188 46.800781 46.917969 46.570312 C 47.160156 46.382812 47.335938 46.144531 47.445312 45.886719 C 47.53125 45.910156 47.617188 45.921875 47.707031 45.929688 C 47.753906 45.929688 47.800781 45.933594 47.847656 45.933594 C 48.203125 45.925781 48.550781 45.800781 48.84375 45.574219 C 49.082031 45.390625 49.261719 45.15625 49.375 44.894531 C 49.46875 44.917969 49.5625 44.933594 49.664062 44.941406 C 49.710938 44.945312 49.757812 44.945312 49.804688 44.945312 C 50.15625 44.9375 50.507812 44.8125 50.796875 44.585938 C 51.378906 44.140625 51.589844 43.398438 51.363281 42.789062 C 51.550781 42.730469 51.730469 42.636719 51.894531 42.511719 C 52.597656 41.96875 52.757812 40.996094 52.257812 40.347656 L 51.34375 39.164062 L 53.285156 37.667969 C 53.664062 37.375 53.941406 36.984375 54.09375 36.539062 L 54.503906 37.070312 C 54.613281 37.214844 54.777344 37.285156 54.945312 37.28125 C 55.058594 37.28125 55.167969 37.242188 55.265625 37.167969 L 57.765625 35.242188 C 57.878906 35.152344 57.953125 35.023438 57.972656 34.878906 C 57.992188 34.738281 57.953125 34.59375 57.863281 34.480469 L 54.867188 30.597656 L 54.867188 27.683594 Z M 57.570312 24.335938 C 57.804688 24.335938 57.996094 24.527344 57.996094 24.761719 C 57.996094 24.996094 57.804688 25.1875 57.570312 25.1875 C 57.335938 25.1875 57.144531 24.996094 57.144531 24.761719 C 57.144531 24.527344 57.335938 24.335938 57.570312 24.335938 Z M 54.691406 21.21875 C 54.925781 21.21875 55.117188 21.410156 55.117188 21.644531 C 55.117188 21.878906 54.925781 22.066406 54.691406 22.066406 C 54.457031 22.066406 54.265625 21.878906 54.265625 21.644531 C 54.265625 21.410156 54.457031 21.21875 54.691406 21.21875 Z M 51.824219 18.234375 C 52.058594 18.234375 52.25 18.425781 52.25 18.660156 C 52.25 18.894531 52.0625 19.085938 51.824219 19.085938 C 51.589844 19.085938 51.402344 18.894531 51.402344 18.660156 C 51.402344 18.425781 51.589844 18.234375 51.824219 18.234375 Z M 39.976562 18.660156 C 39.976562 18.425781 40.167969 18.234375 40.402344 18.234375 C 40.636719 18.234375 40.828125 18.425781 40.828125 18.660156 C 40.828125 18.894531 40.636719 19.085938 40.402344 19.085938 C 40.167969 19.085938 39.976562 18.894531 39.976562 18.660156 Z M 37.535156 22.066406 C 37.300781 22.066406 37.109375 21.878906 37.109375 21.644531 C 37.109375 21.410156 37.300781 21.21875 37.535156 21.21875 C 37.769531 21.21875 37.960938 21.410156 37.960938 21.644531 C 37.960938 21.878906 37.769531 22.066406 37.535156 22.066406 Z M 34.660156 25.1875 C 34.425781 25.1875 34.234375 24.996094 34.234375 24.761719 C 34.234375 24.527344 34.421875 24.335938 34.660156 24.335938 C 34.894531 24.335938 35.082031 24.527344 35.082031 24.761719 C 35.082031 24.996094 34.894531 25.1875 34.660156 25.1875 Z M 46.113281 16.535156 C 46.347656 16.535156 46.539062 16.726562 46.539062 16.960938 C 46.539062 17.195312 46.347656 17.386719 46.113281 17.386719 C 45.878906 17.386719 45.6875 17.195312 45.6875 16.960938 C 45.6875 16.726562 45.878906 16.535156 46.113281 16.535156 Z M 36.675781 35.457031 L 35.410156 33.816406 L 42.386719 28.433594 L 43.652344 30.074219 Z M 38.851562 39.210938 C 38.726562 39.191406 38.613281 39.128906 38.539062 39.027344 L 38.484375 38.957031 C 38.324219 38.75 38.363281 38.449219 38.570312 38.289062 L 40.414062 36.867188 C 40.496094 36.804688 40.59375 36.769531 40.695312 36.769531 C 40.839844 36.765625 40.984375 36.828125 41.082031 36.953125 L 41.132812 37.023438 C 41.210938 37.125 41.246094 37.25 41.230469 37.375 C 41.214844 37.5 41.148438 37.613281 41.046875 37.691406 L 40.734375 37.933594 L 39.203125 39.113281 C 39.105469 39.191406 38.980469 39.226562 38.851562 39.210938 Z M 39.835938 41.136719 C 39.710938 41.121094 39.597656 41.054688 39.523438 40.953125 L 39.46875 40.882812 C 39.390625 40.785156 39.355469 40.660156 39.371094 40.53125 C 39.386719 40.40625 39.453125 40.292969 39.554688 40.214844 L 40.667969 39.359375 L 41.398438 38.792969 C 41.480469 38.730469 41.578125 38.699219 41.679688 38.695312 C 41.824219 38.691406 41.96875 38.757812 42.066406 38.878906 L 42.117188 38.949219 C 42.195312 39.050781 42.230469 39.175781 42.214844 39.300781 C 42.199219 39.429688 42.132812 39.542969 42.03125 39.617188 L 41.011719 40.40625 L 40.1875 41.039062 C 40.089844 41.117188 39.964844 41.152344 39.835938 41.136719 Z M 41.652344 42.601562 L 41.390625 42.800781 C 41.183594 42.960938 40.882812 42.921875 40.722656 42.714844 L 40.671875 42.644531 C 40.59375 42.542969 40.558594 42.417969 40.574219 42.292969 C 40.589844 42.164062 40.65625 42.054688 40.757812 41.976562 L 42.597656 40.554688 C 42.808594 40.394531 43.105469 40.429688 43.265625 40.640625 L 43.320312 40.710938 C 43.460938 40.886719 43.449219 41.136719 43.3125 41.304688 L 41.796875 42.472656 C 41.746094 42.511719 41.695312 42.554688 41.652344 42.601562 Z M 43.476562 43.863281 L 43.097656 44.15625 C 42.886719 44.316406 42.589844 44.277344 42.429688 44.070312 L 42.375 44 C 42.296875 43.898438 42.261719 43.773438 42.277344 43.648438 C 42.289062 43.558594 42.328125 43.472656 42.382812 43.40625 L 43.898438 42.238281 C 43.949219 42.199219 44 42.15625 44.042969 42.109375 L 44.304688 41.910156 C 44.386719 41.847656 44.484375 41.8125 44.585938 41.8125 C 44.609375 41.808594 44.632812 41.8125 44.65625 41.816406 C 44.78125 41.832031 44.894531 41.894531 44.972656 41.996094 L 45.027344 42.066406 C 45.1875 42.273438 45.148438 42.574219 44.9375 42.734375 Z M 46.253906 45.710938 C 46.027344 45.882812 45.722656 45.882812 45.589844 45.710938 L 44.570312 44.390625 L 45.398438 43.75 L 46.425781 45.078125 C 46.550781 45.253906 46.472656 45.539062 46.253906 45.710938 Z M 51.398438 41.011719 C 51.53125 41.183594 51.453125 41.476562 51.230469 41.652344 C 51.003906 41.824219 50.699219 41.824219 50.566406 41.652344 L 48.632812 39.144531 C 48.613281 39.117188 48.585938 39.089844 48.558594 39.066406 C 48.421875 38.949219 48.238281 38.90625 48.066406 38.953125 C 47.996094 38.96875 47.933594 39 47.871094 39.046875 C 47.828125 39.082031 47.789062 39.125 47.757812 39.167969 C 47.648438 39.328125 47.628906 39.539062 47.714844 39.714844 C 47.730469 39.75 47.75 39.78125 47.773438 39.808594 L 49.707031 42.3125 C 49.707031 42.3125 49.707031 42.316406 49.707031 42.316406 L 50.304688 43.085938 C 50.4375 43.257812 50.359375 43.554688 50.136719 43.726562 C 50.015625 43.820312 49.871094 43.867188 49.738281 43.855469 C 49.671875 43.851562 49.550781 43.828125 49.472656 43.726562 C 49.472656 43.726562 49.46875 43.722656 49.46875 43.722656 L 48.554688 42.5625 L 47.167969 40.769531 C 46.988281 40.53125 46.644531 40.488281 46.40625 40.671875 C 46.40625 40.671875 46.402344 40.675781 46.398438 40.675781 C 46.394531 40.679688 46.390625 40.683594 46.382812 40.6875 C 46.148438 40.875 46.109375 41.214844 46.292969 41.449219 L 47.699219 43.230469 L 48.347656 44.074219 C 48.429688 44.175781 48.417969 44.300781 48.40625 44.363281 C 48.382812 44.496094 48.300781 44.625 48.179688 44.714844 C 48.0625 44.804688 47.917969 44.855469 47.78125 44.84375 C 47.71875 44.839844 47.597656 44.816406 47.519531 44.714844 L 47.292969 44.425781 C 47.289062 44.417969 47.285156 44.414062 47.28125 44.40625 L 46.113281 42.898438 C 46.292969 42.410156 46.226562 41.84375 45.886719 41.402344 L 45.832031 41.332031 C 45.574219 41.003906 45.207031 40.789062 44.792969 40.738281 C 44.6875 40.722656 44.585938 40.722656 44.480469 40.726562 C 44.441406 40.488281 44.339844 40.253906 44.179688 40.046875 L 44.125 39.976562 C 43.910156 39.695312 43.613281 39.507812 43.292969 39.421875 C 43.339844 39.015625 43.230469 38.613281 42.976562 38.289062 L 42.925781 38.21875 C 42.746094 37.988281 42.519531 37.820312 42.265625 37.722656 C 42.285156 37.652344 42.296875 37.585938 42.304688 37.515625 C 42.359375 37.101562 42.25 36.691406 41.992188 36.359375 L 41.941406 36.289062 C 41.414062 35.609375 40.429688 35.480469 39.75 36.007812 L 38.714844 36.804688 C 38.707031 36.792969 38.699219 36.785156 38.691406 36.773438 L 38.523438 36.558594 C 38.375 36.363281 38.308594 36.125 38.339844 35.882812 C 38.371094 35.636719 38.496094 35.421875 38.6875 35.273438 L 43.15625 31.828125 C 43.347656 31.679688 43.589844 31.613281 43.832031 31.644531 C 44.074219 31.675781 44.289062 31.800781 44.4375 31.992188 L 44.578125 32.175781 C 44.597656 32.199219 44.613281 32.21875 44.632812 32.238281 L 43.039062 33.46875 C 42.6875 33.742188 42.460938 34.136719 42.402344 34.578125 C 42.34375 35.023438 42.464844 35.460938 42.738281 35.816406 C 43.074219 36.253906 43.585938 36.476562 44.097656 36.46875 C 44.445312 36.460938 44.792969 36.347656 45.085938 36.121094 L 46.675781 34.894531 Z M 53.128906 35.925781 C 53.082031 36.277344 52.902344 36.589844 52.621094 36.808594 L 50.679688 38.304688 L 47.535156 34.230469 L 47.542969 34.226562 C 47.777344 34.042969 47.824219 33.703125 47.640625 33.464844 C 47.457031 33.226562 47.117188 33.183594 46.878906 33.367188 L 44.425781 35.261719 C 44.300781 35.355469 44.144531 35.398438 43.988281 35.378906 C 43.832031 35.359375 43.695312 35.277344 43.597656 35.152344 C 43.5 35.03125 43.460938 34.875 43.480469 34.71875 C 43.5 34.5625 43.578125 34.421875 43.703125 34.328125 L 46.15625 32.433594 L 46.472656 32.191406 L 46.566406 32.191406 L 46.566406 32.117188 L 47.707031 31.242188 C 48.5 30.628906 49.644531 30.773438 50.257812 31.570312 L 51.183594 32.769531 L 52.859375 34.941406 C 53.078125 35.222656 53.171875 35.570312 53.128906 35.925781 Z M 55.03125 35.976562 L 51.28125 31.117188 L 51.117188 30.90625 L 49.648438 29.003906 L 51.199219 27.808594 L 51.199219 27.988281 L 51.484375 27.988281 L 56.671875 34.710938 Z M 55.03125 35.976562 " fill-opacity="1" fill-rule="nonzero"/></g><path fill="#24285b" d="M 46.578125 50.691406 C 45.835938 50.558594 45.085938 50.722656 44.464844 51.15625 C 43.847656 51.585938 43.433594 52.234375 43.300781 52.976562 C 43.167969 53.71875 43.332031 54.46875 43.765625 55.085938 C 44.195312 55.707031 44.84375 56.121094 45.585938 56.253906 C 45.753906 56.28125 45.921875 56.296875 46.085938 56.296875 C 46.660156 56.296875 47.21875 56.121094 47.695312 55.789062 C 48.316406 55.359375 48.730469 54.710938 48.863281 53.96875 C 48.992188 53.226562 48.828125 52.476562 48.398438 51.855469 C 47.96875 51.238281 47.320312 50.824219 46.578125 50.691406 Z M 47.972656 53.808594 C 47.882812 54.3125 47.601562 54.753906 47.179688 55.046875 C 46.757812 55.339844 46.25 55.453125 45.742188 55.363281 C 45.238281 55.273438 44.800781 54.992188 44.503906 54.570312 C 44.210938 54.148438 44.101562 53.640625 44.191406 53.132812 C 44.28125 52.628906 44.5625 52.191406 44.984375 51.894531 C 45.308594 51.667969 45.6875 51.550781 46.078125 51.550781 C 46.191406 51.550781 46.304688 51.5625 46.417969 51.582031 C 46.921875 51.671875 47.363281 51.953125 47.65625 52.375 C 47.949219 52.792969 48.0625 53.304688 47.972656 53.808594 Z M 47.972656 53.808594 " fill-opacity="1" fill-rule="nonzero"/><g clip-path="url(#2b940a65e0)"><path fill="#24285b" d="M 51.6875 52.601562 L 50.949219 52.382812 L 50.832031 51.941406 L 51.363281 51.382812 C 51.507812 51.234375 51.53125 51.011719 51.425781 50.835938 L 50.859375 49.90625 C 50.753906 49.730469 50.542969 49.648438 50.347656 49.707031 L 49.605469 49.921875 L 49.269531 49.613281 L 49.414062 48.855469 C 49.453125 48.65625 49.355469 48.453125 49.171875 48.363281 L 48.191406 47.886719 C 48.007812 47.796875 47.789062 47.839844 47.652344 47.996094 L 47.144531 48.574219 L 46.695312 48.5 L 46.410156 47.785156 C 46.332031 47.59375 46.140625 47.480469 45.9375 47.503906 L 44.855469 47.628906 C 44.652344 47.652344 44.492188 47.808594 44.460938 48.011719 L 44.347656 48.777344 L 43.929688 48.953125 L 43.300781 48.507812 C 43.132812 48.386719 42.910156 48.394531 42.75 48.527344 L 41.910156 49.21875 C 41.753906 49.347656 41.703125 49.566406 41.785156 49.753906 L 42.101562 50.457031 L 41.847656 50.832031 L 41.078125 50.796875 C 40.871094 50.785156 40.6875 50.914062 40.625 51.109375 L 40.292969 52.144531 C 40.230469 52.339844 40.304688 52.550781 40.476562 52.664062 L 41.121094 53.082031 L 41.109375 53.539062 L 40.441406 53.925781 C 40.265625 54.027344 40.179688 54.234375 40.230469 54.429688 L 40.511719 55.484375 C 40.5625 55.679688 40.742188 55.816406 40.945312 55.820312 L 41.71875 55.824219 L 41.953125 56.210938 L 41.601562 56.898438 C 41.507812 57.078125 41.546875 57.300781 41.699219 57.4375 L 42.5 58.171875 C 42.652344 58.308594 42.878906 58.328125 43.050781 58.21875 L 43.699219 57.804688 L 44.109375 58.003906 L 44.183594 58.773438 C 44.203125 58.976562 44.355469 59.140625 44.558594 59.175781 L 45.628906 59.359375 C 45.65625 59.363281 45.679688 59.367188 45.707031 59.367188 C 45.878906 59.367188 46.042969 59.265625 46.117188 59.101562 L 46.441406 58.402344 L 46.890625 58.347656 L 47.371094 58.957031 C 47.496094 59.117188 47.714844 59.171875 47.902344 59.09375 L 48.902344 58.664062 C 49.089844 58.585938 49.203125 58.390625 49.175781 58.1875 L 49.066406 57.421875 L 49.417969 57.132812 L 50.148438 57.386719 C 50.339844 57.453125 50.554688 57.382812 50.671875 57.214844 L 51.28125 56.3125 C 51.398438 56.144531 51.382812 55.917969 51.25 55.765625 L 50.75 55.179688 L 50.886719 54.746094 L 51.636719 54.5625 C 51.835938 54.515625 51.976562 54.339844 51.984375 54.136719 L 52.011719 53.046875 C 52.015625 52.84375 51.886719 52.660156 51.6875 52.601562 Z M 51.089844 53.765625 L 50.429688 53.925781 C 50.277344 53.964844 50.152344 54.078125 50.105469 54.226562 L 49.8125 55.140625 C 49.761719 55.292969 49.796875 55.457031 49.898438 55.574219 L 50.339844 56.089844 L 50.117188 56.417969 L 49.476562 56.195312 C 49.328125 56.144531 49.164062 56.175781 49.039062 56.273438 L 48.296875 56.886719 C 48.175781 56.984375 48.117188 57.140625 48.136719 57.296875 L 48.230469 57.96875 L 47.867188 58.125 L 47.445312 57.589844 C 47.347656 57.46875 47.195312 57.402344 47.039062 57.421875 L 46.082031 57.535156 C 45.925781 57.550781 45.792969 57.648438 45.726562 57.792969 L 45.441406 58.410156 L 45.050781 58.34375 L 44.984375 57.667969 C 44.96875 57.511719 44.875 57.371094 44.734375 57.304688 L 43.871094 56.882812 C 43.730469 56.8125 43.5625 56.824219 43.429688 56.90625 L 42.855469 57.269531 L 42.5625 57.003906 L 42.875 56.398438 C 42.945312 56.261719 42.941406 56.09375 42.859375 55.957031 L 42.359375 55.136719 C 42.277344 55.003906 42.132812 54.921875 41.976562 54.917969 L 41.296875 54.917969 L 41.195312 54.53125 L 41.78125 54.191406 C 41.917969 54.113281 42.003906 53.96875 42.007812 53.8125 L 42.03125 52.851562 C 42.039062 52.695312 41.960938 52.546875 41.828125 52.460938 L 41.257812 52.09375 L 41.378906 51.714844 L 42.058594 51.746094 C 42.214844 51.753906 42.363281 51.679688 42.453125 51.550781 L 42.992188 50.753906 C 43.082031 50.625 43.097656 50.457031 43.03125 50.3125 L 42.753906 49.695312 L 43.058594 49.441406 L 43.613281 49.835938 C 43.738281 49.929688 43.90625 49.945312 44.050781 49.882812 L 44.933594 49.507812 C 45.082031 49.445312 45.183594 49.3125 45.207031 49.160156 L 45.304688 48.488281 L 45.699219 48.441406 L 45.953125 49.070312 C 46.011719 49.214844 46.140625 49.320312 46.296875 49.347656 L 47.242188 49.507812 C 47.398438 49.535156 47.554688 49.480469 47.660156 49.363281 L 48.105469 48.851562 L 48.460938 49.023438 L 48.335938 49.691406 C 48.304688 49.84375 48.359375 50.003906 48.472656 50.109375 L 49.183594 50.757812 C 49.300781 50.863281 49.460938 50.902344 49.613281 50.859375 L 50.265625 50.671875 L 50.472656 51.011719 L 50.003906 51.5 C 49.894531 51.617188 49.851562 51.777344 49.894531 51.929688 L 50.140625 52.859375 C 50.179688 53.011719 50.296875 53.128906 50.449219 53.175781 L 51.097656 53.371094 Z M 51.089844 53.765625 " fill-opacity="1" fill-rule="nonzero"/></g><g fill="#24285b" fill-opacity="1"><g transform="translate(61.38624, 32.670578)"><g><path d="M 2.246094 -1.359375 L 2.246094 -6.804688 L 0.777344 -6.804688 L 0.777344 0 L 4.863281 0 L 4.863281 -1.359375 Z M 2.246094 -1.359375 "/></g></g></g><g fill="#24285b" fill-opacity="1"><g transform="translate(68.523075, 32.670578)"><g><path d="M 5.777344 -2.636719 C 5.777344 -4.152344 4.667969 -5.398438 3.054688 -5.398438 C 1.496094 -5.398438 0.332031 -4.199219 0.332031 -2.625 C 0.332031 -1.050781 1.507812 0.15625 3.054688 0.15625 C 4.277344 0.15625 5.28125 -0.574219 5.660156 -1.722656 L 4.171875 -1.722656 C 3.957031 -1.34375 3.550781 -1.109375 3.054688 -1.109375 C 2.363281 -1.109375 1.894531 -1.507812 1.769531 -2.226562 L 5.746094 -2.226562 C 5.765625 -2.363281 5.777344 -2.5 5.777344 -2.636719 Z M 3.054688 -4.179688 C 3.695312 -4.179688 4.152344 -3.832031 4.355469 -3.1875 L 1.808594 -3.1875 C 1.972656 -3.8125 2.421875 -4.179688 3.054688 -4.179688 Z M 3.054688 -4.179688 "/></g></g></g><g fill="#24285b" fill-opacity="1"><g transform="translate(76.690379, 32.670578)"><g><path d="M 3.121094 0.15625 C 4.492188 0.15625 5.570312 -0.738281 5.816406 -2.0625 L 4.386719 -2.0625 C 4.140625 -1.496094 3.695312 -1.1875 3.121094 -1.1875 C 2.363281 -1.1875 1.769531 -1.816406 1.769531 -2.625 C 1.769531 -3.441406 2.351562 -4.066406 3.121094 -4.066406 C 3.683594 -4.066406 4.160156 -3.753906 4.386719 -3.238281 L 5.796875 -3.238281 C 5.542969 -4.53125 4.492188 -5.398438 3.132812 -5.398438 C 1.535156 -5.398438 0.332031 -4.210938 0.332031 -2.636719 C 0.332031 -1.058594 1.535156 0.15625 3.121094 0.15625 Z M 3.121094 0.15625 "/></g></g></g><g fill="#24285b" fill-opacity="1"><g transform="translate(84.82852, 32.670578)"><g><path d="M 0.679688 0 L 2.101562 0 L 2.101562 -7.136719 L 0.679688 -7.136719 Z M 0.679688 0 "/></g></g></g><g fill="#24285b" fill-opacity="1"><g transform="translate(89.671096, 32.670578)"><g><path d="M 4.960938 -5.25 L 4.8125 -4.753906 C 4.355469 -5.152344 3.761719 -5.398438 3.082031 -5.398438 C 1.507812 -5.398438 0.332031 -4.210938 0.332031 -2.625 C 0.332031 -1.039062 1.507812 0.15625 3.082031 0.15625 C 3.753906 0.15625 4.335938 -0.078125 4.785156 -0.476562 L 4.910156 0 L 6.019531 0 L 6.019531 -5.25 Z M 3.199219 -1.1875 C 2.371094 -1.1875 1.769531 -1.808594 1.769531 -2.625 C 1.769531 -3.453125 2.371094 -4.066406 3.199219 -4.066406 C 4.027344 -4.066406 4.628906 -3.453125 4.628906 -2.625 C 4.628906 -1.800781 4.027344 -1.1875 3.199219 -1.1875 Z M 3.199219 -1.1875 "/></g></g></g><g fill="#24285b" fill-opacity="1"><g transform="translate(98.44113, 32.670578)"><g><path d="M 0.679688 -5.949219 L 2.089844 -5.949219 L 2.089844 -7.261719 L 0.679688 -7.261719 Z M 0.679688 0 L 2.101562 0 L 2.101562 -5.25 L 0.679688 -5.25 Z M 0.679688 0 "/></g></g></g><g fill="#24285b" fill-opacity="1"><g transform="translate(103.283706, 32.670578)"><g><path d="M 3.363281 -5.28125 C 2.683594 -5.28125 2.21875 -5.066406 1.835938 -4.597656 L 1.585938 -5.25 L 0.679688 -5.25 L 0.679688 0 L 2.101562 0 L 2.101562 -2.722656 C 2.101562 -3.578125 2.410156 -3.9375 3.207031 -3.9375 L 3.832031 -3.9375 L 3.832031 -5.28125 Z M 3.363281 -5.28125 "/></g></g></g><g fill="#24285b" fill-opacity="1"><g transform="translate(109.302577, 32.670578)"><g/></g></g><g fill="#24285b" fill-opacity="1"><g transform="translate(113.688251, 32.670578)"><g><path d="M 4.84375 -5.4375 L 4.84375 -6.804688 L 0.777344 -6.804688 L 0.777344 0 L 2.246094 0 L 2.246094 -2.605469 L 4.589844 -2.605469 L 4.589844 -3.9375 L 2.246094 -3.9375 L 2.246094 -5.4375 Z M 4.84375 -5.4375 "/></g></g></g><g fill="#24285b" fill-opacity="1"><g transform="translate(120.951464, 32.670578)"><g><path d="M 3.171875 0.15625 C 4.792969 0.15625 6.007812 -1.039062 6.007812 -2.625 C 6.007812 -4.210938 4.792969 -5.398438 3.171875 -5.398438 C 1.546875 -5.398438 0.332031 -4.210938 0.332031 -2.625 C 0.332031 -1.039062 1.546875 0.15625 3.171875 0.15625 Z M 3.171875 -1.1875 C 2.351562 -1.1875 1.769531 -1.769531 1.769531 -2.625 C 1.769531 -3.472656 2.351562 -4.066406 3.171875 -4.066406 C 3.988281 -4.066406 4.570312 -3.472656 4.570312 -2.625 C 4.570312 -1.769531 3.988281 -1.1875 3.171875 -1.1875 Z M 3.171875 -1.1875 "/></g></g></g><g fill="#24285b" fill-opacity="1"><g transform="translate(129.361804, 32.670578)"><g><path d="M 3.074219 0.15625 C 4.558594 0.15625 5.542969 -0.796875 5.542969 -2.21875 L 5.542969 -5.25 L 4.121094 -5.25 L 4.121094 -2.371094 C 4.121094 -1.632812 3.734375 -1.1875 3.074219 -1.1875 C 2.421875 -1.1875 2.023438 -1.625 2.023438 -2.371094 L 2.023438 -5.25 L 0.601562 -5.25 L 0.601562 -2.21875 C 0.601562 -0.796875 1.59375 0.15625 3.074219 0.15625 Z M 3.074219 0.15625 "/></g></g></g><g fill="#24285b" fill-opacity="1"><g transform="translate(137.577712, 32.670578)"><g><path d="M 3.664062 -5.367188 C 2.957031 -5.367188 2.324219 -5.066406 1.925781 -4.597656 L 1.652344 -5.25 L 0.679688 -5.25 L 0.679688 0 L 2.101562 0 L 2.101562 -2.75 C 2.101562 -3.597656 2.546875 -4.121094 3.277344 -4.121094 C 3.890625 -4.121094 4.191406 -3.742188 4.191406 -2.945312 L 4.191406 0 L 5.609375 0 L 5.609375 -3.179688 C 5.609375 -4.511719 4.863281 -5.367188 3.664062 -5.367188 Z M 3.664062 -5.367188 "/></g></g></g><g fill="#24285b" fill-opacity="1"><g transform="translate(145.871395, 32.670578)"><g><path d="M 4.53125 -7.136719 L 4.53125 -4.960938 C 4.121094 -5.242188 3.636719 -5.398438 3.09375 -5.398438 C 1.496094 -5.398438 0.332031 -4.210938 0.332031 -2.617188 C 0.332031 -1.03125 1.496094 0.164062 3.09375 0.164062 C 3.734375 0.164062 4.296875 -0.0585938 4.734375 -0.429688 L 4.902344 0.0078125 L 5.949219 0.0078125 L 5.949219 -7.136719 Z M 3.207031 -1.175781 C 2.382812 -1.175781 1.78125 -1.800781 1.78125 -2.617188 C 1.78125 -3.441406 2.382812 -4.054688 3.207031 -4.054688 C 4.035156 -4.054688 4.636719 -3.441406 4.636719 -2.617188 C 4.636719 -1.800781 4.035156 -1.175781 3.207031 -1.175781 Z M 3.207031 -1.175781 "/></g></g></g><g fill="#24285b" fill-opacity="1"><g transform="translate(154.573375, 32.670578)"><g><path d="M 4.960938 -5.25 L 4.8125 -4.753906 C 4.355469 -5.152344 3.761719 -5.398438 3.082031 -5.398438 C 1.507812 -5.398438 0.332031 -4.210938 0.332031 -2.625 C 0.332031 -1.039062 1.507812 0.15625 3.082031 0.15625 C 3.753906 0.15625 4.335938 -0.078125 4.785156 -0.476562 L 4.910156 0 L 6.019531 0 L 6.019531 -5.25 Z M 3.199219 -1.1875 C 2.371094 -1.1875 1.769531 -1.808594 1.769531 -2.625 C 1.769531 -3.453125 2.371094 -4.066406 3.199219 -4.066406 C 4.027344 -4.066406 4.628906 -3.453125 4.628906 -2.625 C 4.628906 -1.800781 4.027344 -1.1875 3.199219 -1.1875 Z M 3.199219 -1.1875 "/></g></g></g><g fill="#24285b" fill-opacity="1"><g transform="translate(163.343409, 32.670578)"><g><path d="M 3.246094 -1.265625 C 2.722656 -1.265625 2.429688 -1.554688 2.429688 -2.0625 L 2.429688 -4.101562 L 3.859375 -4.101562 L 3.859375 -5.25 L 2.410156 -5.25 L 2.410156 -6.613281 L 2.140625 -6.613281 L 0.0664062 -4.414062 L 0.0664062 -4.101562 L 1.011719 -4.101562 L 1.011719 -1.867188 C 1.011719 -0.710938 1.722656 0 2.878906 0 L 3.890625 0 L 3.890625 -1.265625 Z M 3.246094 -1.265625 "/></g></g></g><g fill="#24285b" fill-opacity="1"><g transform="translate(169.585868, 32.670578)"><g><path d="M 0.679688 -5.949219 L 2.089844 -5.949219 L 2.089844 -7.261719 L 0.679688 -7.261719 Z M 0.679688 0 L 2.101562 0 L 2.101562 -5.25 L 0.679688 -5.25 Z M 0.679688 0 "/></g></g></g><g fill="#24285b" fill-opacity="1"><g transform="translate(174.428444, 32.670578)"><g><path d="M 3.171875 0.15625 C 4.792969 0.15625 6.007812 -1.039062 6.007812 -2.625 C 6.007812 -4.210938 4.792969 -5.398438 3.171875 -5.398438 C 1.546875 -5.398438 0.332031 -4.210938 0.332031 -2.625 C 0.332031 -1.039062 1.546875 0.15625 3.171875 0.15625 Z M 3.171875 -1.1875 C 2.351562 -1.1875 1.769531 -1.769531 1.769531 -2.625 C 1.769531 -3.472656 2.351562 -4.066406 3.171875 -4.066406 C 3.988281 -4.066406 4.570312 -3.472656 4.570312 -2.625 C 4.570312 -1.769531 3.988281 -1.1875 3.171875 -1.1875 Z M 3.171875 -1.1875 "/></g></g></g><g fill="#24285b" fill-opacity="1"><g transform="translate(182.838784, 32.670578)"><g><path d="M 3.664062 -5.367188 C 2.957031 -5.367188 2.324219 -5.066406 1.925781 -4.597656 L 1.652344 -5.25 L 0.679688 -5.25 L 0.679688 0 L 2.101562 0 L 2.101562 -2.75 C 2.101562 -3.597656 2.546875 -4.121094 3.277344 -4.121094 C 3.890625 -4.121094 4.191406 -3.742188 4.191406 -2.945312 L 4.191406 0 L 5.609375 0 L 5.609375 -3.179688 C 5.609375 -4.511719 4.863281 -5.367188 3.664062 -5.367188 Z M 3.664062 -5.367188 "/></g></g></g><g fill="#24285b" fill-opacity="1"><g transform="translate(74.317527, 40.252797)"><g><path d="M 0.453125 -3.21875 L 2.75 -3.21875 L 2.75 -2.75 L 1.84375 -2.75 L 1.84375 0 L 1.375 0 L 1.375 -2.75 L 0.453125 -2.75 Z M 0.453125 -3.21875 "/></g></g></g><g fill="#24285b" fill-opacity="1"><g transform="translate(81.491677, 40.252797)"><g><path d="M 0.453125 -3.21875 L 2.75 -3.21875 L 2.75 -2.75 L 0.921875 -2.75 L 0.921875 -1.84375 L 2.296875 -1.84375 L 2.296875 -1.375 L 0.921875 -1.375 L 0.921875 -0.453125 L 2.75 -0.453125 L 2.75 0 L 0.453125 0 Z M 0.453125 -3.21875 "/></g></g></g><g fill="#24285b" fill-opacity="1"><g transform="translate(88.665827, 40.252797)"><g><path d="M 0.453125 -3.21875 L 2.75 -3.21875 L 2.75 -2.75 L 0.921875 -2.75 L 0.921875 -0.453125 L 2.75 -0.453125 L 2.75 0 L 0.453125 0 Z M 0.453125 -3.21875 "/></g></g></g><g fill="#24285b" fill-opacity="1"><g transform="translate(95.839978, 40.252797)"><g><path d="M 0.453125 -3.21875 L 0.921875 -3.21875 L 0.921875 -1.84375 L 2.296875 -1.84375 L 2.296875 -3.21875 L 2.75 -3.21875 L 2.75 0 L 2.296875 0 L 2.296875 -1.375 L 0.921875 -1.375 L 0.921875 0 L 0.453125 0 Z M 0.453125 -3.21875 "/></g></g></g><g fill="#24285b" fill-opacity="1"><g transform="translate(103.014127, 40.252797)"><g><path d="M 0.453125 -3.21875 L 2.171875 -3.21875 L 2.75 -2.625 L 2.75 0 L 2.296875 0 L 2.296875 -2.421875 L 1.96875 -2.75 L 0.921875 -2.75 L 0.921875 0 L 0.453125 0 Z M 0.453125 -3.21875 "/></g></g></g><g fill="#24285b" fill-opacity="1"><g transform="translate(110.188277, 40.252797)"><g><path d="M 0.453125 -3.21875 L 2.75 -3.21875 L 2.75 0 L 0.453125 0 Z M 0.921875 -2.75 L 0.921875 -0.453125 L 2.296875 -0.453125 L 2.296875 -2.75 Z M 0.921875 -2.75 "/></g></g></g><g fill="#24285b" fill-opacity="1"><g transform="translate(117.362426, 40.252797)"><g><path d="M 0.453125 -3.21875 L 0.921875 -3.21875 L 0.921875 -0.453125 L 2.75 -0.453125 L 2.75 0 L 0.453125 0 Z M 0.453125 -3.21875 "/></g></g></g><g fill="#24285b" fill-opacity="1"><g transform="translate(124.536575, 40.252797)"><g><path d="M 0.453125 -3.21875 L 2.75 -3.21875 L 2.75 0 L 0.453125 0 Z M 0.921875 -2.75 L 0.921875 -0.453125 L 2.296875 -0.453125 L 2.296875 -2.75 Z M 0.921875 -2.75 "/></g></g></g><g fill="#24285b" fill-opacity="1"><g transform="translate(131.710728, 40.252797)"><g><path d="M 0.453125 -3.21875 L 2.75 -3.21875 L 2.75 -2.75 L 0.921875 -2.75 L 0.921875 -0.453125 L 2.296875 -0.453125 L 2.296875 -1.375 L 1.84375 -1.375 L 1.84375 -1.84375 L 2.75 -1.84375 L 2.75 0 L 0.453125 0 Z M 0.453125 -3.21875 "/></g></g></g><g fill="#24285b" fill-opacity="1"><g transform="translate(138.88488, 40.252797)"><g><path d="M 0.453125 -3.21875 L 0.921875 -3.21875 L 0.921875 -2.171875 L 1.25 -1.84375 L 1.96875 -1.84375 L 2.296875 -2.171875 L 2.296875 -3.21875 L 2.75 -3.21875 L 2.75 -1.96875 L 2.171875 -1.375 L 1.84375 -1.375 L 1.84375 0 L 1.375 0 L 1.375 -1.375 L 1.046875 -1.375 L 0.453125 -1.96875 Z M 0.453125 -3.21875 "/></g></g></g><g fill="#24285b" fill-opacity="1"><g transform="translate(146.059032, 40.252797)"><g/></g></g><g fill="#24285b" fill-opacity="1"><g transform="translate(152.77342, 40.252797)"><g><path d="M 0.453125 -3.21875 L 0.921875 -3.21875 L 0.921875 -0.796875 L 1.25 -0.453125 L 1.375 -0.59375 L 1.375 -3.21875 L 1.84375 -3.21875 L 1.84375 -0.59375 L 1.96875 -0.453125 L 2.296875 -0.796875 L 2.296875 -3.21875 L 2.75 -3.21875 L 2.75 -0.59375 L 2.171875 0 L 1.703125 0 L 1.609375 -0.09375 L 1.5 0 L 1.046875 0 L 0.453125 -0.59375 Z M 0.453125 -3.21875 "/></g></g></g><g fill="#24285b" fill-opacity="1"><g transform="translate(159.947573, 40.252797)"><g><path d="M 0.453125 -3.21875 L 1.84375 -3.21875 L 1.84375 -2.75 L 1.375 -2.75 L 1.375 -0.453125 L 1.84375 -0.453125 L 1.84375 0 L 0.453125 0 L 0.453125 -0.453125 L 0.921875 -0.453125 L 0.921875 -2.75 L 0.453125 -2.75 Z M 0.453125 -3.21875 "/></g></g></g><g fill="#24285b" fill-opacity="1"><g transform="translate(166.202197, 40.252797)"><g><path d="M 0.453125 -3.21875 L 2.75 -3.21875 L 2.75 -2.75 L 1.84375 -2.75 L 1.84375 0 L 1.375 0 L 1.375 -2.75 L 0.453125 -2.75 Z M 0.453125 -3.21875 "/></g></g></g><g fill="#24285b" fill-opacity="1"><g transform="translate(173.37635, 40.252797)"><g><path d="M 0.453125 -3.21875 L 0.921875 -3.21875 L 0.921875 -1.84375 L 2.296875 -1.84375 L 2.296875 -3.21875 L 2.75 -3.21875 L 2.75 0 L 2.296875 0 L 2.296875 -1.375 L 0.921875 -1.375 L 0.921875 0 L 0.453125 0 Z M 0.453125 -3.21875 "/></g></g></g><g fill="#24285b" fill-opacity="1"><g transform="translate(95.377289, 47.703917)"><g><path d="M 0.921875 -2.75 L 0.921875 -1.84375 L 2.296875 -1.84375 L 2.296875 -2.75 Z M 0.453125 -3.21875 L 2.75 -3.21875 L 2.75 0 L 2.296875 0 L 2.296875 -1.375 L 0.921875 -1.375 L 0.921875 0 L 0.453125 0 Z M 0.453125 -3.21875 "/></g></g></g><g fill="#24285b" fill-opacity="1"><g transform="translate(102.551439, 47.703917)"><g/></g></g><g fill="#24285b" fill-opacity="1"><g transform="translate(109.265825, 47.703917)"><g><path d="M 0.453125 -3.21875 L 2.75 -3.21875 L 2.75 -1.375 L 0.921875 -1.375 L 0.921875 0 L 0.453125 0 Z M 0.921875 -2.75 L 0.921875 -1.84375 L 2.296875 -1.84375 L 2.296875 -2.75 Z M 0.921875 -2.75 "/></g></g></g><g fill="#24285b" fill-opacity="1"><g transform="translate(116.439976, 47.703917)"><g><path d="M 0.453125 -3.21875 L 0.921875 -3.21875 L 0.921875 -0.796875 L 1.25 -0.453125 L 1.96875 -0.453125 L 2.296875 -0.796875 L 2.296875 -3.21875 L 2.75 -3.21875 L 2.75 -0.59375 L 2.171875 0 L 1.046875 0 L 0.453125 -0.59375 Z M 0.453125 -3.21875 "/></g></g></g><g fill="#24285b" fill-opacity="1"><g transform="translate(123.614126, 47.703917)"><g><path d="M 0.453125 -3.21875 L 2.53125 -3.21875 L 2.75 -2.984375 L 2.75 -1.984375 L 2.375 -1.609375 L 2.75 -1.234375 L 2.75 0 L 2.296875 0 L 2.296875 -1.0625 L 1.984375 -1.375 L 0.921875 -1.375 L 0.921875 0 L 0.453125 0 Z M 0.921875 -2.75 L 0.921875 -1.84375 L 1.96875 -1.84375 L 2.296875 -2.171875 L 2.296875 -2.75 Z M 0.921875 -2.75 "/></g></g></g><g fill="#24285b" fill-opacity="1"><g transform="translate(130.788275, 47.703917)"><g><path d="M 0.453125 -3.21875 L 2.75 -3.21875 L 2.75 -1.375 L 0.921875 -1.375 L 0.921875 0 L 0.453125 0 Z M 0.921875 -2.75 L 0.921875 -1.84375 L 2.296875 -1.84375 L 2.296875 -2.75 Z M 0.921875 -2.75 "/></g></g></g><g fill="#24285b" fill-opacity="1"><g transform="translate(137.962424, 47.703917)"><g><path d="M 0.453125 -3.21875 L 2.75 -3.21875 L 2.75 0 L 0.453125 0 Z M 0.921875 -2.75 L 0.921875 -0.453125 L 2.296875 -0.453125 L 2.296875 -2.75 Z M 0.921875 -2.75 "/></g></g></g><g fill="#24285b" fill-opacity="1"><g transform="translate(145.136574, 47.703917)"><g><path d="M 0.453125 -3.21875 L 2.75 -3.21875 L 2.75 -2.75 L 0.921875 -2.75 L 0.921875 -1.84375 L 2.75 -1.84375 L 2.75 0 L 0.453125 0 L 0.453125 -0.453125 L 2.296875 -0.453125 L 2.296875 -1.375 L 0.453125 -1.375 Z M 0.453125 -3.21875 "/></g></g></g><g fill="#24285b" fill-opacity="1"><g transform="translate(152.310726, 47.703917)"><g><path d="M 0.453125 -3.21875 L 2.75 -3.21875 L 2.75 -2.75 L 0.921875 -2.75 L 0.921875 -1.84375 L 2.296875 -1.84375 L 2.296875 -1.375 L 0.921875 -1.375 L 0.921875 -0.453125 L 2.75 -0.453125 L 2.75 0 L 0.453125 0 Z M 0.453125 -3.21875 "/></g></g></g></svg>